<?xml version="1.0" encoding="UTF-8"?>
<svg xmlns="http://www.w3.org/2000/svg" xmlns:xlink="http://www.w3.org/1999/xlink" width="600pt" height="600pt" viewBox="0 0 600 600" version="1.1">
<g id="surface86">
<rect x="0" y="0" width="600" height="600" style="fill:rgb(100%,100%,100%);fill-opacity:1;stroke:none;"/>
<path style="fill-rule:nonzero;fill:rgb(100%,0%,0%);fill-opacity:0.25;stroke-width:2;stroke-linecap:butt;stroke-linejoin:miter;stroke:rgb(100%,0%,0%);stroke-opacity:1;stroke-miterlimit:10;" d="M 307.726562 44.585938 L 225.320312 6.863281 C 213.953125 1.660156 190.289062 -1.308594 177.988281 0.925781 L 23.445312 28.984375 C 11.144531 31.21875 5.09375 44.277344 11.34375 55.101562 L 81.359375 176.382812 C 87.609375 187.207031 102.398438 207.160156 110.9375 216.292969 L 341.285156 462.566406 C 349.824219 471.695312 369.503906 475.160156 380.648438 469.496094 L 477.832031 420.097656 C 488.976562 414.433594 497.203125 396.613281 494.289062 384.457031 L 475.910156 307.859375 C 472.996094 295.703125 463.5625 272.882812 457.046875 262.214844 L 343.492188 76.328125 C 336.976562 65.660156 319.09375 49.789062 307.726562 44.585938 "/>
<path style="fill-rule:nonzero;fill:rgb(50.196078%,50.196078%,50.196078%);fill-opacity:0.25;stroke-width:2;stroke-linecap:butt;stroke-linejoin:miter;stroke:rgb(50.196078%,50.196078%,50.196078%);stroke-opacity:1;stroke-miterlimit:10;" d="M 367.28125 580.765625 L 528.066406 490.398438 C 538.960938 484.273438 537.617188 480.6875 525.378906 483.226562 L 484.492188 491.699219 C 472.25 494.238281 450.441406 504.816406 440.871094 512.855469 L 364.628906 576.929688 C 355.058594 584.972656 356.386719 586.890625 367.28125 580.765625 "/>
<path style="fill-rule:nonzero;fill:rgb(50%,0%,0%);fill-opacity:0.25;stroke-width:2;stroke-linecap:butt;stroke-linejoin:miter;stroke:rgb(50%,0%,0%);stroke-opacity:1;stroke-miterlimit:10;" d="M 401.167969 491.839844 C 401.140625 500.679688 394.847656 515.75 388.578125 521.984375 L 344.007812 566.300781 C 337.738281 572.53125 322.632812 578.738281 313.792969 578.714844 C 304.953125 578.6875 296.140625 569.824219 296.167969 560.984375 C 296.191406 552.144531 302.484375 537.074219 308.753906 530.84375 L 353.324219 486.527344 C 359.59375 480.292969 374.699219 474.085938 383.539062 474.113281 C 392.378906 474.136719 401.191406 483.003906 401.167969 491.839844 "/>
<path style="fill:none;stroke-width:1;stroke-linecap:butt;stroke-linejoin:miter;stroke:rgb(20%,20%,20%);stroke-opacity:1;stroke-miterlimit:10;" d="M 251.769531 194.542969 L 305.308594 195.683594 "/>
<path style=" stroke:none;fill-rule:nonzero;fill:rgb(20%,20%,20%);fill-opacity:1;" d="M 319.570312 195.988281 L 305.207031 200.320312 L 305.40625 191.050781 L 319.570312 195.988281 "/>
<path style="fill:none;stroke-width:1;stroke-linecap:butt;stroke-linejoin:miter;stroke:rgb(20%,20%,20%);stroke-opacity:1;stroke-miterlimit:10;" d="M 251.769531 194.542969 L 326.46875 311.75 "/>
<path style=" stroke:none;fill-rule:nonzero;fill:rgb(20%,20%,20%);fill-opacity:1;" d="M 334.136719 323.78125 L 322.5625 314.242188 L 330.378906 309.257812 L 334.136719 323.78125 "/>
<path style="fill:none;stroke-width:1;stroke-linecap:butt;stroke-linejoin:miter;stroke:rgb(20%,20%,20%);stroke-opacity:1;stroke-miterlimit:10;" d="M 251.769531 194.542969 L 261.578125 208.988281 "/>
<path style=" stroke:none;fill-rule:nonzero;fill:rgb(20%,20%,20%);fill-opacity:1;" d="M 269.589844 220.792969 L 257.742188 211.59375 L 265.410156 206.386719 L 269.589844 220.792969 "/>
<path style="fill:none;stroke-width:1;stroke-linecap:butt;stroke-linejoin:miter;stroke:rgb(20%,20%,20%);stroke-opacity:1;stroke-miterlimit:10;" d="M 251.769531 194.542969 L 162.746094 151.566406 "/>
<path style=" stroke:none;fill-rule:nonzero;fill:rgb(20%,20%,20%);fill-opacity:1;" d="M 149.898438 145.363281 L 164.761719 147.390625 L 160.730469 155.742188 L 149.898438 145.363281 "/>
<path style="fill:none;stroke-width:1;stroke-linecap:butt;stroke-linejoin:miter;stroke:rgb(20%,20%,20%);stroke-opacity:1;stroke-miterlimit:10;" d="M 251.769531 194.542969 L 116.355469 138.609375 "/>
<path style=" stroke:none;fill-rule:nonzero;fill:rgb(20%,20%,20%);fill-opacity:1;" d="M 103.167969 133.164062 L 118.125 134.324219 L 114.585938 142.894531 L 103.167969 133.164062 "/>
<path style="fill:none;stroke-width:1;stroke-linecap:butt;stroke-linejoin:miter;stroke:rgb(20%,20%,20%);stroke-opacity:1;stroke-miterlimit:10;" d="M 251.769531 194.542969 L 133.804688 96.824219 "/>
<path style=" stroke:none;fill-rule:nonzero;fill:rgb(20%,20%,20%);fill-opacity:1;" d="M 122.820312 87.722656 L 136.761719 93.253906 L 130.847656 100.390625 L 122.820312 87.722656 "/>
<path style="fill:none;stroke-width:1;stroke-linecap:butt;stroke-linejoin:miter;stroke:rgb(20%,20%,20%);stroke-opacity:1;stroke-miterlimit:10;" d="M 251.769531 194.542969 L 254.492188 251.800781 "/>
<path style=" stroke:none;fill-rule:nonzero;fill:rgb(20%,20%,20%);fill-opacity:1;" d="M 255.171875 266.050781 L 249.863281 252.019531 L 259.125 251.578125 L 255.171875 266.050781 "/>
<path style="fill:none;stroke-width:1;stroke-linecap:butt;stroke-linejoin:miter;stroke:rgb(20%,20%,20%);stroke-opacity:1;stroke-miterlimit:10;" d="M 251.769531 194.542969 L 373.789062 284.230469 "/>
<path style=" stroke:none;fill-rule:nonzero;fill:rgb(20%,20%,20%);fill-opacity:1;" d="M 385.285156 292.679688 L 371.046875 287.964844 L 376.535156 280.496094 L 385.285156 292.679688 "/>
<path style="fill:none;stroke-width:1;stroke-linecap:butt;stroke-linejoin:miter;stroke:rgb(20%,20%,20%);stroke-opacity:1;stroke-miterlimit:10;" d="M 251.769531 194.542969 L 143.058594 198.691406 "/>
<path style=" stroke:none;fill-rule:nonzero;fill:rgb(20%,20%,20%);fill-opacity:1;" d="M 128.800781 199.238281 L 142.882812 194.0625 L 143.234375 203.324219 L 128.800781 199.238281 "/>
<path style="fill:none;stroke-width:1;stroke-linecap:butt;stroke-linejoin:miter;stroke:rgb(20%,20%,20%);stroke-opacity:1;stroke-miterlimit:10;" d="M 251.769531 194.542969 L 216.523438 43.628906 "/>
<path style=" stroke:none;fill-rule:nonzero;fill:rgb(20%,20%,20%);fill-opacity:1;" d="M 213.277344 29.738281 L 221.035156 42.574219 L 212.007812 44.683594 L 213.277344 29.738281 "/>
<path style="fill:none;stroke-width:1;stroke-linecap:butt;stroke-linejoin:miter;stroke:rgb(20%,20%,20%);stroke-opacity:1;stroke-miterlimit:10;" d="M 251.769531 194.542969 L 223.324219 155.882812 "/>
<path style=" stroke:none;fill-rule:nonzero;fill:rgb(20%,20%,20%);fill-opacity:1;" d="M 214.871094 144.394531 L 227.058594 153.136719 L 219.589844 158.628906 L 214.871094 144.394531 "/>
<path style="fill:none;stroke-width:1;stroke-linecap:butt;stroke-linejoin:miter;stroke:rgb(20%,20%,20%);stroke-opacity:1;stroke-miterlimit:10;" d="M 251.769531 194.542969 L 321.828125 257.574219 "/>
<path style=" stroke:none;fill-rule:nonzero;fill:rgb(20%,20%,20%);fill-opacity:1;" d="M 332.433594 267.113281 L 318.730469 261.019531 L 324.929688 254.128906 L 332.433594 267.113281 "/>
<path style="fill:none;stroke-width:1;stroke-linecap:butt;stroke-linejoin:miter;stroke:rgb(20%,20%,20%);stroke-opacity:1;stroke-miterlimit:10;" d="M 251.769531 194.542969 L 309.898438 99.414062 "/>
<path style=" stroke:none;fill-rule:nonzero;fill:rgb(20%,20%,20%);fill-opacity:1;" d="M 317.335938 87.242188 L 313.855469 101.832031 L 305.945312 97 L 317.335938 87.242188 "/>
<path style="fill:none;stroke-width:1;stroke-linecap:butt;stroke-linejoin:miter;stroke:rgb(20%,20%,20%);stroke-opacity:1;stroke-miterlimit:10;" d="M 251.769531 194.542969 L 359.429688 223.445312 "/>
<path style=" stroke:none;fill-rule:nonzero;fill:rgb(20%,20%,20%);fill-opacity:1;" d="M 373.207031 227.144531 L 358.226562 227.921875 L 360.632812 218.96875 L 373.207031 227.144531 "/>
<path style="fill:none;stroke-width:1;stroke-linecap:butt;stroke-linejoin:miter;stroke:rgb(20%,20%,20%);stroke-opacity:1;stroke-miterlimit:10;" d="M 251.769531 194.542969 L 274.070312 103.214844 "/>
<path style=" stroke:none;fill-rule:nonzero;fill:rgb(20%,20%,20%);fill-opacity:1;" d="M 277.457031 89.355469 L 278.574219 104.316406 L 269.570312 102.117188 L 277.457031 89.355469 "/>
<path style="fill:none;stroke-width:1;stroke-linecap:butt;stroke-linejoin:miter;stroke:rgb(20%,20%,20%);stroke-opacity:1;stroke-miterlimit:10;" d="M 251.769531 194.542969 L 338.777344 390.097656 "/>
<path style=" stroke:none;fill-rule:nonzero;fill:rgb(20%,20%,20%);fill-opacity:1;" d="M 344.574219 403.128906 L 334.542969 391.980469 L 343.011719 388.210938 L 344.574219 403.128906 "/>
<path style="fill:none;stroke-width:1;stroke-linecap:butt;stroke-linejoin:miter;stroke:rgb(20%,20%,20%);stroke-opacity:1;stroke-miterlimit:10;" d="M 329.566406 196.203125 L 337.742188 308.011719 "/>
<path style=" stroke:none;fill-rule:nonzero;fill:rgb(20%,20%,20%);fill-opacity:1;" d="M 338.78125 322.238281 L 333.121094 308.351562 L 342.363281 307.675781 L 338.78125 322.238281 "/>
<path style="fill:none;stroke-width:1;stroke-linecap:butt;stroke-linejoin:miter;stroke:rgb(20%,20%,20%);stroke-opacity:1;stroke-miterlimit:10;" d="M 329.566406 196.203125 L 295.972656 216.511719 "/>
<path style=" stroke:none;fill-rule:nonzero;fill:rgb(20%,20%,20%);fill-opacity:1;" d="M 283.761719 223.894531 L 293.574219 212.546875 L 298.367188 220.480469 L 283.761719 223.894531 "/>
<path style="fill:none;stroke-width:1;stroke-linecap:butt;stroke-linejoin:miter;stroke:rgb(20%,20%,20%);stroke-opacity:1;stroke-miterlimit:10;" d="M 329.566406 196.203125 L 272.132812 258.230469 "/>
<path style=" stroke:none;fill-rule:nonzero;fill:rgb(20%,20%,20%);fill-opacity:1;" d="M 262.441406 268.699219 L 268.730469 255.082031 L 275.535156 261.382812 L 262.441406 268.699219 "/>
<path style="fill:none;stroke-width:1;stroke-linecap:butt;stroke-linejoin:miter;stroke:rgb(20%,20%,20%);stroke-opacity:1;stroke-miterlimit:10;" d="M 329.566406 196.203125 L 336.675781 249.746094 "/>
<path style=" stroke:none;fill-rule:nonzero;fill:rgb(20%,20%,20%);fill-opacity:1;" d="M 338.554688 263.890625 L 332.082031 250.359375 L 341.269531 249.136719 L 338.554688 263.890625 "/>
<path style="fill:none;stroke-width:1;stroke-linecap:butt;stroke-linejoin:miter;stroke:rgb(20%,20%,20%);stroke-opacity:1;stroke-miterlimit:10;" d="M 329.566406 196.203125 L 324 102.933594 "/>
<path style=" stroke:none;fill-rule:nonzero;fill:rgb(20%,20%,20%);fill-opacity:1;" d="M 323.148438 88.691406 L 328.625 102.65625 L 319.371094 103.207031 L 323.148438 88.691406 "/>
<path style="fill:none;stroke-width:1;stroke-linecap:butt;stroke-linejoin:miter;stroke:rgb(20%,20%,20%);stroke-opacity:1;stroke-miterlimit:10;" d="M 329.566406 196.203125 L 362.328125 216.816406 "/>
<path style=" stroke:none;fill-rule:nonzero;fill:rgb(20%,20%,20%);fill-opacity:1;" d="M 374.402344 224.410156 L 359.859375 220.738281 L 364.796875 212.890625 L 374.402344 224.410156 "/>
<path style="fill:none;stroke-width:1;stroke-linecap:butt;stroke-linejoin:miter;stroke:rgb(20%,20%,20%);stroke-opacity:1;stroke-miterlimit:10;" d="M 329.566406 196.203125 L 289.351562 101.960938 "/>
<path style=" stroke:none;fill-rule:nonzero;fill:rgb(20%,20%,20%);fill-opacity:1;" d="M 283.753906 88.839844 L 293.617188 100.140625 L 285.089844 103.78125 L 283.753906 88.839844 "/>
<path style="fill:none;stroke-width:1;stroke-linecap:butt;stroke-linejoin:miter;stroke:rgb(20%,20%,20%);stroke-opacity:1;stroke-miterlimit:10;" d="M 329.566406 196.203125 L 426.582031 261.0625 "/>
<path style=" stroke:none;fill-rule:nonzero;fill:rgb(20%,20%,20%);fill-opacity:1;" d="M 438.441406 268.992188 L 424.007812 264.917969 L 429.160156 257.210938 L 438.441406 268.992188 "/>
<path style="fill:none;stroke-width:1;stroke-linecap:butt;stroke-linejoin:miter;stroke:rgb(20%,20%,20%);stroke-opacity:1;stroke-miterlimit:10;" d="M 339.511719 332.214844 L 288.042969 249.65625 "/>
<path style=" stroke:none;fill-rule:nonzero;fill:rgb(20%,20%,20%);fill-opacity:1;" d="M 280.496094 237.550781 L 291.976562 247.207031 L 284.109375 252.109375 L 280.496094 237.550781 "/>
<path style="fill:none;stroke-width:1;stroke-linecap:butt;stroke-linejoin:miter;stroke:rgb(20%,20%,20%);stroke-opacity:1;stroke-miterlimit:10;" d="M 339.511719 332.214844 L 275.808594 289.542969 "/>
<path style=" stroke:none;fill-rule:nonzero;fill:rgb(20%,20%,20%);fill-opacity:1;" d="M 263.957031 281.601562 L 278.386719 285.691406 L 273.226562 293.394531 L 263.957031 281.601562 "/>
<path style="fill:none;stroke-width:1;stroke-linecap:butt;stroke-linejoin:miter;stroke:rgb(20%,20%,20%);stroke-opacity:1;stroke-miterlimit:10;" d="M 339.511719 332.214844 L 372.757812 311.453125 "/>
<path style=" stroke:none;fill-rule:nonzero;fill:rgb(20%,20%,20%);fill-opacity:1;" d="M 384.859375 303.898438 L 375.214844 315.386719 L 370.304688 307.523438 L 384.859375 303.898438 "/>
<path style="fill:none;stroke-width:1;stroke-linecap:butt;stroke-linejoin:miter;stroke:rgb(20%,20%,20%);stroke-opacity:1;stroke-miterlimit:10;" d="M 339.511719 332.214844 L 349.035156 432.679688 "/>
<path style=" stroke:none;fill-rule:nonzero;fill:rgb(20%,20%,20%);fill-opacity:1;" d="M 350.378906 446.882812 L 344.417969 433.117188 L 353.648438 432.242188 L 350.378906 446.882812 "/>
<path style="fill:none;stroke-width:1;stroke-linecap:butt;stroke-linejoin:miter;stroke:rgb(20%,20%,20%);stroke-opacity:1;stroke-miterlimit:10;" d="M 339.511719 332.214844 L 339.71875 298.066406 "/>
<path style=" stroke:none;fill-rule:nonzero;fill:rgb(20%,20%,20%);fill-opacity:1;" d="M 339.808594 283.800781 L 344.355469 298.097656 L 335.085938 298.039062 L 339.808594 283.800781 "/>
<path style="fill:none;stroke-width:1;stroke-linecap:butt;stroke-linejoin:miter;stroke:rgb(80%,80%,80%);stroke-opacity:1;stroke-miterlimit:10;" d="M 339.511719 332.214844 L 377.042969 468.398438 "/>
<path style=" stroke:none;fill-rule:nonzero;fill:rgb(80%,80%,80%);fill-opacity:1;" d="M 380.832031 482.148438 L 372.574219 469.628906 L 381.511719 467.164062 L 380.832031 482.148438 "/>
<path style="fill:none;stroke-width:1;stroke-linecap:butt;stroke-linejoin:miter;stroke:rgb(20%,20%,20%);stroke-opacity:1;stroke-miterlimit:10;" d="M 339.511719 332.214844 L 380.730469 388.199219 "/>
<path style=" stroke:none;fill-rule:nonzero;fill:rgb(20%,20%,20%);fill-opacity:1;" d="M 389.191406 399.6875 L 377 390.945312 L 384.464844 385.449219 L 389.191406 399.6875 "/>
<path style="fill:none;stroke-width:1;stroke-linecap:butt;stroke-linejoin:miter;stroke:rgb(20%,20%,20%);stroke-opacity:1;stroke-miterlimit:10;" d="M 339.511719 332.214844 L 459.167969 382.628906 "/>
<path style=" stroke:none;fill-rule:nonzero;fill:rgb(20%,20%,20%);fill-opacity:1;" d="M 472.3125 388.167969 L 457.367188 386.902344 L 460.96875 378.359375 L 472.3125 388.167969 "/>
<path style="fill:none;stroke-width:1;stroke-linecap:butt;stroke-linejoin:miter;stroke:rgb(20%,20%,20%);stroke-opacity:1;stroke-miterlimit:10;" d="M 275.203125 229.066406 L 264.972656 253.636719 "/>
<path style=" stroke:none;fill-rule:nonzero;fill:rgb(20%,20%,20%);fill-opacity:1;" d="M 259.492188 266.804688 L 260.695312 251.855469 L 269.253906 255.417969 L 259.492188 266.804688 "/>
<path style="fill:none;stroke-width:1;stroke-linecap:butt;stroke-linejoin:miter;stroke:rgb(20%,20%,20%);stroke-opacity:1;stroke-miterlimit:10;" d="M 275.203125 229.066406 L 223.050781 156.082031 "/>
<path style=" stroke:none;fill-rule:nonzero;fill:rgb(20%,20%,20%);fill-opacity:1;" d="M 214.757812 144.472656 L 226.824219 153.386719 L 219.28125 158.777344 L 214.757812 144.472656 "/>
<path style="fill:none;stroke-width:1;stroke-linecap:butt;stroke-linejoin:miter;stroke:rgb(20%,20%,20%);stroke-opacity:1;stroke-miterlimit:10;" d="M 275.203125 229.066406 L 319.914062 259.996094 "/>
<path style=" stroke:none;fill-rule:nonzero;fill:rgb(20%,20%,20%);fill-opacity:1;" d="M 331.644531 268.113281 L 317.277344 263.808594 L 322.550781 256.183594 L 331.644531 268.113281 "/>
<path style="fill:none;stroke-width:1;stroke-linecap:butt;stroke-linejoin:miter;stroke:rgb(20%,20%,20%);stroke-opacity:1;stroke-miterlimit:10;" d="M 140.890625 141.015625 L 124.738281 103.621094 "/>
<path style=" stroke:none;fill-rule:nonzero;fill:rgb(20%,20%,20%);fill-opacity:1;" d="M 119.082031 90.523438 L 128.996094 101.78125 L 120.484375 105.457031 L 119.082031 90.523438 "/>
<path style="fill:none;stroke-width:1;stroke-linecap:butt;stroke-linejoin:miter;stroke:rgb(20%,20%,20%);stroke-opacity:1;stroke-miterlimit:10;" d="M 140.890625 141.015625 L 127.367188 176.910156 "/>
<path style=" stroke:none;fill-rule:nonzero;fill:rgb(20%,20%,20%);fill-opacity:1;" d="M 122.335938 190.261719 L 123.027344 175.277344 L 131.703125 178.546875 L 122.335938 190.261719 "/>
<path style="fill:none;stroke-width:1;stroke-linecap:butt;stroke-linejoin:miter;stroke:rgb(20%,20%,20%);stroke-opacity:1;stroke-miterlimit:10;" d="M 93.925781 129.34375 L 105.316406 103.542969 "/>
<path style=" stroke:none;fill-rule:nonzero;fill:rgb(20%,20%,20%);fill-opacity:1;" d="M 111.078125 90.492188 L 109.558594 105.414062 L 101.078125 101.667969 L 111.078125 90.492188 "/>
<path style="fill:none;stroke-width:1;stroke-linecap:butt;stroke-linejoin:miter;stroke:rgb(20%,20%,20%);stroke-opacity:1;stroke-miterlimit:10;" d="M 93.925781 129.34375 L 110.710938 176.746094 "/>
<path style=" stroke:none;fill-rule:nonzero;fill:rgb(20%,20%,20%);fill-opacity:1;" d="M 115.472656 190.191406 L 106.339844 178.292969 L 115.078125 175.195312 L 115.472656 190.191406 "/>
<path style="fill:none;stroke-width:1;stroke-linecap:butt;stroke-linejoin:miter;stroke:rgb(20%,20%,20%);stroke-opacity:1;stroke-miterlimit:10;" d="M 93.925781 129.34375 L 36.1875 64.851562 "/>
<path style=" stroke:none;fill-rule:nonzero;fill:rgb(20%,20%,20%);fill-opacity:1;" d="M 26.671875 54.222656 L 39.640625 61.757812 L 32.734375 67.941406 L 26.671875 54.222656 "/>
<path style="fill:none;stroke-width:1;stroke-linecap:butt;stroke-linejoin:miter;stroke:rgb(20%,20%,20%);stroke-opacity:1;stroke-miterlimit:10;" d="M 115.117188 81.34375 L 42.804688 55.0625 "/>
<path style=" stroke:none;fill-rule:nonzero;fill:rgb(20%,20%,20%);fill-opacity:1;" d="M 29.398438 50.1875 L 44.390625 50.703125 L 41.222656 59.417969 L 29.398438 50.1875 "/>
<path style="fill:none;stroke-width:1;stroke-linecap:butt;stroke-linejoin:miter;stroke:rgb(20%,20%,20%);stroke-opacity:1;stroke-miterlimit:10;" d="M 393.34375 298.601562 L 424.628906 284.515625 "/>
<path style=" stroke:none;fill-rule:nonzero;fill:rgb(20%,20%,20%);fill-opacity:1;" d="M 437.636719 278.65625 L 426.53125 288.742188 L 422.726562 280.289062 L 437.636719 278.65625 "/>
<path style="fill:none;stroke-width:1;stroke-linecap:butt;stroke-linejoin:miter;stroke:rgb(20%,20%,20%);stroke-opacity:1;stroke-miterlimit:10;" d="M 393.34375 298.601562 L 464.875 374.402344 "/>
<path style=" stroke:none;fill-rule:nonzero;fill:rgb(20%,20%,20%);fill-opacity:1;" d="M 474.667969 384.777344 L 461.503906 377.585938 L 468.246094 371.222656 L 474.667969 384.777344 "/>
<path style="fill:none;stroke-width:1;stroke-linecap:butt;stroke-linejoin:miter;stroke:rgb(20%,20%,20%);stroke-opacity:1;stroke-miterlimit:10;" d="M 393.34375 298.601562 L 447.339844 377.960938 "/>
<path style=" stroke:none;fill-rule:nonzero;fill:rgb(20%,20%,20%);fill-opacity:1;" d="M 455.367188 389.757812 L 443.507812 380.570312 L 451.171875 375.355469 L 455.367188 389.757812 "/>
<path style="fill:none;stroke-width:1;stroke-linecap:butt;stroke-linejoin:miter;stroke:rgb(20%,20%,20%);stroke-opacity:1;stroke-miterlimit:10;" d="M 351.324219 456.835938 L 439.605469 409.492188 "/>
<path style=" stroke:none;fill-rule:nonzero;fill:rgb(20%,20%,20%);fill-opacity:1;" d="M 452.179688 402.75 L 441.796875 413.578125 L 437.417969 405.40625 L 452.179688 402.75 "/>
<path style="fill:none;stroke-width:1;stroke-linecap:butt;stroke-linejoin:miter;stroke:rgb(20%,20%,20%);stroke-opacity:1;stroke-miterlimit:10;" d="M 339.867188 273.804688 L 444.050781 380.652344 "/>
<path style=" stroke:none;fill-rule:nonzero;fill:rgb(20%,20%,20%);fill-opacity:1;" d="M 454.011719 390.863281 L 440.734375 383.886719 L 447.371094 377.414062 L 454.011719 390.863281 "/>
<path style="fill:none;stroke-width:1;stroke-linecap:butt;stroke-linejoin:miter;stroke:rgb(80%,80%,80%);stroke-opacity:1;stroke-miterlimit:10;" d="M 580 397.492188 L 505.757812 393.390625 "/>
<path style=" stroke:none;fill-rule:nonzero;fill:rgb(80%,80%,80%);fill-opacity:1;" d="M 491.515625 392.605469 L 506.015625 388.761719 L 505.503906 398.019531 L 491.515625 392.605469 "/>
<path style="fill:none;stroke-width:1;stroke-linecap:butt;stroke-linejoin:miter;stroke:rgb(80%,80%,80%);stroke-opacity:1;stroke-miterlimit:10;" d="M 580 397.492188 L 485.257812 397.914062 "/>
<path style=" stroke:none;fill-rule:nonzero;fill:rgb(80%,80%,80%);fill-opacity:1;" d="M 470.992188 397.980469 L 485.238281 393.28125 L 485.277344 402.550781 L 470.992188 397.980469 "/>
<path style="fill:none;stroke-width:1;stroke-linecap:butt;stroke-linejoin:miter;stroke:rgb(80%,80%,80%);stroke-opacity:1;stroke-miterlimit:10;" d="M 570.828125 350.378906 L 503.519531 381.789062 "/>
<path style=" stroke:none;fill-rule:nonzero;fill:rgb(80%,80%,80%);fill-opacity:1;" d="M 490.589844 387.824219 L 501.558594 377.589844 L 505.480469 385.992188 L 490.589844 387.824219 "/>
<path style="fill:none;stroke-width:1;stroke-linecap:butt;stroke-linejoin:miter;stroke:rgb(80%,80%,80%);stroke-opacity:1;stroke-miterlimit:10;" d="M 570.828125 350.378906 L 483.253906 388.367188 "/>
<path style=" stroke:none;fill-rule:nonzero;fill:rgb(80%,80%,80%);fill-opacity:1;" d="M 470.164062 394.042969 L 481.410156 384.117188 L 485.097656 392.621094 L 470.164062 394.042969 "/>
<path style="fill:none;stroke-width:1;stroke-linecap:butt;stroke-linejoin:miter;stroke:rgb(80%,80%,80%);stroke-opacity:1;stroke-miterlimit:10;" d="M 545.839844 309.976562 L 496.496094 372.953125 "/>
<path style=" stroke:none;fill-rule:nonzero;fill:rgb(80%,80%,80%);fill-opacity:1;" d="M 487.699219 384.179688 L 492.847656 370.09375 L 500.144531 375.808594 L 487.699219 384.179688 "/>
<path style="fill:none;stroke-width:1;stroke-linecap:butt;stroke-linejoin:miter;stroke:rgb(80%,80%,80%);stroke-opacity:1;stroke-miterlimit:10;" d="M 545.839844 309.976562 L 477.832031 380.550781 "/>
<path style=" stroke:none;fill-rule:nonzero;fill:rgb(80%,80%,80%);fill-opacity:1;" d="M 467.929688 390.824219 L 474.492188 377.335938 L 481.167969 383.769531 L 467.929688 390.824219 "/>
<path style="fill:none;stroke-width:1;stroke-linecap:butt;stroke-linejoin:miter;stroke:rgb(20%,20%,20%);stroke-opacity:1;stroke-miterlimit:10;" d="M 382.863281 229.738281 L 450.773438 376.015625 "/>
<path style=" stroke:none;fill-rule:nonzero;fill:rgb(20%,20%,20%);fill-opacity:1;" d="M 456.78125 388.953125 L 446.570312 377.964844 L 454.976562 374.0625 L 456.78125 388.953125 "/>
<path style="fill:none;stroke-width:1;stroke-linecap:butt;stroke-linejoin:miter;stroke:rgb(80%,80%,80%);stroke-opacity:1;stroke-miterlimit:10;" d="M 566.265625 442.65625 L 502.363281 404.492188 "/>
<path style=" stroke:none;fill-rule:nonzero;fill:rgb(80%,80%,80%);fill-opacity:1;" d="M 490.117188 397.179688 L 504.738281 400.515625 L 499.988281 408.472656 L 490.117188 397.179688 "/>
<path style="fill:none;stroke-width:1;stroke-linecap:butt;stroke-linejoin:miter;stroke:rgb(80%,80%,80%);stroke-opacity:1;stroke-miterlimit:10;" d="M 566.265625 442.65625 L 483.332031 407.496094 "/>
<path style=" stroke:none;fill-rule:nonzero;fill:rgb(80%,80%,80%);fill-opacity:1;" d="M 470.199219 401.929688 L 485.140625 403.230469 L 481.523438 411.765625 L 470.199219 401.929688 "/>
<path style="fill:none;stroke-width:1;stroke-linecap:butt;stroke-linejoin:miter;stroke:rgb(80%,80%,80%);stroke-opacity:1;stroke-miterlimit:10;" d="M 507.621094 522.179688 L 486.300781 415.84375 "/>
<path style=" stroke:none;fill-rule:nonzero;fill:rgb(80%,80%,80%);fill-opacity:1;" d="M 483.496094 401.855469 L 490.84375 414.933594 L 481.753906 416.753906 L 483.496094 401.855469 "/>
<path style="fill:none;stroke-width:1;stroke-linecap:butt;stroke-linejoin:miter;stroke:rgb(80%,80%,80%);stroke-opacity:1;stroke-miterlimit:10;" d="M 507.621094 522.179688 L 469.523438 420.742188 "/>
<path style=" stroke:none;fill-rule:nonzero;fill:rgb(80%,80%,80%);fill-opacity:1;" d="M 464.507812 407.386719 L 473.863281 419.109375 L 465.183594 422.371094 L 464.507812 407.386719 "/>
<path style="fill:none;stroke-width:1;stroke-linecap:butt;stroke-linejoin:miter;stroke:rgb(20%,20%,20%);stroke-opacity:1;stroke-miterlimit:10;" d="M 452.042969 520.46875 L 386.726562 566.101562 "/>
<path style=" stroke:none;fill-rule:nonzero;fill:rgb(20%,20%,20%);fill-opacity:1;" d="M 375.03125 574.273438 L 384.070312 562.300781 L 389.382812 569.902344 L 375.03125 574.273438 "/>
<path style="fill:none;stroke-width:1;stroke-linecap:butt;stroke-linejoin:miter;stroke:rgb(80%,80%,80%);stroke-opacity:1;stroke-miterlimit:10;" d="M 452.042969 520.46875 L 405.875 501.15625 "/>
<path style=" stroke:none;fill-rule:nonzero;fill:rgb(80%,80%,80%);fill-opacity:1;" d="M 392.714844 495.648438 L 407.664062 496.878906 L 404.085938 505.433594 L 392.714844 495.648438 "/>
<path style="fill:none;stroke-width:1;stroke-linecap:butt;stroke-linejoin:miter;stroke:rgb(20%,20%,20%);stroke-opacity:1;stroke-miterlimit:10;" d="M 452.042969 520.46875 L 505.15625 498.75 "/>
<path style=" stroke:none;fill-rule:nonzero;fill:rgb(20%,20%,20%);fill-opacity:1;" d="M 518.363281 493.351562 L 506.910156 503.042969 L 503.402344 494.460938 L 518.363281 493.351562 "/>
<path style="fill:none;stroke-width:1;stroke-linecap:butt;stroke-linejoin:miter;stroke:rgb(80%,80%,80%);stroke-opacity:1;stroke-miterlimit:10;" d="M 452.042969 520.46875 L 476.097656 415.703125 "/>
<path style=" stroke:none;fill-rule:nonzero;fill:rgb(80%,80%,80%);fill-opacity:1;" d="M 479.292969 401.796875 L 480.617188 416.738281 L 471.582031 414.664062 L 479.292969 401.796875 "/>
<path style="fill:none;stroke-width:1;stroke-linecap:butt;stroke-linejoin:miter;stroke:rgb(80%,80%,80%);stroke-opacity:1;stroke-miterlimit:10;" d="M 452.042969 520.46875 L 459.222656 422.226562 "/>
<path style=" stroke:none;fill-rule:nonzero;fill:rgb(80%,80%,80%);fill-opacity:1;" d="M 460.261719 407.996094 L 463.847656 422.5625 L 454.601562 421.886719 L 460.261719 407.996094 "/>
<path style="fill:none;stroke-width:1;stroke-linecap:butt;stroke-linejoin:miter;stroke:rgb(80%,80%,80%);stroke-opacity:1;stroke-miterlimit:10;" d="M 313.84375 561.035156 L 343.988281 571.824219 "/>
<path style=" stroke:none;fill-rule:nonzero;fill:rgb(80%,80%,80%);fill-opacity:1;" d="M 357.417969 576.628906 L 342.425781 576.1875 L 345.550781 567.460938 L 357.417969 576.628906 "/>
<path style="fill:none;stroke-width:1;stroke-linecap:butt;stroke-linejoin:miter;stroke:rgb(20%,20%,20%);stroke-opacity:1;stroke-miterlimit:10;" d="M 313.84375 561.035156 L 366.28125 508.898438 "/>
<path style=" stroke:none;fill-rule:nonzero;fill:rgb(20%,20%,20%);fill-opacity:1;" d="M 376.398438 498.839844 L 369.550781 512.1875 L 363.011719 505.613281 L 376.398438 498.839844 "/>
<path style="fill:none;stroke-width:1;stroke-linecap:butt;stroke-linejoin:miter;stroke:rgb(80%,80%,80%);stroke-opacity:1;stroke-miterlimit:10;" d="M 313.84375 561.035156 L 343.113281 435.894531 "/>
<path style=" stroke:none;fill-rule:nonzero;fill:rgb(80%,80%,80%);fill-opacity:1;" d="M 346.363281 422.003906 L 347.628906 436.949219 L 338.601562 434.839844 L 346.363281 422.003906 "/>
<path style="fill:none;stroke-width:1;stroke-linecap:butt;stroke-linejoin:miter;stroke:rgb(80%,80%,80%);stroke-opacity:1;stroke-miterlimit:10;" d="M 366.835938 580 L 351.257812 436.390625 "/>
<path style=" stroke:none;fill-rule:nonzero;fill:rgb(80%,80%,80%);fill-opacity:1;" d="M 349.71875 422.207031 L 355.867188 435.890625 L 346.648438 436.890625 L 349.71875 422.207031 "/>
<path style="fill:none;stroke-width:1;stroke-linecap:butt;stroke-linejoin:miter;stroke:rgb(80%,80%,80%);stroke-opacity:1;stroke-miterlimit:10;" d="M 576.558594 525.363281 L 547.203125 503.894531 "/>
<path style=" stroke:none;fill-rule:nonzero;fill:rgb(80%,80%,80%);fill-opacity:1;" d="M 535.6875 495.472656 L 549.941406 500.152344 L 544.46875 507.632812 L 535.6875 495.472656 "/>
<path style="fill:none;stroke-width:1;stroke-linecap:butt;stroke-linejoin:miter;stroke:rgb(80%,80%,80%);stroke-opacity:1;stroke-miterlimit:10;" d="M 576.558594 525.363281 L 477.300781 415.992188 "/>
<path style=" stroke:none;fill-rule:nonzero;fill:rgb(80%,80%,80%);fill-opacity:1;" d="M 467.710938 405.429688 L 480.730469 412.878906 L 473.867188 419.109375 L 467.710938 405.429688 "/>
<path style="fill:none;stroke-width:1;stroke-linecap:butt;stroke-linejoin:miter;stroke:rgb(80%,80%,80%);stroke-opacity:1;stroke-miterlimit:10;" d="M 383.488281 491.789062 L 445.53125 416.726562 "/>
<path style=" stroke:none;fill-rule:nonzero;fill:rgb(80%,80%,80%);fill-opacity:1;" d="M 454.621094 405.730469 L 449.105469 419.679688 L 441.960938 413.773438 L 454.621094 405.730469 "/>
<path style="fill:none;stroke-width:1;stroke-linecap:butt;stroke-linejoin:miter;stroke:rgb(20%,20%,20%);stroke-opacity:1;stroke-miterlimit:10;" d="M 395.121094 407.738281 L 372.792969 409.914062 "/>
<path style=" stroke:none;fill-rule:nonzero;fill:rgb(20%,20%,20%);fill-opacity:1;" d="M 358.59375 411.296875 L 372.34375 405.300781 L 373.242188 414.527344 L 358.59375 411.296875 "/>
<path style="fill:none;stroke-width:1;stroke-linecap:butt;stroke-linejoin:miter;stroke:rgb(20%,20%,20%);stroke-opacity:1;stroke-miterlimit:10;" d="M 395.121094 407.738281 L 436.984375 401.566406 "/>
<path style=" stroke:none;fill-rule:nonzero;fill:rgb(20%,20%,20%);fill-opacity:1;" d="M 451.097656 399.484375 L 437.660156 406.148438 L 436.308594 396.980469 L 451.097656 399.484375 "/>
<path style="fill:none;stroke-width:1;stroke-linecap:butt;stroke-linejoin:miter;stroke:rgb(80%,80%,80%);stroke-opacity:1;stroke-miterlimit:10;" d="M 527.617188 489.566406 L 491.898438 413.992188 "/>
<path style=" stroke:none;fill-rule:nonzero;fill:rgb(80%,80%,80%);fill-opacity:1;" d="M 485.804688 401.09375 L 496.089844 412.011719 L 487.707031 415.972656 L 485.804688 401.09375 "/>
<path style="fill:none;stroke-width:1;stroke-linecap:butt;stroke-linejoin:miter;stroke:rgb(80%,80%,80%);stroke-opacity:1;stroke-miterlimit:10;" d="M 527.617188 489.566406 L 475.269531 417.644531 "/>
<path style=" stroke:none;fill-rule:nonzero;fill:rgb(80%,80%,80%);fill-opacity:1;" d="M 466.875 406.109375 L 479.019531 414.917969 L 471.523438 420.371094 L 466.875 406.109375 "/>
<path style="fill:none;stroke-width:1;stroke-linecap:butt;stroke-linejoin:miter;stroke:rgb(20%,20%,20%);stroke-opacity:1;stroke-miterlimit:10;" d="M 446.753906 274.550781 L 474.644531 368.785156 "/>
<path style=" stroke:none;fill-rule:nonzero;fill:rgb(20%,20%,20%);fill-opacity:1;" d="M 478.691406 382.464844 L 470.199219 370.097656 L 479.089844 367.46875 L 478.691406 382.464844 "/>
<path style="fill:none;stroke-width:1;stroke-linecap:butt;stroke-linejoin:miter;stroke:rgb(20%,20%,20%);stroke-opacity:1;stroke-miterlimit:10;" d="M 446.753906 274.550781 L 458.210938 373.917969 "/>
<path style=" stroke:none;fill-rule:nonzero;fill:rgb(20%,20%,20%);fill-opacity:1;" d="M 459.847656 388.089844 L 453.609375 374.449219 L 462.816406 373.386719 L 459.847656 388.089844 "/>
<path style="fill:none;stroke-width:1;stroke-linecap:butt;stroke-linejoin:miter;stroke:rgb(20%,20%,20%);stroke-opacity:1;stroke-miterlimit:10;" d="M 348.640625 412.265625 L 457.539062 395.703125 "/>
<path style=" stroke:none;fill-rule:nonzero;fill:rgb(20%,20%,20%);fill-opacity:1;" d="M 471.644531 393.554688 L 458.238281 400.285156 L 456.84375 391.117188 L 471.644531 393.554688 "/>
<path style="fill:none;stroke-width:1;stroke-linecap:butt;stroke-linejoin:miter;stroke:rgb(20%,20%,20%);stroke-opacity:1;stroke-miterlimit:10;" d="M 348.640625 412.265625 L 436.917969 401.074219 "/>
<path style=" stroke:none;fill-rule:nonzero;fill:rgb(20%,20%,20%);fill-opacity:1;" d="M 451.070312 399.28125 L 437.5 405.675781 L 436.335938 396.476562 L 451.070312 399.28125 "/>
<path style="fill:none;stroke-width:1;stroke-linecap:butt;stroke-linejoin:miter;stroke:rgb(20%,20%,20%);stroke-opacity:1;stroke-miterlimit:10;" d="M 481.53125 392.050781 L 484.292969 391.25 "/>
<path style=" stroke:none;fill-rule:nonzero;fill:rgb(20%,20%,20%);fill-opacity:1;" d="M 470.59375 395.230469 L 483 386.796875 L 485.585938 395.699219 L 470.59375 395.230469 "/>
<path style="fill-rule:nonzero;fill:rgb(100%,0%,0%);fill-opacity:1;stroke-width:1;stroke-linecap:butt;stroke-linejoin:miter;stroke:rgb(0%,0%,0%);stroke-opacity:1;stroke-miterlimit:10;" d="M 261.769531 194.542969 C 261.769531 200.066406 257.292969 204.542969 251.769531 204.542969 C 246.246094 204.542969 241.769531 200.066406 241.769531 194.542969 C 241.769531 189.019531 246.246094 184.542969 251.769531 184.542969 C 257.292969 184.542969 261.769531 189.019531 261.769531 194.542969 "/>
<path style="fill-rule:nonzero;fill:rgb(100%,0%,0%);fill-opacity:1;stroke-width:1;stroke-linecap:butt;stroke-linejoin:miter;stroke:rgb(0%,0%,0%);stroke-opacity:1;stroke-miterlimit:10;" d="M 339.566406 196.203125 C 339.566406 201.726562 335.089844 206.203125 329.566406 206.203125 C 324.042969 206.203125 319.566406 201.726562 319.566406 196.203125 C 319.566406 190.679688 324.042969 186.203125 329.566406 186.203125 C 335.089844 186.203125 339.566406 190.679688 339.566406 196.203125 "/>
<path style="fill-rule:nonzero;fill:rgb(0%,0%,100%);fill-opacity:1;stroke-width:1;stroke-linecap:butt;stroke-linejoin:miter;stroke:rgb(0%,0%,0%);stroke-opacity:1;stroke-miterlimit:10;" d="M 349.511719 332.214844 C 349.511719 337.738281 345.035156 342.214844 339.511719 342.214844 C 333.988281 342.214844 329.511719 337.738281 329.511719 332.214844 C 329.511719 326.691406 333.988281 322.214844 339.511719 322.214844 C 345.035156 322.214844 349.511719 326.691406 349.511719 332.214844 "/>
<path style="fill-rule:nonzero;fill:rgb(0%,0%,100%);fill-opacity:1;stroke-width:1;stroke-linecap:butt;stroke-linejoin:miter;stroke:rgb(0%,0%,0%);stroke-opacity:1;stroke-miterlimit:10;" d="M 285.203125 229.066406 C 285.203125 234.589844 280.726562 239.066406 275.203125 239.066406 C 269.683594 239.066406 265.203125 234.589844 265.203125 229.066406 C 265.203125 223.542969 269.683594 219.066406 275.203125 219.066406 C 280.726562 219.066406 285.203125 223.542969 285.203125 229.066406 "/>
<path style="fill-rule:nonzero;fill:rgb(0%,0%,100%);fill-opacity:1;stroke-width:1;stroke-linecap:butt;stroke-linejoin:miter;stroke:rgb(0%,0%,0%);stroke-opacity:1;stroke-miterlimit:10;" d="M 150.890625 141.015625 C 150.890625 146.539062 146.414062 151.015625 140.890625 151.015625 C 135.371094 151.015625 130.890625 146.539062 130.890625 141.015625 C 130.890625 135.496094 135.371094 131.015625 140.890625 131.015625 C 146.414062 131.015625 150.890625 135.496094 150.890625 141.015625 "/>
<path style="fill-rule:nonzero;fill:rgb(100%,0%,0%);fill-opacity:1;stroke-width:1;stroke-linecap:butt;stroke-linejoin:miter;stroke:rgb(0%,0%,0%);stroke-opacity:1;stroke-miterlimit:10;" d="M 103.925781 129.34375 C 103.925781 134.867188 99.449219 139.34375 93.925781 139.34375 C 88.402344 139.34375 83.925781 134.867188 83.925781 129.34375 C 83.925781 123.824219 88.402344 119.34375 93.925781 119.34375 C 99.449219 119.34375 103.925781 123.824219 103.925781 129.34375 "/>
<path style="fill-rule:nonzero;fill:rgb(100%,0%,0%);fill-opacity:1;stroke-width:1;stroke-linecap:butt;stroke-linejoin:miter;stroke:rgb(0%,0%,0%);stroke-opacity:1;stroke-miterlimit:10;" d="M 125.117188 81.34375 C 125.117188 86.867188 120.640625 91.34375 115.117188 91.34375 C 109.59375 91.34375 105.117188 86.867188 105.117188 81.34375 C 105.117188 75.820312 109.59375 71.34375 115.117188 71.34375 C 120.640625 71.34375 125.117188 75.820312 125.117188 81.34375 "/>
<path style="fill-rule:nonzero;fill:rgb(100%,0%,0%);fill-opacity:1;stroke-width:1;stroke-linecap:butt;stroke-linejoin:miter;stroke:rgb(0%,0%,0%);stroke-opacity:1;stroke-miterlimit:10;" d="M 265.648438 276.039062 C 265.648438 281.558594 261.167969 286.039062 255.648438 286.039062 C 250.125 286.039062 245.648438 281.558594 245.648438 276.039062 C 245.648438 270.515625 250.125 266.039062 255.648438 266.039062 C 261.167969 266.039062 265.648438 270.515625 265.648438 276.039062 "/>
<path style="fill-rule:nonzero;fill:rgb(100%,0%,0%);fill-opacity:1;stroke-width:1;stroke-linecap:butt;stroke-linejoin:miter;stroke:rgb(0%,0%,0%);stroke-opacity:1;stroke-miterlimit:10;" d="M 403.34375 298.601562 C 403.34375 304.125 398.867188 308.601562 393.34375 308.601562 C 387.820312 308.601562 383.34375 304.125 383.34375 298.601562 C 383.34375 293.078125 387.820312 288.601562 393.34375 288.601562 C 398.867188 288.601562 403.34375 293.078125 403.34375 298.601562 "/>
<path style="fill-rule:nonzero;fill:rgb(100%,0%,0%);fill-opacity:1;stroke-width:1;stroke-linecap:butt;stroke-linejoin:miter;stroke:rgb(0%,0%,0%);stroke-opacity:1;stroke-miterlimit:10;" d="M 361.324219 456.835938 C 361.324219 462.359375 356.847656 466.835938 351.324219 466.835938 C 345.800781 466.835938 341.324219 462.359375 341.324219 456.835938 C 341.324219 451.3125 345.800781 446.835938 351.324219 446.835938 C 356.847656 446.835938 361.324219 451.3125 361.324219 456.835938 "/>
<path style="fill-rule:nonzero;fill:rgb(100%,0%,0%);fill-opacity:1;stroke-width:1;stroke-linecap:butt;stroke-linejoin:miter;stroke:rgb(0%,0%,0%);stroke-opacity:1;stroke-miterlimit:10;" d="M 128.808594 199.617188 C 128.808594 205.140625 124.332031 209.617188 118.808594 209.617188 C 113.285156 209.617188 108.808594 205.140625 108.808594 199.617188 C 108.808594 194.097656 113.285156 189.617188 118.808594 189.617188 C 124.332031 189.617188 128.808594 194.097656 128.808594 199.617188 "/>
<path style="fill-rule:nonzero;fill:rgb(0%,0%,100%);fill-opacity:1;stroke-width:1;stroke-linecap:butt;stroke-linejoin:miter;stroke:rgb(0%,0%,0%);stroke-opacity:1;stroke-miterlimit:10;" d="M 221.003906 20 C 221.003906 25.523438 216.527344 30 211.003906 30 C 205.480469 30 201.003906 25.523438 201.003906 20 C 201.003906 14.476562 205.480469 10 211.003906 10 C 216.527344 10 221.003906 14.476562 221.003906 20 "/>
<path style="fill-rule:nonzero;fill:rgb(0%,0%,100%);fill-opacity:1;stroke-width:1;stroke-linecap:butt;stroke-linejoin:miter;stroke:rgb(0%,0%,0%);stroke-opacity:1;stroke-miterlimit:10;" d="M 218.941406 136.339844 C 218.941406 141.859375 214.464844 146.339844 208.941406 146.339844 C 203.421875 146.339844 198.941406 141.859375 198.941406 136.339844 C 198.941406 130.816406 203.421875 126.339844 208.941406 126.339844 C 214.464844 126.339844 218.941406 130.816406 218.941406 136.339844 "/>
<path style="fill-rule:nonzero;fill:rgb(0%,0%,100%);fill-opacity:1;stroke-width:1;stroke-linecap:butt;stroke-linejoin:miter;stroke:rgb(0%,0%,0%);stroke-opacity:1;stroke-miterlimit:10;" d="M 349.867188 273.804688 C 349.867188 279.324219 345.390625 283.804688 339.867188 283.804688 C 334.347656 283.804688 329.867188 279.324219 329.867188 273.804688 C 329.867188 268.28125 334.347656 263.804688 339.867188 263.804688 C 345.390625 263.804688 349.867188 268.28125 349.867188 273.804688 "/>
<path style="fill-rule:nonzero;fill:rgb(0%,100%,0%);fill-opacity:1;stroke-width:1;stroke-linecap:butt;stroke-linejoin:miter;stroke:rgb(0%,0%,0%);stroke-opacity:1;stroke-miterlimit:10;" d="M 590 397.492188 C 590 403.015625 585.523438 407.492188 580 407.492188 C 574.476562 407.492188 570 403.015625 570 397.492188 C 570 391.96875 574.476562 387.492188 580 387.492188 C 585.523438 387.492188 590 391.96875 590 397.492188 "/>
<path style="fill-rule:nonzero;fill:rgb(0%,0%,100%);fill-opacity:1;stroke-width:1;stroke-linecap:butt;stroke-linejoin:miter;stroke:rgb(0%,0%,0%);stroke-opacity:1;stroke-miterlimit:10;" d="M 580.828125 350.378906 C 580.828125 355.902344 576.351562 360.378906 570.828125 360.378906 C 565.304688 360.378906 560.828125 355.902344 560.828125 350.378906 C 560.828125 344.855469 565.304688 340.378906 570.828125 340.378906 C 576.351562 340.378906 580.828125 344.855469 580.828125 350.378906 "/>
<path style="fill-rule:nonzero;fill:rgb(100%,0%,0%);fill-opacity:1;stroke-width:1;stroke-linecap:butt;stroke-linejoin:miter;stroke:rgb(0%,0%,0%);stroke-opacity:1;stroke-miterlimit:10;" d="M 30 46.773438 C 30 52.296875 25.523438 56.773438 20 56.773438 C 14.476562 56.773438 10 52.296875 10 46.773438 C 10 41.25 14.476562 36.773438 20 36.773438 C 25.523438 36.773438 30 41.25 30 46.773438 "/>
<path style="fill-rule:nonzero;fill:rgb(100%,0%,0%);fill-opacity:1;stroke-width:1;stroke-linecap:butt;stroke-linejoin:miter;stroke:rgb(0%,0%,0%);stroke-opacity:1;stroke-miterlimit:10;" d="M 332.550781 78.710938 C 332.550781 84.230469 328.074219 88.710938 322.550781 88.710938 C 317.027344 88.710938 312.550781 84.230469 312.550781 78.710938 C 312.550781 73.1875 317.027344 68.710938 322.550781 68.710938 C 328.074219 68.710938 332.550781 73.1875 332.550781 78.710938 "/>
<path style="fill-rule:nonzero;fill:rgb(100%,100%,0%);fill-opacity:1;stroke-width:1;stroke-linecap:butt;stroke-linejoin:miter;stroke:rgb(0%,0%,0%);stroke-opacity:1;stroke-miterlimit:10;" d="M 555.839844 309.976562 C 555.839844 315.5 551.363281 319.976562 545.839844 319.976562 C 540.316406 319.976562 535.839844 315.5 535.839844 309.976562 C 535.839844 304.453125 540.316406 299.976562 545.839844 299.976562 C 551.363281 299.976562 555.839844 304.453125 555.839844 309.976562 "/>
<path style="fill-rule:nonzero;fill:rgb(0%,0%,100%);fill-opacity:1;stroke-width:1;stroke-linecap:butt;stroke-linejoin:miter;stroke:rgb(0%,0%,0%);stroke-opacity:1;stroke-miterlimit:10;" d="M 392.863281 229.738281 C 392.863281 235.261719 388.386719 239.738281 382.863281 239.738281 C 377.34375 239.738281 372.863281 235.261719 372.863281 229.738281 C 372.863281 224.214844 377.34375 219.738281 382.863281 219.738281 C 388.386719 219.738281 392.863281 224.214844 392.863281 229.738281 "/>
<path style="fill-rule:nonzero;fill:rgb(100%,0%,100%);fill-opacity:1;stroke-width:1;stroke-linecap:butt;stroke-linejoin:miter;stroke:rgb(0%,0%,0%);stroke-opacity:1;stroke-miterlimit:10;" d="M 576.265625 442.65625 C 576.265625 448.179688 571.789062 452.65625 566.265625 452.65625 C 560.742188 452.65625 556.265625 448.179688 556.265625 442.65625 C 556.265625 437.132812 560.742188 432.65625 566.265625 432.65625 C 571.789062 432.65625 576.265625 437.132812 576.265625 442.65625 "/>
<path style="fill-rule:nonzero;fill:rgb(100%,0%,0%);fill-opacity:1;stroke-width:1;stroke-linecap:butt;stroke-linejoin:miter;stroke:rgb(0%,0%,0%);stroke-opacity:1;stroke-miterlimit:10;" d="M 289.828125 79.640625 C 289.828125 85.164062 285.351562 89.640625 279.828125 89.640625 C 274.304688 89.640625 269.828125 85.164062 269.828125 79.640625 C 269.828125 74.121094 274.304688 69.640625 279.828125 69.640625 C 285.351562 69.640625 289.828125 74.121094 289.828125 79.640625 "/>
<path style="fill-rule:nonzero;fill:rgb(0%,100%,100%);fill-opacity:1;stroke-width:1;stroke-linecap:butt;stroke-linejoin:miter;stroke:rgb(0%,0%,0%);stroke-opacity:1;stroke-miterlimit:10;" d="M 517.621094 522.179688 C 517.621094 527.703125 513.144531 532.179688 507.621094 532.179688 C 502.097656 532.179688 497.621094 527.703125 497.621094 522.179688 C 497.621094 516.65625 502.097656 512.179688 507.621094 512.179688 C 513.144531 512.179688 517.621094 516.65625 517.621094 522.179688 "/>
<path style="fill-rule:nonzero;fill:rgb(50.196078%,50.196078%,50.196078%);fill-opacity:1;stroke-width:1;stroke-linecap:butt;stroke-linejoin:miter;stroke:rgb(0%,0%,0%);stroke-opacity:1;stroke-miterlimit:10;" d="M 462.042969 520.46875 C 462.042969 525.992188 457.5625 530.46875 452.042969 530.46875 C 446.519531 530.46875 442.042969 525.992188 442.042969 520.46875 C 442.042969 514.945312 446.519531 510.46875 452.042969 510.46875 C 457.5625 510.46875 462.042969 514.945312 462.042969 520.46875 "/>
<path style="fill-rule:nonzero;fill:rgb(50%,0%,0%);fill-opacity:1;stroke-width:1;stroke-linecap:butt;stroke-linejoin:miter;stroke:rgb(0%,0%,0%);stroke-opacity:1;stroke-miterlimit:10;" d="M 323.84375 561.035156 C 323.84375 566.558594 319.367188 571.035156 313.84375 571.035156 C 308.320312 571.035156 303.84375 566.558594 303.84375 561.035156 C 303.84375 555.511719 308.320312 551.035156 313.84375 551.035156 C 319.367188 551.035156 323.84375 555.511719 323.84375 561.035156 "/>
<path style="fill-rule:nonzero;fill:rgb(50.196078%,50.196078%,50.196078%);fill-opacity:1;stroke-width:1;stroke-linecap:butt;stroke-linejoin:miter;stroke:rgb(0%,0%,0%);stroke-opacity:1;stroke-miterlimit:10;" d="M 376.835938 580 C 376.835938 585.523438 372.359375 590 366.835938 590 C 361.3125 590 356.835938 585.523438 356.835938 580 C 356.835938 574.476562 361.3125 570 366.835938 570 C 372.359375 570 376.835938 574.476562 376.835938 580 "/>
<path style="fill-rule:nonzero;fill:rgb(0%,50%,0%);fill-opacity:1;stroke-width:1;stroke-linecap:butt;stroke-linejoin:miter;stroke:rgb(0%,0%,0%);stroke-opacity:1;stroke-miterlimit:10;" d="M 586.558594 525.363281 C 586.558594 530.886719 582.082031 535.363281 576.558594 535.363281 C 571.035156 535.363281 566.558594 530.886719 566.558594 525.363281 C 566.558594 519.839844 571.035156 515.363281 576.558594 515.363281 C 582.082031 515.363281 586.558594 519.839844 586.558594 525.363281 "/>
<path style="fill-rule:nonzero;fill:rgb(50%,0%,0%);fill-opacity:1;stroke-width:1;stroke-linecap:butt;stroke-linejoin:miter;stroke:rgb(0%,0%,0%);stroke-opacity:1;stroke-miterlimit:10;" d="M 393.488281 491.789062 C 393.488281 497.3125 389.011719 501.789062 383.488281 501.789062 C 377.964844 501.789062 373.488281 497.3125 373.488281 491.789062 C 373.488281 486.269531 377.964844 481.789062 383.488281 481.789062 C 389.011719 481.789062 393.488281 486.269531 393.488281 491.789062 "/>
<path style="fill-rule:nonzero;fill:rgb(100%,0%,0%);fill-opacity:1;stroke-width:1;stroke-linecap:butt;stroke-linejoin:miter;stroke:rgb(0%,0%,0%);stroke-opacity:1;stroke-miterlimit:10;" d="M 405.121094 407.738281 C 405.121094 413.261719 400.640625 417.738281 395.121094 417.738281 C 389.597656 417.738281 385.121094 413.261719 385.121094 407.738281 C 385.121094 402.214844 389.597656 397.738281 395.121094 397.738281 C 400.640625 397.738281 405.121094 402.214844 405.121094 407.738281 "/>
<path style="fill-rule:nonzero;fill:rgb(50.196078%,50.196078%,50.196078%);fill-opacity:1;stroke-width:1;stroke-linecap:butt;stroke-linejoin:miter;stroke:rgb(0%,0%,0%);stroke-opacity:1;stroke-miterlimit:10;" d="M 537.617188 489.566406 C 537.617188 495.089844 533.140625 499.566406 527.617188 499.566406 C 522.09375 499.566406 517.617188 495.089844 517.617188 489.566406 C 517.617188 484.046875 522.09375 479.566406 527.617188 479.566406 C 533.140625 479.566406 537.617188 484.046875 537.617188 489.566406 "/>
<path style="fill-rule:nonzero;fill:rgb(100%,0%,0%);fill-opacity:1;stroke-width:1;stroke-linecap:butt;stroke-linejoin:miter;stroke:rgb(0%,0%,0%);stroke-opacity:1;stroke-miterlimit:10;" d="M 456.753906 274.550781 C 456.753906 280.074219 452.277344 284.550781 446.753906 284.550781 C 441.230469 284.550781 436.753906 280.074219 436.753906 274.550781 C 436.753906 269.027344 441.230469 264.550781 446.753906 264.550781 C 452.277344 264.550781 456.753906 269.027344 456.753906 274.550781 "/>
<path style="fill-rule:nonzero;fill:rgb(100%,0%,0%);fill-opacity:1;stroke-width:1;stroke-linecap:butt;stroke-linejoin:miter;stroke:rgb(0%,0%,0%);stroke-opacity:1;stroke-miterlimit:10;" d="M 358.640625 412.265625 C 358.640625 417.789062 354.164062 422.265625 348.640625 422.265625 C 343.117188 422.265625 338.640625 417.789062 338.640625 412.265625 C 338.640625 406.742188 343.117188 402.265625 348.640625 402.265625 C 354.164062 402.265625 358.640625 406.742188 358.640625 412.265625 "/>
<path style="fill-rule:nonzero;fill:rgb(100%,0%,0%);fill-opacity:1;stroke-width:1;stroke-linecap:butt;stroke-linejoin:miter;stroke:rgb(0%,0%,0%);stroke-opacity:1;stroke-miterlimit:10;" d="M 491.53125 392.050781 C 491.53125 397.574219 487.050781 402.050781 481.53125 402.050781 C 476.007812 402.050781 471.53125 397.574219 471.53125 392.050781 C 471.53125 386.527344 476.007812 382.050781 481.53125 382.050781 C 487.050781 382.050781 491.53125 386.527344 491.53125 392.050781 "/>
<path style="fill-rule:nonzero;fill:rgb(100%,0%,0%);fill-opacity:1;stroke-width:1;stroke-linecap:butt;stroke-linejoin:miter;stroke:rgb(0%,0%,0%);stroke-opacity:1;stroke-miterlimit:10;" d="M 470.992188 398.023438 C 470.992188 403.546875 466.515625 408.023438 460.992188 408.023438 C 455.46875 408.023438 450.992188 403.546875 450.992188 398.023438 C 450.992188 392.5 455.46875 388.023438 460.992188 388.023438 C 466.515625 388.023438 470.992188 392.5 470.992188 398.023438 "/>
</g>
</svg>
