<?xml version="1.0" encoding="UTF-8"?>
<svg xmlns="http://www.w3.org/2000/svg" xmlns:xlink="http://www.w3.org/1999/xlink" width="600pt" height="600pt" viewBox="0 0 600 600" version="1.1">
<g id="surface8">
<rect x="0" y="0" width="600" height="600" style="fill:rgb(100%,100%,100%);fill-opacity:1;stroke:none;"/>
<path style="fill:none;stroke-width:1;stroke-linecap:butt;stroke-linejoin:miter;stroke:rgb(26.666667%,26.666667%,26.666667%);stroke-opacity:1;stroke-miterlimit:10;" d="M 413.800781 345.929688 C 441.355469 331.625 454.25 308.664062 446.109375 278.785156 "/>
<path style=" stroke:none;fill-rule:nonzero;fill:rgb(26.666667%,26.666667%,26.666667%);fill-opacity:1;" d="M 444.609375 273.28125 L 447.898438 278.296875 L 444.320312 279.273438 L 444.609375 273.28125 "/>
<path style="fill:none;stroke-width:1;stroke-linecap:butt;stroke-linejoin:miter;stroke:rgb(26.666667%,26.666667%,26.666667%);stroke-opacity:1;stroke-miterlimit:10;" d="M 413.800781 345.929688 C 417.9375 291.535156 395.179688 252.59375 343.414062 235.535156 "/>
<path style=" stroke:none;fill-rule:nonzero;fill:rgb(26.666667%,26.666667%,26.666667%);fill-opacity:1;" d="M 337.992188 233.75 L 343.992188 233.773438 L 342.832031 237.296875 L 337.992188 233.75 "/>
<path style="fill:none;stroke-width:1;stroke-linecap:butt;stroke-linejoin:miter;stroke:rgb(26.666667%,26.666667%,26.666667%);stroke-opacity:1;stroke-miterlimit:10;" d="M 413.800781 345.929688 C 400.449219 331.816406 383.921875 327.378906 367.84375 338.0625 "/>
<path style=" stroke:none;fill-rule:nonzero;fill:rgb(26.666667%,26.666667%,26.666667%);fill-opacity:1;" d="M 363.089844 341.21875 L 366.816406 336.515625 L 368.867188 339.605469 L 363.089844 341.21875 "/>
<path style="fill:none;stroke-width:1;stroke-linecap:butt;stroke-linejoin:miter;stroke:rgb(26.666667%,26.666667%,26.666667%);stroke-opacity:1;stroke-miterlimit:10;" d="M 413.800781 345.929688 C 419.28125 389.125 443.289062 416.367188 486.527344 420.972656 "/>
<path style=" stroke:none;fill-rule:nonzero;fill:rgb(26.666667%,26.666667%,26.666667%);fill-opacity:1;" d="M 492.203125 421.578125 L 486.332031 422.816406 L 486.726562 419.128906 L 492.203125 421.578125 "/>
<path style="fill:none;stroke-width:1;stroke-linecap:butt;stroke-linejoin:miter;stroke:rgb(26.666667%,26.666667%,26.666667%);stroke-opacity:1;stroke-miterlimit:10;" d="M 413.800781 345.929688 C 411.011719 401.488281 435.242188 440.542969 488.445312 456.613281 "/>
<path style=" stroke:none;fill-rule:nonzero;fill:rgb(26.666667%,26.666667%,26.666667%);fill-opacity:1;" d="M 493.910156 458.265625 L 487.910156 458.390625 L 488.984375 454.839844 L 493.910156 458.265625 "/>
<path style="fill:none;stroke-width:1;stroke-linecap:butt;stroke-linejoin:miter;stroke:rgb(26.666667%,26.666667%,26.666667%);stroke-opacity:1;stroke-miterlimit:10;" d="M 413.800781 345.929688 C 382.027344 387.992188 380.132812 431.585938 413.363281 472.441406 "/>
<path style=" stroke:none;fill-rule:nonzero;fill:rgb(26.666667%,26.666667%,26.666667%);fill-opacity:1;" d="M 416.964844 476.867188 L 411.925781 473.613281 L 414.800781 471.273438 L 416.964844 476.867188 "/>
<path style="fill:none;stroke-width:1;stroke-linecap:butt;stroke-linejoin:miter;stroke:rgb(26.666667%,26.666667%,26.666667%);stroke-opacity:1;stroke-miterlimit:10;" d="M 413.800781 345.929688 C 459.492188 338.265625 487.292969 311.582031 490.492188 265.417969 "/>
<path style=" stroke:none;fill-rule:nonzero;fill:rgb(26.666667%,26.666667%,26.666667%);fill-opacity:1;" d="M 490.886719 259.722656 L 492.339844 265.542969 L 488.640625 265.289062 L 490.886719 259.722656 "/>
<path style="fill:none;stroke-width:1;stroke-linecap:butt;stroke-linejoin:miter;stroke:rgb(26.666667%,26.666667%,26.666667%);stroke-opacity:1;stroke-miterlimit:10;" d="M 413.800781 345.929688 C 441.085938 293.667969 434.964844 245.433594 390.933594 206.296875 "/>
<path style=" stroke:none;fill-rule:nonzero;fill:rgb(26.666667%,26.666667%,26.666667%);fill-opacity:1;" d="M 386.667969 202.507812 L 392.164062 204.914062 L 389.699219 207.683594 L 386.667969 202.507812 "/>
<path style="fill:none;stroke-width:1;stroke-linecap:butt;stroke-linejoin:miter;stroke:rgb(26.666667%,26.666667%,26.666667%);stroke-opacity:1;stroke-miterlimit:10;" d="M 413.800781 345.929688 C 449.953125 397.875 498.820312 415.886719 558.007812 393.601562 "/>
<path style=" stroke:none;fill-rule:nonzero;fill:rgb(26.666667%,26.666667%,26.666667%);fill-opacity:1;" d="M 563.351562 391.59375 L 558.664062 395.339844 L 557.355469 391.867188 L 563.351562 391.59375 "/>
<path style="fill:none;stroke-width:1;stroke-linecap:butt;stroke-linejoin:miter;stroke:rgb(26.666667%,26.666667%,26.666667%);stroke-opacity:1;stroke-miterlimit:10;" d="M 413.800781 345.929688 C 347.570312 353.09375 306.371094 389.152344 296.953125 455.0625 "/>
<path style=" stroke:none;fill-rule:nonzero;fill:rgb(26.666667%,26.666667%,26.666667%);fill-opacity:1;" d="M 296.144531 460.710938 L 295.117188 454.800781 L 298.789062 455.324219 L 296.144531 460.710938 "/>
<path style="fill:none;stroke-width:1;stroke-linecap:butt;stroke-linejoin:miter;stroke:rgb(26.666667%,26.666667%,26.666667%);stroke-opacity:1;stroke-miterlimit:10;" d="M 413.800781 345.929688 C 367.851562 361.234375 343.550781 393.277344 347.617188 441.484375 "/>
<path style=" stroke:none;fill-rule:nonzero;fill:rgb(26.666667%,26.666667%,26.666667%);fill-opacity:1;" d="M 348.097656 447.171875 L 345.769531 441.640625 L 349.464844 441.332031 L 348.097656 447.171875 "/>
<path style="fill:none;stroke-width:1;stroke-linecap:butt;stroke-linejoin:miter;stroke:rgb(26.666667%,26.666667%,26.666667%);stroke-opacity:1;stroke-miterlimit:10;" d="M 413.800781 345.929688 C 409.472656 303.871094 386.800781 276.8125 344.925781 271.40625 "/>
<path style=" stroke:none;fill-rule:nonzero;fill:rgb(26.666667%,26.666667%,26.666667%);fill-opacity:1;" d="M 339.269531 270.675781 L 345.164062 269.566406 L 344.691406 273.246094 L 339.269531 270.675781 "/>
<path style="fill:none;stroke-width:1;stroke-linecap:butt;stroke-linejoin:miter;stroke:rgb(26.666667%,26.666667%,26.666667%);stroke-opacity:1;stroke-miterlimit:10;" d="M 413.800781 345.929688 C 481.9375 365.03125 536.683594 345.691406 572.128906 284.488281 "/>
<path style=" stroke:none;fill-rule:nonzero;fill:rgb(26.666667%,26.666667%,26.666667%);fill-opacity:1;" d="M 574.992188 279.550781 L 573.734375 285.417969 L 570.527344 283.558594 L 574.992188 279.550781 "/>
<path style="fill:none;stroke-width:1;stroke-linecap:butt;stroke-linejoin:miter;stroke:rgb(26.666667%,26.666667%,26.666667%);stroke-opacity:1;stroke-miterlimit:10;" d="M 413.800781 345.929688 C 394.875 297.035156 359 272.589844 307.050781 279.304688 "/>
<path style=" stroke:none;fill-rule:nonzero;fill:rgb(26.666667%,26.666667%,26.666667%);fill-opacity:1;" d="M 301.390625 280.035156 L 306.8125 277.464844 L 307.285156 281.140625 L 301.390625 280.035156 "/>
<path style="fill:none;stroke-width:1;stroke-linecap:butt;stroke-linejoin:miter;stroke:rgb(26.666667%,26.666667%,26.666667%);stroke-opacity:1;stroke-miterlimit:10;" d="M 413.800781 345.929688 C 466.402344 377.1875 516.675781 373.542969 559.808594 330.203125 "/>
<path style=" stroke:none;fill-rule:nonzero;fill:rgb(26.666667%,26.666667%,26.666667%);fill-opacity:1;" d="M 563.835938 326.15625 L 561.125 331.507812 L 558.496094 328.894531 L 563.835938 326.15625 "/>
<path style="fill:none;stroke-width:1;stroke-linecap:butt;stroke-linejoin:miter;stroke:rgb(26.666667%,26.666667%,26.666667%);stroke-opacity:1;stroke-miterlimit:10;" d="M 413.800781 345.929688 C 368.152344 283.992188 308.363281 264.148438 236.972656 292.742188 "/>
<path style=" stroke:none;fill-rule:nonzero;fill:rgb(26.666667%,26.666667%,26.666667%);fill-opacity:1;" d="M 231.671875 294.867188 L 236.28125 291.023438 L 237.660156 294.464844 L 231.671875 294.867188 "/>
<path style="fill:none;stroke-width:1;stroke-linecap:butt;stroke-linejoin:miter;stroke:rgb(26.666667%,26.666667%,26.666667%);stroke-opacity:1;stroke-miterlimit:10;" d="M 442.027344 263.800781 C 418.667969 226.410156 385.058594 211.566406 343.335938 225.640625 "/>
<path style=" stroke:none;fill-rule:nonzero;fill:rgb(26.666667%,26.666667%,26.666667%);fill-opacity:1;" d="M 337.929688 227.464844 L 342.746094 223.886719 L 343.929688 227.398438 L 337.929688 227.464844 "/>
<path style="fill:none;stroke-width:1;stroke-linecap:butt;stroke-linejoin:miter;stroke:rgb(26.666667%,26.666667%,26.666667%);stroke-opacity:1;stroke-miterlimit:10;" d="M 442.027344 263.800781 C 396.90625 265.300781 366.550781 287.472656 357.554688 331.65625 "/>
<path style=" stroke:none;fill-rule:nonzero;fill:rgb(26.666667%,26.666667%,26.666667%);fill-opacity:1;" d="M 356.417969 337.25 L 355.738281 331.289062 L 359.371094 332.027344 L 356.417969 337.25 "/>
<path style="fill:none;stroke-width:1;stroke-linecap:butt;stroke-linejoin:miter;stroke:rgb(26.666667%,26.666667%,26.666667%);stroke-opacity:1;stroke-miterlimit:10;" d="M 442.027344 263.800781 C 455.480469 272.777344 469.988281 273.511719 480.785156 261.660156 "/>
<path style=" stroke:none;fill-rule:nonzero;fill:rgb(26.666667%,26.666667%,26.666667%);fill-opacity:1;" d="M 484.628906 257.445312 L 482.15625 262.910156 L 479.414062 260.414062 L 484.628906 257.445312 "/>
<path style="fill:none;stroke-width:1;stroke-linecap:butt;stroke-linejoin:miter;stroke:rgb(26.666667%,26.666667%,26.666667%);stroke-opacity:1;stroke-miterlimit:10;" d="M 442.027344 263.800781 C 409.601562 237.433594 374.824219 234.355469 341.796875 259.867188 "/>
<path style=" stroke:none;fill-rule:nonzero;fill:rgb(26.666667%,26.666667%,26.666667%);fill-opacity:1;" d="M 337.28125 263.355469 L 340.664062 258.402344 L 342.929688 261.335938 L 337.28125 263.355469 "/>
<path style="fill:none;stroke-width:1;stroke-linecap:butt;stroke-linejoin:miter;stroke:rgb(26.666667%,26.666667%,26.666667%);stroke-opacity:1;stroke-miterlimit:10;" d="M 442.027344 263.800781 C 479.742188 300.136719 522.523438 307.195312 566.765625 279.257812 "/>
<path style=" stroke:none;fill-rule:nonzero;fill:rgb(26.666667%,26.666667%,26.666667%);fill-opacity:1;" d="M 571.589844 276.210938 L 567.757812 280.824219 L 565.777344 277.691406 L 571.589844 276.210938 "/>
<path style="fill:none;stroke-width:1;stroke-linecap:butt;stroke-linejoin:miter;stroke:rgb(26.666667%,26.666667%,26.666667%);stroke-opacity:1;stroke-miterlimit:10;" d="M 442.027344 263.800781 C 393.984375 231.429688 346.1875 232.089844 303.171875 270.824219 "/>
<path style=" stroke:none;fill-rule:nonzero;fill:rgb(26.666667%,26.666667%,26.666667%);fill-opacity:1;" d="M 298.929688 274.640625 L 301.929688 269.445312 L 304.410156 272.199219 L 298.929688 274.640625 "/>
<path style="fill:none;stroke-width:1;stroke-linecap:butt;stroke-linejoin:miter;stroke:rgb(26.666667%,26.666667%,26.666667%);stroke-opacity:1;stroke-miterlimit:10;" d="M 442.027344 263.800781 C 465.234375 311.699219 503.546875 333.421875 555.558594 322.347656 "/>
<path style=" stroke:none;fill-rule:nonzero;fill:rgb(26.666667%,26.666667%,26.666667%);fill-opacity:1;" d="M 561.136719 321.160156 L 555.941406 324.160156 L 555.171875 320.535156 L 561.136719 321.160156 "/>
<path style="fill:none;stroke-width:1;stroke-linecap:butt;stroke-linejoin:miter;stroke:rgb(26.666667%,26.666667%,26.666667%);stroke-opacity:1;stroke-miterlimit:10;" d="M 442.027344 263.800781 C 463.164062 213.640625 453.964844 169.582031 410.378906 137.050781 "/>
<path style=" stroke:none;fill-rule:nonzero;fill:rgb(26.666667%,26.666667%,26.666667%);fill-opacity:1;" d="M 405.804688 133.640625 L 411.488281 135.566406 L 409.269531 138.539062 L 405.804688 133.640625 "/>
<path style="fill:none;stroke-width:1;stroke-linecap:butt;stroke-linejoin:miter;stroke:rgb(26.666667%,26.666667%,26.666667%);stroke-opacity:1;stroke-miterlimit:10;" d="M 328.539062 230.632812 C 306.890625 269.488281 310.171875 306.402344 342.921875 336.414062 "/>
<path style=" stroke:none;fill-rule:nonzero;fill:rgb(26.666667%,26.666667%,26.666667%);fill-opacity:1;" d="M 347.128906 340.269531 L 341.671875 337.78125 L 344.175781 335.046875 L 347.128906 340.269531 "/>
<path style="fill:none;stroke-width:1;stroke-linecap:butt;stroke-linejoin:miter;stroke:rgb(26.666667%,26.666667%,26.666667%);stroke-opacity:1;stroke-miterlimit:10;" d="M 328.539062 230.632812 C 371.617188 276.867188 422.46875 287.769531 477.824219 257.375 "/>
<path style=" stroke:none;fill-rule:nonzero;fill:rgb(26.666667%,26.666667%,26.666667%);fill-opacity:1;" d="M 482.824219 254.628906 L 478.714844 259 L 476.929688 255.75 L 482.824219 254.628906 "/>
<path style="fill:none;stroke-width:1;stroke-linecap:butt;stroke-linejoin:miter;stroke:rgb(26.666667%,26.666667%,26.666667%);stroke-opacity:1;stroke-miterlimit:10;" d="M 328.539062 230.632812 C 348.324219 235.109375 365.152344 229.324219 372.972656 210.738281 "/>
<path style=" stroke:none;fill-rule:nonzero;fill:rgb(26.666667%,26.666667%,26.666667%);fill-opacity:1;" d="M 375.183594 205.476562 L 374.679688 211.457031 L 371.261719 210.015625 L 375.183594 205.476562 "/>
<path style="fill:none;stroke-width:1;stroke-linecap:butt;stroke-linejoin:miter;stroke:rgb(26.666667%,26.666667%,26.666667%);stroke-opacity:1;stroke-miterlimit:10;" d="M 328.539062 230.632812 C 368.492188 202.5 382.648438 164.496094 364.734375 119.089844 "/>
<path style=" stroke:none;fill-rule:nonzero;fill:rgb(26.666667%,26.666667%,26.666667%);fill-opacity:1;" d="M 362.640625 113.78125 L 366.457031 118.410156 L 363.007812 119.769531 L 362.640625 113.78125 "/>
<path style="fill:none;stroke-width:1;stroke-linecap:butt;stroke-linejoin:miter;stroke:rgb(26.666667%,26.666667%,26.666667%);stroke-opacity:1;stroke-miterlimit:10;" d="M 328.539062 230.632812 C 319.765625 237.222656 315.554688 246.726562 321.183594 255.914062 "/>
<path style=" stroke:none;fill-rule:nonzero;fill:rgb(26.666667%,26.666667%,26.666667%);fill-opacity:1;" d="M 324.164062 260.78125 L 319.601562 256.882812 L 322.761719 254.945312 L 324.164062 260.78125 "/>
<path style="fill:none;stroke-width:1;stroke-linecap:butt;stroke-linejoin:miter;stroke:rgb(26.666667%,26.666667%,26.666667%);stroke-opacity:1;stroke-miterlimit:10;" d="M 328.539062 230.632812 C 265.726562 196.929688 207.671875 203.96875 159.402344 256.375 "/>
<path style=" stroke:none;fill-rule:nonzero;fill:rgb(26.666667%,26.666667%,26.666667%);fill-opacity:1;" d="M 155.535156 260.570312 L 158.039062 255.117188 L 160.765625 257.628906 L 155.535156 260.570312 "/>
<path style="fill:none;stroke-width:1;stroke-linecap:butt;stroke-linejoin:miter;stroke:rgb(26.666667%,26.666667%,26.666667%);stroke-opacity:1;stroke-miterlimit:10;" d="M 328.539062 230.632812 C 285.308594 191.957031 237.804688 186.085938 189.839844 218.628906 "/>
<path style=" stroke:none;fill-rule:nonzero;fill:rgb(26.666667%,26.666667%,26.666667%);fill-opacity:1;" d="M 185.117188 221.832031 L 188.800781 217.09375 L 190.882812 220.164062 L 185.117188 221.832031 "/>
<path style="fill:none;stroke-width:1;stroke-linecap:butt;stroke-linejoin:miter;stroke:rgb(26.666667%,26.666667%,26.666667%);stroke-opacity:1;stroke-miterlimit:10;" d="M 328.539062 230.632812 C 329.519531 181.421875 307.097656 147.28125 259.554688 134.734375 "/>
<path style=" stroke:none;fill-rule:nonzero;fill:rgb(26.666667%,26.666667%,26.666667%);fill-opacity:1;" d="M 254.035156 133.277344 L 260.027344 132.941406 L 259.082031 136.527344 L 254.035156 133.277344 "/>
<path style="fill:none;stroke-width:1;stroke-linecap:butt;stroke-linejoin:miter;stroke:rgb(26.666667%,26.666667%,26.666667%);stroke-opacity:1;stroke-miterlimit:10;" d="M 354.4375 346.964844 C 419.011719 352.519531 465.148438 325.824219 486.417969 264.644531 "/>
<path style=" stroke:none;fill-rule:nonzero;fill:rgb(26.666667%,26.666667%,26.666667%);fill-opacity:1;" d="M 488.292969 259.253906 L 488.171875 265.253906 L 484.667969 264.035156 L 488.292969 259.253906 "/>
<path style="fill:none;stroke-width:1;stroke-linecap:butt;stroke-linejoin:miter;stroke:rgb(26.666667%,26.666667%,26.666667%);stroke-opacity:1;stroke-miterlimit:10;" d="M 354.4375 346.964844 C 325.636719 375.8125 319.15625 409.28125 340.679688 443.828125 "/>
<path style=" stroke:none;fill-rule:nonzero;fill:rgb(26.666667%,26.666667%,26.666667%);fill-opacity:1;" d="M 343.699219 448.671875 L 339.109375 444.808594 L 342.253906 442.847656 L 343.699219 448.671875 "/>
<path style="fill:none;stroke-width:1;stroke-linecap:butt;stroke-linejoin:miter;stroke:rgb(26.666667%,26.666667%,26.666667%);stroke-opacity:1;stroke-miterlimit:10;" d="M 354.4375 346.964844 C 367.171875 321.109375 364.265625 296.71875 341.652344 278.980469 "/>
<path style=" stroke:none;fill-rule:nonzero;fill:rgb(26.666667%,26.666667%,26.666667%);fill-opacity:1;" d="M 337.160156 275.460938 L 342.796875 277.523438 L 340.507812 280.441406 L 337.160156 275.460938 "/>
<path style="fill:none;stroke-width:1;stroke-linecap:butt;stroke-linejoin:miter;stroke:rgb(26.666667%,26.666667%,26.666667%);stroke-opacity:1;stroke-miterlimit:10;" d="M 502.054688 422.628906 C 465.550781 419.773438 438.699219 434.808594 427.859375 469.710938 "/>
<path style=" stroke:none;fill-rule:nonzero;fill:rgb(26.666667%,26.666667%,26.666667%);fill-opacity:1;" d="M 426.167969 475.160156 L 426.089844 469.164062 L 429.628906 470.261719 L 426.167969 475.160156 "/>
<path style="fill:none;stroke-width:1;stroke-linecap:butt;stroke-linejoin:miter;stroke:rgb(26.666667%,26.666667%,26.666667%);stroke-opacity:1;stroke-miterlimit:10;" d="M 502.054688 422.628906 C 528.296875 431.304688 551.152344 425.355469 564.9375 401.496094 "/>
<path style=" stroke:none;fill-rule:nonzero;fill:rgb(26.666667%,26.666667%,26.666667%);fill-opacity:1;" d="M 567.789062 396.554688 L 566.542969 402.421875 L 563.332031 400.570312 L 567.789062 396.554688 "/>
<path style="fill:none;stroke-width:1;stroke-linecap:butt;stroke-linejoin:miter;stroke:rgb(26.666667%,26.666667%,26.666667%);stroke-opacity:1;stroke-miterlimit:10;" d="M 503.441406 461.144531 C 477.132812 447.394531 452.003906 449.824219 433.132812 472.628906 "/>
<path style=" stroke:none;fill-rule:nonzero;fill:rgb(26.666667%,26.666667%,26.666667%);fill-opacity:1;" d="M 429.496094 477.027344 L 431.707031 471.449219 L 434.5625 473.8125 L 429.496094 477.027344 "/>
<path style="fill:none;stroke-width:1;stroke-linecap:butt;stroke-linejoin:miter;stroke:rgb(26.666667%,26.666667%,26.666667%);stroke-opacity:1;stroke-miterlimit:10;" d="M 503.441406 461.144531 C 540.140625 458.628906 564.617188 439.746094 570.285156 403.464844 "/>
<path style=" stroke:none;fill-rule:nonzero;fill:rgb(26.666667%,26.666667%,26.666667%);fill-opacity:1;" d="M 571.164062 397.828125 L 572.117188 403.75 L 568.453125 403.179688 L 571.164062 397.828125 "/>
<path style="fill:none;stroke-width:1;stroke-linecap:butt;stroke-linejoin:miter;stroke:rgb(26.666667%,26.666667%,26.666667%);stroke-opacity:1;stroke-miterlimit:10;" d="M 503.441406 461.144531 C 479.191406 499.003906 480.230469 536.429688 511.398438 568.753906 "/>
<path style=" stroke:none;fill-rule:nonzero;fill:rgb(26.666667%,26.666667%,26.666667%);fill-opacity:1;" d="M 515.359375 572.863281 L 510.0625 570.042969 L 512.734375 567.46875 L 515.359375 572.863281 "/>
<path style="fill:none;stroke-width:1;stroke-linecap:butt;stroke-linejoin:miter;stroke:rgb(26.666667%,26.666667%,26.666667%);stroke-opacity:1;stroke-miterlimit:10;" d="M 423.242188 484.585938 C 427.824219 536.480469 455.328125 569.71875 506.773438 577.625 "/>
<path style=" stroke:none;fill-rule:nonzero;fill:rgb(26.666667%,26.666667%,26.666667%);fill-opacity:1;" d="M 512.414062 578.488281 L 506.492188 579.457031 L 507.054688 575.792969 L 512.414062 578.488281 "/>
<path style="fill:none;stroke-width:1;stroke-linecap:butt;stroke-linejoin:miter;stroke:rgb(26.666667%,26.666667%,26.666667%);stroke-opacity:1;stroke-miterlimit:10;" d="M 379.21875 195.886719 C 400.296875 184.1875 410.277344 165.894531 402.839844 143.066406 "/>
<path style=" stroke:none;fill-rule:nonzero;fill:rgb(26.666667%,26.666667%,26.666667%);fill-opacity:1;" d="M 401.074219 137.640625 L 404.601562 142.492188 L 401.078125 143.640625 L 401.074219 137.640625 "/>
<path style="fill:none;stroke-width:1;stroke-linecap:butt;stroke-linejoin:miter;stroke:rgb(26.666667%,26.666667%,26.666667%);stroke-opacity:1;stroke-miterlimit:10;" d="M 379.21875 195.886719 C 356.375 143.472656 316.222656 118.660156 259.882812 128.144531 "/>
<path style=" stroke:none;fill-rule:nonzero;fill:rgb(26.666667%,26.666667%,26.666667%);fill-opacity:1;" d="M 254.253906 129.089844 L 259.574219 126.316406 L 260.191406 129.972656 L 254.253906 129.089844 "/>
<path style="fill:none;stroke-width:1;stroke-linecap:butt;stroke-linejoin:miter;stroke:rgb(26.666667%,26.666667%,26.666667%);stroke-opacity:1;stroke-miterlimit:10;" d="M 379.21875 195.886719 C 341.09375 144.003906 290.9375 127 231.308594 151.175781 "/>
<path style=" stroke:none;fill-rule:nonzero;fill:rgb(26.666667%,26.666667%,26.666667%);fill-opacity:1;" d="M 226.023438 153.316406 L 230.613281 149.457031 L 232.007812 152.890625 L 226.023438 153.316406 "/>
<path style="fill:none;stroke-width:1;stroke-linecap:butt;stroke-linejoin:miter;stroke:rgb(26.666667%,26.666667%,26.666667%);stroke-opacity:1;stroke-miterlimit:10;" d="M 358.996094 104.542969 C 304.636719 84.394531 258.3125 96.316406 225.617188 144.132812 "/>
<path style=" stroke:none;fill-rule:nonzero;fill:rgb(26.666667%,26.666667%,26.666667%);fill-opacity:1;" d="M 222.394531 148.84375 L 224.085938 143.085938 L 227.148438 145.179688 L 222.394531 148.84375 "/>
<path style="fill:none;stroke-width:1;stroke-linecap:butt;stroke-linejoin:miter;stroke:rgb(26.666667%,26.666667%,26.666667%);stroke-opacity:1;stroke-miterlimit:10;" d="M 329.449219 269.410156 C 324.484375 208.519531 292.453125 169.699219 232.238281 159.648438 "/>
<path style=" stroke:none;fill-rule:nonzero;fill:rgb(26.666667%,26.666667%,26.666667%);fill-opacity:1;" d="M 226.609375 158.710938 L 232.542969 157.820312 L 231.933594 161.476562 L 226.609375 158.710938 "/>
<path style="fill:none;stroke-width:1;stroke-linecap:butt;stroke-linejoin:miter;stroke:rgb(26.666667%,26.666667%,26.666667%);stroke-opacity:1;stroke-miterlimit:10;" d="M 264.777344 20 C 231.710938 45.480469 220.742188 78.582031 237.980469 116.535156 "/>
<path style=" stroke:none;fill-rule:nonzero;fill:rgb(26.666667%,26.666667%,26.666667%);fill-opacity:1;" d="M 240.339844 121.730469 L 236.289062 117.300781 L 239.667969 115.769531 L 240.339844 121.730469 "/>
<path style="fill:none;stroke-width:1;stroke-linecap:butt;stroke-linejoin:miter;stroke:rgb(26.666667%,26.666667%,26.666667%);stroke-opacity:1;stroke-miterlimit:10;" d="M 264.777344 20 C 216.832031 47.589844 197.222656 88.882812 212.457031 142.011719 "/>
<path style=" stroke:none;fill-rule:nonzero;fill:rgb(26.666667%,26.666667%,26.666667%);fill-opacity:1;" d="M 214.027344 147.5 L 210.671875 142.523438 L 214.238281 141.503906 L 214.027344 147.5 "/>
<path style="fill:none;stroke-width:1;stroke-linecap:butt;stroke-linejoin:miter;stroke:rgb(26.666667%,26.666667%,26.666667%);stroke-opacity:1;stroke-miterlimit:10;" d="M 108.617188 69.410156 C 132.679688 120.964844 173.257812 144.625 229.054688 133.742188 "/>
<path style=" stroke:none;fill-rule:nonzero;fill:rgb(26.666667%,26.666667%,26.666667%);fill-opacity:1;" d="M 234.65625 132.652344 L 229.410156 135.5625 L 228.699219 131.921875 L 234.65625 132.652344 "/>
<path style="fill:none;stroke-width:1;stroke-linecap:butt;stroke-linejoin:miter;stroke:rgb(26.666667%,26.666667%,26.666667%);stroke-opacity:1;stroke-miterlimit:10;" d="M 108.617188 69.410156 C 117.804688 121.417969 148.503906 152.542969 201.152344 156.03125 "/>
<path style=" stroke:none;fill-rule:nonzero;fill:rgb(26.666667%,26.666667%,26.666667%);fill-opacity:1;" d="M 206.847656 156.410156 L 201.03125 157.882812 L 201.277344 154.183594 L 206.847656 156.410156 "/>
<path style="fill:none;stroke-width:1;stroke-linecap:butt;stroke-linejoin:miter;stroke:rgb(26.666667%,26.666667%,26.666667%);stroke-opacity:1;stroke-miterlimit:10;" d="M 207.582031 23.066406 C 191.058594 61.949219 197.824219 96.566406 231.84375 121.515625 "/>
<path style=" stroke:none;fill-rule:nonzero;fill:rgb(26.666667%,26.666667%,26.666667%);fill-opacity:1;" d="M 236.445312 124.890625 L 230.75 123.007812 L 232.941406 120.019531 L 236.445312 124.890625 "/>
<path style="fill:none;stroke-width:1;stroke-linecap:butt;stroke-linejoin:miter;stroke:rgb(26.666667%,26.666667%,26.666667%);stroke-opacity:1;stroke-miterlimit:10;" d="M 207.582031 23.066406 C 176.890625 63.515625 174.917969 105.554688 206.90625 144.925781 "/>
<path style=" stroke:none;fill-rule:nonzero;fill:rgb(26.666667%,26.666667%,26.666667%);fill-opacity:1;" d="M 210.503906 149.355469 L 205.46875 146.09375 L 208.34375 143.757812 L 210.503906 149.355469 "/>
<path style="fill:none;stroke-width:1;stroke-linecap:butt;stroke-linejoin:miter;stroke:rgb(26.666667%,26.666667%,26.666667%);stroke-opacity:1;stroke-miterlimit:10;" d="M 291.527344 281.308594 C 300.878906 226.886719 281.648438 185.503906 231.117188 163.355469 "/>
<path style=" stroke:none;fill-rule:nonzero;fill:rgb(26.666667%,26.666667%,26.666667%);fill-opacity:1;" d="M 225.890625 161.066406 L 231.859375 161.65625 L 230.371094 165.054688 L 225.890625 161.066406 "/>
<path style="fill:none;stroke-width:1;stroke-linecap:butt;stroke-linejoin:miter;stroke:rgb(26.666667%,26.666667%,26.666667%);stroke-opacity:1;stroke-miterlimit:10;" d="M 320.355469 29.617188 C 273.839844 39.261719 246.453125 67.691406 244.933594 115.121094 "/>
<path style=" stroke:none;fill-rule:nonzero;fill:rgb(26.666667%,26.666667%,26.666667%);fill-opacity:1;" d="M 244.75 120.824219 L 243.078125 115.058594 L 246.785156 115.179688 L 244.75 120.824219 "/>
<path style="fill:none;stroke-width:1;stroke-linecap:butt;stroke-linejoin:miter;stroke:rgb(26.666667%,26.666667%,26.666667%);stroke-opacity:1;stroke-miterlimit:10;" d="M 320.355469 29.617188 C 258.207031 41.234375 221.746094 78.355469 217.761719 141.414062 "/>
<path style=" stroke:none;fill-rule:nonzero;fill:rgb(26.666667%,26.666667%,26.666667%);fill-opacity:1;" d="M 217.402344 147.109375 L 215.910156 141.296875 L 219.613281 141.53125 L 217.402344 147.109375 "/>
<path style="fill:none;stroke-width:1;stroke-linecap:butt;stroke-linejoin:miter;stroke:rgb(26.666667%,26.666667%,26.666667%);stroke-opacity:1;stroke-miterlimit:10;" d="M 154.035156 40.25 C 157.085938 88.261719 181.695312 119.742188 229.03125 128.042969 "/>
<path style=" stroke:none;fill-rule:nonzero;fill:rgb(26.666667%,26.666667%,26.666667%);fill-opacity:1;" d="M 234.652344 129.027344 L 228.710938 129.867188 L 229.351562 126.214844 L 234.652344 129.027344 "/>
<path style="fill:none;stroke-width:1;stroke-linecap:butt;stroke-linejoin:miter;stroke:rgb(26.666667%,26.666667%,26.666667%);stroke-opacity:1;stroke-miterlimit:10;" d="M 154.035156 40.25 C 142.832031 89.042969 158.074219 127.65625 202.785156 150.058594 "/>
<path style=" stroke:none;fill-rule:nonzero;fill:rgb(26.666667%,26.666667%,26.666667%);fill-opacity:1;" d="M 207.886719 152.617188 L 201.957031 151.71875 L 203.617188 148.402344 L 207.886719 152.617188 "/>
<path style="fill:none;stroke-width:1;stroke-linecap:butt;stroke-linejoin:miter;stroke:rgb(26.666667%,26.666667%,26.666667%);stroke-opacity:1;stroke-miterlimit:10;" d="M 70.226562 202.511719 C 31.097656 232.382812 18.332031 271.1875 38.109375 316.210938 "/>
<path style=" stroke:none;fill-rule:nonzero;fill:rgb(26.666667%,26.666667%,26.666667%);fill-opacity:1;" d="M 40.40625 321.433594 L 36.410156 316.957031 L 39.808594 315.464844 L 40.40625 321.433594 "/>
<path style="fill:none;stroke-width:1;stroke-linecap:butt;stroke-linejoin:miter;stroke:rgb(26.666667%,26.666667%,26.666667%);stroke-opacity:1;stroke-miterlimit:10;" d="M 70.226562 202.511719 C 75.230469 239.601562 96.039062 263.152344 133.246094 266.519531 "/>
<path style=" stroke:none;fill-rule:nonzero;fill:rgb(26.666667%,26.666667%,26.666667%);fill-opacity:1;" d="M 138.929688 267.035156 L 133.082031 268.367188 L 133.414062 264.671875 L 138.929688 267.035156 "/>
<path style="fill:none;stroke-width:1;stroke-linecap:butt;stroke-linejoin:miter;stroke:rgb(26.666667%,26.666667%,26.666667%);stroke-opacity:1;stroke-miterlimit:10;" d="M 70.226562 202.511719 C 95.71875 187.007812 106.667969 164.121094 96.84375 136.035156 "/>
<path style=" stroke:none;fill-rule:nonzero;fill:rgb(26.666667%,26.666667%,26.666667%);fill-opacity:1;" d="M 94.960938 130.648438 L 98.59375 135.421875 L 95.09375 136.644531 L 94.960938 130.648438 "/>
<path style="fill:none;stroke-width:1;stroke-linecap:butt;stroke-linejoin:miter;stroke:rgb(26.666667%,26.666667%,26.666667%);stroke-opacity:1;stroke-miterlimit:10;" d="M 70.226562 202.511719 C 140.136719 224.507812 197.363281 206.230469 236.121094 144.074219 "/>
<path style=" stroke:none;fill-rule:nonzero;fill:rgb(26.666667%,26.666667%,26.666667%);fill-opacity:1;" d="M 239.140625 139.230469 L 237.695312 145.054688 L 234.546875 143.089844 L 239.140625 139.230469 "/>
<path style="fill:none;stroke-width:1;stroke-linecap:butt;stroke-linejoin:miter;stroke:rgb(26.666667%,26.666667%,26.666667%);stroke-opacity:1;stroke-miterlimit:10;" d="M 70.226562 202.511719 C 124.152344 225.773438 171.625 216.148438 207.257812 169.519531 "/>
<path style=" stroke:none;fill-rule:nonzero;fill:rgb(26.666667%,26.666667%,26.666667%);fill-opacity:1;" d="M 210.722656 164.988281 L 208.730469 170.648438 L 205.78125 168.394531 L 210.722656 164.988281 "/>
<path style="fill:none;stroke-width:1;stroke-linecap:butt;stroke-linejoin:miter;stroke:rgb(26.666667%,26.666667%,26.666667%);stroke-opacity:1;stroke-miterlimit:10;" d="M 106.382812 388.046875 C 104.628906 358 89.414062 337.4375 59.742188 332.882812 "/>
<path style=" stroke:none;fill-rule:nonzero;fill:rgb(26.666667%,26.666667%,26.666667%);fill-opacity:1;" d="M 54.101562 332.019531 L 60.023438 331.050781 L 59.460938 334.714844 L 54.101562 332.019531 "/>
<path style="fill:none;stroke-width:1;stroke-linecap:butt;stroke-linejoin:miter;stroke:rgb(26.666667%,26.666667%,26.666667%);stroke-opacity:1;stroke-miterlimit:10;" d="M 106.382812 388.046875 C 148.183594 364.671875 165.878906 329.042969 152.980469 282.976562 "/>
<path style=" stroke:none;fill-rule:nonzero;fill:rgb(26.666667%,26.666667%,26.666667%);fill-opacity:1;" d="M 151.441406 277.484375 L 154.765625 282.476562 L 151.195312 283.476562 L 151.441406 277.484375 "/>
<path style="fill:none;stroke-width:1;stroke-linecap:butt;stroke-linejoin:miter;stroke:rgb(26.666667%,26.666667%,26.666667%);stroke-opacity:1;stroke-miterlimit:10;" d="M 106.382812 388.046875 C 162.140625 391.070312 201.4375 366.90625 217.792969 313.5625 "/>
<path style=" stroke:none;fill-rule:nonzero;fill:rgb(26.666667%,26.666667%,26.666667%);fill-opacity:1;" d="M 219.464844 308.105469 L 219.566406 314.105469 L 216.019531 313.019531 L 219.464844 308.105469 "/>
<path style="fill:none;stroke-width:1;stroke-linecap:butt;stroke-linejoin:miter;stroke:rgb(26.666667%,26.666667%,26.666667%);stroke-opacity:1;stroke-miterlimit:10;" d="M 44.398438 330.527344 C 105.25 365.390625 162.558594 360.082031 211.433594 309.839844 "/>
<path style=" stroke:none;fill-rule:nonzero;fill:rgb(26.666667%,26.666667%,26.666667%);fill-opacity:1;" d="M 215.414062 305.75 L 212.765625 311.132812 L 210.105469 308.546875 L 215.414062 305.75 "/>
<path style="fill:none;stroke-width:1;stroke-linecap:butt;stroke-linejoin:miter;stroke:rgb(26.666667%,26.666667%,26.666667%);stroke-opacity:1;stroke-miterlimit:10;" d="M 20 138.460938 C 41.53125 151.867188 63.367188 151.636719 80.644531 133.199219 "/>
<path style=" stroke:none;fill-rule:nonzero;fill:rgb(26.666667%,26.666667%,26.666667%);fill-opacity:1;" d="M 84.546875 129.035156 L 82 134.46875 L 79.292969 131.933594 L 84.546875 129.035156 "/>
<path style="fill:none;stroke-width:1;stroke-linecap:butt;stroke-linejoin:miter;stroke:rgb(26.666667%,26.666667%,26.666667%);stroke-opacity:1;stroke-miterlimit:10;" d="M 20 138.460938 C 74.433594 193.109375 136.652344 203.921875 203.207031 165 "/>
<path style=" stroke:none;fill-rule:nonzero;fill:rgb(26.666667%,26.666667%,26.666667%);fill-opacity:1;" d="M 208.132812 162.121094 L 204.144531 166.601562 L 202.269531 163.402344 L 208.132812 162.121094 "/>
<path style="fill:none;stroke-width:1;stroke-linecap:butt;stroke-linejoin:miter;stroke:rgb(26.666667%,26.666667%,26.666667%);stroke-opacity:1;stroke-miterlimit:10;" d="M 148.765625 267.921875 C 195.570312 253.421875 220.808594 221.53125 217.75 172.675781 "/>
<path style=" stroke:none;fill-rule:nonzero;fill:rgb(26.666667%,26.666667%,26.666667%);fill-opacity:1;" d="M 217.394531 166.980469 L 219.601562 172.5625 L 215.898438 172.792969 L 217.394531 166.980469 "/>
<path style="fill:none;stroke-width:1;stroke-linecap:butt;stroke-linejoin:miter;stroke:rgb(26.666667%,26.666667%,26.666667%);stroke-opacity:1;stroke-miterlimit:10;" d="M 176.875 227.425781 C 171.03125 256.914062 180.582031 280.613281 208.125 292.453125 "/>
<path style=" stroke:none;fill-rule:nonzero;fill:rgb(26.666667%,26.666667%,26.666667%);fill-opacity:1;" d="M 213.367188 294.710938 L 207.390625 294.160156 L 208.855469 290.75 L 213.367188 294.710938 "/>
<path style="fill:none;stroke-width:1;stroke-linecap:butt;stroke-linejoin:miter;stroke:rgb(26.666667%,26.666667%,26.666667%);stroke-opacity:1;stroke-miterlimit:10;" d="M 176.875 227.425781 C 204.296875 219.402344 220.183594 200.933594 217.976562 172.527344 "/>
<path style=" stroke:none;fill-rule:nonzero;fill:rgb(26.666667%,26.666667%,26.666667%);fill-opacity:1;" d="M 217.53125 166.839844 L 219.824219 172.386719 L 216.125 172.671875 L 217.53125 166.839844 "/>
<path style="fill:none;stroke-width:1;stroke-linecap:butt;stroke-linejoin:miter;stroke:rgb(26.666667%,26.666667%,26.666667%);stroke-opacity:1;stroke-miterlimit:10;" d="M 91.722656 121.382812 C 133.777344 162.113281 181.441406 169.910156 231.121094 139.019531 "/>
<path style=" stroke:none;fill-rule:nonzero;fill:rgb(26.666667%,26.666667%,26.666667%);fill-opacity:1;" d="M 235.96875 136.007812 L 232.101562 140.59375 L 230.144531 137.445312 L 235.96875 136.007812 "/>
<path style="fill:none;stroke-width:1;stroke-linecap:butt;stroke-linejoin:miter;stroke:rgb(26.666667%,26.666667%,26.666667%);stroke-opacity:1;stroke-miterlimit:10;" d="M 91.722656 121.382812 C 118.273438 162.5625 155.773438 178.292969 202 162.207031 "/>
<path style=" stroke:none;fill-rule:nonzero;fill:rgb(26.666667%,26.666667%,26.666667%);fill-opacity:1;" d="M 207.390625 160.332031 L 202.609375 163.957031 L 201.390625 160.457031 L 207.390625 160.332031 "/>
<path style="fill:none;stroke-width:1;stroke-linecap:butt;stroke-linejoin:miter;stroke:rgb(26.666667%,26.666667%,26.666667%);stroke-opacity:1;stroke-miterlimit:10;" d="M 397.828125 127.6875 C 352.460938 90.394531 304.179688 86.488281 257.023438 121.414062 "/>
<path style=" stroke:none;fill-rule:nonzero;fill:rgb(26.666667%,26.666667%,26.666667%);fill-opacity:1;" d="M 252.441406 124.8125 L 255.921875 119.925781 L 258.128906 122.90625 L 252.441406 124.8125 "/>
<path style="fill:none;stroke-width:1;stroke-linecap:butt;stroke-linejoin:miter;stroke:rgb(26.666667%,26.666667%,26.666667%);stroke-opacity:1;stroke-miterlimit:10;" d="M 397.828125 127.6875 C 336.609375 91.308594 278.363281 95.796875 227.90625 145.992188 "/>
<path style=" stroke:none;fill-rule:nonzero;fill:rgb(26.666667%,26.666667%,26.666667%);fill-opacity:1;" d="M 223.859375 150.019531 L 226.597656 144.679688 L 229.210938 147.308594 L 223.859375 150.019531 "/>
<path style="fill:none;stroke-width:1;stroke-linecap:butt;stroke-linejoin:miter;stroke:rgb(26.666667%,26.666667%,26.666667%);stroke-opacity:1;stroke-miterlimit:10;" d="M 222.382812 298.585938 C 270.691406 254.609375 282.5 202.210938 251.808594 144.589844 "/>
<path style=" stroke:none;fill-rule:nonzero;fill:rgb(26.666667%,26.666667%,26.666667%);fill-opacity:1;" d="M 249.125 139.554688 L 253.445312 143.71875 L 250.171875 145.464844 L 249.125 139.554688 "/>
<path style="fill:none;stroke-width:1;stroke-linecap:butt;stroke-linejoin:miter;stroke:rgb(26.666667%,26.666667%,26.666667%);stroke-opacity:1;stroke-miterlimit:10;" d="M 222.382812 298.585938 C 255.96875 256.535156 259.066406 212.125 226.308594 169.484375 "/>
<path style=" stroke:none;fill-rule:nonzero;fill:rgb(26.666667%,26.666667%,26.666667%);fill-opacity:1;" d="M 222.832031 164.960938 L 227.78125 168.355469 L 224.839844 170.613281 L 222.832031 164.960938 "/>
<path style="fill:none;stroke-width:1;stroke-linecap:butt;stroke-linejoin:miter;stroke:rgb(26.666667%,26.666667%,26.666667%);stroke-opacity:1;stroke-miterlimit:10;" d="M 244.429688 130.742188 C 233.910156 128.660156 224.203125 131.796875 221.230469 141.898438 "/>
<path style=" stroke:none;fill-rule:nonzero;fill:rgb(26.666667%,26.666667%,26.666667%);fill-opacity:1;" d="M 219.621094 147.371094 L 219.453125 141.375 L 223.011719 142.417969 L 219.621094 147.371094 "/>
<path style="fill-rule:nonzero;fill:rgb(100%,0%,0%);fill-opacity:1;stroke-width:1;stroke-linecap:butt;stroke-linejoin:miter;stroke:rgb(0%,0%,0%);stroke-opacity:1;stroke-miterlimit:10;" d="M 423.800781 345.929688 C 423.800781 351.453125 419.324219 355.929688 413.800781 355.929688 C 408.277344 355.929688 403.800781 351.453125 403.800781 345.929688 C 403.800781 340.40625 408.277344 335.929688 413.800781 335.929688 C 419.324219 335.929688 423.800781 340.40625 423.800781 345.929688 "/>
<path style="fill-rule:nonzero;fill:rgb(100%,0%,0%);fill-opacity:1;stroke-width:1;stroke-linecap:butt;stroke-linejoin:miter;stroke:rgb(0%,0%,0%);stroke-opacity:1;stroke-miterlimit:10;" d="M 452.027344 263.800781 C 452.027344 269.324219 447.546875 273.800781 442.027344 273.800781 C 436.503906 273.800781 432.027344 269.324219 432.027344 263.800781 C 432.027344 258.277344 436.503906 253.800781 442.027344 253.800781 C 447.546875 253.800781 452.027344 258.277344 452.027344 263.800781 "/>
<path style="fill-rule:nonzero;fill:rgb(100%,0%,0%);fill-opacity:1;stroke-width:1;stroke-linecap:butt;stroke-linejoin:miter;stroke:rgb(0%,0%,0%);stroke-opacity:1;stroke-miterlimit:10;" d="M 338.539062 230.632812 C 338.539062 236.15625 334.0625 240.632812 328.539062 240.632812 C 323.015625 240.632812 318.539062 236.15625 318.539062 230.632812 C 318.539062 225.113281 323.015625 220.632812 328.539062 220.632812 C 334.0625 220.632812 338.539062 225.113281 338.539062 230.632812 "/>
<path style="fill-rule:nonzero;fill:rgb(100%,0%,0%);fill-opacity:1;stroke-width:1;stroke-linecap:butt;stroke-linejoin:miter;stroke:rgb(0%,0%,0%);stroke-opacity:1;stroke-miterlimit:10;" d="M 364.4375 346.964844 C 364.4375 352.488281 359.960938 356.964844 354.4375 356.964844 C 348.914062 356.964844 344.4375 352.488281 344.4375 346.964844 C 344.4375 341.441406 348.914062 336.964844 354.4375 336.964844 C 359.960938 336.964844 364.4375 341.441406 364.4375 346.964844 "/>
<path style="fill-rule:nonzero;fill:rgb(100%,0%,0%);fill-opacity:1;stroke-width:1;stroke-linecap:butt;stroke-linejoin:miter;stroke:rgb(0%,0%,0%);stroke-opacity:1;stroke-miterlimit:10;" d="M 512.054688 422.628906 C 512.054688 428.148438 507.578125 432.628906 502.054688 432.628906 C 496.53125 432.628906 492.054688 428.148438 492.054688 422.628906 C 492.054688 417.105469 496.53125 412.628906 502.054688 412.628906 C 507.578125 412.628906 512.054688 417.105469 512.054688 422.628906 "/>
<path style="fill-rule:nonzero;fill:rgb(100%,0%,0%);fill-opacity:1;stroke-width:1;stroke-linecap:butt;stroke-linejoin:miter;stroke:rgb(0%,0%,0%);stroke-opacity:1;stroke-miterlimit:10;" d="M 513.441406 461.144531 C 513.441406 466.667969 508.964844 471.144531 503.441406 471.144531 C 497.917969 471.144531 493.441406 466.667969 493.441406 461.144531 C 493.441406 455.621094 497.917969 451.144531 503.441406 451.144531 C 508.964844 451.144531 513.441406 455.621094 513.441406 461.144531 "/>
<path style="fill-rule:nonzero;fill:rgb(100%,0%,0%);fill-opacity:1;stroke-width:1;stroke-linecap:butt;stroke-linejoin:miter;stroke:rgb(0%,0%,0%);stroke-opacity:1;stroke-miterlimit:10;" d="M 433.242188 484.585938 C 433.242188 490.109375 428.765625 494.585938 423.242188 494.585938 C 417.71875 494.585938 413.242188 490.109375 413.242188 484.585938 C 413.242188 479.0625 417.71875 474.585938 423.242188 474.585938 C 428.765625 474.585938 433.242188 479.0625 433.242188 484.585938 "/>
<path style="fill-rule:nonzero;fill:rgb(100%,0%,0%);fill-opacity:1;stroke-width:1;stroke-linecap:butt;stroke-linejoin:miter;stroke:rgb(0%,0%,0%);stroke-opacity:1;stroke-miterlimit:10;" d="M 501.570312 249.824219 C 501.570312 255.347656 497.09375 259.824219 491.570312 259.824219 C 486.046875 259.824219 481.570312 255.347656 481.570312 249.824219 C 481.570312 244.304688 486.046875 239.824219 491.570312 239.824219 C 497.09375 239.824219 501.570312 244.304688 501.570312 249.824219 "/>
<path style="fill-rule:nonzero;fill:rgb(100%,0%,0%);fill-opacity:1;stroke-width:1;stroke-linecap:butt;stroke-linejoin:miter;stroke:rgb(0%,0%,0%);stroke-opacity:1;stroke-miterlimit:10;" d="M 389.21875 195.886719 C 389.21875 201.410156 384.742188 205.886719 379.21875 205.886719 C 373.695312 205.886719 369.21875 201.410156 369.21875 195.886719 C 369.21875 190.363281 373.695312 185.886719 379.21875 185.886719 C 384.742188 185.886719 389.21875 190.363281 389.21875 195.886719 "/>
<path style="fill-rule:nonzero;fill:rgb(100%,0%,0%);fill-opacity:1;stroke-width:1;stroke-linecap:butt;stroke-linejoin:miter;stroke:rgb(0%,0%,0%);stroke-opacity:1;stroke-miterlimit:10;" d="M 368.996094 104.542969 C 368.996094 110.066406 364.519531 114.542969 358.996094 114.542969 C 353.472656 114.542969 348.996094 110.066406 348.996094 104.542969 C 348.996094 99.019531 353.472656 94.542969 358.996094 94.542969 C 364.519531 94.542969 368.996094 99.019531 368.996094 104.542969 "/>
<path style="fill-rule:nonzero;fill:rgb(100%,0%,0%);fill-opacity:1;stroke-width:1;stroke-linecap:butt;stroke-linejoin:miter;stroke:rgb(0%,0%,0%);stroke-opacity:1;stroke-miterlimit:10;" d="M 582.6875 388.078125 C 582.6875 393.597656 578.210938 398.078125 572.6875 398.078125 C 567.164062 398.078125 562.6875 393.597656 562.6875 388.078125 C 562.6875 382.554688 567.164062 378.078125 572.6875 378.078125 C 578.210938 378.078125 582.6875 382.554688 582.6875 388.078125 "/>
<path style="fill-rule:nonzero;fill:rgb(100%,0%,0%);fill-opacity:1;stroke-width:1;stroke-linecap:butt;stroke-linejoin:miter;stroke:rgb(0%,0%,0%);stroke-opacity:1;stroke-miterlimit:10;" d="M 304.730469 470.597656 C 304.730469 476.121094 300.253906 480.597656 294.730469 480.597656 C 289.210938 480.597656 284.730469 476.121094 284.730469 470.597656 C 284.730469 465.074219 289.210938 460.597656 294.730469 460.597656 C 300.253906 460.597656 304.730469 465.074219 304.730469 470.597656 "/>
<path style="fill-rule:nonzero;fill:rgb(100%,0%,0%);fill-opacity:1;stroke-width:1;stroke-linecap:butt;stroke-linejoin:miter;stroke:rgb(0%,0%,0%);stroke-opacity:1;stroke-miterlimit:10;" d="M 358.929688 457.066406 C 358.929688 462.589844 354.453125 467.066406 348.929688 467.066406 C 343.40625 467.066406 338.929688 462.589844 338.929688 457.066406 C 338.929688 451.542969 343.40625 447.066406 348.929688 447.066406 C 354.453125 447.066406 358.929688 451.542969 358.929688 457.066406 "/>
<path style="fill-rule:nonzero;fill:rgb(100%,0%,0%);fill-opacity:1;stroke-width:1;stroke-linecap:butt;stroke-linejoin:miter;stroke:rgb(0%,0%,0%);stroke-opacity:1;stroke-miterlimit:10;" d="M 339.449219 269.410156 C 339.449219 274.929688 334.972656 279.410156 329.449219 279.410156 C 323.925781 279.410156 319.449219 274.929688 319.449219 269.410156 C 319.449219 263.886719 323.925781 259.410156 329.449219 259.410156 C 334.972656 259.410156 339.449219 263.886719 339.449219 269.410156 "/>
<path style="fill-rule:nonzero;fill:rgb(100%,0%,0%);fill-opacity:1;stroke-width:1;stroke-linecap:butt;stroke-linejoin:miter;stroke:rgb(0%,0%,0%);stroke-opacity:1;stroke-miterlimit:10;" d="M 274.777344 20 C 274.777344 25.523438 270.300781 30 264.777344 30 C 259.253906 30 254.777344 25.523438 254.777344 20 C 254.777344 14.476562 259.253906 10 264.777344 10 C 270.300781 10 274.777344 14.476562 274.777344 20 "/>
<path style="fill-rule:nonzero;fill:rgb(100%,0%,0%);fill-opacity:1;stroke-width:1;stroke-linecap:butt;stroke-linejoin:miter;stroke:rgb(0%,0%,0%);stroke-opacity:1;stroke-miterlimit:10;" d="M 118.617188 69.410156 C 118.617188 74.933594 114.140625 79.410156 108.617188 79.410156 C 103.09375 79.410156 98.617188 74.933594 98.617188 69.410156 C 98.617188 63.886719 103.09375 59.410156 108.617188 59.410156 C 114.140625 59.410156 118.617188 63.886719 118.617188 69.410156 "/>
<path style="fill-rule:nonzero;fill:rgb(100%,0%,0%);fill-opacity:1;stroke-width:1;stroke-linecap:butt;stroke-linejoin:miter;stroke:rgb(0%,0%,0%);stroke-opacity:1;stroke-miterlimit:10;" d="M 532.242188 580 C 532.242188 585.523438 527.765625 590 522.242188 590 C 516.71875 590 512.242188 585.523438 512.242188 580 C 512.242188 574.476562 516.71875 570 522.242188 570 C 527.765625 570 532.242188 574.476562 532.242188 580 "/>
<path style="fill-rule:nonzero;fill:rgb(100%,0%,0%);fill-opacity:1;stroke-width:1;stroke-linecap:butt;stroke-linejoin:miter;stroke:rgb(0%,0%,0%);stroke-opacity:1;stroke-miterlimit:10;" d="M 590 270.902344 C 590 276.421875 585.523438 280.902344 580 280.902344 C 574.476562 280.902344 570 276.421875 570 270.902344 C 570 265.378906 574.476562 260.902344 580 260.902344 C 585.523438 260.902344 590 265.378906 590 270.902344 "/>
<path style="fill-rule:nonzero;fill:rgb(100%,0%,0%);fill-opacity:1;stroke-width:1;stroke-linecap:butt;stroke-linejoin:miter;stroke:rgb(0%,0%,0%);stroke-opacity:1;stroke-miterlimit:10;" d="M 217.582031 23.066406 C 217.582031 28.589844 213.105469 33.066406 207.582031 33.066406 C 202.058594 33.066406 197.582031 28.589844 197.582031 23.066406 C 197.582031 17.542969 202.058594 13.066406 207.582031 13.066406 C 213.105469 13.066406 217.582031 17.542969 217.582031 23.066406 "/>
<path style="fill-rule:nonzero;fill:rgb(100%,0%,0%);fill-opacity:1;stroke-width:1;stroke-linecap:butt;stroke-linejoin:miter;stroke:rgb(0%,0%,0%);stroke-opacity:1;stroke-miterlimit:10;" d="M 301.527344 281.308594 C 301.527344 286.832031 297.050781 291.308594 291.527344 291.308594 C 286.003906 291.308594 281.527344 286.832031 281.527344 281.308594 C 281.527344 275.785156 286.003906 271.308594 291.527344 271.308594 C 297.050781 271.308594 301.527344 275.785156 301.527344 281.308594 "/>
<path style="fill-rule:nonzero;fill:rgb(100%,0%,0%);fill-opacity:1;stroke-width:1;stroke-linecap:butt;stroke-linejoin:miter;stroke:rgb(0%,0%,0%);stroke-opacity:1;stroke-miterlimit:10;" d="M 330.355469 29.617188 C 330.355469 35.136719 325.878906 39.617188 320.355469 39.617188 C 314.832031 39.617188 310.355469 35.136719 310.355469 29.617188 C 310.355469 24.09375 314.832031 19.617188 320.355469 19.617188 C 325.878906 19.617188 330.355469 24.09375 330.355469 29.617188 "/>
<path style="fill-rule:nonzero;fill:rgb(100%,0%,0%);fill-opacity:1;stroke-width:1;stroke-linecap:butt;stroke-linejoin:miter;stroke:rgb(0%,0%,0%);stroke-opacity:1;stroke-miterlimit:10;" d="M 580.867188 319.085938 C 580.867188 324.609375 576.390625 329.085938 570.867188 329.085938 C 565.347656 329.085938 560.867188 324.609375 560.867188 319.085938 C 560.867188 313.566406 565.347656 309.085938 570.867188 309.085938 C 576.390625 309.085938 580.867188 313.566406 580.867188 319.085938 "/>
<path style="fill-rule:nonzero;fill:rgb(100%,0%,0%);fill-opacity:1;stroke-width:1;stroke-linecap:butt;stroke-linejoin:miter;stroke:rgb(0%,0%,0%);stroke-opacity:1;stroke-miterlimit:10;" d="M 164.035156 40.25 C 164.035156 45.773438 159.558594 50.25 154.035156 50.25 C 148.511719 50.25 144.035156 45.773438 144.035156 40.25 C 144.035156 34.726562 148.511719 30.25 154.035156 30.25 C 159.558594 30.25 164.035156 34.726562 164.035156 40.25 "/>
<path style="fill-rule:nonzero;fill:rgb(100%,0%,0%);fill-opacity:1;stroke-width:1;stroke-linecap:butt;stroke-linejoin:miter;stroke:rgb(0%,0%,0%);stroke-opacity:1;stroke-miterlimit:10;" d="M 80.226562 202.511719 C 80.226562 208.035156 75.75 212.511719 70.226562 212.511719 C 64.703125 212.511719 60.226562 208.035156 60.226562 202.511719 C 60.226562 196.988281 64.703125 192.511719 70.226562 192.511719 C 75.75 192.511719 80.226562 196.988281 80.226562 202.511719 "/>
<path style="fill-rule:nonzero;fill:rgb(100%,0%,0%);fill-opacity:1;stroke-width:1;stroke-linecap:butt;stroke-linejoin:miter;stroke:rgb(0%,0%,0%);stroke-opacity:1;stroke-miterlimit:10;" d="M 116.382812 388.046875 C 116.382812 393.570312 111.90625 398.046875 106.382812 398.046875 C 100.863281 398.046875 96.382812 393.570312 96.382812 388.046875 C 96.382812 382.527344 100.863281 378.046875 106.382812 378.046875 C 111.90625 378.046875 116.382812 382.527344 116.382812 388.046875 "/>
<path style="fill-rule:nonzero;fill:rgb(100%,0%,0%);fill-opacity:1;stroke-width:1;stroke-linecap:butt;stroke-linejoin:miter;stroke:rgb(0%,0%,0%);stroke-opacity:1;stroke-miterlimit:10;" d="M 54.398438 330.527344 C 54.398438 336.050781 49.921875 340.527344 44.398438 340.527344 C 38.875 340.527344 34.398438 336.050781 34.398438 330.527344 C 34.398438 325.007812 38.875 320.527344 44.398438 320.527344 C 49.921875 320.527344 54.398438 325.007812 54.398438 330.527344 "/>
<path style="fill-rule:nonzero;fill:rgb(100%,0%,0%);fill-opacity:1;stroke-width:1;stroke-linecap:butt;stroke-linejoin:miter;stroke:rgb(0%,0%,0%);stroke-opacity:1;stroke-miterlimit:10;" d="M 30 138.460938 C 30 143.984375 25.523438 148.460938 20 148.460938 C 14.476562 148.460938 10 143.984375 10 138.460938 C 10 132.9375 14.476562 128.460938 20 128.460938 C 25.523438 128.460938 30 132.9375 30 138.460938 "/>
<path style="fill-rule:nonzero;fill:rgb(100%,0%,0%);fill-opacity:1;stroke-width:1;stroke-linecap:butt;stroke-linejoin:miter;stroke:rgb(0%,0%,0%);stroke-opacity:1;stroke-miterlimit:10;" d="M 158.765625 267.921875 C 158.765625 273.445312 154.285156 277.921875 148.765625 277.921875 C 143.242188 277.921875 138.765625 273.445312 138.765625 267.921875 C 138.765625 262.398438 143.242188 257.921875 148.765625 257.921875 C 154.285156 257.921875 158.765625 262.398438 158.765625 267.921875 "/>
<path style="fill-rule:nonzero;fill:rgb(100%,0%,0%);fill-opacity:1;stroke-width:1;stroke-linecap:butt;stroke-linejoin:miter;stroke:rgb(0%,0%,0%);stroke-opacity:1;stroke-miterlimit:10;" d="M 186.875 227.425781 C 186.875 232.949219 182.394531 237.425781 176.875 237.425781 C 171.351562 237.425781 166.875 232.949219 166.875 227.425781 C 166.875 221.902344 171.351562 217.425781 176.875 217.425781 C 182.394531 217.425781 186.875 221.902344 186.875 227.425781 "/>
<path style="fill-rule:nonzero;fill:rgb(100%,0%,0%);fill-opacity:1;stroke-width:1;stroke-linecap:butt;stroke-linejoin:miter;stroke:rgb(0%,0%,0%);stroke-opacity:1;stroke-miterlimit:10;" d="M 101.722656 121.382812 C 101.722656 126.90625 97.242188 131.382812 91.722656 131.382812 C 86.199219 131.382812 81.722656 126.90625 81.722656 121.382812 C 81.722656 115.859375 86.199219 111.382812 91.722656 111.382812 C 97.242188 111.382812 101.722656 115.859375 101.722656 121.382812 "/>
<path style="fill-rule:nonzero;fill:rgb(100%,0%,0%);fill-opacity:1;stroke-width:1;stroke-linecap:butt;stroke-linejoin:miter;stroke:rgb(0%,0%,0%);stroke-opacity:1;stroke-miterlimit:10;" d="M 407.828125 127.6875 C 407.828125 133.210938 403.351562 137.6875 397.828125 137.6875 C 392.304688 137.6875 387.828125 133.210938 387.828125 127.6875 C 387.828125 122.164062 392.304688 117.6875 397.828125 117.6875 C 403.351562 117.6875 407.828125 122.164062 407.828125 127.6875 "/>
<path style="fill-rule:nonzero;fill:rgb(100%,0%,0%);fill-opacity:1;stroke-width:1;stroke-linecap:butt;stroke-linejoin:miter;stroke:rgb(0%,0%,0%);stroke-opacity:1;stroke-miterlimit:10;" d="M 232.382812 298.585938 C 232.382812 304.109375 227.90625 308.585938 222.382812 308.585938 C 216.859375 308.585938 212.382812 304.109375 212.382812 298.585938 C 212.382812 293.0625 216.859375 288.585938 222.382812 288.585938 C 227.90625 288.585938 232.382812 293.0625 232.382812 298.585938 "/>
<path style="fill-rule:nonzero;fill:rgb(100%,0%,0%);fill-opacity:1;stroke-width:1;stroke-linecap:butt;stroke-linejoin:miter;stroke:rgb(0%,0%,0%);stroke-opacity:1;stroke-miterlimit:10;" d="M 254.429688 130.742188 C 254.429688 136.265625 249.953125 140.742188 244.429688 140.742188 C 238.910156 140.742188 234.429688 136.265625 234.429688 130.742188 C 234.429688 125.222656 238.910156 120.742188 244.429688 120.742188 C 249.953125 120.742188 254.429688 125.222656 254.429688 130.742188 "/>
<path style="fill-rule:nonzero;fill:rgb(100%,0%,0%);fill-opacity:1;stroke-width:1;stroke-linecap:butt;stroke-linejoin:miter;stroke:rgb(0%,0%,0%);stroke-opacity:1;stroke-miterlimit:10;" d="M 226.773438 157.066406 C 226.773438 162.589844 222.292969 167.066406 216.773438 167.066406 C 211.25 167.066406 206.773438 162.589844 206.773438 157.066406 C 206.773438 151.546875 211.25 147.066406 216.773438 147.066406 C 222.292969 147.066406 226.773438 151.546875 226.773438 157.066406 "/>
</g>
</svg>
