<?xml version="1.0" encoding="UTF-8"?>
<svg xmlns="http://www.w3.org/2000/svg" xmlns:xlink="http://www.w3.org/1999/xlink" width="600pt" height="600pt" viewBox="0 0 600 600" version="1.1">
<g id="surface86">
<rect x="0" y="0" width="600" height="600" style="fill:rgb(100%,100%,100%);fill-opacity:1;stroke:none;"/>
<path style="fill-rule:nonzero;fill:rgb(100%,0%,0%);fill-opacity:0.25;stroke-width:2;stroke-linecap:butt;stroke-linejoin:miter;stroke:rgb(100%,0%,0%);stroke-opacity:1;stroke-miterlimit:10;" d="M 586.449219 152.34375 L 472.46875 15.535156 C 464.46875 5.929688 446.433594 3.785156 436.402344 11.242188 L 212.769531 177.480469 C 202.738281 184.9375 189.140625 204.375 185.578125 216.355469 L 143.875 356.488281 C 140.3125 368.472656 140.070312 392.5 143.390625 404.550781 L 155.296875 447.722656 C 158.621094 459.773438 174.429688 472.382812 186.917969 472.9375 L 307.019531 478.3125 C 319.507812 478.871094 342.453125 472.578125 352.910156 465.730469 L 377.078125 449.90625 C 387.535156 443.058594 405.800781 426.449219 413.613281 416.691406 L 547.695312 249.128906 C 555.507812 239.367188 570.304688 219.242188 577.289062 208.878906 L 588.480469 192.28125 C 595.464844 181.914062 594.453125 161.945312 586.449219 152.34375 "/>
<path style="fill-rule:nonzero;fill:rgb(50.196078%,50.196078%,50.196078%);fill-opacity:0.25;stroke-width:2;stroke-linecap:butt;stroke-linejoin:miter;stroke:rgb(50.196078%,50.196078%,50.196078%);stroke-opacity:1;stroke-miterlimit:10;" d="M 335.046875 526.515625 C 330.253906 533.941406 316.816406 543.226562 308.175781 545.085938 L 247.394531 558.160156 C 238.753906 560.019531 222.6875 557.082031 215.265625 552.289062 C 207.839844 547.492188 205.210938 535.273438 210.007812 527.847656 C 214.800781 520.421875 228.238281 511.140625 236.878906 509.28125 L 297.65625 496.203125 C 306.300781 494.34375 322.363281 497.28125 329.789062 502.074219 C 337.214844 506.871094 339.84375 519.089844 335.046875 526.515625 "/>
<path style="fill-rule:nonzero;fill:rgb(50%,0%,0%);fill-opacity:0.25;stroke-width:2;stroke-linecap:butt;stroke-linejoin:miter;stroke:rgb(50%,0%,0%);stroke-opacity:1;stroke-miterlimit:10;" d="M 540.25 474.183594 L 404.886719 462.550781 C 392.433594 461.480469 389.875 468.050781 399.765625 475.691406 L 462.433594 524.082031 C 472.324219 531.722656 492.171875 531.800781 502.121094 524.234375 L 545.253906 491.453125 C 555.207031 483.886719 552.703125 475.253906 540.25 474.183594 "/>
<path style="fill:none;stroke-width:1;stroke-linecap:butt;stroke-linejoin:miter;stroke:rgb(20%,20%,20%);stroke-opacity:1;stroke-miterlimit:10;" d="M 378.304688 241.238281 L 309.132812 268.882812 "/>
<path style=" stroke:none;fill-rule:nonzero;fill:rgb(20%,20%,20%);fill-opacity:1;" d="M 295.882812 274.175781 L 307.410156 264.578125 L 310.851562 273.1875 L 295.882812 274.175781 "/>
<path style="fill:none;stroke-width:1;stroke-linecap:butt;stroke-linejoin:miter;stroke:rgb(20%,20%,20%);stroke-opacity:1;stroke-miterlimit:10;" d="M 378.304688 241.238281 L 352.605469 338.160156 "/>
<path style=" stroke:none;fill-rule:nonzero;fill:rgb(20%,20%,20%);fill-opacity:1;" d="M 348.949219 351.949219 L 348.125 336.972656 L 357.085938 339.347656 L 348.949219 351.949219 "/>
<path style="fill:none;stroke-width:1;stroke-linecap:butt;stroke-linejoin:miter;stroke:rgb(20%,20%,20%);stroke-opacity:1;stroke-miterlimit:10;" d="M 378.304688 241.238281 L 397.101562 260.835938 "/>
<path style=" stroke:none;fill-rule:nonzero;fill:rgb(20%,20%,20%);fill-opacity:1;" d="M 406.976562 271.132812 L 393.753906 264.046875 L 400.445312 257.628906 L 406.976562 271.132812 "/>
<path style="fill:none;stroke-width:1;stroke-linecap:butt;stroke-linejoin:miter;stroke:rgb(20%,20%,20%);stroke-opacity:1;stroke-miterlimit:10;" d="M 378.304688 241.238281 L 383.085938 164.289062 "/>
<path style=" stroke:none;fill-rule:nonzero;fill:rgb(20%,20%,20%);fill-opacity:1;" d="M 383.972656 150.050781 L 387.714844 164.578125 L 378.460938 164.003906 L 383.972656 150.050781 "/>
<path style="fill:none;stroke-width:1;stroke-linecap:butt;stroke-linejoin:miter;stroke:rgb(20%,20%,20%);stroke-opacity:1;stroke-miterlimit:10;" d="M 378.304688 241.238281 L 444.679688 125.386719 "/>
<path style=" stroke:none;fill-rule:nonzero;fill:rgb(20%,20%,20%);fill-opacity:1;" d="M 451.773438 113.007812 L 448.703125 127.6875 L 440.660156 123.082031 L 451.773438 113.007812 "/>
<path style="fill:none;stroke-width:1;stroke-linecap:butt;stroke-linejoin:miter;stroke:rgb(20%,20%,20%);stroke-opacity:1;stroke-miterlimit:10;" d="M 378.304688 241.238281 L 386.527344 123.039062 "/>
<path style=" stroke:none;fill-rule:nonzero;fill:rgb(20%,20%,20%);fill-opacity:1;" d="M 387.515625 108.808594 L 391.152344 123.359375 L 381.902344 122.714844 L 387.515625 108.808594 "/>
<path style="fill:none;stroke-width:1;stroke-linecap:butt;stroke-linejoin:miter;stroke:rgb(20%,20%,20%);stroke-opacity:1;stroke-miterlimit:10;" d="M 378.304688 241.238281 L 420.933594 282.660156 "/>
<path style=" stroke:none;fill-rule:nonzero;fill:rgb(20%,20%,20%);fill-opacity:1;" d="M 431.164062 292.601562 L 417.703125 285.984375 L 424.164062 279.335938 L 431.164062 292.601562 "/>
<path style="fill:none;stroke-width:1;stroke-linecap:butt;stroke-linejoin:miter;stroke:rgb(20%,20%,20%);stroke-opacity:1;stroke-miterlimit:10;" d="M 378.304688 241.238281 L 263.417969 345.445312 "/>
<path style=" stroke:none;fill-rule:nonzero;fill:rgb(20%,20%,20%);fill-opacity:1;" d="M 252.851562 355.027344 L 260.304688 342.011719 L 266.53125 348.878906 L 252.851562 355.027344 "/>
<path style="fill:none;stroke-width:1;stroke-linecap:butt;stroke-linejoin:miter;stroke:rgb(20%,20%,20%);stroke-opacity:1;stroke-miterlimit:10;" d="M 378.304688 241.238281 L 457.414062 164.054688 "/>
<path style=" stroke:none;fill-rule:nonzero;fill:rgb(20%,20%,20%);fill-opacity:1;" d="M 467.625 154.09375 L 460.652344 167.375 L 454.179688 160.738281 L 467.625 154.09375 "/>
<path style="fill:none;stroke-width:1;stroke-linecap:butt;stroke-linejoin:miter;stroke:rgb(20%,20%,20%);stroke-opacity:1;stroke-miterlimit:10;" d="M 378.304688 241.238281 L 556.699219 189.324219 "/>
<path style=" stroke:none;fill-rule:nonzero;fill:rgb(20%,20%,20%);fill-opacity:1;" d="M 570.398438 185.335938 L 557.996094 193.773438 L 555.40625 184.875 L 570.398438 185.335938 "/>
<path style="fill:none;stroke-width:1;stroke-linecap:butt;stroke-linejoin:miter;stroke:rgb(20%,20%,20%);stroke-opacity:1;stroke-miterlimit:10;" d="M 378.304688 241.238281 L 515.125 237.5 "/>
<path style=" stroke:none;fill-rule:nonzero;fill:rgb(20%,20%,20%);fill-opacity:1;" d="M 529.386719 237.109375 L 515.253906 242.132812 L 515 232.863281 L 529.386719 237.109375 "/>
<path style="fill:none;stroke-width:1;stroke-linecap:butt;stroke-linejoin:miter;stroke:rgb(20%,20%,20%);stroke-opacity:1;stroke-miterlimit:10;" d="M 378.304688 241.238281 L 332.203125 306.726562 "/>
<path style=" stroke:none;fill-rule:nonzero;fill:rgb(20%,20%,20%);fill-opacity:1;" d="M 323.992188 318.390625 L 328.414062 304.058594 L 335.992188 309.394531 L 323.992188 318.390625 "/>
<path style="fill:none;stroke-width:1;stroke-linecap:butt;stroke-linejoin:miter;stroke:rgb(20%,20%,20%);stroke-opacity:1;stroke-miterlimit:10;" d="M 378.304688 241.238281 L 300.253906 200.828125 "/>
<path style=" stroke:none;fill-rule:nonzero;fill:rgb(20%,20%,20%);fill-opacity:1;" d="M 287.585938 194.269531 L 302.386719 196.710938 L 298.121094 204.945312 L 287.585938 194.269531 "/>
<path style="fill:none;stroke-width:1;stroke-linecap:butt;stroke-linejoin:miter;stroke:rgb(20%,20%,20%);stroke-opacity:1;stroke-miterlimit:10;" d="M 378.304688 241.238281 L 242.585938 306.554688 "/>
<path style=" stroke:none;fill-rule:nonzero;fill:rgb(20%,20%,20%);fill-opacity:1;" d="M 229.730469 312.742188 L 240.578125 302.378906 L 244.597656 310.730469 L 229.730469 312.742188 "/>
<path style="fill:none;stroke-width:1;stroke-linecap:butt;stroke-linejoin:miter;stroke:rgb(20%,20%,20%);stroke-opacity:1;stroke-miterlimit:10;" d="M 378.304688 241.238281 L 237.746094 210.597656 "/>
<path style=" stroke:none;fill-rule:nonzero;fill:rgb(20%,20%,20%);fill-opacity:1;" d="M 223.808594 207.558594 L 238.734375 206.070312 L 236.761719 215.128906 L 223.808594 207.558594 "/>
<path style="fill:none;stroke-width:1;stroke-linecap:butt;stroke-linejoin:miter;stroke:rgb(20%,20%,20%);stroke-opacity:1;stroke-miterlimit:10;" d="M 378.304688 241.238281 L 389.203125 388.011719 "/>
<path style=" stroke:none;fill-rule:nonzero;fill:rgb(20%,20%,20%);fill-opacity:1;" d="M 390.257812 402.238281 L 384.578125 388.351562 L 393.824219 387.667969 L 390.257812 402.238281 "/>
<path style="fill:none;stroke-width:1;stroke-linecap:butt;stroke-linejoin:miter;stroke:rgb(20%,20%,20%);stroke-opacity:1;stroke-miterlimit:10;" d="M 286.597656 277.886719 L 332.285156 341.867188 "/>
<path style=" stroke:none;fill-rule:nonzero;fill:rgb(20%,20%,20%);fill-opacity:1;" d="M 340.578125 353.480469 L 328.515625 344.5625 L 336.058594 339.175781 L 340.578125 353.480469 "/>
<path style="fill:none;stroke-width:1;stroke-linecap:butt;stroke-linejoin:miter;stroke:rgb(20%,20%,20%);stroke-opacity:1;stroke-miterlimit:10;" d="M 286.597656 277.886719 L 389.632812 278.261719 "/>
<path style=" stroke:none;fill-rule:nonzero;fill:rgb(20%,20%,20%);fill-opacity:1;" d="M 403.898438 278.3125 L 389.617188 282.894531 L 389.648438 273.625 L 403.898438 278.3125 "/>
<path style="fill:none;stroke-width:1;stroke-linecap:butt;stroke-linejoin:miter;stroke:rgb(20%,20%,20%);stroke-opacity:1;stroke-miterlimit:10;" d="M 286.597656 277.886719 L 414.3125 296.136719 "/>
<path style=" stroke:none;fill-rule:nonzero;fill:rgb(20%,20%,20%);fill-opacity:1;" d="M 428.4375 298.15625 L 413.65625 300.726562 L 414.96875 291.550781 L 428.4375 298.15625 "/>
<path style="fill:none;stroke-width:1;stroke-linecap:butt;stroke-linejoin:miter;stroke:rgb(20%,20%,20%);stroke-opacity:1;stroke-miterlimit:10;" d="M 286.597656 277.886719 L 305.011719 306.222656 "/>
<path style=" stroke:none;fill-rule:nonzero;fill:rgb(20%,20%,20%);fill-opacity:1;" d="M 312.785156 318.183594 L 301.125 308.75 L 308.898438 303.695312 L 312.785156 318.183594 "/>
<path style="fill:none;stroke-width:1;stroke-linecap:butt;stroke-linejoin:miter;stroke:rgb(20%,20%,20%);stroke-opacity:1;stroke-miterlimit:10;" d="M 286.597656 277.886719 L 280.867188 213.839844 "/>
<path style=" stroke:none;fill-rule:nonzero;fill:rgb(20%,20%,20%);fill-opacity:1;" d="M 279.597656 199.632812 L 285.484375 213.425781 L 276.25 214.253906 L 279.597656 199.632812 "/>
<path style="fill:none;stroke-width:1;stroke-linecap:butt;stroke-linejoin:miter;stroke:rgb(20%,20%,20%);stroke-opacity:1;stroke-miterlimit:10;" d="M 286.597656 277.886719 L 241.574219 304.671875 "/>
<path style=" stroke:none;fill-rule:nonzero;fill:rgb(20%,20%,20%);fill-opacity:1;" d="M 229.316406 311.964844 L 239.207031 300.6875 L 243.945312 308.65625 L 229.316406 311.964844 "/>
<path style="fill:none;stroke-width:1;stroke-linecap:butt;stroke-linejoin:miter;stroke:rgb(20%,20%,20%);stroke-opacity:1;stroke-miterlimit:10;" d="M 286.597656 277.886719 L 231.210938 222.574219 "/>
<path style=" stroke:none;fill-rule:nonzero;fill:rgb(20%,20%,20%);fill-opacity:1;" d="M 221.113281 212.496094 L 234.484375 219.296875 L 227.933594 225.855469 L 221.113281 212.496094 "/>
<path style="fill:none;stroke-width:1;stroke-linecap:butt;stroke-linejoin:miter;stroke:rgb(20%,20%,20%);stroke-opacity:1;stroke-miterlimit:10;" d="M 286.597656 277.886719 L 179.480469 356.734375 "/>
<path style=" stroke:none;fill-rule:nonzero;fill:rgb(20%,20%,20%);fill-opacity:1;" d="M 167.992188 365.191406 L 176.734375 353 L 182.230469 360.464844 L 167.992188 365.191406 "/>
<path style="fill:none;stroke-width:1;stroke-linecap:butt;stroke-linejoin:miter;stroke:rgb(20%,20%,20%);stroke-opacity:1;stroke-miterlimit:10;" d="M 346.386719 361.617188 L 398.617188 297.199219 "/>
<path style=" stroke:none;fill-rule:nonzero;fill:rgb(20%,20%,20%);fill-opacity:1;" d="M 407.601562 286.117188 L 402.214844 300.117188 L 395.015625 294.277344 L 407.601562 286.117188 "/>
<path style="fill:none;stroke-width:1;stroke-linecap:butt;stroke-linejoin:miter;stroke:rgb(20%,20%,20%);stroke-opacity:1;stroke-miterlimit:10;" d="M 346.386719 361.617188 L 418.21875 313.144531 "/>
<path style=" stroke:none;fill-rule:nonzero;fill:rgb(20%,20%,20%);fill-opacity:1;" d="M 430.046875 305.164062 L 420.8125 316.988281 L 415.628906 309.300781 L 430.046875 305.164062 "/>
<path style="fill:none;stroke-width:1;stroke-linecap:butt;stroke-linejoin:miter;stroke:rgb(20%,20%,20%);stroke-opacity:1;stroke-miterlimit:10;" d="M 346.386719 361.617188 L 269.710938 361.714844 "/>
<path style=" stroke:none;fill-rule:nonzero;fill:rgb(20%,20%,20%);fill-opacity:1;" d="M 255.445312 361.734375 L 269.703125 357.082031 L 269.714844 366.351562 L 255.445312 361.734375 "/>
<path style="fill:none;stroke-width:1;stroke-linecap:butt;stroke-linejoin:miter;stroke:rgb(20%,20%,20%);stroke-opacity:1;stroke-miterlimit:10;" d="M 346.386719 361.617188 L 338.082031 430.539062 "/>
<path style=" stroke:none;fill-rule:nonzero;fill:rgb(20%,20%,20%);fill-opacity:1;" d="M 336.375 444.703125 L 333.480469 429.984375 L 342.683594 431.09375 L 336.375 444.703125 "/>
<path style="fill:none;stroke-width:1;stroke-linecap:butt;stroke-linejoin:miter;stroke:rgb(20%,20%,20%);stroke-opacity:1;stroke-miterlimit:10;" d="M 346.386719 361.617188 L 333.433594 345.488281 "/>
<path style=" stroke:none;fill-rule:nonzero;fill:rgb(20%,20%,20%);fill-opacity:1;" d="M 324.496094 334.367188 L 337.046875 342.585938 L 329.816406 348.390625 L 324.496094 334.367188 "/>
<path style="fill:none;stroke-width:1;stroke-linecap:butt;stroke-linejoin:miter;stroke:rgb(80%,80%,80%);stroke-opacity:1;stroke-miterlimit:10;" d="M 346.386719 361.617188 L 392.410156 445.90625 "/>
<path style=" stroke:none;fill-rule:nonzero;fill:rgb(80%,80%,80%);fill-opacity:1;" d="M 399.246094 458.425781 L 388.34375 448.125 L 396.480469 443.683594 L 399.246094 458.425781 "/>
<path style="fill:none;stroke-width:1;stroke-linecap:butt;stroke-linejoin:miter;stroke:rgb(20%,20%,20%);stroke-opacity:1;stroke-miterlimit:10;" d="M 346.386719 361.617188 L 327.570312 398.078125 "/>
<path style=" stroke:none;fill-rule:nonzero;fill:rgb(20%,20%,20%);fill-opacity:1;" d="M 321.027344 410.757812 L 323.449219 395.953125 L 331.6875 400.207031 L 321.027344 410.757812 "/>
<path style="fill:none;stroke-width:1;stroke-linecap:butt;stroke-linejoin:miter;stroke:rgb(20%,20%,20%);stroke-opacity:1;stroke-miterlimit:10;" d="M 346.386719 361.617188 L 201.453125 442.964844 "/>
<path style=" stroke:none;fill-rule:nonzero;fill:rgb(20%,20%,20%);fill-opacity:1;" d="M 189.011719 449.949219 L 199.183594 438.921875 L 203.71875 447.007812 L 189.011719 449.949219 "/>
<path style="fill:none;stroke-width:1;stroke-linecap:butt;stroke-linejoin:miter;stroke:rgb(20%,20%,20%);stroke-opacity:1;stroke-miterlimit:10;" d="M 413.898438 278.347656 L 420.015625 283.660156 "/>
<path style=" stroke:none;fill-rule:nonzero;fill:rgb(20%,20%,20%);fill-opacity:1;" d="M 430.785156 293.015625 L 416.972656 287.160156 L 423.054688 280.160156 L 430.785156 293.015625 "/>
<path style="fill:none;stroke-width:1;stroke-linecap:butt;stroke-linejoin:miter;stroke:rgb(20%,20%,20%);stroke-opacity:1;stroke-miterlimit:10;" d="M 413.898438 278.347656 L 516.34375 244.457031 "/>
<path style=" stroke:none;fill-rule:nonzero;fill:rgb(20%,20%,20%);fill-opacity:1;" d="M 529.890625 239.976562 L 517.800781 248.855469 L 514.890625 240.054688 L 529.890625 239.976562 "/>
<path style="fill:none;stroke-width:1;stroke-linecap:butt;stroke-linejoin:miter;stroke:rgb(20%,20%,20%);stroke-opacity:1;stroke-miterlimit:10;" d="M 413.898438 278.347656 L 339.902344 315.648438 "/>
<path style=" stroke:none;fill-rule:nonzero;fill:rgb(20%,20%,20%);fill-opacity:1;" d="M 327.164062 322.066406 L 337.816406 311.507812 L 341.992188 319.785156 L 327.164062 322.066406 "/>
<path style="fill:none;stroke-width:1;stroke-linecap:butt;stroke-linejoin:miter;stroke:rgb(20%,20%,20%);stroke-opacity:1;stroke-miterlimit:10;" d="M 384.59375 140.070312 L 386.089844 123.003906 "/>
<path style=" stroke:none;fill-rule:nonzero;fill:rgb(20%,20%,20%);fill-opacity:1;" d="M 387.335938 108.792969 L 390.707031 123.410156 L 381.472656 122.597656 L 387.335938 108.792969 "/>
<path style="fill:none;stroke-width:1;stroke-linecap:butt;stroke-linejoin:miter;stroke:rgb(20%,20%,20%);stroke-opacity:1;stroke-miterlimit:10;" d="M 384.59375 140.070312 L 450.589844 145.222656 "/>
<path style=" stroke:none;fill-rule:nonzero;fill:rgb(20%,20%,20%);fill-opacity:1;" d="M 464.8125 146.332031 L 450.230469 149.84375 L 450.953125 140.601562 L 464.8125 146.332031 "/>
<path style="fill:none;stroke-width:1;stroke-linecap:butt;stroke-linejoin:miter;stroke:rgb(20%,20%,20%);stroke-opacity:1;stroke-miterlimit:10;" d="M 456.742188 104.328125 L 412.398438 100.773438 "/>
<path style=" stroke:none;fill-rule:nonzero;fill:rgb(20%,20%,20%);fill-opacity:1;" d="M 398.179688 99.628906 L 412.769531 96.152344 L 412.027344 105.390625 L 398.179688 99.628906 "/>
<path style="fill:none;stroke-width:1;stroke-linecap:butt;stroke-linejoin:miter;stroke:rgb(20%,20%,20%);stroke-opacity:1;stroke-miterlimit:10;" d="M 456.742188 104.328125 L 465.355469 124.75 "/>
<path style=" stroke:none;fill-rule:nonzero;fill:rgb(20%,20%,20%);fill-opacity:1;" d="M 470.898438 137.894531 L 461.082031 126.550781 L 469.625 122.949219 L 470.898438 137.894531 "/>
<path style="fill:none;stroke-width:1;stroke-linecap:butt;stroke-linejoin:miter;stroke:rgb(20%,20%,20%);stroke-opacity:1;stroke-miterlimit:10;" d="M 456.742188 104.328125 L 450.8125 44.148438 "/>
<path style=" stroke:none;fill-rule:nonzero;fill:rgb(20%,20%,20%);fill-opacity:1;" d="M 449.410156 29.953125 L 455.425781 43.695312 L 446.199219 44.605469 L 449.410156 29.953125 "/>
<path style="fill:none;stroke-width:1;stroke-linecap:butt;stroke-linejoin:miter;stroke:rgb(20%,20%,20%);stroke-opacity:1;stroke-miterlimit:10;" d="M 388.210938 98.832031 L 433.699219 39.28125 "/>
<path style=" stroke:none;fill-rule:nonzero;fill:rgb(20%,20%,20%);fill-opacity:1;" d="M 442.359375 27.945312 L 437.382812 42.097656 L 430.015625 36.46875 L 442.359375 27.945312 "/>
<path style="fill:none;stroke-width:1;stroke-linecap:butt;stroke-linejoin:miter;stroke:rgb(20%,20%,20%);stroke-opacity:1;stroke-miterlimit:10;" d="M 245.445312 361.746094 L 184.058594 368.472656 "/>
<path style=" stroke:none;fill-rule:nonzero;fill:rgb(20%,20%,20%);fill-opacity:1;" d="M 169.878906 370.027344 L 183.554688 363.867188 L 184.566406 373.082031 L 169.878906 370.027344 "/>
<path style="fill:none;stroke-width:1;stroke-linecap:butt;stroke-linejoin:miter;stroke:rgb(20%,20%,20%);stroke-opacity:1;stroke-miterlimit:10;" d="M 245.445312 361.746094 L 194.203125 434.960938 "/>
<path style=" stroke:none;fill-rule:nonzero;fill:rgb(20%,20%,20%);fill-opacity:1;" d="M 186.023438 446.648438 L 190.40625 432.304688 L 198.003906 437.617188 L 186.023438 446.648438 "/>
<path style="fill:none;stroke-width:1;stroke-linecap:butt;stroke-linejoin:miter;stroke:rgb(20%,20%,20%);stroke-opacity:1;stroke-miterlimit:10;" d="M 245.445312 361.746094 L 221.789062 427.609375 "/>
<path style=" stroke:none;fill-rule:nonzero;fill:rgb(20%,20%,20%);fill-opacity:1;" d="M 216.96875 441.035156 L 217.425781 426.039062 L 226.152344 429.175781 L 216.96875 441.035156 "/>
<path style="fill:none;stroke-width:1;stroke-linecap:butt;stroke-linejoin:miter;stroke:rgb(20%,20%,20%);stroke-opacity:1;stroke-miterlimit:10;" d="M 335.179688 454.632812 L 237.839844 451.28125 "/>
<path style=" stroke:none;fill-rule:nonzero;fill:rgb(20%,20%,20%);fill-opacity:1;" d="M 223.582031 450.789062 L 238 446.648438 L 237.679688 455.914062 L 223.582031 450.789062 "/>
<path style="fill:none;stroke-width:1;stroke-linecap:butt;stroke-linejoin:miter;stroke:rgb(20%,20%,20%);stroke-opacity:1;stroke-miterlimit:10;" d="M 318.234375 326.570312 L 229.246094 431.910156 "/>
<path style=" stroke:none;fill-rule:nonzero;fill:rgb(20%,20%,20%);fill-opacity:1;" d="M 220.039062 442.804688 L 225.707031 428.917969 L 232.789062 434.898438 L 220.039062 442.804688 "/>
<path style="fill:none;stroke-width:1;stroke-linecap:butt;stroke-linejoin:miter;stroke:rgb(80%,80%,80%);stroke-opacity:1;stroke-miterlimit:10;" d="M 59.589844 493.351562 L 157.171875 462.21875 "/>
<path style=" stroke:none;fill-rule:nonzero;fill:rgb(80%,80%,80%);fill-opacity:1;" d="M 170.765625 457.882812 L 158.582031 466.632812 L 155.765625 457.800781 L 170.765625 457.882812 "/>
<path style="fill:none;stroke-width:1;stroke-linecap:butt;stroke-linejoin:miter;stroke:rgb(80%,80%,80%);stroke-opacity:1;stroke-miterlimit:10;" d="M 59.589844 493.351562 L 190.210938 456.957031 "/>
<path style=" stroke:none;fill-rule:nonzero;fill:rgb(80%,80%,80%);fill-opacity:1;" d="M 203.953125 453.128906 L 191.457031 461.421875 L 188.96875 452.492188 L 203.953125 453.128906 "/>
<path style="fill:none;stroke-width:1;stroke-linecap:butt;stroke-linejoin:miter;stroke:rgb(80%,80%,80%);stroke-opacity:1;stroke-miterlimit:10;" d="M 39.050781 433.863281 L 156.289062 451.277344 "/>
<path style=" stroke:none;fill-rule:nonzero;fill:rgb(80%,80%,80%);fill-opacity:1;" d="M 170.398438 453.371094 L 155.609375 455.863281 L 156.96875 446.691406 L 170.398438 453.371094 "/>
<path style="fill:none;stroke-width:1;stroke-linecap:butt;stroke-linejoin:miter;stroke:rgb(80%,80%,80%);stroke-opacity:1;stroke-miterlimit:10;" d="M 39.050781 433.863281 L 189.429688 448.148438 "/>
<path style=" stroke:none;fill-rule:nonzero;fill:rgb(80%,80%,80%);fill-opacity:1;" d="M 203.632812 449.5 L 188.992188 452.765625 L 189.867188 443.535156 L 203.632812 449.5 "/>
<path style="fill:none;stroke-width:1;stroke-linecap:butt;stroke-linejoin:miter;stroke:rgb(80%,80%,80%);stroke-opacity:1;stroke-miterlimit:10;" d="M 72.109375 524.808594 L 159.914062 468.019531 "/>
<path style=" stroke:none;fill-rule:nonzero;fill:rgb(80%,80%,80%);fill-opacity:1;" d="M 171.894531 460.273438 L 162.433594 471.910156 L 157.398438 464.128906 L 171.894531 460.273438 "/>
<path style="fill:none;stroke-width:1;stroke-linecap:butt;stroke-linejoin:miter;stroke:rgb(80%,80%,80%);stroke-opacity:1;stroke-miterlimit:10;" d="M 72.109375 524.808594 L 192.109375 461.734375 "/>
<path style=" stroke:none;fill-rule:nonzero;fill:rgb(80%,80%,80%);fill-opacity:1;" d="M 204.734375 455.097656 L 194.265625 465.839844 L 189.953125 457.632812 L 204.734375 455.097656 "/>
<path style="fill:none;stroke-width:1;stroke-linecap:butt;stroke-linejoin:miter;stroke:rgb(20%,20%,20%);stroke-opacity:1;stroke-miterlimit:10;" d="M 220.722656 317.078125 L 214.882812 426.214844 "/>
<path style=" stroke:none;fill-rule:nonzero;fill:rgb(20%,20%,20%);fill-opacity:1;" d="M 214.121094 440.460938 L 210.253906 425.964844 L 219.511719 426.460938 L 214.121094 440.460938 "/>
<path style="fill:none;stroke-width:1;stroke-linecap:butt;stroke-linejoin:miter;stroke:rgb(80%,80%,80%);stroke-opacity:1;stroke-miterlimit:10;" d="M 136.480469 531 L 168.191406 475.875 "/>
<path style=" stroke:none;fill-rule:nonzero;fill:rgb(80%,80%,80%);fill-opacity:1;" d="M 175.304688 463.511719 L 172.207031 478.1875 L 164.171875 473.5625 L 175.304688 463.511719 "/>
<path style="fill:none;stroke-width:1;stroke-linecap:butt;stroke-linejoin:miter;stroke:rgb(80%,80%,80%);stroke-opacity:1;stroke-miterlimit:10;" d="M 136.480469 531 L 196.808594 467.976562 "/>
<path style=" stroke:none;fill-rule:nonzero;fill:rgb(80%,80%,80%);fill-opacity:1;" d="M 206.671875 457.667969 L 200.15625 471.179688 L 193.460938 464.769531 L 206.671875 457.667969 "/>
<path style="fill:none;stroke-width:1;stroke-linecap:butt;stroke-linejoin:miter;stroke:rgb(80%,80%,80%);stroke-opacity:1;stroke-miterlimit:10;" d="M 20 468.917969 L 156.117188 456.964844 "/>
<path style=" stroke:none;fill-rule:nonzero;fill:rgb(80%,80%,80%);fill-opacity:1;" d="M 170.328125 455.714844 L 156.523438 461.582031 L 155.710938 452.347656 L 170.328125 455.714844 "/>
<path style="fill:none;stroke-width:1;stroke-linecap:butt;stroke-linejoin:miter;stroke:rgb(80%,80%,80%);stroke-opacity:1;stroke-miterlimit:10;" d="M 20 468.917969 L 189.429688 452.75 "/>
<path style=" stroke:none;fill-rule:nonzero;fill:rgb(80%,80%,80%);fill-opacity:1;" d="M 203.632812 451.394531 L 189.871094 457.363281 L 188.992188 448.136719 L 203.632812 451.394531 "/>
<path style="fill:none;stroke-width:1;stroke-linecap:butt;stroke-linejoin:miter;stroke:rgb(80%,80%,80%);stroke-opacity:1;stroke-miterlimit:10;" d="M 320.199219 516.925781 L 454.207031 514.996094 "/>
<path style=" stroke:none;fill-rule:nonzero;fill:rgb(80%,80%,80%);fill-opacity:1;" d="M 468.46875 514.789062 L 454.273438 519.628906 L 454.136719 510.359375 L 468.46875 514.789062 "/>
<path style="fill:none;stroke-width:1;stroke-linecap:butt;stroke-linejoin:miter;stroke:rgb(80%,80%,80%);stroke-opacity:1;stroke-miterlimit:10;" d="M 320.199219 516.925781 L 383.167969 479.582031 "/>
<path style=" stroke:none;fill-rule:nonzero;fill:rgb(80%,80%,80%);fill-opacity:1;" d="M 395.4375 472.304688 L 385.53125 483.566406 L 380.804688 475.59375 L 395.4375 472.304688 "/>
<path style="fill:none;stroke-width:1;stroke-linecap:butt;stroke-linejoin:miter;stroke:rgb(20%,20%,20%);stroke-opacity:1;stroke-miterlimit:10;" d="M 320.199219 516.925781 L 248.578125 532.335938 "/>
<path style=" stroke:none;fill-rule:nonzero;fill:rgb(20%,20%,20%);fill-opacity:1;" d="M 234.632812 535.335938 L 247.605469 527.804688 L 249.554688 536.867188 L 234.632812 535.335938 "/>
<path style="fill:none;stroke-width:1;stroke-linecap:butt;stroke-linejoin:miter;stroke:rgb(80%,80%,80%);stroke-opacity:1;stroke-miterlimit:10;" d="M 320.199219 516.925781 L 202.472656 464.683594 "/>
<path style=" stroke:none;fill-rule:nonzero;fill:rgb(80%,80%,80%);fill-opacity:1;" d="M 189.429688 458.898438 L 204.351562 460.449219 L 200.589844 468.921875 L 189.429688 458.898438 "/>
<path style="fill:none;stroke-width:1;stroke-linecap:butt;stroke-linejoin:miter;stroke:rgb(80%,80%,80%);stroke-opacity:1;stroke-miterlimit:10;" d="M 320.199219 516.925781 L 234.179688 463.285156 "/>
<path style=" stroke:none;fill-rule:nonzero;fill:rgb(80%,80%,80%);fill-opacity:1;" d="M 222.074219 455.738281 L 236.628906 459.351562 L 231.726562 467.21875 L 222.074219 455.738281 "/>
<path style="fill:none;stroke-width:1;stroke-linecap:butt;stroke-linejoin:miter;stroke:rgb(20%,20%,20%);stroke-opacity:1;stroke-miterlimit:10;" d="M 540.328125 479.25 L 499.53125 502.59375 "/>
<path style=" stroke:none;fill-rule:nonzero;fill:rgb(20%,20%,20%);fill-opacity:1;" d="M 487.148438 509.679688 L 497.226562 498.570312 L 501.832031 506.617188 L 487.148438 509.679688 "/>
<path style="fill:none;stroke-width:1;stroke-linecap:butt;stroke-linejoin:miter;stroke:rgb(20%,20%,20%);stroke-opacity:1;stroke-miterlimit:10;" d="M 540.328125 479.25 L 428.210938 469.339844 "/>
<path style=" stroke:none;fill-rule:nonzero;fill:rgb(20%,20%,20%);fill-opacity:1;" d="M 414 468.082031 L 428.621094 464.722656 L 427.804688 473.957031 L 414 468.082031 "/>
<path style="fill:none;stroke-width:1;stroke-linecap:butt;stroke-linejoin:miter;stroke:rgb(80%,80%,80%);stroke-opacity:1;stroke-miterlimit:10;" d="M 540.328125 479.25 L 413.136719 422.148438 "/>
<path style=" stroke:none;fill-rule:nonzero;fill:rgb(80%,80%,80%);fill-opacity:1;" d="M 400.121094 416.304688 L 415.035156 417.917969 L 411.238281 426.375 L 400.121094 416.304688 "/>
<path style="fill:none;stroke-width:1;stroke-linecap:butt;stroke-linejoin:miter;stroke:rgb(80%,80%,80%);stroke-opacity:1;stroke-miterlimit:10;" d="M 478.46875 514.644531 L 406.757812 430.664062 "/>
<path style=" stroke:none;fill-rule:nonzero;fill:rgb(80%,80%,80%);fill-opacity:1;" d="M 397.492188 419.8125 L 410.28125 427.652344 L 403.230469 433.671875 L 397.492188 419.8125 "/>
<path style="fill:none;stroke-width:1;stroke-linecap:butt;stroke-linejoin:miter;stroke:rgb(80%,80%,80%);stroke-opacity:1;stroke-miterlimit:10;" d="M 190.730469 580 L 209.675781 556.371094 "/>
<path style=" stroke:none;fill-rule:nonzero;fill:rgb(80%,80%,80%);fill-opacity:1;" d="M 218.601562 545.242188 L 213.292969 559.269531 L 206.058594 553.472656 L 218.601562 545.242188 "/>
<path style="fill:none;stroke-width:1;stroke-linecap:butt;stroke-linejoin:miter;stroke:rgb(80%,80%,80%);stroke-opacity:1;stroke-miterlimit:10;" d="M 190.730469 580 L 209.371094 474.34375 "/>
<path style=" stroke:none;fill-rule:nonzero;fill:rgb(80%,80%,80%);fill-opacity:1;" d="M 211.851562 460.292969 L 213.9375 475.148438 L 204.808594 473.535156 L 211.851562 460.292969 "/>
<path style="fill:none;stroke-width:1;stroke-linecap:butt;stroke-linejoin:miter;stroke:rgb(80%,80%,80%);stroke-opacity:1;stroke-miterlimit:10;" d="M 404.039062 467.203125 L 237.761719 452.570312 "/>
<path style=" stroke:none;fill-rule:nonzero;fill:rgb(80%,80%,80%);fill-opacity:1;" d="M 223.550781 451.320312 L 238.167969 447.953125 L 237.355469 457.191406 L 223.550781 451.320312 "/>
<path style="fill:none;stroke-width:1;stroke-linecap:butt;stroke-linejoin:miter;stroke:rgb(20%,20%,20%);stroke-opacity:1;stroke-miterlimit:10;" d="M 316.4375 419.644531 L 366.851562 414.617188 "/>
<path style=" stroke:none;fill-rule:nonzero;fill:rgb(20%,20%,20%);fill-opacity:1;" d="M 381.046875 413.203125 L 367.3125 419.230469 L 366.394531 410.003906 L 381.046875 413.203125 "/>
<path style="fill:none;stroke-width:1;stroke-linecap:butt;stroke-linejoin:miter;stroke:rgb(20%,20%,20%);stroke-opacity:1;stroke-miterlimit:10;" d="M 316.4375 419.644531 L 236.832031 443.484375 "/>
<path style=" stroke:none;fill-rule:nonzero;fill:rgb(20%,20%,20%);fill-opacity:1;" d="M 223.167969 447.578125 L 235.503906 439.042969 L 238.164062 447.921875 L 223.167969 447.578125 "/>
<path style="fill:none;stroke-width:1;stroke-linecap:butt;stroke-linejoin:miter;stroke:rgb(80%,80%,80%);stroke-opacity:1;stroke-miterlimit:10;" d="M 224.855469 537.4375 L 191.8125 476.199219 "/>
<path style=" stroke:none;fill-rule:nonzero;fill:rgb(80%,80%,80%);fill-opacity:1;" d="M 185.039062 463.644531 L 195.894531 473.996094 L 187.734375 478.398438 L 185.039062 463.644531 "/>
<path style="fill:none;stroke-width:1;stroke-linecap:butt;stroke-linejoin:miter;stroke:rgb(80%,80%,80%);stroke-opacity:1;stroke-miterlimit:10;" d="M 224.855469 537.4375 L 216.703125 474.511719 "/>
<path style=" stroke:none;fill-rule:nonzero;fill:rgb(80%,80%,80%);fill-opacity:1;" d="M 214.871094 460.363281 L 221.300781 473.914062 L 212.109375 475.105469 L 214.871094 460.363281 "/>
<path style="fill:none;stroke-width:1;stroke-linecap:butt;stroke-linejoin:miter;stroke:rgb(20%,20%,20%);stroke-opacity:1;stroke-miterlimit:10;" d="M 159.9375 371.117188 L 174.558594 431.261719 "/>
<path style=" stroke:none;fill-rule:nonzero;fill:rgb(20%,20%,20%);fill-opacity:1;" d="M 177.929688 445.125 L 170.054688 432.359375 L 179.0625 430.167969 L 177.929688 445.125 "/>
<path style="fill:none;stroke-width:1;stroke-linecap:butt;stroke-linejoin:miter;stroke:rgb(20%,20%,20%);stroke-opacity:1;stroke-miterlimit:10;" d="M 159.9375 371.117188 L 199.992188 430.34375 "/>
<path style=" stroke:none;fill-rule:nonzero;fill:rgb(20%,20%,20%);fill-opacity:1;" d="M 207.984375 442.160156 L 196.152344 432.941406 L 203.832031 427.746094 L 207.984375 442.160156 "/>
<path style="fill:none;stroke-width:1;stroke-linecap:butt;stroke-linejoin:miter;stroke:rgb(20%,20%,20%);stroke-opacity:1;stroke-miterlimit:10;" d="M 391 412.210938 L 204.074219 450.03125 "/>
<path style=" stroke:none;fill-rule:nonzero;fill:rgb(20%,20%,20%);fill-opacity:1;" d="M 190.09375 452.859375 L 203.15625 445.488281 L 204.992188 454.574219 L 190.09375 452.859375 "/>
<path style="fill:none;stroke-width:1;stroke-linecap:butt;stroke-linejoin:miter;stroke:rgb(20%,20%,20%);stroke-opacity:1;stroke-miterlimit:10;" d="M 391 412.210938 L 237.308594 445.332031 "/>
<path style=" stroke:none;fill-rule:nonzero;fill:rgb(20%,20%,20%);fill-opacity:1;" d="M 223.363281 448.339844 L 236.332031 440.800781 L 238.285156 449.863281 L 223.363281 448.339844 "/>
<path style="fill:none;stroke-width:1;stroke-linecap:butt;stroke-linejoin:miter;stroke:rgb(20%,20%,20%);stroke-opacity:1;stroke-miterlimit:10;" d="M 180.289062 454.84375 L 189.53125 453.621094 "/>
<path style=" stroke:none;fill-rule:nonzero;fill:rgb(20%,20%,20%);fill-opacity:1;" d="M 203.671875 451.753906 L 190.136719 458.21875 L 188.921875 449.027344 L 203.671875 451.753906 "/>
<path style="fill-rule:nonzero;fill:rgb(100%,0%,0%);fill-opacity:1;stroke-width:1;stroke-linecap:butt;stroke-linejoin:miter;stroke:rgb(0%,0%,0%);stroke-opacity:1;stroke-miterlimit:10;" d="M 388.304688 241.238281 C 388.304688 246.761719 383.828125 251.238281 378.304688 251.238281 C 372.78125 251.238281 368.304688 246.761719 368.304688 241.238281 C 368.304688 235.71875 372.78125 231.238281 378.304688 231.238281 C 383.828125 231.238281 388.304688 235.71875 388.304688 241.238281 "/>
<path style="fill-rule:nonzero;fill:rgb(100%,0%,0%);fill-opacity:1;stroke-width:1;stroke-linecap:butt;stroke-linejoin:miter;stroke:rgb(0%,0%,0%);stroke-opacity:1;stroke-miterlimit:10;" d="M 296.597656 277.886719 C 296.597656 283.410156 292.121094 287.886719 286.597656 287.886719 C 281.074219 287.886719 276.597656 283.410156 276.597656 277.886719 C 276.597656 272.363281 281.074219 267.886719 286.597656 267.886719 C 292.121094 267.886719 296.597656 272.363281 296.597656 277.886719 "/>
<path style="fill-rule:nonzero;fill:rgb(0%,0%,100%);fill-opacity:1;stroke-width:1;stroke-linecap:butt;stroke-linejoin:miter;stroke:rgb(0%,0%,0%);stroke-opacity:1;stroke-miterlimit:10;" d="M 356.386719 361.617188 C 356.386719 367.140625 351.910156 371.617188 346.386719 371.617188 C 340.867188 371.617188 336.386719 367.140625 336.386719 361.617188 C 336.386719 356.09375 340.867188 351.617188 346.386719 351.617188 C 351.910156 351.617188 356.386719 356.09375 356.386719 361.617188 "/>
<path style="fill-rule:nonzero;fill:rgb(0%,0%,100%);fill-opacity:1;stroke-width:1;stroke-linecap:butt;stroke-linejoin:miter;stroke:rgb(0%,0%,0%);stroke-opacity:1;stroke-miterlimit:10;" d="M 423.898438 278.347656 C 423.898438 283.871094 419.421875 288.347656 413.898438 288.347656 C 408.375 288.347656 403.898438 283.871094 403.898438 278.347656 C 403.898438 272.828125 408.375 268.347656 413.898438 268.347656 C 419.421875 268.347656 423.898438 272.828125 423.898438 278.347656 "/>
<path style="fill-rule:nonzero;fill:rgb(0%,0%,100%);fill-opacity:1;stroke-width:1;stroke-linecap:butt;stroke-linejoin:miter;stroke:rgb(0%,0%,0%);stroke-opacity:1;stroke-miterlimit:10;" d="M 394.59375 140.070312 C 394.59375 145.59375 390.113281 150.070312 384.59375 150.070312 C 379.070312 150.070312 374.59375 145.59375 374.59375 140.070312 C 374.59375 134.546875 379.070312 130.070312 384.59375 130.070312 C 390.113281 130.070312 394.59375 134.546875 394.59375 140.070312 "/>
<path style="fill-rule:nonzero;fill:rgb(100%,0%,0%);fill-opacity:1;stroke-width:1;stroke-linecap:butt;stroke-linejoin:miter;stroke:rgb(0%,0%,0%);stroke-opacity:1;stroke-miterlimit:10;" d="M 466.742188 104.328125 C 466.742188 109.851562 462.265625 114.328125 456.742188 114.328125 C 451.21875 114.328125 446.742188 109.851562 446.742188 104.328125 C 446.742188 98.808594 451.21875 94.328125 456.742188 94.328125 C 462.265625 94.328125 466.742188 98.808594 466.742188 104.328125 "/>
<path style="fill-rule:nonzero;fill:rgb(100%,0%,0%);fill-opacity:1;stroke-width:1;stroke-linecap:butt;stroke-linejoin:miter;stroke:rgb(0%,0%,0%);stroke-opacity:1;stroke-miterlimit:10;" d="M 398.210938 98.832031 C 398.210938 104.355469 393.734375 108.832031 388.210938 108.832031 C 382.6875 108.832031 378.210938 104.355469 378.210938 98.832031 C 378.210938 93.308594 382.6875 88.832031 388.210938 88.832031 C 393.734375 88.832031 398.210938 93.308594 398.210938 98.832031 "/>
<path style="fill-rule:nonzero;fill:rgb(100%,0%,0%);fill-opacity:1;stroke-width:1;stroke-linecap:butt;stroke-linejoin:miter;stroke:rgb(0%,0%,0%);stroke-opacity:1;stroke-miterlimit:10;" d="M 448.335938 299.570312 C 448.335938 305.09375 443.859375 309.570312 438.335938 309.570312 C 432.8125 309.570312 428.335938 305.09375 428.335938 299.570312 C 428.335938 294.046875 432.8125 289.570312 438.335938 289.570312 C 443.859375 289.570312 448.335938 294.046875 448.335938 299.570312 "/>
<path style="fill-rule:nonzero;fill:rgb(100%,0%,0%);fill-opacity:1;stroke-width:1;stroke-linecap:butt;stroke-linejoin:miter;stroke:rgb(0%,0%,0%);stroke-opacity:1;stroke-miterlimit:10;" d="M 255.445312 361.746094 C 255.445312 367.269531 250.96875 371.746094 245.445312 371.746094 C 239.921875 371.746094 235.445312 367.269531 235.445312 361.746094 C 235.445312 356.222656 239.921875 351.746094 245.445312 351.746094 C 250.96875 351.746094 255.445312 356.222656 255.445312 361.746094 "/>
<path style="fill-rule:nonzero;fill:rgb(100%,0%,0%);fill-opacity:1;stroke-width:1;stroke-linecap:butt;stroke-linejoin:miter;stroke:rgb(0%,0%,0%);stroke-opacity:1;stroke-miterlimit:10;" d="M 345.179688 454.632812 C 345.179688 460.152344 340.703125 464.632812 335.179688 464.632812 C 329.65625 464.632812 325.179688 460.152344 325.179688 454.632812 C 325.179688 449.109375 329.65625 444.632812 335.179688 444.632812 C 340.703125 444.632812 345.179688 449.109375 345.179688 454.632812 "/>
<path style="fill-rule:nonzero;fill:rgb(100%,0%,0%);fill-opacity:1;stroke-width:1;stroke-linecap:butt;stroke-linejoin:miter;stroke:rgb(0%,0%,0%);stroke-opacity:1;stroke-miterlimit:10;" d="M 484.785156 147.109375 C 484.785156 152.632812 480.304688 157.109375 474.785156 157.109375 C 469.261719 157.109375 464.785156 152.632812 464.785156 147.109375 C 464.785156 141.585938 469.261719 137.109375 474.785156 137.109375 C 480.304688 137.109375 484.785156 141.585938 484.785156 147.109375 "/>
<path style="fill-rule:nonzero;fill:rgb(0%,0%,100%);fill-opacity:1;stroke-width:1;stroke-linecap:butt;stroke-linejoin:miter;stroke:rgb(0%,0%,0%);stroke-opacity:1;stroke-miterlimit:10;" d="M 590 182.542969 C 590 188.066406 585.523438 192.542969 580 192.542969 C 574.476562 192.542969 570 188.066406 570 182.542969 C 570 177.019531 574.476562 172.542969 580 172.542969 C 585.523438 172.542969 590 177.019531 590 182.542969 "/>
<path style="fill-rule:nonzero;fill:rgb(0%,0%,100%);fill-opacity:1;stroke-width:1;stroke-linecap:butt;stroke-linejoin:miter;stroke:rgb(0%,0%,0%);stroke-opacity:1;stroke-miterlimit:10;" d="M 549.382812 236.835938 C 549.382812 242.359375 544.90625 246.835938 539.382812 246.835938 C 533.859375 246.835938 529.382812 242.359375 529.382812 236.835938 C 529.382812 231.3125 533.859375 226.835938 539.382812 226.835938 C 544.90625 226.835938 549.382812 231.3125 549.382812 236.835938 "/>
<path style="fill-rule:nonzero;fill:rgb(0%,0%,100%);fill-opacity:1;stroke-width:1;stroke-linecap:butt;stroke-linejoin:miter;stroke:rgb(0%,0%,0%);stroke-opacity:1;stroke-miterlimit:10;" d="M 328.234375 326.570312 C 328.234375 332.09375 323.757812 336.570312 318.234375 336.570312 C 312.710938 336.570312 308.234375 332.09375 308.234375 326.570312 C 308.234375 321.046875 312.710938 316.570312 318.234375 316.570312 C 323.757812 316.570312 328.234375 321.046875 328.234375 326.570312 "/>
<path style="fill-rule:nonzero;fill:rgb(0%,100%,0%);fill-opacity:1;stroke-width:1;stroke-linecap:butt;stroke-linejoin:miter;stroke:rgb(0%,0%,0%);stroke-opacity:1;stroke-miterlimit:10;" d="M 69.589844 493.351562 C 69.589844 498.875 65.113281 503.351562 59.589844 503.351562 C 54.066406 503.351562 49.589844 498.875 49.589844 493.351562 C 49.589844 487.828125 54.066406 483.351562 59.589844 483.351562 C 65.113281 483.351562 69.589844 487.828125 69.589844 493.351562 "/>
<path style="fill-rule:nonzero;fill:rgb(0%,0%,100%);fill-opacity:1;stroke-width:1;stroke-linecap:butt;stroke-linejoin:miter;stroke:rgb(0%,0%,0%);stroke-opacity:1;stroke-miterlimit:10;" d="M 49.050781 433.863281 C 49.050781 439.386719 44.574219 443.863281 39.050781 443.863281 C 33.527344 443.863281 29.050781 439.386719 29.050781 433.863281 C 29.050781 428.339844 33.527344 423.863281 39.050781 423.863281 C 44.574219 423.863281 49.050781 428.339844 49.050781 433.863281 "/>
<path style="fill-rule:nonzero;fill:rgb(100%,0%,0%);fill-opacity:1;stroke-width:1;stroke-linecap:butt;stroke-linejoin:miter;stroke:rgb(0%,0%,0%);stroke-opacity:1;stroke-miterlimit:10;" d="M 458.429688 20 C 458.429688 25.523438 453.953125 30 448.429688 30 C 442.90625 30 438.429688 25.523438 438.429688 20 C 438.429688 14.476562 442.90625 10 448.429688 10 C 453.953125 10 458.429688 14.476562 458.429688 20 "/>
<path style="fill-rule:nonzero;fill:rgb(100%,0%,0%);fill-opacity:1;stroke-width:1;stroke-linecap:butt;stroke-linejoin:miter;stroke:rgb(0%,0%,0%);stroke-opacity:1;stroke-miterlimit:10;" d="M 288.707031 189.671875 C 288.707031 195.195312 284.226562 199.671875 278.707031 199.671875 C 273.183594 199.671875 268.707031 195.195312 268.707031 189.671875 C 268.707031 184.148438 273.183594 179.671875 278.707031 179.671875 C 284.226562 179.671875 288.707031 184.148438 288.707031 189.671875 "/>
<path style="fill-rule:nonzero;fill:rgb(100%,100%,0%);fill-opacity:1;stroke-width:1;stroke-linecap:butt;stroke-linejoin:miter;stroke:rgb(0%,0%,0%);stroke-opacity:1;stroke-miterlimit:10;" d="M 82.109375 524.808594 C 82.109375 530.332031 77.628906 534.808594 72.109375 534.808594 C 66.585938 534.808594 62.109375 530.332031 62.109375 524.808594 C 62.109375 519.285156 66.585938 514.808594 72.109375 514.808594 C 77.628906 514.808594 82.109375 519.285156 82.109375 524.808594 "/>
<path style="fill-rule:nonzero;fill:rgb(0%,0%,100%);fill-opacity:1;stroke-width:1;stroke-linecap:butt;stroke-linejoin:miter;stroke:rgb(0%,0%,0%);stroke-opacity:1;stroke-miterlimit:10;" d="M 230.722656 317.078125 C 230.722656 322.601562 226.242188 327.078125 220.722656 327.078125 C 215.199219 327.078125 210.722656 322.601562 210.722656 317.078125 C 210.722656 311.554688 215.199219 307.078125 220.722656 307.078125 C 226.242188 307.078125 230.722656 311.554688 230.722656 317.078125 "/>
<path style="fill-rule:nonzero;fill:rgb(100%,0%,100%);fill-opacity:1;stroke-width:1;stroke-linecap:butt;stroke-linejoin:miter;stroke:rgb(0%,0%,0%);stroke-opacity:1;stroke-miterlimit:10;" d="M 146.480469 531 C 146.480469 536.523438 142.003906 541 136.480469 541 C 130.957031 541 126.480469 536.523438 126.480469 531 C 126.480469 525.476562 130.957031 521 136.480469 521 C 142.003906 521 146.480469 525.476562 146.480469 531 "/>
<path style="fill-rule:nonzero;fill:rgb(100%,0%,0%);fill-opacity:1;stroke-width:1;stroke-linecap:butt;stroke-linejoin:miter;stroke:rgb(0%,0%,0%);stroke-opacity:1;stroke-miterlimit:10;" d="M 224.039062 205.429688 C 224.039062 210.953125 219.5625 215.429688 214.039062 215.429688 C 208.515625 215.429688 204.039062 210.953125 204.039062 205.429688 C 204.039062 199.90625 208.515625 195.429688 214.039062 195.429688 C 219.5625 195.429688 224.039062 199.90625 224.039062 205.429688 "/>
<path style="fill-rule:nonzero;fill:rgb(0%,100%,100%);fill-opacity:1;stroke-width:1;stroke-linecap:butt;stroke-linejoin:miter;stroke:rgb(0%,0%,0%);stroke-opacity:1;stroke-miterlimit:10;" d="M 30 468.917969 C 30 474.441406 25.523438 478.917969 20 478.917969 C 14.476562 478.917969 10 474.441406 10 468.917969 C 10 463.394531 14.476562 458.917969 20 458.917969 C 25.523438 458.917969 30 463.394531 30 468.917969 "/>
<path style="fill-rule:nonzero;fill:rgb(50.196078%,50.196078%,50.196078%);fill-opacity:1;stroke-width:1;stroke-linecap:butt;stroke-linejoin:miter;stroke:rgb(0%,0%,0%);stroke-opacity:1;stroke-miterlimit:10;" d="M 330.199219 516.925781 C 330.199219 522.449219 325.722656 526.925781 320.199219 526.925781 C 314.675781 526.925781 310.199219 522.449219 310.199219 516.925781 C 310.199219 511.402344 314.675781 506.925781 320.199219 506.925781 C 325.722656 506.925781 330.199219 511.402344 330.199219 516.925781 "/>
<path style="fill-rule:nonzero;fill:rgb(50%,0%,0%);fill-opacity:1;stroke-width:1;stroke-linecap:butt;stroke-linejoin:miter;stroke:rgb(0%,0%,0%);stroke-opacity:1;stroke-miterlimit:10;" d="M 550.328125 479.25 C 550.328125 484.773438 545.851562 489.25 540.328125 489.25 C 534.804688 489.25 530.328125 484.773438 530.328125 479.25 C 530.328125 473.726562 534.804688 469.25 540.328125 469.25 C 545.851562 469.25 550.328125 473.726562 550.328125 479.25 "/>
<path style="fill-rule:nonzero;fill:rgb(50%,0%,0%);fill-opacity:1;stroke-width:1;stroke-linecap:butt;stroke-linejoin:miter;stroke:rgb(0%,0%,0%);stroke-opacity:1;stroke-miterlimit:10;" d="M 488.46875 514.644531 C 488.46875 520.167969 483.992188 524.644531 478.46875 524.644531 C 472.945312 524.644531 468.46875 520.167969 468.46875 514.644531 C 468.46875 509.121094 472.945312 504.644531 478.46875 504.644531 C 483.992188 504.644531 488.46875 509.121094 488.46875 514.644531 "/>
<path style="fill-rule:nonzero;fill:rgb(0%,50%,0%);fill-opacity:1;stroke-width:1;stroke-linecap:butt;stroke-linejoin:miter;stroke:rgb(0%,0%,0%);stroke-opacity:1;stroke-miterlimit:10;" d="M 200.730469 580 C 200.730469 585.523438 196.253906 590 190.730469 590 C 185.207031 590 180.730469 585.523438 180.730469 580 C 180.730469 574.476562 185.207031 570 190.730469 570 C 196.253906 570 200.730469 574.476562 200.730469 580 "/>
<path style="fill-rule:nonzero;fill:rgb(50%,0%,0%);fill-opacity:1;stroke-width:1;stroke-linecap:butt;stroke-linejoin:miter;stroke:rgb(0%,0%,0%);stroke-opacity:1;stroke-miterlimit:10;" d="M 414.039062 467.203125 C 414.039062 472.726562 409.5625 477.203125 404.039062 477.203125 C 398.515625 477.203125 394.039062 472.726562 394.039062 467.203125 C 394.039062 461.679688 398.515625 457.203125 404.039062 457.203125 C 409.5625 457.203125 414.039062 461.679688 414.039062 467.203125 "/>
<path style="fill-rule:nonzero;fill:rgb(100%,0%,0%);fill-opacity:1;stroke-width:1;stroke-linecap:butt;stroke-linejoin:miter;stroke:rgb(0%,0%,0%);stroke-opacity:1;stroke-miterlimit:10;" d="M 326.4375 419.644531 C 326.4375 425.164062 321.960938 429.644531 316.4375 429.644531 C 310.917969 429.644531 306.4375 425.164062 306.4375 419.644531 C 306.4375 414.121094 310.917969 409.644531 316.4375 409.644531 C 321.960938 409.644531 326.4375 414.121094 326.4375 419.644531 "/>
<path style="fill-rule:nonzero;fill:rgb(50.196078%,50.196078%,50.196078%);fill-opacity:1;stroke-width:1;stroke-linecap:butt;stroke-linejoin:miter;stroke:rgb(0%,0%,0%);stroke-opacity:1;stroke-miterlimit:10;" d="M 234.855469 537.4375 C 234.855469 542.960938 230.378906 547.4375 224.855469 547.4375 C 219.332031 547.4375 214.855469 542.960938 214.855469 537.4375 C 214.855469 531.914062 219.332031 527.4375 224.855469 527.4375 C 230.378906 527.4375 234.855469 531.914062 234.855469 537.4375 "/>
<path style="fill-rule:nonzero;fill:rgb(100%,0%,0%);fill-opacity:1;stroke-width:1;stroke-linecap:butt;stroke-linejoin:miter;stroke:rgb(0%,0%,0%);stroke-opacity:1;stroke-miterlimit:10;" d="M 169.9375 371.117188 C 169.9375 376.640625 165.460938 381.117188 159.9375 381.117188 C 154.414062 381.117188 149.9375 376.640625 149.9375 371.117188 C 149.9375 365.59375 154.414062 361.117188 159.9375 361.117188 C 165.460938 361.117188 169.9375 365.59375 169.9375 371.117188 "/>
<path style="fill-rule:nonzero;fill:rgb(100%,0%,0%);fill-opacity:1;stroke-width:1;stroke-linecap:butt;stroke-linejoin:miter;stroke:rgb(0%,0%,0%);stroke-opacity:1;stroke-miterlimit:10;" d="M 401 412.210938 C 401 417.730469 396.523438 422.210938 391 422.210938 C 385.476562 422.210938 381 417.730469 381 412.210938 C 381 406.6875 385.476562 402.210938 391 402.210938 C 396.523438 402.210938 401 406.6875 401 412.210938 "/>
<path style="fill-rule:nonzero;fill:rgb(100%,0%,0%);fill-opacity:1;stroke-width:1;stroke-linecap:butt;stroke-linejoin:miter;stroke:rgb(0%,0%,0%);stroke-opacity:1;stroke-miterlimit:10;" d="M 190.289062 454.84375 C 190.289062 460.363281 185.8125 464.84375 180.289062 464.84375 C 174.769531 464.84375 170.289062 460.363281 170.289062 454.84375 C 170.289062 449.320312 174.769531 444.84375 180.289062 444.84375 C 185.8125 444.84375 190.289062 449.320312 190.289062 454.84375 "/>
<path style="fill-rule:nonzero;fill:rgb(100%,0%,0%);fill-opacity:1;stroke-width:1;stroke-linecap:butt;stroke-linejoin:miter;stroke:rgb(0%,0%,0%);stroke-opacity:1;stroke-miterlimit:10;" d="M 223.585938 450.445312 C 223.585938 455.96875 219.109375 460.445312 213.585938 460.445312 C 208.066406 460.445312 203.585938 455.96875 203.585938 450.445312 C 203.585938 444.921875 208.066406 440.445312 213.585938 440.445312 C 219.109375 440.445312 223.585938 444.921875 223.585938 450.445312 "/>
</g>
</svg>
