<?xml version="1.0" encoding="UTF-8"?>
<svg xmlns="http://www.w3.org/2000/svg" xmlns:xlink="http://www.w3.org/1999/xlink" width="600pt" height="600pt" viewBox="0 0 600 600" version="1.1">
<g id="surface86">
<rect x="0" y="0" width="600" height="600" style="fill:rgb(100%,100%,100%);fill-opacity:1;stroke:none;"/>
<path style="fill-rule:nonzero;fill:rgb(100%,0%,0%);fill-opacity:0.25;stroke-width:2;stroke-linecap:butt;stroke-linejoin:miter;stroke:rgb(100%,0%,0%);stroke-opacity:1;stroke-miterlimit:10;" d="M 493.84375 283.195312 L 434.203125 196.125 C 428.632812 187.992188 413.246094 180.734375 403.425781 181.601562 C 393.609375 182.472656 374.566406 186.816406 365.339844 190.285156 L 182.894531 258.921875 C 171.195312 263.324219 150.488281 276.394531 141.480469 285.058594 L 113.582031 311.898438 C 104.574219 320.566406 91.273438 340.96875 86.976562 352.707031 L 9.007812 565.753906 C 4.710938 577.492188 12.894531 589.972656 25.371094 590.710938 L 240.433594 603.445312 C 252.914062 604.183594 274.554688 596.417969 283.714844 587.917969 L 428.457031 453.574219 C 437.617188 445.070312 452.011719 425.214844 457.246094 413.863281 L 497.507812 326.523438 C 502.742188 315.171875 500.910156 293.507812 493.84375 283.195312 "/>
<path style="fill-rule:nonzero;fill:rgb(50.196078%,50.196078%,50.196078%);fill-opacity:0.25;stroke-width:2;stroke-linecap:butt;stroke-linejoin:miter;stroke:rgb(50.196078%,50.196078%,50.196078%);stroke-opacity:1;stroke-miterlimit:10;" d="M 429.472656 6.921875 C 437.902344 9.574219 450.417969 20.070312 454.5 27.910156 L 496.964844 109.4375 C 501.046875 117.277344 502.476562 133.546875 499.820312 141.976562 C 497.164062 150.40625 486.078125 156.179688 477.644531 153.527344 C 469.214844 150.871094 456.703125 140.375 452.617188 132.535156 L 410.152344 51.007812 C 406.070312 43.167969 404.644531 26.898438 407.300781 18.46875 C 409.957031 10.039062 421.042969 4.265625 429.472656 6.921875 "/>
<path style="fill-rule:nonzero;fill:rgb(50%,0%,0%);fill-opacity:0.25;stroke-width:2;stroke-linecap:butt;stroke-linejoin:miter;stroke:rgb(50%,0%,0%);stroke-opacity:1;stroke-miterlimit:10;" d="M 381.675781 3.992188 C 389.679688 7.738281 400.695312 19.800781 403.703125 28.109375 L 433.273438 109.78125 C 436.285156 118.089844 435.542969 134.40625 431.796875 142.410156 C 428.046875 150.414062 416.292969 154.671875 408.289062 150.921875 C 400.285156 147.171875 389.269531 135.113281 386.261719 126.800781 L 356.691406 45.132812 C 353.679688 36.820312 354.421875 20.507812 358.171875 12.503906 C 361.917969 4.496094 373.671875 0.242188 381.675781 3.992188 "/>
<path style="fill-rule:nonzero;fill:rgb(0%,50%,0%);fill-opacity:0.25;stroke-width:2;stroke-linecap:butt;stroke-linejoin:miter;stroke:rgb(0%,50%,0%);stroke-opacity:1;stroke-miterlimit:10;" d="M 597.023438 158.675781 C 594.640625 167.1875 584.554688 180.03125 576.851562 184.367188 L 561.105469 193.226562 C 553.402344 197.558594 537.1875 199.511719 528.675781 197.128906 C 520.164062 194.746094 514.035156 183.851562 516.417969 175.339844 C 518.796875 166.828125 528.882812 153.984375 536.589844 149.648438 L 552.335938 140.789062 C 560.039062 136.457031 576.253906 134.503906 584.765625 136.886719 C 593.277344 139.269531 599.40625 150.164062 597.023438 158.675781 "/>
<path style="fill:none;stroke-width:1;stroke-linecap:butt;stroke-linejoin:miter;stroke:rgb(20%,20%,20%);stroke-opacity:1;stroke-miterlimit:10;" d="M 237.496094 413.085938 L 281.648438 436.054688 "/>
<path style=" stroke:none;fill-rule:nonzero;fill:rgb(20%,20%,20%);fill-opacity:1;" d="M 294.304688 442.640625 L 279.511719 440.167969 L 283.789062 431.945312 L 294.304688 442.640625 "/>
<path style="fill:none;stroke-width:1;stroke-linecap:butt;stroke-linejoin:miter;stroke:rgb(20%,20%,20%);stroke-opacity:1;stroke-miterlimit:10;" d="M 237.496094 413.085938 L 331.316406 320.335938 "/>
<path style=" stroke:none;fill-rule:nonzero;fill:rgb(20%,20%,20%);fill-opacity:1;" d="M 341.460938 310.304688 L 334.578125 323.632812 L 328.058594 317.039062 L 341.460938 310.304688 "/>
<path style="fill:none;stroke-width:1;stroke-linecap:butt;stroke-linejoin:miter;stroke:rgb(20%,20%,20%);stroke-opacity:1;stroke-miterlimit:10;" d="M 237.496094 413.085938 L 251.996094 341.660156 "/>
<path style=" stroke:none;fill-rule:nonzero;fill:rgb(20%,20%,20%);fill-opacity:1;" d="M 254.832031 327.679688 L 256.539062 342.585938 L 247.453125 340.738281 L 254.832031 327.679688 "/>
<path style="fill:none;stroke-width:1;stroke-linecap:butt;stroke-linejoin:miter;stroke:rgb(20%,20%,20%);stroke-opacity:1;stroke-miterlimit:10;" d="M 237.496094 413.085938 L 158.089844 454.296875 "/>
<path style=" stroke:none;fill-rule:nonzero;fill:rgb(20%,20%,20%);fill-opacity:1;" d="M 145.429688 460.867188 L 155.957031 450.183594 L 160.226562 458.410156 L 145.429688 460.867188 "/>
<path style="fill:none;stroke-width:1;stroke-linecap:butt;stroke-linejoin:miter;stroke:rgb(20%,20%,20%);stroke-opacity:1;stroke-miterlimit:10;" d="M 237.496094 413.085938 L 124.796875 528.585938 "/>
<path style=" stroke:none;fill-rule:nonzero;fill:rgb(20%,20%,20%);fill-opacity:1;" d="M 114.832031 538.796875 L 121.476562 525.347656 L 128.113281 531.824219 L 114.832031 538.796875 "/>
<path style="fill:none;stroke-width:1;stroke-linecap:butt;stroke-linejoin:miter;stroke:rgb(20%,20%,20%);stroke-opacity:1;stroke-miterlimit:10;" d="M 237.496094 413.085938 L 115.089844 474.039062 "/>
<path style=" stroke:none;fill-rule:nonzero;fill:rgb(20%,20%,20%);fill-opacity:1;" d="M 102.320312 480.394531 L 113.023438 469.886719 L 117.15625 478.1875 L 102.320312 480.394531 "/>
<path style="fill:none;stroke-width:1;stroke-linecap:butt;stroke-linejoin:miter;stroke:rgb(20%,20%,20%);stroke-opacity:1;stroke-miterlimit:10;" d="M 237.496094 413.085938 L 256.144531 387.773438 "/>
<path style=" stroke:none;fill-rule:nonzero;fill:rgb(20%,20%,20%);fill-opacity:1;" d="M 264.605469 376.289062 L 259.875 390.523438 L 252.414062 385.027344 L 264.605469 376.289062 "/>
<path style="fill:none;stroke-width:1;stroke-linecap:butt;stroke-linejoin:miter;stroke:rgb(20%,20%,20%);stroke-opacity:1;stroke-miterlimit:10;" d="M 237.496094 413.085938 L 361.039062 379.316406 "/>
<path style=" stroke:none;fill-rule:nonzero;fill:rgb(20%,20%,20%);fill-opacity:1;" d="M 374.796875 375.554688 L 362.261719 383.785156 L 359.816406 374.84375 L 374.796875 375.554688 "/>
<path style="fill:none;stroke-width:1;stroke-linecap:butt;stroke-linejoin:miter;stroke:rgb(20%,20%,20%);stroke-opacity:1;stroke-miterlimit:10;" d="M 237.496094 413.085938 L 166.636719 528.515625 "/>
<path style=" stroke:none;fill-rule:nonzero;fill:rgb(20%,20%,20%);fill-opacity:1;" d="M 159.171875 540.671875 L 162.6875 526.089844 L 170.585938 530.941406 L 159.171875 540.671875 "/>
<path style="fill:none;stroke-width:1;stroke-linecap:butt;stroke-linejoin:miter;stroke:rgb(20%,20%,20%);stroke-opacity:1;stroke-miterlimit:10;" d="M 237.496094 413.085938 L 140.257812 347.355469 "/>
<path style=" stroke:none;fill-rule:nonzero;fill:rgb(20%,20%,20%);fill-opacity:1;" d="M 128.4375 339.363281 L 142.851562 343.515625 L 137.660156 351.195312 L 128.4375 339.363281 "/>
<path style="fill:none;stroke-width:1;stroke-linecap:butt;stroke-linejoin:miter;stroke:rgb(20%,20%,20%);stroke-opacity:1;stroke-miterlimit:10;" d="M 237.496094 413.085938 L 189.199219 305.148438 "/>
<path style=" stroke:none;fill-rule:nonzero;fill:rgb(20%,20%,20%);fill-opacity:1;" d="M 183.371094 292.128906 L 193.429688 303.257812 L 184.96875 307.042969 L 183.371094 292.128906 "/>
<path style="fill:none;stroke-width:1;stroke-linecap:butt;stroke-linejoin:miter;stroke:rgb(20%,20%,20%);stroke-opacity:1;stroke-miterlimit:10;" d="M 237.496094 413.085938 L 307.957031 366.75 "/>
<path style=" stroke:none;fill-rule:nonzero;fill:rgb(20%,20%,20%);fill-opacity:1;" d="M 319.878906 358.910156 L 310.503906 370.621094 L 305.410156 362.875 L 319.878906 358.910156 "/>
<path style="fill:none;stroke-width:1;stroke-linecap:butt;stroke-linejoin:miter;stroke:rgb(20%,20%,20%);stroke-opacity:1;stroke-miterlimit:10;" d="M 237.496094 413.085938 L 263.074219 556.113281 "/>
<path style=" stroke:none;fill-rule:nonzero;fill:rgb(20%,20%,20%);fill-opacity:1;" d="M 265.585938 570.15625 L 258.511719 556.929688 L 267.636719 555.296875 L 265.585938 570.15625 "/>
<path style="fill:none;stroke-width:1;stroke-linecap:butt;stroke-linejoin:miter;stroke:rgb(20%,20%,20%);stroke-opacity:1;stroke-miterlimit:10;" d="M 237.496094 413.085938 L 333.410156 435.046875 "/>
<path style=" stroke:none;fill-rule:nonzero;fill:rgb(20%,20%,20%);fill-opacity:1;" d="M 347.316406 438.230469 L 332.378906 439.566406 L 334.445312 430.527344 L 347.316406 438.230469 "/>
<path style="fill:none;stroke-width:1;stroke-linecap:butt;stroke-linejoin:miter;stroke:rgb(20%,20%,20%);stroke-opacity:1;stroke-miterlimit:10;" d="M 237.496094 413.085938 L 232.875 525.871094 "/>
<path style=" stroke:none;fill-rule:nonzero;fill:rgb(20%,20%,20%);fill-opacity:1;" d="M 232.289062 540.125 L 228.242188 525.679688 L 237.503906 526.058594 L 232.289062 540.125 "/>
<path style="fill:none;stroke-width:1;stroke-linecap:butt;stroke-linejoin:miter;stroke:rgb(20%,20%,20%);stroke-opacity:1;stroke-miterlimit:10;" d="M 237.496094 413.085938 L 358.566406 225.628906 "/>
<path style=" stroke:none;fill-rule:nonzero;fill:rgb(20%,20%,20%);fill-opacity:1;" d="M 366.304688 213.644531 L 362.460938 228.140625 L 354.671875 223.113281 L 366.304688 213.644531 "/>
<path style="fill:none;stroke-width:1;stroke-linecap:butt;stroke-linejoin:miter;stroke:rgb(20%,20%,20%);stroke-opacity:1;stroke-miterlimit:10;" d="M 303.175781 447.253906 L 341.277344 326.417969 "/>
<path style=" stroke:none;fill-rule:nonzero;fill:rgb(20%,20%,20%);fill-opacity:1;" d="M 345.566406 312.8125 L 345.699219 327.8125 L 336.855469 325.023438 L 345.566406 312.8125 "/>
<path style="fill:none;stroke-width:1;stroke-linecap:butt;stroke-linejoin:miter;stroke:rgb(20%,20%,20%);stroke-opacity:1;stroke-miterlimit:10;" d="M 303.175781 447.253906 L 265.007812 340.726562 "/>
<path style=" stroke:none;fill-rule:nonzero;fill:rgb(20%,20%,20%);fill-opacity:1;" d="M 260.195312 327.296875 L 269.371094 339.160156 L 260.644531 342.289062 L 260.195312 327.296875 "/>
<path style="fill:none;stroke-width:1;stroke-linecap:butt;stroke-linejoin:miter;stroke:rgb(20%,20%,20%);stroke-opacity:1;stroke-miterlimit:10;" d="M 303.175781 447.253906 L 279.800781 390.667969 "/>
<path style=" stroke:none;fill-rule:nonzero;fill:rgb(20%,20%,20%);fill-opacity:1;" d="M 274.355469 377.480469 L 284.085938 388.898438 L 275.515625 392.4375 L 274.355469 377.480469 "/>
<path style="fill:none;stroke-width:1;stroke-linecap:butt;stroke-linejoin:miter;stroke:rgb(20%,20%,20%);stroke-opacity:1;stroke-miterlimit:10;" d="M 303.175781 447.253906 L 321.972656 376.859375 "/>
<path style=" stroke:none;fill-rule:nonzero;fill:rgb(20%,20%,20%);fill-opacity:1;" d="M 325.652344 363.078125 L 326.453125 378.054688 L 317.496094 375.664062 L 325.652344 363.078125 "/>
<path style="fill:none;stroke-width:1;stroke-linecap:butt;stroke-linejoin:miter;stroke:rgb(20%,20%,20%);stroke-opacity:1;stroke-miterlimit:10;" d="M 303.175781 447.253906 L 273.671875 556.574219 "/>
<path style=" stroke:none;fill-rule:nonzero;fill:rgb(20%,20%,20%);fill-opacity:1;" d="M 269.953125 570.34375 L 269.195312 555.363281 L 278.144531 557.78125 L 269.953125 570.34375 "/>
<path style="fill:none;stroke-width:1;stroke-linecap:butt;stroke-linejoin:miter;stroke:rgb(20%,20%,20%);stroke-opacity:1;stroke-miterlimit:10;" d="M 303.175781 447.253906 L 332.988281 443.496094 "/>
<path style=" stroke:none;fill-rule:nonzero;fill:rgb(20%,20%,20%);fill-opacity:1;" d="M 347.144531 441.714844 L 333.570312 448.097656 L 332.410156 438.898438 L 347.144531 441.714844 "/>
<path style="fill:none;stroke-width:1;stroke-linecap:butt;stroke-linejoin:miter;stroke:rgb(20%,20%,20%);stroke-opacity:1;stroke-miterlimit:10;" d="M 303.175781 447.253906 L 245.703125 530.171875 "/>
<path style=" stroke:none;fill-rule:nonzero;fill:rgb(20%,20%,20%);fill-opacity:1;" d="M 237.578125 541.894531 L 241.894531 527.53125 L 249.511719 532.8125 L 237.578125 541.894531 "/>
<path style="fill:none;stroke-width:1;stroke-linecap:butt;stroke-linejoin:miter;stroke:rgb(20%,20%,20%);stroke-opacity:1;stroke-miterlimit:10;" d="M 303.175781 447.253906 L 400.039062 430.507812 "/>
<path style=" stroke:none;fill-rule:nonzero;fill:rgb(20%,20%,20%);fill-opacity:1;" d="M 414.097656 428.078125 L 400.828125 435.078125 L 399.25 425.941406 L 414.097656 428.078125 "/>
<path style="fill:none;stroke-width:1;stroke-linecap:butt;stroke-linejoin:miter;stroke:rgb(20%,20%,20%);stroke-opacity:1;stroke-miterlimit:10;" d="M 348.574219 303.277344 L 280.789062 314.066406 "/>
<path style=" stroke:none;fill-rule:nonzero;fill:rgb(20%,20%,20%);fill-opacity:1;" d="M 266.699219 316.308594 L 280.058594 309.488281 L 281.515625 318.644531 L 266.699219 316.308594 "/>
<path style="fill:none;stroke-width:1;stroke-linecap:butt;stroke-linejoin:miter;stroke:rgb(20%,20%,20%);stroke-opacity:1;stroke-miterlimit:10;" d="M 348.574219 303.277344 L 289.1875 352.714844 "/>
<path style=" stroke:none;fill-rule:nonzero;fill:rgb(20%,20%,20%);fill-opacity:1;" d="M 278.222656 361.839844 L 286.222656 349.152344 L 292.152344 356.277344 L 278.222656 361.839844 "/>
<path style="fill:none;stroke-width:1;stroke-linecap:butt;stroke-linejoin:miter;stroke:rgb(20%,20%,20%);stroke-opacity:1;stroke-miterlimit:10;" d="M 348.574219 303.277344 L 373.332031 351.34375 "/>
<path style=" stroke:none;fill-rule:nonzero;fill:rgb(20%,20%,20%);fill-opacity:1;" d="M 379.867188 364.027344 L 369.210938 353.464844 L 377.453125 349.222656 L 379.867188 364.027344 "/>
<path style="fill:none;stroke-width:1;stroke-linecap:butt;stroke-linejoin:miter;stroke:rgb(20%,20%,20%);stroke-opacity:1;stroke-miterlimit:10;" d="M 348.574219 303.277344 L 396.128906 286.132812 "/>
<path style=" stroke:none;fill-rule:nonzero;fill:rgb(20%,20%,20%);fill-opacity:1;" d="M 409.550781 281.292969 L 397.699219 290.492188 L 394.558594 281.769531 L 409.550781 281.292969 "/>
<path style="fill:none;stroke-width:1;stroke-linecap:butt;stroke-linejoin:miter;stroke:rgb(20%,20%,20%);stroke-opacity:1;stroke-miterlimit:10;" d="M 348.574219 303.277344 L 337.355469 330.929688 "/>
<path style=" stroke:none;fill-rule:nonzero;fill:rgb(20%,20%,20%);fill-opacity:1;" d="M 331.992188 344.148438 L 333.058594 329.1875 L 341.648438 332.671875 L 331.992188 344.148438 "/>
<path style="fill:none;stroke-width:1;stroke-linecap:butt;stroke-linejoin:miter;stroke:rgb(80%,80%,80%);stroke-opacity:1;stroke-miterlimit:10;" d="M 348.574219 303.277344 L 406.789062 157.449219 "/>
<path style=" stroke:none;fill-rule:nonzero;fill:rgb(80%,80%,80%);fill-opacity:1;" d="M 412.078125 144.199219 L 411.09375 159.167969 L 402.484375 155.730469 L 412.078125 144.199219 "/>
<path style="fill:none;stroke-width:1;stroke-linecap:butt;stroke-linejoin:miter;stroke:rgb(20%,20%,20%);stroke-opacity:1;stroke-miterlimit:10;" d="M 348.574219 303.277344 L 395.929688 220.867188 "/>
<path style=" stroke:none;fill-rule:nonzero;fill:rgb(20%,20%,20%);fill-opacity:1;" d="M 403.035156 208.5 L 399.945312 223.175781 L 391.910156 218.558594 L 403.035156 208.5 "/>
<path style="fill:none;stroke-width:1;stroke-linecap:butt;stroke-linejoin:miter;stroke:rgb(20%,20%,20%);stroke-opacity:1;stroke-miterlimit:10;" d="M 348.574219 303.277344 L 459.601562 309.058594 "/>
<path style=" stroke:none;fill-rule:nonzero;fill:rgb(20%,20%,20%);fill-opacity:1;" d="M 473.847656 309.800781 L 459.359375 313.6875 L 459.839844 304.429688 L 473.847656 309.800781 "/>
<path style="fill:none;stroke-width:1;stroke-linecap:butt;stroke-linejoin:miter;stroke:rgb(20%,20%,20%);stroke-opacity:1;stroke-miterlimit:10;" d="M 256.824219 317.882812 L 264.160156 344.824219 "/>
<path style=" stroke:none;fill-rule:nonzero;fill:rgb(20%,20%,20%);fill-opacity:1;" d="M 267.910156 358.589844 L 259.6875 346.042969 L 268.632812 343.605469 L 267.910156 358.589844 "/>
<path style="fill:none;stroke-width:1;stroke-linecap:butt;stroke-linejoin:miter;stroke:rgb(20%,20%,20%);stroke-opacity:1;stroke-miterlimit:10;" d="M 256.824219 317.882812 L 201.417969 292.957031 "/>
<path style=" stroke:none;fill-rule:nonzero;fill:rgb(20%,20%,20%);fill-opacity:1;" d="M 188.40625 287.101562 L 203.316406 288.726562 L 199.515625 297.183594 L 188.40625 287.101562 "/>
<path style="fill:none;stroke-width:1;stroke-linecap:butt;stroke-linejoin:miter;stroke:rgb(20%,20%,20%);stroke-opacity:1;stroke-miterlimit:10;" d="M 256.824219 317.882812 L 306.507812 342.605469 "/>
<path style=" stroke:none;fill-rule:nonzero;fill:rgb(20%,20%,20%);fill-opacity:1;" d="M 319.28125 348.960938 L 304.441406 346.753906 L 308.574219 338.457031 L 319.28125 348.960938 "/>
<path style="fill:none;stroke-width:1;stroke-linecap:butt;stroke-linejoin:miter;stroke:rgb(20%,20%,20%);stroke-opacity:1;stroke-miterlimit:10;" d="M 136.554688 465.476562 L 115.507812 474.917969 "/>
<path style=" stroke:none;fill-rule:nonzero;fill:rgb(20%,20%,20%);fill-opacity:1;" d="M 102.492188 480.757812 L 113.609375 470.691406 L 117.40625 479.148438 L 102.492188 480.757812 "/>
<path style="fill:none;stroke-width:1;stroke-linecap:butt;stroke-linejoin:miter;stroke:rgb(20%,20%,20%);stroke-opacity:1;stroke-miterlimit:10;" d="M 136.554688 465.476562 L 149.007812 525.4375 "/>
<path style=" stroke:none;fill-rule:nonzero;fill:rgb(20%,20%,20%);fill-opacity:1;" d="M 151.90625 539.402344 L 144.46875 526.378906 L 153.546875 524.492188 L 151.90625 539.402344 "/>
<path style="fill:none;stroke-width:1;stroke-linecap:butt;stroke-linejoin:miter;stroke:rgb(20%,20%,20%);stroke-opacity:1;stroke-miterlimit:10;" d="M 107.847656 545.953125 L 98.964844 508.464844 "/>
<path style=" stroke:none;fill-rule:nonzero;fill:rgb(20%,20%,20%);fill-opacity:1;" d="M 95.675781 494.582031 L 103.476562 507.394531 L 94.453125 509.535156 L 95.675781 494.582031 "/>
<path style="fill:none;stroke-width:1;stroke-linecap:butt;stroke-linejoin:miter;stroke:rgb(20%,20%,20%);stroke-opacity:1;stroke-miterlimit:10;" d="M 107.847656 545.953125 L 129.734375 547.492188 "/>
<path style=" stroke:none;fill-rule:nonzero;fill:rgb(20%,20%,20%);fill-opacity:1;" d="M 143.964844 548.492188 L 129.410156 552.117188 L 130.058594 542.867188 L 143.964844 548.492188 "/>
<path style="fill:none;stroke-width:1;stroke-linecap:butt;stroke-linejoin:miter;stroke:rgb(20%,20%,20%);stroke-opacity:1;stroke-miterlimit:10;" d="M 107.847656 545.953125 L 43.140625 566.386719 "/>
<path style=" stroke:none;fill-rule:nonzero;fill:rgb(20%,20%,20%);fill-opacity:1;" d="M 29.535156 570.683594 L 41.742188 561.96875 L 44.535156 570.808594 L 29.535156 570.683594 "/>
<path style="fill:none;stroke-width:1;stroke-linecap:butt;stroke-linejoin:miter;stroke:rgb(20%,20%,20%);stroke-opacity:1;stroke-miterlimit:10;" d="M 93.367188 484.851562 L 35.453125 554.984375 "/>
<path style=" stroke:none;fill-rule:nonzero;fill:rgb(20%,20%,20%);fill-opacity:1;" d="M 26.367188 565.984375 L 31.878906 552.035156 L 39.027344 557.9375 L 26.367188 565.984375 "/>
<path style="fill:none;stroke-width:1;stroke-linecap:butt;stroke-linejoin:miter;stroke:rgb(20%,20%,20%);stroke-opacity:1;stroke-miterlimit:10;" d="M 384.445312 372.917969 L 409.527344 406.859375 "/>
<path style=" stroke:none;fill-rule:nonzero;fill:rgb(20%,20%,20%);fill-opacity:1;" d="M 418.007812 418.332031 L 405.800781 409.613281 L 413.257812 404.105469 L 418.007812 418.332031 "/>
<path style="fill:none;stroke-width:1;stroke-linecap:butt;stroke-linejoin:miter;stroke:rgb(20%,20%,20%);stroke-opacity:1;stroke-miterlimit:10;" d="M 384.445312 372.917969 L 463.300781 323.25 "/>
<path style=" stroke:none;fill-rule:nonzero;fill:rgb(20%,20%,20%);fill-opacity:1;" d="M 475.371094 315.648438 L 465.769531 327.171875 L 460.828125 319.328125 L 475.371094 315.648438 "/>
<path style="fill:none;stroke-width:1;stroke-linecap:butt;stroke-linejoin:miter;stroke:rgb(20%,20%,20%);stroke-opacity:1;stroke-miterlimit:10;" d="M 384.445312 372.917969 L 450.839844 307.636719 "/>
<path style=" stroke:none;fill-rule:nonzero;fill:rgb(20%,20%,20%);fill-opacity:1;" d="M 461.011719 297.632812 L 454.089844 310.941406 L 447.589844 304.332031 L 461.011719 297.632812 "/>
<path style="fill:none;stroke-width:1;stroke-linecap:butt;stroke-linejoin:miter;stroke:rgb(20%,20%,20%);stroke-opacity:1;stroke-miterlimit:10;" d="M 418.957031 277.902344 L 444.648438 284.546875 "/>
<path style=" stroke:none;fill-rule:nonzero;fill:rgb(20%,20%,20%);fill-opacity:1;" d="M 458.460938 288.117188 L 443.488281 289.035156 L 445.808594 280.058594 L 458.460938 288.117188 "/>
<path style="fill:none;stroke-width:1;stroke-linecap:butt;stroke-linejoin:miter;stroke:rgb(20%,20%,20%);stroke-opacity:1;stroke-miterlimit:10;" d="M 328.234375 353.417969 L 446.003906 300.558594 "/>
<path style=" stroke:none;fill-rule:nonzero;fill:rgb(20%,20%,20%);fill-opacity:1;" d="M 459.019531 294.71875 L 447.902344 304.789062 L 444.105469 296.328125 L 459.019531 294.71875 "/>
<path style="fill:none;stroke-width:1;stroke-linecap:butt;stroke-linejoin:miter;stroke:rgb(80%,80%,80%);stroke-opacity:1;stroke-miterlimit:10;" d="M 518.308594 438.863281 L 490.117188 333.757812 "/>
<path style=" stroke:none;fill-rule:nonzero;fill:rgb(80%,80%,80%);fill-opacity:1;" d="M 486.421875 319.976562 L 494.597656 332.554688 L 485.640625 334.957031 L 486.421875 319.976562 "/>
<path style="fill:none;stroke-width:1;stroke-linecap:butt;stroke-linejoin:miter;stroke:rgb(80%,80%,80%);stroke-opacity:1;stroke-miterlimit:10;" d="M 518.308594 438.863281 L 475.921875 313.609375 "/>
<path style=" stroke:none;fill-rule:nonzero;fill:rgb(80%,80%,80%);fill-opacity:1;" d="M 471.347656 300.09375 L 480.3125 312.121094 L 471.53125 315.09375 L 471.347656 300.09375 "/>
<path style="fill:none;stroke-width:1;stroke-linecap:butt;stroke-linejoin:miter;stroke:rgb(80%,80%,80%);stroke-opacity:1;stroke-miterlimit:10;" d="M 567.738281 358.128906 L 504.917969 322.332031 "/>
<path style=" stroke:none;fill-rule:nonzero;fill:rgb(80%,80%,80%);fill-opacity:1;" d="M 492.519531 315.269531 L 507.210938 318.304688 L 502.621094 326.359375 L 492.519531 315.269531 "/>
<path style="fill:none;stroke-width:1;stroke-linecap:butt;stroke-linejoin:miter;stroke:rgb(80%,80%,80%);stroke-opacity:1;stroke-miterlimit:10;" d="M 567.738281 358.128906 L 488.230469 304.238281 "/>
<path style=" stroke:none;fill-rule:nonzero;fill:rgb(80%,80%,80%);fill-opacity:1;" d="M 476.421875 296.234375 L 490.828125 300.402344 L 485.628906 308.074219 L 476.421875 296.234375 "/>
<path style="fill:none;stroke-width:1;stroke-linecap:butt;stroke-linejoin:miter;stroke:rgb(80%,80%,80%);stroke-opacity:1;stroke-miterlimit:10;" d="M 575.246094 302.589844 L 508.011719 308.273438 "/>
<path style=" stroke:none;fill-rule:nonzero;fill:rgb(80%,80%,80%);fill-opacity:1;" d="M 493.796875 309.476562 L 507.621094 303.65625 L 508.402344 312.894531 L 493.796875 309.476562 "/>
<path style="fill:none;stroke-width:1;stroke-linecap:butt;stroke-linejoin:miter;stroke:rgb(80%,80%,80%);stroke-opacity:1;stroke-miterlimit:10;" d="M 575.246094 302.589844 L 492.257812 293.316406 "/>
<path style=" stroke:none;fill-rule:nonzero;fill:rgb(80%,80%,80%);fill-opacity:1;" d="M 478.082031 291.734375 L 492.773438 288.710938 L 491.742188 297.925781 L 478.082031 291.734375 "/>
<path style="fill:none;stroke-width:1;stroke-linecap:butt;stroke-linejoin:miter;stroke:rgb(20%,20%,20%);stroke-opacity:1;stroke-miterlimit:10;" d="M 357.066406 440.464844 L 453.691406 310.117188 "/>
<path style=" stroke:none;fill-rule:nonzero;fill:rgb(20%,20%,20%);fill-opacity:1;" d="M 462.1875 298.65625 L 457.414062 312.878906 L 449.96875 307.355469 L 462.1875 298.65625 "/>
<path style="fill:none;stroke-width:1;stroke-linecap:butt;stroke-linejoin:miter;stroke:rgb(80%,80%,80%);stroke-opacity:1;stroke-miterlimit:10;" d="M 549.183594 406.1875 L 497.5 330.371094 "/>
<path style=" stroke:none;fill-rule:nonzero;fill:rgb(80%,80%,80%);fill-opacity:1;" d="M 489.464844 318.582031 L 501.332031 327.757812 L 493.671875 332.980469 L 489.464844 318.582031 "/>
<path style="fill:none;stroke-width:1;stroke-linecap:butt;stroke-linejoin:miter;stroke:rgb(80%,80%,80%);stroke-opacity:1;stroke-miterlimit:10;" d="M 549.183594 406.1875 L 482.074219 310.492188 "/>
<path style=" stroke:none;fill-rule:nonzero;fill:rgb(80%,80%,80%);fill-opacity:1;" d="M 473.882812 298.808594 L 485.871094 307.828125 L 478.28125 313.152344 L 473.882812 298.808594 "/>
<path style="fill:none;stroke-width:1;stroke-linecap:butt;stroke-linejoin:miter;stroke:rgb(80%,80%,80%);stroke-opacity:1;stroke-miterlimit:10;" d="M 560.484375 249.460938 L 502.835938 295.230469 "/>
<path style=" stroke:none;fill-rule:nonzero;fill:rgb(80%,80%,80%);fill-opacity:1;" d="M 491.664062 304.101562 L 499.957031 291.601562 L 505.71875 298.859375 L 491.664062 304.101562 "/>
<path style="fill:none;stroke-width:1;stroke-linecap:butt;stroke-linejoin:miter;stroke:rgb(80%,80%,80%);stroke-opacity:1;stroke-miterlimit:10;" d="M 560.484375 249.460938 L 490.304688 280.742188 "/>
<path style=" stroke:none;fill-rule:nonzero;fill:rgb(80%,80%,80%);fill-opacity:1;" d="M 477.277344 286.550781 L 488.417969 276.511719 L 492.195312 284.976562 L 477.277344 286.550781 "/>
<path style="fill:none;stroke-width:1;stroke-linecap:butt;stroke-linejoin:miter;stroke:rgb(20%,20%,20%);stroke-opacity:1;stroke-miterlimit:10;" d="M 482.957031 136.664062 L 435.371094 45.300781 "/>
<path style=" stroke:none;fill-rule:nonzero;fill:rgb(20%,20%,20%);fill-opacity:1;" d="M 428.78125 32.648438 L 439.480469 43.160156 L 431.257812 47.445312 L 428.78125 32.648438 "/>
<path style="fill:none;stroke-width:1;stroke-linecap:butt;stroke-linejoin:miter;stroke:rgb(80%,80%,80%);stroke-opacity:1;stroke-miterlimit:10;" d="M 482.957031 136.664062 L 440.042969 135.546875 "/>
<path style=" stroke:none;fill-rule:nonzero;fill:rgb(80%,80%,80%);fill-opacity:1;" d="M 425.78125 135.171875 L 440.164062 130.910156 L 439.921875 140.179688 L 425.78125 135.171875 "/>
<path style="fill:none;stroke-width:1;stroke-linecap:butt;stroke-linejoin:miter;stroke:rgb(80%,80%,80%);stroke-opacity:1;stroke-miterlimit:10;" d="M 482.957031 136.664062 L 515.046875 164.277344 "/>
<path style=" stroke:none;fill-rule:nonzero;fill:rgb(80%,80%,80%);fill-opacity:1;" d="M 525.859375 173.582031 L 512.023438 167.792969 L 518.070312 160.765625 L 525.859375 173.582031 "/>
<path style="fill:none;stroke-width:1;stroke-linecap:butt;stroke-linejoin:miter;stroke:rgb(80%,80%,80%);stroke-opacity:1;stroke-miterlimit:10;" d="M 482.957031 136.664062 L 483.710938 286.054688 "/>
<path style=" stroke:none;fill-rule:nonzero;fill:rgb(80%,80%,80%);fill-opacity:1;" d="M 483.78125 300.320312 L 479.074219 286.078125 L 488.347656 286.03125 L 483.78125 300.320312 "/>
<path style="fill:none;stroke-width:1;stroke-linecap:butt;stroke-linejoin:miter;stroke:rgb(80%,80%,80%);stroke-opacity:1;stroke-miterlimit:10;" d="M 482.957031 136.664062 L 470.46875 266.46875 "/>
<path style=" stroke:none;fill-rule:nonzero;fill:rgb(80%,80%,80%);fill-opacity:1;" d="M 469.101562 280.667969 L 465.851562 266.023438 L 475.082031 266.914062 L 469.101562 280.667969 "/>
<path style="fill:none;stroke-width:1;stroke-linecap:butt;stroke-linejoin:miter;stroke:rgb(80%,80%,80%);stroke-opacity:1;stroke-miterlimit:10;" d="M 374.179688 20 L 399.964844 21.949219 "/>
<path style=" stroke:none;fill-rule:nonzero;fill:rgb(80%,80%,80%);fill-opacity:1;" d="M 414.1875 23.027344 L 399.613281 26.574219 L 400.3125 17.328125 L 414.1875 23.027344 "/>
<path style="fill:none;stroke-width:1;stroke-linecap:butt;stroke-linejoin:miter;stroke:rgb(20%,20%,20%);stroke-opacity:1;stroke-miterlimit:10;" d="M 374.179688 20 L 407.523438 112.097656 "/>
<path style=" stroke:none;fill-rule:nonzero;fill:rgb(20%,20%,20%);fill-opacity:1;" d="M 412.382812 125.511719 L 403.167969 113.675781 L 411.882812 110.519531 L 412.382812 125.511719 "/>
<path style="fill:none;stroke-width:1;stroke-linecap:butt;stroke-linejoin:miter;stroke:rgb(80%,80%,80%);stroke-opacity:1;stroke-miterlimit:10;" d="M 374.179688 20 L 372.050781 180.980469 "/>
<path style=" stroke:none;fill-rule:nonzero;fill:rgb(80%,80%,80%);fill-opacity:1;" d="M 371.863281 195.242188 L 367.417969 180.917969 L 376.6875 181.039062 L 371.863281 195.242188 "/>
<path style="fill:none;stroke-width:1;stroke-linecap:butt;stroke-linejoin:miter;stroke:rgb(80%,80%,80%);stroke-opacity:1;stroke-miterlimit:10;" d="M 424.160156 23.78125 L 378.464844 181.929688 "/>
<path style=" stroke:none;fill-rule:nonzero;fill:rgb(80%,80%,80%);fill-opacity:1;" d="M 374.507812 195.636719 L 374.011719 180.644531 L 382.917969 183.21875 L 374.507812 195.636719 "/>
<path style="fill:none;stroke-width:1;stroke-linecap:butt;stroke-linejoin:miter;stroke:rgb(20%,20%,20%);stroke-opacity:1;stroke-miterlimit:10;" d="M 580 153.910156 L 554.589844 168.207031 "/>
<path style=" stroke:none;fill-rule:nonzero;fill:rgb(20%,20%,20%);fill-opacity:1;" d="M 542.15625 175.203125 L 552.316406 164.167969 L 556.859375 172.246094 L 542.15625 175.203125 "/>
<path style="fill:none;stroke-width:1;stroke-linecap:butt;stroke-linejoin:miter;stroke:rgb(80%,80%,80%);stroke-opacity:1;stroke-miterlimit:10;" d="M 580 153.910156 L 483.507812 271.84375 "/>
<path style=" stroke:none;fill-rule:nonzero;fill:rgb(80%,80%,80%);fill-opacity:1;" d="M 474.476562 282.882812 L 479.921875 268.90625 L 487.097656 274.777344 L 474.476562 282.882812 "/>
<path style="fill:none;stroke-width:1;stroke-linecap:butt;stroke-linejoin:miter;stroke:rgb(80%,80%,80%);stroke-opacity:1;stroke-miterlimit:10;" d="M 415.785156 134.914062 L 460.410156 267.621094 "/>
<path style=" stroke:none;fill-rule:nonzero;fill:rgb(80%,80%,80%);fill-opacity:1;" d="M 464.957031 281.144531 L 456.015625 269.101562 L 464.800781 266.144531 L 464.957031 281.144531 "/>
<path style="fill:none;stroke-width:1;stroke-linecap:butt;stroke-linejoin:miter;stroke:rgb(20%,20%,20%);stroke-opacity:1;stroke-miterlimit:10;" d="M 408.019531 199.828125 L 395.730469 201.660156 "/>
<path style=" stroke:none;fill-rule:nonzero;fill:rgb(20%,20%,20%);fill-opacity:1;" d="M 381.621094 203.765625 L 395.046875 197.078125 L 396.414062 206.246094 L 381.621094 203.765625 "/>
<path style="fill:none;stroke-width:1;stroke-linecap:butt;stroke-linejoin:miter;stroke:rgb(20%,20%,20%);stroke-opacity:1;stroke-miterlimit:10;" d="M 408.019531 199.828125 L 454.746094 270.390625 "/>
<path style=" stroke:none;fill-rule:nonzero;fill:rgb(20%,20%,20%);fill-opacity:1;" d="M 462.621094 282.285156 L 450.878906 272.949219 L 458.609375 267.832031 L 462.621094 282.285156 "/>
<path style="fill:none;stroke-width:1;stroke-linecap:butt;stroke-linejoin:miter;stroke:rgb(80%,80%,80%);stroke-opacity:1;stroke-miterlimit:10;" d="M 533.4375 180.105469 L 492.472656 287.644531 "/>
<path style=" stroke:none;fill-rule:nonzero;fill:rgb(80%,80%,80%);fill-opacity:1;" d="M 487.394531 300.972656 L 488.140625 285.992188 L 496.804688 289.292969 L 487.394531 300.972656 "/>
<path style="fill:none;stroke-width:1;stroke-linecap:butt;stroke-linejoin:miter;stroke:rgb(80%,80%,80%);stroke-opacity:1;stroke-miterlimit:10;" d="M 533.4375 180.105469 L 480.484375 269.730469 "/>
<path style=" stroke:none;fill-rule:nonzero;fill:rgb(80%,80%,80%);fill-opacity:1;" d="M 473.230469 282.011719 L 476.496094 267.375 L 484.476562 272.089844 L 473.230469 282.011719 "/>
<path style="fill:none;stroke-width:1;stroke-linecap:butt;stroke-linejoin:miter;stroke:rgb(20%,20%,20%);stroke-opacity:1;stroke-miterlimit:10;" d="M 423.949219 426.375 L 472.707031 331.882812 "/>
<path style=" stroke:none;fill-rule:nonzero;fill:rgb(20%,20%,20%);fill-opacity:1;" d="M 479.246094 319.207031 L 476.824219 334.007812 L 468.585938 329.757812 L 479.246094 319.207031 "/>
<path style="fill:none;stroke-width:1;stroke-linecap:butt;stroke-linejoin:miter;stroke:rgb(20%,20%,20%);stroke-opacity:1;stroke-miterlimit:10;" d="M 423.949219 426.375 L 460.632812 313.695312 "/>
<path style=" stroke:none;fill-rule:nonzero;fill:rgb(20%,20%,20%);fill-opacity:1;" d="M 465.046875 300.132812 L 465.039062 315.132812 L 456.222656 312.261719 L 465.046875 300.132812 "/>
<path style="fill:none;stroke-width:1;stroke-linecap:butt;stroke-linejoin:miter;stroke:rgb(20%,20%,20%);stroke-opacity:1;stroke-miterlimit:10;" d="M 371.730469 205.242188 L 466.128906 293.722656 "/>
<path style=" stroke:none;fill-rule:nonzero;fill:rgb(20%,20%,20%);fill-opacity:1;" d="M 476.535156 303.480469 L 462.957031 297.105469 L 469.296875 290.34375 L 476.535156 303.480469 "/>
<path style="fill:none;stroke-width:1;stroke-linecap:butt;stroke-linejoin:miter;stroke:rgb(20%,20%,20%);stroke-opacity:1;stroke-miterlimit:10;" d="M 371.730469 205.242188 L 449.976562 274.535156 "/>
<path style=" stroke:none;fill-rule:nonzero;fill:rgb(20%,20%,20%);fill-opacity:1;" d="M 460.65625 283.992188 L 446.902344 278.003906 L 453.050781 271.066406 L 460.65625 283.992188 "/>
<path style="fill:none;stroke-width:1;stroke-linecap:butt;stroke-linejoin:miter;stroke:rgb(20%,20%,20%);stroke-opacity:1;stroke-miterlimit:10;" d="M 483.832031 310.320312 L 483.261719 309.601562 "/>
<path style=" stroke:none;fill-rule:nonzero;fill:rgb(20%,20%,20%);fill-opacity:1;" d="M 474.375 298.445312 L 486.886719 306.714844 L 479.636719 312.492188 L 474.375 298.445312 "/>
<path style="fill-rule:nonzero;fill:rgb(100%,0%,0%);fill-opacity:1;stroke-width:1;stroke-linecap:butt;stroke-linejoin:miter;stroke:rgb(0%,0%,0%);stroke-opacity:1;stroke-miterlimit:10;" d="M 247.496094 413.085938 C 247.496094 418.609375 243.019531 423.085938 237.496094 423.085938 C 231.976562 423.085938 227.496094 418.609375 227.496094 413.085938 C 227.496094 407.566406 231.976562 403.085938 237.496094 403.085938 C 243.019531 403.085938 247.496094 407.566406 247.496094 413.085938 "/>
<path style="fill-rule:nonzero;fill:rgb(100%,0%,0%);fill-opacity:1;stroke-width:1;stroke-linecap:butt;stroke-linejoin:miter;stroke:rgb(0%,0%,0%);stroke-opacity:1;stroke-miterlimit:10;" d="M 313.175781 447.253906 C 313.175781 452.777344 308.699219 457.253906 303.175781 457.253906 C 297.652344 457.253906 293.175781 452.777344 293.175781 447.253906 C 293.175781 441.730469 297.652344 437.253906 303.175781 437.253906 C 308.699219 437.253906 313.175781 441.730469 313.175781 447.253906 "/>
<path style="fill-rule:nonzero;fill:rgb(0%,0%,100%);fill-opacity:1;stroke-width:1;stroke-linecap:butt;stroke-linejoin:miter;stroke:rgb(0%,0%,0%);stroke-opacity:1;stroke-miterlimit:10;" d="M 358.574219 303.277344 C 358.574219 308.796875 354.097656 313.277344 348.574219 313.277344 C 343.050781 313.277344 338.574219 308.796875 338.574219 303.277344 C 338.574219 297.753906 343.050781 293.277344 348.574219 293.277344 C 354.097656 293.277344 358.574219 297.753906 358.574219 303.277344 "/>
<path style="fill-rule:nonzero;fill:rgb(0%,0%,100%);fill-opacity:1;stroke-width:1;stroke-linecap:butt;stroke-linejoin:miter;stroke:rgb(0%,0%,0%);stroke-opacity:1;stroke-miterlimit:10;" d="M 266.824219 317.882812 C 266.824219 323.402344 262.347656 327.882812 256.824219 327.882812 C 251.300781 327.882812 246.824219 323.402344 246.824219 317.882812 C 246.824219 312.359375 251.300781 307.882812 256.824219 307.882812 C 262.347656 307.882812 266.824219 312.359375 266.824219 317.882812 "/>
<path style="fill-rule:nonzero;fill:rgb(0%,0%,100%);fill-opacity:1;stroke-width:1;stroke-linecap:butt;stroke-linejoin:miter;stroke:rgb(0%,0%,0%);stroke-opacity:1;stroke-miterlimit:10;" d="M 146.554688 465.476562 C 146.554688 470.996094 142.078125 475.476562 136.554688 475.476562 C 131.03125 475.476562 126.554688 470.996094 126.554688 465.476562 C 126.554688 459.953125 131.03125 455.476562 136.554688 455.476562 C 142.078125 455.476562 146.554688 459.953125 146.554688 465.476562 "/>
<path style="fill-rule:nonzero;fill:rgb(100%,0%,0%);fill-opacity:1;stroke-width:1;stroke-linecap:butt;stroke-linejoin:miter;stroke:rgb(0%,0%,0%);stroke-opacity:1;stroke-miterlimit:10;" d="M 117.847656 545.953125 C 117.847656 551.476562 113.371094 555.953125 107.847656 555.953125 C 102.328125 555.953125 97.847656 551.476562 97.847656 545.953125 C 97.847656 540.429688 102.328125 535.953125 107.847656 535.953125 C 113.371094 535.953125 117.847656 540.429688 117.847656 545.953125 "/>
<path style="fill-rule:nonzero;fill:rgb(100%,0%,0%);fill-opacity:1;stroke-width:1;stroke-linecap:butt;stroke-linejoin:miter;stroke:rgb(0%,0%,0%);stroke-opacity:1;stroke-miterlimit:10;" d="M 103.367188 484.851562 C 103.367188 490.375 98.890625 494.851562 93.367188 494.851562 C 87.847656 494.851562 83.367188 490.375 83.367188 484.851562 C 83.367188 479.332031 87.847656 474.851562 93.367188 474.851562 C 98.890625 474.851562 103.367188 479.332031 103.367188 484.851562 "/>
<path style="fill-rule:nonzero;fill:rgb(100%,0%,0%);fill-opacity:1;stroke-width:1;stroke-linecap:butt;stroke-linejoin:miter;stroke:rgb(0%,0%,0%);stroke-opacity:1;stroke-miterlimit:10;" d="M 280.535156 368.238281 C 280.535156 373.761719 276.058594 378.238281 270.535156 378.238281 C 265.015625 378.238281 260.535156 373.761719 260.535156 368.238281 C 260.535156 362.714844 265.015625 358.238281 270.535156 358.238281 C 276.058594 358.238281 280.535156 362.714844 280.535156 368.238281 "/>
<path style="fill-rule:nonzero;fill:rgb(100%,0%,0%);fill-opacity:1;stroke-width:1;stroke-linecap:butt;stroke-linejoin:miter;stroke:rgb(0%,0%,0%);stroke-opacity:1;stroke-miterlimit:10;" d="M 394.445312 372.917969 C 394.445312 378.4375 389.96875 382.917969 384.445312 382.917969 C 378.921875 382.917969 374.445312 378.4375 374.445312 372.917969 C 374.445312 367.394531 378.921875 362.917969 384.445312 362.917969 C 389.96875 362.917969 394.445312 367.394531 394.445312 372.917969 "/>
<path style="fill-rule:nonzero;fill:rgb(100%,0%,0%);fill-opacity:1;stroke-width:1;stroke-linecap:butt;stroke-linejoin:miter;stroke:rgb(0%,0%,0%);stroke-opacity:1;stroke-miterlimit:10;" d="M 428.957031 277.902344 C 428.957031 283.425781 424.480469 287.902344 418.957031 287.902344 C 413.433594 287.902344 408.957031 283.425781 408.957031 277.902344 C 408.957031 272.378906 413.433594 267.902344 418.957031 267.902344 C 424.480469 267.902344 428.957031 272.378906 428.957031 277.902344 "/>
<path style="fill-rule:nonzero;fill:rgb(100%,0%,0%);fill-opacity:1;stroke-width:1;stroke-linecap:butt;stroke-linejoin:miter;stroke:rgb(0%,0%,0%);stroke-opacity:1;stroke-miterlimit:10;" d="M 163.941406 549.195312 C 163.941406 554.71875 159.464844 559.195312 153.941406 559.195312 C 148.417969 559.195312 143.941406 554.71875 143.941406 549.195312 C 143.941406 543.671875 148.417969 539.195312 153.941406 539.195312 C 159.464844 539.195312 163.941406 543.671875 163.941406 549.195312 "/>
<path style="fill-rule:nonzero;fill:rgb(0%,0%,100%);fill-opacity:1;stroke-width:1;stroke-linecap:butt;stroke-linejoin:miter;stroke:rgb(0%,0%,0%);stroke-opacity:1;stroke-miterlimit:10;" d="M 130.152344 333.765625 C 130.152344 339.285156 125.675781 343.765625 120.152344 343.765625 C 114.628906 343.765625 110.152344 339.285156 110.152344 333.765625 C 110.152344 328.242188 114.628906 323.765625 120.152344 323.765625 C 125.675781 323.765625 130.152344 328.242188 130.152344 333.765625 "/>
<path style="fill-rule:nonzero;fill:rgb(0%,0%,100%);fill-opacity:1;stroke-width:1;stroke-linecap:butt;stroke-linejoin:miter;stroke:rgb(0%,0%,0%);stroke-opacity:1;stroke-miterlimit:10;" d="M 189.285156 283 C 189.285156 288.523438 184.808594 293 179.285156 293 C 173.765625 293 169.285156 288.523438 169.285156 283 C 169.285156 277.476562 173.765625 273 179.285156 273 C 184.808594 273 189.285156 277.476562 189.285156 283 "/>
<path style="fill-rule:nonzero;fill:rgb(0%,0%,100%);fill-opacity:1;stroke-width:1;stroke-linecap:butt;stroke-linejoin:miter;stroke:rgb(0%,0%,0%);stroke-opacity:1;stroke-miterlimit:10;" d="M 338.234375 353.417969 C 338.234375 358.9375 333.753906 363.417969 328.234375 363.417969 C 322.710938 363.417969 318.234375 358.9375 318.234375 353.417969 C 318.234375 347.894531 322.710938 343.417969 328.234375 343.417969 C 333.753906 343.417969 338.234375 347.894531 338.234375 353.417969 "/>
<path style="fill-rule:nonzero;fill:rgb(0%,100%,0%);fill-opacity:1;stroke-width:1;stroke-linecap:butt;stroke-linejoin:miter;stroke:rgb(0%,0%,0%);stroke-opacity:1;stroke-miterlimit:10;" d="M 528.308594 438.863281 C 528.308594 444.386719 523.832031 448.863281 518.308594 448.863281 C 512.785156 448.863281 508.308594 444.386719 508.308594 438.863281 C 508.308594 433.339844 512.785156 428.863281 518.308594 428.863281 C 523.832031 428.863281 528.308594 433.339844 528.308594 438.863281 "/>
<path style="fill-rule:nonzero;fill:rgb(0%,0%,100%);fill-opacity:1;stroke-width:1;stroke-linecap:butt;stroke-linejoin:miter;stroke:rgb(0%,0%,0%);stroke-opacity:1;stroke-miterlimit:10;" d="M 577.738281 358.128906 C 577.738281 363.652344 573.261719 368.128906 567.738281 368.128906 C 562.214844 368.128906 557.738281 363.652344 557.738281 358.128906 C 557.738281 352.605469 562.214844 348.128906 567.738281 348.128906 C 573.261719 348.128906 577.738281 352.605469 577.738281 358.128906 "/>
<path style="fill-rule:nonzero;fill:rgb(100%,0%,0%);fill-opacity:1;stroke-width:1;stroke-linecap:butt;stroke-linejoin:miter;stroke:rgb(0%,0%,0%);stroke-opacity:1;stroke-miterlimit:10;" d="M 30 573.695312 C 30 579.21875 25.523438 583.695312 20 583.695312 C 14.476562 583.695312 10 579.21875 10 573.695312 C 10 568.171875 14.476562 563.695312 20 563.695312 C 25.523438 563.695312 30 568.171875 30 573.695312 "/>
<path style="fill-rule:nonzero;fill:rgb(100%,0%,0%);fill-opacity:1;stroke-width:1;stroke-linecap:butt;stroke-linejoin:miter;stroke:rgb(0%,0%,0%);stroke-opacity:1;stroke-miterlimit:10;" d="M 277.347656 580 C 277.347656 585.523438 272.871094 590 267.347656 590 C 261.824219 590 257.347656 585.523438 257.347656 580 C 257.347656 574.476562 261.824219 570 267.347656 570 C 272.871094 570 277.347656 574.476562 277.347656 580 "/>
<path style="fill-rule:nonzero;fill:rgb(100%,100%,0%);fill-opacity:1;stroke-width:1;stroke-linecap:butt;stroke-linejoin:miter;stroke:rgb(0%,0%,0%);stroke-opacity:1;stroke-miterlimit:10;" d="M 585.246094 302.589844 C 585.246094 308.113281 580.769531 312.589844 575.246094 312.589844 C 569.726562 312.589844 565.246094 308.113281 565.246094 302.589844 C 565.246094 297.066406 569.726562 292.589844 575.246094 292.589844 C 580.769531 292.589844 585.246094 297.066406 585.246094 302.589844 "/>
<path style="fill-rule:nonzero;fill:rgb(0%,0%,100%);fill-opacity:1;stroke-width:1;stroke-linecap:butt;stroke-linejoin:miter;stroke:rgb(0%,0%,0%);stroke-opacity:1;stroke-miterlimit:10;" d="M 367.066406 440.464844 C 367.066406 445.984375 362.589844 450.464844 357.066406 450.464844 C 351.542969 450.464844 347.066406 445.984375 347.066406 440.464844 C 347.066406 434.941406 351.542969 430.464844 357.066406 430.464844 C 362.589844 430.464844 367.066406 434.941406 367.066406 440.464844 "/>
<path style="fill-rule:nonzero;fill:rgb(100%,0%,100%);fill-opacity:1;stroke-width:1;stroke-linecap:butt;stroke-linejoin:miter;stroke:rgb(0%,0%,0%);stroke-opacity:1;stroke-miterlimit:10;" d="M 559.183594 406.1875 C 559.183594 411.710938 554.707031 416.1875 549.183594 416.1875 C 543.660156 416.1875 539.183594 411.710938 539.183594 406.1875 C 539.183594 400.664062 543.660156 396.1875 549.183594 396.1875 C 554.707031 396.1875 559.183594 400.664062 559.183594 406.1875 "/>
<path style="fill-rule:nonzero;fill:rgb(100%,0%,0%);fill-opacity:1;stroke-width:1;stroke-linecap:butt;stroke-linejoin:miter;stroke:rgb(0%,0%,0%);stroke-opacity:1;stroke-miterlimit:10;" d="M 241.878906 550.113281 C 241.878906 555.636719 237.402344 560.113281 231.878906 560.113281 C 226.359375 560.113281 221.878906 555.636719 221.878906 550.113281 C 221.878906 544.59375 226.359375 540.113281 231.878906 540.113281 C 237.402344 540.113281 241.878906 544.59375 241.878906 550.113281 "/>
<path style="fill-rule:nonzero;fill:rgb(0%,100%,100%);fill-opacity:1;stroke-width:1;stroke-linecap:butt;stroke-linejoin:miter;stroke:rgb(0%,0%,0%);stroke-opacity:1;stroke-miterlimit:10;" d="M 570.484375 249.460938 C 570.484375 254.984375 566.007812 259.460938 560.484375 259.460938 C 554.960938 259.460938 550.484375 254.984375 550.484375 249.460938 C 550.484375 243.941406 554.960938 239.460938 560.484375 239.460938 C 566.007812 239.460938 570.484375 243.941406 570.484375 249.460938 "/>
<path style="fill-rule:nonzero;fill:rgb(50.196078%,50.196078%,50.196078%);fill-opacity:1;stroke-width:1;stroke-linecap:butt;stroke-linejoin:miter;stroke:rgb(0%,0%,0%);stroke-opacity:1;stroke-miterlimit:10;" d="M 492.957031 136.664062 C 492.957031 142.1875 488.480469 146.664062 482.957031 146.664062 C 477.433594 146.664062 472.957031 142.1875 472.957031 136.664062 C 472.957031 131.140625 477.433594 126.664062 482.957031 126.664062 C 488.480469 126.664062 492.957031 131.140625 492.957031 136.664062 "/>
<path style="fill-rule:nonzero;fill:rgb(50%,0%,0%);fill-opacity:1;stroke-width:1;stroke-linecap:butt;stroke-linejoin:miter;stroke:rgb(0%,0%,0%);stroke-opacity:1;stroke-miterlimit:10;" d="M 384.179688 20 C 384.179688 25.523438 379.703125 30 374.179688 30 C 368.65625 30 364.179688 25.523438 364.179688 20 C 364.179688 14.476562 368.65625 10 374.179688 10 C 379.703125 10 384.179688 14.476562 384.179688 20 "/>
<path style="fill-rule:nonzero;fill:rgb(50.196078%,50.196078%,50.196078%);fill-opacity:1;stroke-width:1;stroke-linecap:butt;stroke-linejoin:miter;stroke:rgb(0%,0%,0%);stroke-opacity:1;stroke-miterlimit:10;" d="M 434.160156 23.78125 C 434.160156 29.304688 429.683594 33.78125 424.160156 33.78125 C 418.636719 33.78125 414.160156 29.304688 414.160156 23.78125 C 414.160156 18.257812 418.636719 13.78125 424.160156 13.78125 C 429.683594 13.78125 434.160156 18.257812 434.160156 23.78125 "/>
<path style="fill-rule:nonzero;fill:rgb(0%,50%,0%);fill-opacity:1;stroke-width:1;stroke-linecap:butt;stroke-linejoin:miter;stroke:rgb(0%,0%,0%);stroke-opacity:1;stroke-miterlimit:10;" d="M 590 153.910156 C 590 159.433594 585.523438 163.910156 580 163.910156 C 574.476562 163.910156 570 159.433594 570 153.910156 C 570 148.386719 574.476562 143.910156 580 143.910156 C 585.523438 143.910156 590 148.386719 590 153.910156 "/>
<path style="fill-rule:nonzero;fill:rgb(50%,0%,0%);fill-opacity:1;stroke-width:1;stroke-linecap:butt;stroke-linejoin:miter;stroke:rgb(0%,0%,0%);stroke-opacity:1;stroke-miterlimit:10;" d="M 425.785156 134.914062 C 425.785156 140.433594 421.308594 144.914062 415.785156 144.914062 C 410.265625 144.914062 405.785156 140.433594 405.785156 134.914062 C 405.785156 129.390625 410.265625 124.914062 415.785156 124.914062 C 421.308594 124.914062 425.785156 129.390625 425.785156 134.914062 "/>
<path style="fill-rule:nonzero;fill:rgb(100%,0%,0%);fill-opacity:1;stroke-width:1;stroke-linecap:butt;stroke-linejoin:miter;stroke:rgb(0%,0%,0%);stroke-opacity:1;stroke-miterlimit:10;" d="M 418.019531 199.828125 C 418.019531 205.351562 413.539062 209.828125 408.019531 209.828125 C 402.496094 209.828125 398.019531 205.351562 398.019531 199.828125 C 398.019531 194.304688 402.496094 189.828125 408.019531 189.828125 C 413.539062 189.828125 418.019531 194.304688 418.019531 199.828125 "/>
<path style="fill-rule:nonzero;fill:rgb(0%,50%,0%);fill-opacity:1;stroke-width:1;stroke-linecap:butt;stroke-linejoin:miter;stroke:rgb(0%,0%,0%);stroke-opacity:1;stroke-miterlimit:10;" d="M 543.4375 180.105469 C 543.4375 185.628906 538.960938 190.105469 533.4375 190.105469 C 527.917969 190.105469 523.4375 185.628906 523.4375 180.105469 C 523.4375 174.582031 527.917969 170.105469 533.4375 170.105469 C 538.960938 170.105469 543.4375 174.582031 543.4375 180.105469 "/>
<path style="fill-rule:nonzero;fill:rgb(100%,0%,0%);fill-opacity:1;stroke-width:1;stroke-linecap:butt;stroke-linejoin:miter;stroke:rgb(0%,0%,0%);stroke-opacity:1;stroke-miterlimit:10;" d="M 433.949219 426.375 C 433.949219 431.898438 429.472656 436.375 423.949219 436.375 C 418.429688 436.375 413.949219 431.898438 413.949219 426.375 C 413.949219 420.851562 418.429688 416.375 423.949219 416.375 C 429.472656 416.375 433.949219 420.851562 433.949219 426.375 "/>
<path style="fill-rule:nonzero;fill:rgb(100%,0%,0%);fill-opacity:1;stroke-width:1;stroke-linecap:butt;stroke-linejoin:miter;stroke:rgb(0%,0%,0%);stroke-opacity:1;stroke-miterlimit:10;" d="M 381.730469 205.242188 C 381.730469 210.765625 377.253906 215.242188 371.730469 215.242188 C 366.207031 215.242188 361.730469 210.765625 361.730469 205.242188 C 361.730469 199.71875 366.207031 195.242188 371.730469 195.242188 C 377.253906 195.242188 381.730469 199.71875 381.730469 205.242188 "/>
<path style="fill-rule:nonzero;fill:rgb(100%,0%,0%);fill-opacity:1;stroke-width:1;stroke-linecap:butt;stroke-linejoin:miter;stroke:rgb(0%,0%,0%);stroke-opacity:1;stroke-miterlimit:10;" d="M 493.832031 310.320312 C 493.832031 315.84375 489.355469 320.320312 483.832031 320.320312 C 478.308594 320.320312 473.832031 315.84375 473.832031 310.320312 C 473.832031 304.796875 478.308594 300.320312 483.832031 300.320312 C 489.355469 300.320312 493.832031 304.796875 493.832031 310.320312 "/>
<path style="fill-rule:nonzero;fill:rgb(100%,0%,0%);fill-opacity:1;stroke-width:1;stroke-linecap:butt;stroke-linejoin:miter;stroke:rgb(0%,0%,0%);stroke-opacity:1;stroke-miterlimit:10;" d="M 478.144531 290.621094 C 478.144531 296.144531 473.664062 300.621094 468.144531 300.621094 C 462.621094 300.621094 458.144531 296.144531 458.144531 290.621094 C 458.144531 285.101562 462.621094 280.621094 468.144531 280.621094 C 473.664062 280.621094 478.144531 285.101562 478.144531 290.621094 "/>
</g>
</svg>
