<?xml version="1.0" encoding="UTF-8"?>
<svg xmlns="http://www.w3.org/2000/svg" xmlns:xlink="http://www.w3.org/1999/xlink" width="600pt" height="600pt" viewBox="0 0 600 600" version="1.1">
<g id="surface86">
<rect x="0" y="0" width="600" height="600" style="fill:rgb(100%,100%,100%);fill-opacity:1;stroke:none;"/>
<path style="fill-rule:nonzero;fill:rgb(100%,0%,0%);fill-opacity:0.25;stroke-width:2;stroke-linecap:butt;stroke-linejoin:miter;stroke:rgb(100%,0%,0%);stroke-opacity:1;stroke-miterlimit:10;" d="M 595.863281 153.53125 L 558.25 22.46875 C 554.804688 10.453125 540.417969 4.492188 529.480469 10.542969 L 301.28125 136.847656 C 290.34375 142.902344 272.242188 159.199219 265.078125 169.441406 L 134.941406 355.457031 C 127.777344 365.699219 129.585938 384.644531 138.5625 393.34375 L 225.433594 477.574219 C 234.40625 486.273438 255.0625 490.53125 266.746094 486.085938 L 343.511719 456.875 C 355.195312 452.429688 376.476562 439.980469 386.078125 431.976562 L 545.203125 299.269531 C 554.804688 291.265625 568.667969 271.507812 572.933594 259.757812 L 594.230469 201.0625 C 598.496094 189.3125 599.3125 165.546875 595.863281 153.53125 "/>
<path style="fill-rule:nonzero;fill:rgb(50.196078%,50.196078%,50.196078%);fill-opacity:0.25;stroke-width:2;stroke-linecap:butt;stroke-linejoin:miter;stroke:rgb(50.196078%,50.196078%,50.196078%);stroke-opacity:1;stroke-miterlimit:10;" d="M 128.167969 465.921875 L 135.875 415.238281 C 137.753906 402.882812 127.148438 391.082031 114.660156 391.640625 L 21.277344 395.808594 C 8.789062 396.363281 6.390625 404.300781 16.480469 411.683594 L 104.230469 475.878906 C 114.316406 483.257812 126.285156 478.28125 128.167969 465.921875 "/>
<path style="fill-rule:nonzero;fill:rgb(0%,50%,0%);fill-opacity:0.25;stroke-width:2;stroke-linecap:butt;stroke-linejoin:miter;stroke:rgb(0%,50%,0%);stroke-opacity:1;stroke-miterlimit:10;" d="M 185.523438 524.9375 C 188.363281 533.308594 187.292969 549.605469 183.382812 557.53125 L 174.667969 575.203125 C 170.757812 583.132812 158.480469 593.898438 150.109375 596.738281 C 141.738281 599.582031 130.527344 594.050781 127.6875 585.679688 C 124.847656 577.3125 125.917969 561.015625 129.824219 553.085938 L 138.542969 535.414062 C 142.453125 527.488281 154.730469 516.71875 163.101562 513.878906 C 171.472656 511.039062 182.683594 516.566406 185.523438 524.9375 "/>
<path style="fill:none;stroke-width:1;stroke-linecap:butt;stroke-linejoin:miter;stroke:rgb(20%,20%,20%);stroke-opacity:1;stroke-miterlimit:10;" d="M 399.785156 239.074219 L 407.804688 281.640625 "/>
<path style=" stroke:none;fill-rule:nonzero;fill:rgb(20%,20%,20%);fill-opacity:1;" d="M 410.445312 295.660156 L 403.25 282.5 L 412.359375 280.785156 L 410.445312 295.660156 "/>
<path style="fill:none;stroke-width:1;stroke-linecap:butt;stroke-linejoin:miter;stroke:rgb(20%,20%,20%);stroke-opacity:1;stroke-miterlimit:10;" d="M 399.785156 239.074219 L 291.929688 323.15625 "/>
<path style=" stroke:none;fill-rule:nonzero;fill:rgb(20%,20%,20%);fill-opacity:1;" d="M 280.679688 331.929688 L 289.082031 319.5 L 294.78125 326.8125 L 280.679688 331.929688 "/>
<path style="fill:none;stroke-width:1;stroke-linecap:butt;stroke-linejoin:miter;stroke:rgb(20%,20%,20%);stroke-opacity:1;stroke-miterlimit:10;" d="M 399.785156 239.074219 L 332.035156 245.816406 "/>
<path style=" stroke:none;fill-rule:nonzero;fill:rgb(20%,20%,20%);fill-opacity:1;" d="M 317.839844 247.230469 L 331.574219 241.207031 L 332.492188 250.429688 L 317.839844 247.230469 "/>
<path style="fill:none;stroke-width:1;stroke-linecap:butt;stroke-linejoin:miter;stroke:rgb(20%,20%,20%);stroke-opacity:1;stroke-miterlimit:10;" d="M 399.785156 239.074219 L 453.636719 163.609375 "/>
<path style=" stroke:none;fill-rule:nonzero;fill:rgb(20%,20%,20%);fill-opacity:1;" d="M 461.921875 151.996094 L 457.410156 166.300781 L 449.863281 160.917969 L 461.921875 151.996094 "/>
<path style="fill:none;stroke-width:1;stroke-linecap:butt;stroke-linejoin:miter;stroke:rgb(20%,20%,20%);stroke-opacity:1;stroke-miterlimit:10;" d="M 399.785156 239.074219 L 449.210938 115.207031 "/>
<path style=" stroke:none;fill-rule:nonzero;fill:rgb(20%,20%,20%);fill-opacity:1;" d="M 454.5 101.957031 L 453.519531 116.925781 L 444.90625 113.488281 L 454.5 101.957031 "/>
<path style="fill:none;stroke-width:1;stroke-linecap:butt;stroke-linejoin:miter;stroke:rgb(20%,20%,20%);stroke-opacity:1;stroke-miterlimit:10;" d="M 399.785156 239.074219 L 496.410156 126.945312 "/>
<path style=" stroke:none;fill-rule:nonzero;fill:rgb(20%,20%,20%);fill-opacity:1;" d="M 505.722656 116.140625 L 499.921875 129.972656 L 492.898438 123.921875 L 505.722656 116.140625 "/>
<path style="fill:none;stroke-width:1;stroke-linecap:butt;stroke-linejoin:miter;stroke:rgb(20%,20%,20%);stroke-opacity:1;stroke-miterlimit:10;" d="M 399.785156 239.074219 L 368.894531 254.945312 "/>
<path style=" stroke:none;fill-rule:nonzero;fill:rgb(20%,20%,20%);fill-opacity:1;" d="M 356.207031 261.464844 L 366.777344 250.820312 L 371.015625 259.066406 L 356.207031 261.464844 "/>
<path style="fill:none;stroke-width:1;stroke-linecap:butt;stroke-linejoin:miter;stroke:rgb(20%,20%,20%);stroke-opacity:1;stroke-miterlimit:10;" d="M 399.785156 239.074219 L 341.484375 358.449219 "/>
<path style=" stroke:none;fill-rule:nonzero;fill:rgb(20%,20%,20%);fill-opacity:1;" d="M 335.222656 371.269531 L 337.320312 356.414062 L 345.648438 360.484375 L 335.222656 371.269531 "/>
<path style="fill:none;stroke-width:1;stroke-linecap:butt;stroke-linejoin:miter;stroke:rgb(20%,20%,20%);stroke-opacity:1;stroke-miterlimit:10;" d="M 399.785156 239.074219 L 398.871094 146.164062 "/>
<path style=" stroke:none;fill-rule:nonzero;fill:rgb(20%,20%,20%);fill-opacity:1;" d="M 398.730469 131.898438 L 403.507812 146.117188 L 394.238281 146.207031 L 398.730469 131.898438 "/>
<path style="fill:none;stroke-width:1;stroke-linecap:butt;stroke-linejoin:miter;stroke:rgb(20%,20%,20%);stroke-opacity:1;stroke-miterlimit:10;" d="M 399.785156 239.074219 L 556.65625 194.535156 "/>
<path style=" stroke:none;fill-rule:nonzero;fill:rgb(20%,20%,20%);fill-opacity:1;" d="M 570.378906 190.640625 L 557.921875 198.996094 L 555.390625 190.078125 L 570.378906 190.640625 "/>
<path style="fill:none;stroke-width:1;stroke-linecap:butt;stroke-linejoin:miter;stroke:rgb(20%,20%,20%);stroke-opacity:1;stroke-miterlimit:10;" d="M 399.785156 239.074219 L 315.878906 181.5 "/>
<path style=" stroke:none;fill-rule:nonzero;fill:rgb(20%,20%,20%);fill-opacity:1;" d="M 304.117188 173.429688 L 318.5 177.679688 L 313.253906 185.320312 L 304.117188 173.429688 "/>
<path style="fill:none;stroke-width:1;stroke-linecap:butt;stroke-linejoin:miter;stroke:rgb(20%,20%,20%);stroke-opacity:1;stroke-miterlimit:10;" d="M 399.785156 239.074219 L 341.945312 305.152344 "/>
<path style=" stroke:none;fill-rule:nonzero;fill:rgb(20%,20%,20%);fill-opacity:1;" d="M 332.550781 315.886719 L 338.457031 302.101562 L 345.433594 308.207031 L 332.550781 315.886719 "/>
<path style="fill:none;stroke-width:1;stroke-linecap:butt;stroke-linejoin:miter;stroke:rgb(20%,20%,20%);stroke-opacity:1;stroke-miterlimit:10;" d="M 399.785156 239.074219 L 493.597656 242.527344 "/>
<path style=" stroke:none;fill-rule:nonzero;fill:rgb(20%,20%,20%);fill-opacity:1;" d="M 507.855469 243.050781 L 493.429688 247.160156 L 493.769531 237.894531 L 507.855469 243.050781 "/>
<path style="fill:none;stroke-width:1;stroke-linecap:butt;stroke-linejoin:miter;stroke:rgb(20%,20%,20%);stroke-opacity:1;stroke-miterlimit:10;" d="M 399.785156 239.074219 L 399.082031 334.894531 "/>
<path style=" stroke:none;fill-rule:nonzero;fill:rgb(20%,20%,20%);fill-opacity:1;" d="M 398.976562 349.160156 L 394.445312 334.863281 L 403.714844 334.929688 L 398.976562 349.160156 "/>
<path style="fill:none;stroke-width:1;stroke-linecap:butt;stroke-linejoin:miter;stroke:rgb(20%,20%,20%);stroke-opacity:1;stroke-miterlimit:10;" d="M 399.785156 239.074219 L 516.242188 274.890625 "/>
<path style=" stroke:none;fill-rule:nonzero;fill:rgb(20%,20%,20%);fill-opacity:1;" d="M 529.878906 279.082031 L 514.878906 279.320312 L 517.605469 270.460938 L 529.878906 279.082031 "/>
<path style="fill:none;stroke-width:1;stroke-linecap:butt;stroke-linejoin:miter;stroke:rgb(20%,20%,20%);stroke-opacity:1;stroke-miterlimit:10;" d="M 399.785156 239.074219 L 214.828125 348.425781 "/>
<path style=" stroke:none;fill-rule:nonzero;fill:rgb(20%,20%,20%);fill-opacity:1;" d="M 202.546875 355.6875 L 212.46875 344.4375 L 217.1875 352.417969 L 202.546875 355.6875 "/>
<path style="fill:none;stroke-width:1;stroke-linecap:butt;stroke-linejoin:miter;stroke:rgb(20%,20%,20%);stroke-opacity:1;stroke-miterlimit:10;" d="M 412.296875 305.488281 L 296.421875 332.554688 "/>
<path style=" stroke:none;fill-rule:nonzero;fill:rgb(20%,20%,20%);fill-opacity:1;" d="M 282.53125 335.800781 L 295.367188 328.042969 L 297.476562 337.070312 L 282.53125 335.800781 "/>
<path style="fill:none;stroke-width:1;stroke-linecap:butt;stroke-linejoin:miter;stroke:rgb(20%,20%,20%);stroke-opacity:1;stroke-miterlimit:10;" d="M 412.296875 305.488281 L 329.164062 259.890625 "/>
<path style=" stroke:none;fill-rule:nonzero;fill:rgb(20%,20%,20%);fill-opacity:1;" d="M 316.65625 253.03125 L 331.390625 255.828125 L 326.933594 263.953125 L 316.65625 253.03125 "/>
<path style="fill:none;stroke-width:1;stroke-linecap:butt;stroke-linejoin:miter;stroke:rgb(20%,20%,20%);stroke-opacity:1;stroke-miterlimit:10;" d="M 412.296875 305.488281 L 368.054688 278.628906 "/>
<path style=" stroke:none;fill-rule:nonzero;fill:rgb(20%,20%,20%);fill-opacity:1;" d="M 355.859375 271.222656 L 370.460938 274.664062 L 365.648438 282.589844 L 355.859375 271.222656 "/>
<path style="fill:none;stroke-width:1;stroke-linecap:butt;stroke-linejoin:miter;stroke:rgb(20%,20%,20%);stroke-opacity:1;stroke-miterlimit:10;" d="M 412.296875 305.488281 L 349.722656 318.480469 "/>
<path style=" stroke:none;fill-rule:nonzero;fill:rgb(20%,20%,20%);fill-opacity:1;" d="M 335.753906 321.378906 L 348.78125 313.941406 L 350.664062 323.019531 L 335.753906 321.378906 "/>
<path style="fill:none;stroke-width:1;stroke-linecap:butt;stroke-linejoin:miter;stroke:rgb(20%,20%,20%);stroke-opacity:1;stroke-miterlimit:10;" d="M 412.296875 305.488281 L 496.929688 255.71875 "/>
<path style=" stroke:none;fill-rule:nonzero;fill:rgb(20%,20%,20%);fill-opacity:1;" d="M 509.226562 248.488281 L 499.28125 259.714844 L 494.582031 251.722656 L 509.226562 248.488281 "/>
<path style="fill:none;stroke-width:1;stroke-linecap:butt;stroke-linejoin:miter;stroke:rgb(20%,20%,20%);stroke-opacity:1;stroke-miterlimit:10;" d="M 412.296875 305.488281 L 404.777344 335.617188 "/>
<path style=" stroke:none;fill-rule:nonzero;fill:rgb(20%,20%,20%);fill-opacity:1;" d="M 401.324219 349.457031 L 400.28125 334.496094 L 409.277344 336.738281 L 401.324219 349.457031 "/>
<path style="fill:none;stroke-width:1;stroke-linecap:butt;stroke-linejoin:miter;stroke:rgb(20%,20%,20%);stroke-opacity:1;stroke-miterlimit:10;" d="M 412.296875 305.488281 L 515.574219 286.425781 "/>
<path style=" stroke:none;fill-rule:nonzero;fill:rgb(20%,20%,20%);fill-opacity:1;" d="M 529.601562 283.835938 L 516.414062 290.984375 L 514.730469 281.867188 L 529.601562 283.835938 "/>
<path style="fill:none;stroke-width:1;stroke-linecap:butt;stroke-linejoin:miter;stroke:rgb(20%,20%,20%);stroke-opacity:1;stroke-miterlimit:10;" d="M 412.296875 305.488281 L 378.277344 400.351562 "/>
<path style=" stroke:none;fill-rule:nonzero;fill:rgb(20%,20%,20%);fill-opacity:1;" d="M 373.460938 413.78125 L 373.914062 398.785156 L 382.640625 401.917969 L 373.460938 413.78125 "/>
<path style="fill:none;stroke-width:1;stroke-linecap:butt;stroke-linejoin:miter;stroke:rgb(20%,20%,20%);stroke-opacity:1;stroke-miterlimit:10;" d="M 272.792969 338.078125 L 299.058594 270.824219 "/>
<path style=" stroke:none;fill-rule:nonzero;fill:rgb(20%,20%,20%);fill-opacity:1;" d="M 304.25 257.535156 L 303.378906 272.511719 L 294.742188 269.136719 L 304.25 257.535156 "/>
<path style="fill:none;stroke-width:1;stroke-linecap:butt;stroke-linejoin:miter;stroke:rgb(20%,20%,20%);stroke-opacity:1;stroke-miterlimit:10;" d="M 272.792969 338.078125 L 329.867188 282.898438 "/>
<path style=" stroke:none;fill-rule:nonzero;fill:rgb(20%,20%,20%);fill-opacity:1;" d="M 340.125 272.984375 L 333.089844 286.234375 L 326.644531 279.566406 L 340.125 272.984375 "/>
<path style="fill:none;stroke-width:1;stroke-linecap:butt;stroke-linejoin:miter;stroke:rgb(20%,20%,20%);stroke-opacity:1;stroke-miterlimit:10;" d="M 272.792969 338.078125 L 311.207031 365.988281 "/>
<path style=" stroke:none;fill-rule:nonzero;fill:rgb(20%,20%,20%);fill-opacity:1;" d="M 322.746094 374.375 L 308.480469 369.738281 L 313.929688 362.238281 L 322.746094 374.375 "/>
<path style="fill:none;stroke-width:1;stroke-linecap:butt;stroke-linejoin:miter;stroke:rgb(20%,20%,20%);stroke-opacity:1;stroke-miterlimit:10;" d="M 272.792969 338.078125 L 167.675781 361.78125 "/>
<path style=" stroke:none;fill-rule:nonzero;fill:rgb(20%,20%,20%);fill-opacity:1;" d="M 153.757812 364.917969 L 166.65625 357.261719 L 168.695312 366.304688 L 153.757812 364.917969 "/>
<path style="fill:none;stroke-width:1;stroke-linecap:butt;stroke-linejoin:miter;stroke:rgb(20%,20%,20%);stroke-opacity:1;stroke-miterlimit:10;" d="M 272.792969 338.078125 L 302.570312 329.863281 "/>
<path style=" stroke:none;fill-rule:nonzero;fill:rgb(20%,20%,20%);fill-opacity:1;" d="M 316.324219 326.070312 L 303.804688 334.332031 L 301.339844 325.394531 L 316.324219 326.070312 "/>
<path style="fill:none;stroke-width:1;stroke-linecap:butt;stroke-linejoin:miter;stroke:rgb(80%,80%,80%);stroke-opacity:1;stroke-miterlimit:10;" d="M 272.792969 338.078125 L 140.804688 394.332031 "/>
<path style=" stroke:none;fill-rule:nonzero;fill:rgb(80%,80%,80%);fill-opacity:1;" d="M 127.679688 399.925781 L 138.984375 390.066406 L 142.621094 398.597656 L 127.679688 399.925781 "/>
<path style="fill:none;stroke-width:1;stroke-linecap:butt;stroke-linejoin:miter;stroke:rgb(20%,20%,20%);stroke-opacity:1;stroke-miterlimit:10;" d="M 272.792969 338.078125 L 227.785156 383.640625 "/>
<path style=" stroke:none;fill-rule:nonzero;fill:rgb(20%,20%,20%);fill-opacity:1;" d="M 217.757812 393.789062 L 224.488281 380.382812 L 231.082031 386.898438 L 217.757812 393.789062 "/>
<path style="fill:none;stroke-width:1;stroke-linecap:butt;stroke-linejoin:miter;stroke:rgb(20%,20%,20%);stroke-opacity:1;stroke-miterlimit:10;" d="M 272.792969 338.078125 L 259.949219 450.023438 "/>
<path style=" stroke:none;fill-rule:nonzero;fill:rgb(20%,20%,20%);fill-opacity:1;" d="M 258.324219 464.195312 L 255.34375 449.496094 L 264.554688 450.550781 L 258.324219 464.195312 "/>
<path style="fill:none;stroke-width:1;stroke-linecap:butt;stroke-linejoin:miter;stroke:rgb(20%,20%,20%);stroke-opacity:1;stroke-miterlimit:10;" d="M 307.886719 248.222656 L 325.199219 256.042969 "/>
<path style=" stroke:none;fill-rule:nonzero;fill:rgb(20%,20%,20%);fill-opacity:1;" d="M 338.199219 261.917969 L 323.289062 260.265625 L 327.109375 251.820312 L 338.199219 261.917969 "/>
<path style="fill:none;stroke-width:1;stroke-linecap:butt;stroke-linejoin:miter;stroke:rgb(20%,20%,20%);stroke-opacity:1;stroke-miterlimit:10;" d="M 307.886719 248.222656 L 299.453125 191.769531 "/>
<path style=" stroke:none;fill-rule:nonzero;fill:rgb(20%,20%,20%);fill-opacity:1;" d="M 297.347656 177.660156 L 304.039062 191.085938 L 294.871094 192.453125 L 297.347656 177.660156 "/>
<path style="fill:none;stroke-width:1;stroke-linecap:butt;stroke-linejoin:miter;stroke:rgb(20%,20%,20%);stroke-opacity:1;stroke-miterlimit:10;" d="M 307.886719 248.222656 L 320.292969 299.820312 "/>
<path style=" stroke:none;fill-rule:nonzero;fill:rgb(20%,20%,20%);fill-opacity:1;" d="M 323.625 313.691406 L 315.785156 300.902344 L 324.796875 298.734375 L 323.625 313.691406 "/>
<path style="fill:none;stroke-width:1;stroke-linecap:butt;stroke-linejoin:miter;stroke:rgb(20%,20%,20%);stroke-opacity:1;stroke-miterlimit:10;" d="M 467.730469 143.855469 L 493.234375 123.636719 "/>
<path style=" stroke:none;fill-rule:nonzero;fill:rgb(20%,20%,20%);fill-opacity:1;" d="M 504.414062 114.777344 L 496.113281 127.269531 L 490.355469 120.003906 L 504.414062 114.777344 "/>
<path style="fill:none;stroke-width:1;stroke-linecap:butt;stroke-linejoin:miter;stroke:rgb(20%,20%,20%);stroke-opacity:1;stroke-miterlimit:10;" d="M 467.730469 143.855469 L 421.757812 129.246094 "/>
<path style=" stroke:none;fill-rule:nonzero;fill:rgb(20%,20%,20%);fill-opacity:1;" d="M 408.164062 124.925781 L 423.164062 124.828125 L 420.355469 133.664062 L 408.164062 124.925781 "/>
<path style="fill:none;stroke-width:1;stroke-linecap:butt;stroke-linejoin:miter;stroke:rgb(20%,20%,20%);stroke-opacity:1;stroke-miterlimit:10;" d="M 458.207031 92.667969 L 488.972656 101.71875 "/>
<path style=" stroke:none;fill-rule:nonzero;fill:rgb(20%,20%,20%);fill-opacity:1;" d="M 502.65625 105.742188 L 487.664062 106.164062 L 490.277344 97.269531 L 502.65625 105.742188 "/>
<path style="fill:none;stroke-width:1;stroke-linecap:butt;stroke-linejoin:miter;stroke:rgb(20%,20%,20%);stroke-opacity:1;stroke-miterlimit:10;" d="M 458.207031 92.667969 L 420.417969 111.210938 "/>
<path style=" stroke:none;fill-rule:nonzero;fill:rgb(20%,20%,20%);fill-opacity:1;" d="M 407.609375 117.492188 L 418.375 107.046875 L 422.460938 115.371094 L 407.609375 117.492188 "/>
<path style="fill:none;stroke-width:1;stroke-linecap:butt;stroke-linejoin:miter;stroke:rgb(20%,20%,20%);stroke-opacity:1;stroke-miterlimit:10;" d="M 458.207031 92.667969 L 520.691406 36.261719 "/>
<path style=" stroke:none;fill-rule:nonzero;fill:rgb(20%,20%,20%);fill-opacity:1;" d="M 531.28125 26.699219 L 523.796875 39.699219 L 517.585938 32.820312 L 531.28125 26.699219 "/>
<path style="fill:none;stroke-width:1;stroke-linecap:butt;stroke-linejoin:miter;stroke:rgb(20%,20%,20%);stroke-opacity:1;stroke-miterlimit:10;" d="M 512.25 108.5625 L 531.757812 43.25 "/>
<path style=" stroke:none;fill-rule:nonzero;fill:rgb(20%,20%,20%);fill-opacity:1;" d="M 535.84375 29.582031 L 536.199219 44.578125 L 527.316406 41.925781 L 535.84375 29.582031 "/>
<path style="fill:none;stroke-width:1;stroke-linecap:butt;stroke-linejoin:miter;stroke:rgb(20%,20%,20%);stroke-opacity:1;stroke-miterlimit:10;" d="M 330.835938 380.253906 L 353.714844 405.28125 "/>
<path style=" stroke:none;fill-rule:nonzero;fill:rgb(20%,20%,20%);fill-opacity:1;" d="M 363.339844 415.8125 L 350.292969 408.410156 L 357.136719 402.15625 L 363.339844 415.8125 "/>
<path style="fill:none;stroke-width:1;stroke-linecap:butt;stroke-linejoin:miter;stroke:rgb(20%,20%,20%);stroke-opacity:1;stroke-miterlimit:10;" d="M 330.835938 380.253906 L 272.164062 455.039062 "/>
<path style=" stroke:none;fill-rule:nonzero;fill:rgb(20%,20%,20%);fill-opacity:1;" d="M 263.359375 466.261719 L 268.515625 452.179688 L 275.808594 457.902344 L 263.359375 466.261719 "/>
<path style="fill:none;stroke-width:1;stroke-linecap:butt;stroke-linejoin:miter;stroke:rgb(20%,20%,20%);stroke-opacity:1;stroke-miterlimit:10;" d="M 330.835938 380.253906 L 261.683594 440.515625 "/>
<path style=" stroke:none;fill-rule:nonzero;fill:rgb(20%,20%,20%);fill-opacity:1;" d="M 250.929688 449.886719 L 258.636719 437.019531 L 264.726562 444.011719 L 250.929688 449.886719 "/>
<path style="fill:none;stroke-width:1;stroke-linecap:butt;stroke-linejoin:miter;stroke:rgb(20%,20%,20%);stroke-opacity:1;stroke-miterlimit:10;" d="M 144.003906 367.121094 L 225.34375 440.234375 "/>
<path style=" stroke:none;fill-rule:nonzero;fill:rgb(20%,20%,20%);fill-opacity:1;" d="M 235.953125 449.773438 L 222.242188 443.683594 L 228.441406 436.789062 L 235.953125 449.773438 "/>
<path style="fill:none;stroke-width:1;stroke-linecap:butt;stroke-linejoin:miter;stroke:rgb(20%,20%,20%);stroke-opacity:1;stroke-miterlimit:10;" d="M 325.964844 323.414062 L 256.183594 435.839844 "/>
<path style=" stroke:none;fill-rule:nonzero;fill:rgb(20%,20%,20%);fill-opacity:1;" d="M 248.664062 447.960938 L 252.246094 433.394531 L 260.125 438.285156 L 248.664062 447.960938 "/>
<path style="fill:none;stroke-width:1;stroke-linecap:butt;stroke-linejoin:miter;stroke:rgb(80%,80%,80%);stroke-opacity:1;stroke-miterlimit:10;" d="M 229.851562 559.203125 L 249.761719 497.234375 "/>
<path style=" stroke:none;fill-rule:nonzero;fill:rgb(80%,80%,80%);fill-opacity:1;" d="M 254.125 483.652344 L 254.175781 498.652344 L 245.347656 495.816406 L 254.125 483.652344 "/>
<path style="fill:none;stroke-width:1;stroke-linecap:butt;stroke-linejoin:miter;stroke:rgb(80%,80%,80%);stroke-opacity:1;stroke-miterlimit:10;" d="M 229.851562 559.203125 L 240.21875 480.515625 "/>
<path style=" stroke:none;fill-rule:nonzero;fill:rgb(80%,80%,80%);fill-opacity:1;" d="M 242.082031 466.371094 L 244.8125 481.121094 L 235.625 479.910156 L 242.082031 466.371094 "/>
<path style="fill:none;stroke-width:1;stroke-linecap:butt;stroke-linejoin:miter;stroke:rgb(80%,80%,80%);stroke-opacity:1;stroke-miterlimit:10;" d="M 126.261719 519.816406 L 234.273438 482.125 "/>
<path style=" stroke:none;fill-rule:nonzero;fill:rgb(80%,80%,80%);fill-opacity:1;" d="M 247.742188 477.425781 L 235.800781 486.503906 L 232.746094 477.75 L 247.742188 477.425781 "/>
<path style="fill:none;stroke-width:1;stroke-linecap:butt;stroke-linejoin:miter;stroke:rgb(80%,80%,80%);stroke-opacity:1;stroke-miterlimit:10;" d="M 126.261719 519.816406 L 222.046875 468.003906 "/>
<path style=" stroke:none;fill-rule:nonzero;fill:rgb(80%,80%,80%);fill-opacity:1;" d="M 234.59375 461.214844 L 224.25 472.082031 L 219.839844 463.925781 L 234.59375 461.214844 "/>
<path style="fill:none;stroke-width:1;stroke-linecap:butt;stroke-linejoin:miter;stroke:rgb(80%,80%,80%);stroke-opacity:1;stroke-miterlimit:10;" d="M 364.757812 517.109375 L 279.71875 483.132812 "/>
<path style=" stroke:none;fill-rule:nonzero;fill:rgb(80%,80%,80%);fill-opacity:1;" d="M 266.472656 477.839844 L 281.4375 478.828125 L 278 487.4375 L 266.472656 477.839844 "/>
<path style="fill:none;stroke-width:1;stroke-linecap:butt;stroke-linejoin:miter;stroke:rgb(80%,80%,80%);stroke-opacity:1;stroke-miterlimit:10;" d="M 364.757812 517.109375 L 265.09375 467.304688 "/>
<path style=" stroke:none;fill-rule:nonzero;fill:rgb(80%,80%,80%);fill-opacity:1;" d="M 252.335938 460.929688 L 267.167969 463.160156 L 263.023438 471.453125 L 252.335938 460.929688 "/>
<path style="fill:none;stroke-width:1;stroke-linecap:butt;stroke-linejoin:miter;stroke:rgb(20%,20%,20%);stroke-opacity:1;stroke-miterlimit:10;" d="M 398.902344 359.160156 L 263.960938 443.585938 "/>
<path style=" stroke:none;fill-rule:nonzero;fill:rgb(20%,20%,20%);fill-opacity:1;" d="M 251.867188 451.152344 L 261.5 439.65625 L 266.417969 447.515625 L 251.867188 451.152344 "/>
<path style="fill:none;stroke-width:1;stroke-linecap:butt;stroke-linejoin:miter;stroke:rgb(80%,80%,80%);stroke-opacity:1;stroke-miterlimit:10;" d="M 282.464844 560.167969 L 264.027344 497.414062 "/>
<path style=" stroke:none;fill-rule:nonzero;fill:rgb(80%,80%,80%);fill-opacity:1;" d="M 260.003906 483.726562 L 268.472656 496.105469 L 259.578125 498.71875 L 260.003906 483.726562 "/>
<path style="fill:none;stroke-width:1;stroke-linecap:butt;stroke-linejoin:miter;stroke:rgb(80%,80%,80%);stroke-opacity:1;stroke-miterlimit:10;" d="M 282.464844 560.167969 L 251.945312 479.164062 "/>
<path style=" stroke:none;fill-rule:nonzero;fill:rgb(80%,80%,80%);fill-opacity:1;" d="M 246.914062 465.816406 L 256.28125 477.53125 L 247.605469 480.800781 L 246.914062 465.816406 "/>
<path style="fill:none;stroke-width:1;stroke-linecap:butt;stroke-linejoin:miter;stroke:rgb(80%,80%,80%);stroke-opacity:1;stroke-miterlimit:10;" d="M 331.222656 547.019531 L 274.476562 491.15625 "/>
<path style=" stroke:none;fill-rule:nonzero;fill:rgb(80%,80%,80%);fill-opacity:1;" d="M 264.3125 481.148438 L 277.730469 487.851562 L 271.226562 494.457031 L 264.3125 481.148438 "/>
<path style="fill:none;stroke-width:1;stroke-linecap:butt;stroke-linejoin:miter;stroke:rgb(80%,80%,80%);stroke-opacity:1;stroke-miterlimit:10;" d="M 331.222656 547.019531 L 260.28125 473.878906 "/>
<path style=" stroke:none;fill-rule:nonzero;fill:rgb(80%,80%,80%);fill-opacity:1;" d="M 250.351562 463.636719 L 263.609375 470.648438 L 256.957031 477.105469 L 250.351562 463.636719 "/>
<path style="fill:none;stroke-width:1;stroke-linecap:butt;stroke-linejoin:miter;stroke:rgb(20%,20%,20%);stroke-opacity:1;stroke-miterlimit:10;" d="M 110.9375 469.574219 L 39.773438 418.949219 "/>
<path style=" stroke:none;fill-rule:nonzero;fill:rgb(20%,20%,20%);fill-opacity:1;" d="M 28.148438 410.679688 L 42.460938 415.175781 L 37.085938 422.726562 L 28.148438 410.679688 "/>
<path style="fill:none;stroke-width:1;stroke-linecap:butt;stroke-linejoin:miter;stroke:rgb(20%,20%,20%);stroke-opacity:1;stroke-miterlimit:10;" d="M 110.9375 469.574219 L 115.714844 427.953125 "/>
<path style=" stroke:none;fill-rule:nonzero;fill:rgb(20%,20%,20%);fill-opacity:1;" d="M 117.339844 413.78125 L 120.320312 428.480469 L 111.109375 427.425781 L 117.339844 413.78125 "/>
<path style="fill:none;stroke-width:1;stroke-linecap:butt;stroke-linejoin:miter;stroke:rgb(80%,80%,80%);stroke-opacity:1;stroke-miterlimit:10;" d="M 110.9375 469.574219 L 152.09375 513.003906 "/>
<path style=" stroke:none;fill-rule:nonzero;fill:rgb(80%,80%,80%);fill-opacity:1;" d="M 161.90625 523.359375 L 148.726562 516.195312 L 155.457031 509.816406 L 161.90625 523.359375 "/>
<path style="fill:none;stroke-width:1;stroke-linecap:butt;stroke-linejoin:miter;stroke:rgb(80%,80%,80%);stroke-opacity:1;stroke-miterlimit:10;" d="M 110.9375 469.574219 L 232.929688 473.375 "/>
<path style=" stroke:none;fill-rule:nonzero;fill:rgb(80%,80%,80%);fill-opacity:1;" d="M 247.191406 473.820312 L 232.785156 478.007812 L 233.074219 468.742188 L 247.191406 473.820312 "/>
<path style="fill:none;stroke-width:1;stroke-linecap:butt;stroke-linejoin:miter;stroke:rgb(80%,80%,80%);stroke-opacity:1;stroke-miterlimit:10;" d="M 110.9375 469.574219 L 219.242188 458.851562 "/>
<path style=" stroke:none;fill-rule:nonzero;fill:rgb(80%,80%,80%);fill-opacity:1;" d="M 233.4375 457.445312 L 219.699219 463.460938 L 218.785156 454.238281 L 233.4375 457.445312 "/>
<path style="fill:none;stroke-width:1;stroke-linecap:butt;stroke-linejoin:miter;stroke:rgb(80%,80%,80%);stroke-opacity:1;stroke-miterlimit:10;" d="M 22.394531 354.664062 L 21.15625 380.648438 "/>
<path style=" stroke:none;fill-rule:nonzero;fill:rgb(80%,80%,80%);fill-opacity:1;" d="M 20.476562 394.894531 L 16.527344 380.425781 L 25.785156 380.867188 L 20.476562 394.894531 "/>
<path style="fill:none;stroke-width:1;stroke-linecap:butt;stroke-linejoin:miter;stroke:rgb(80%,80%,80%);stroke-opacity:1;stroke-miterlimit:10;" d="M 22.394531 354.664062 L 96.878906 392.789062 "/>
<path style=" stroke:none;fill-rule:nonzero;fill:rgb(80%,80%,80%);fill-opacity:1;" d="M 109.578125 399.289062 L 94.769531 396.917969 L 98.992188 388.664062 L 109.578125 399.289062 "/>
<path style="fill:none;stroke-width:1;stroke-linecap:butt;stroke-linejoin:miter;stroke:rgb(80%,80%,80%);stroke-opacity:1;stroke-miterlimit:10;" d="M 22.394531 354.664062 L 169.691406 359.914062 "/>
<path style=" stroke:none;fill-rule:nonzero;fill:rgb(80%,80%,80%);fill-opacity:1;" d="M 183.945312 360.421875 L 169.523438 364.542969 L 169.855469 355.28125 L 183.945312 360.421875 "/>
<path style="fill:none;stroke-width:1;stroke-linecap:butt;stroke-linejoin:miter;stroke:rgb(80%,80%,80%);stroke-opacity:1;stroke-miterlimit:10;" d="M 20 404.886719 L 170.417969 366.742188 "/>
<path style=" stroke:none;fill-rule:nonzero;fill:rgb(80%,80%,80%);fill-opacity:1;" d="M 184.246094 363.234375 L 171.558594 371.234375 L 169.28125 362.25 L 184.246094 363.234375 "/>
<path style="fill:none;stroke-width:1;stroke-linecap:butt;stroke-linejoin:miter;stroke:rgb(20%,20%,20%);stroke-opacity:1;stroke-miterlimit:10;" d="M 144.425781 580 L 158.050781 552.382812 "/>
<path style=" stroke:none;fill-rule:nonzero;fill:rgb(20%,20%,20%);fill-opacity:1;" d="M 164.359375 539.589844 L 162.207031 554.433594 L 153.890625 550.332031 L 164.359375 539.589844 "/>
<path style="fill:none;stroke-width:1;stroke-linecap:butt;stroke-linejoin:miter;stroke:rgb(80%,80%,80%);stroke-opacity:1;stroke-miterlimit:10;" d="M 144.425781 580 L 228.21875 475.398438 "/>
<path style=" stroke:none;fill-rule:nonzero;fill:rgb(80%,80%,80%);fill-opacity:1;" d="M 237.136719 464.261719 L 231.835938 478.292969 L 224.601562 472.5 L 237.136719 464.261719 "/>
<path style="fill:none;stroke-width:1;stroke-linecap:butt;stroke-linejoin:miter;stroke:rgb(80%,80%,80%);stroke-opacity:1;stroke-miterlimit:10;" d="M 118.480469 403.847656 L 221.027344 447.039062 "/>
<path style=" stroke:none;fill-rule:nonzero;fill:rgb(80%,80%,80%);fill-opacity:1;" d="M 234.171875 452.578125 L 219.226562 451.308594 L 222.824219 442.765625 L 234.171875 452.578125 "/>
<path style="fill:none;stroke-width:1;stroke-linecap:butt;stroke-linejoin:miter;stroke:rgb(20%,20%,20%);stroke-opacity:1;stroke-miterlimit:10;" d="M 210.730469 400.902344 L 203.308594 383.160156 "/>
<path style=" stroke:none;fill-rule:nonzero;fill:rgb(20%,20%,20%);fill-opacity:1;" d="M 197.800781 370 L 207.582031 381.371094 L 199.03125 384.949219 L 197.800781 370 "/>
<path style="fill:none;stroke-width:1;stroke-linecap:butt;stroke-linejoin:miter;stroke:rgb(20%,20%,20%);stroke-opacity:1;stroke-miterlimit:10;" d="M 210.730469 400.902344 L 231.089844 435.539062 "/>
<path style=" stroke:none;fill-rule:nonzero;fill:rgb(20%,20%,20%);fill-opacity:1;" d="M 238.320312 447.835938 L 227.097656 437.886719 L 235.085938 433.191406 L 238.320312 447.835938 "/>
<path style="fill:none;stroke-width:1;stroke-linecap:butt;stroke-linejoin:miter;stroke:rgb(80%,80%,80%);stroke-opacity:1;stroke-miterlimit:10;" d="M 168.78125 530.621094 L 236.738281 487.195312 "/>
<path style=" stroke:none;fill-rule:nonzero;fill:rgb(80%,80%,80%);fill-opacity:1;" d="M 248.757812 479.515625 L 239.234375 491.101562 L 234.242188 483.292969 L 248.757812 479.515625 "/>
<path style="fill:none;stroke-width:1;stroke-linecap:butt;stroke-linejoin:miter;stroke:rgb(80%,80%,80%);stroke-opacity:1;stroke-miterlimit:10;" d="M 168.78125 530.621094 L 226.179688 473.566406 "/>
<path style=" stroke:none;fill-rule:nonzero;fill:rgb(80%,80%,80%);fill-opacity:1;" d="M 236.296875 463.507812 L 229.445312 476.851562 L 222.910156 470.277344 L 236.296875 463.507812 "/>
<path style="fill:none;stroke-width:1;stroke-linecap:butt;stroke-linejoin:miter;stroke:rgb(20%,20%,20%);stroke-opacity:1;stroke-miterlimit:10;" d="M 370.085938 423.191406 L 279.304688 464.152344 "/>
<path style=" stroke:none;fill-rule:nonzero;fill:rgb(20%,20%,20%);fill-opacity:1;" d="M 266.300781 470.019531 L 277.398438 459.925781 L 281.210938 468.378906 L 266.300781 470.019531 "/>
<path style="fill:none;stroke-width:1;stroke-linecap:butt;stroke-linejoin:miter;stroke:rgb(20%,20%,20%);stroke-opacity:1;stroke-miterlimit:10;" d="M 370.085938 423.191406 L 266.859375 450.296875 "/>
<path style=" stroke:none;fill-rule:nonzero;fill:rgb(20%,20%,20%);fill-opacity:1;" d="M 253.0625 453.917969 L 265.683594 445.8125 L 268.035156 454.777344 L 253.0625 453.917969 "/>
<path style="fill:none;stroke-width:1;stroke-linecap:butt;stroke-linejoin:miter;stroke:rgb(20%,20%,20%);stroke-opacity:1;stroke-miterlimit:10;" d="M 193.941406 360.777344 L 245.363281 452.941406 "/>
<path style=" stroke:none;fill-rule:nonzero;fill:rgb(20%,20%,20%);fill-opacity:1;" d="M 252.3125 465.398438 L 241.3125 455.199219 L 249.410156 450.683594 L 252.3125 465.398438 "/>
<path style="fill:none;stroke-width:1;stroke-linecap:butt;stroke-linejoin:miter;stroke:rgb(20%,20%,20%);stroke-opacity:1;stroke-miterlimit:10;" d="M 193.941406 360.777344 L 232.246094 434.902344 "/>
<path style=" stroke:none;fill-rule:nonzero;fill:rgb(20%,20%,20%);fill-opacity:1;" d="M 238.796875 447.574219 L 228.128906 437.027344 L 236.367188 432.773438 L 238.796875 447.574219 "/>
<path style="fill:none;stroke-width:1;stroke-linecap:butt;stroke-linejoin:miter;stroke:rgb(20%,20%,20%);stroke-opacity:1;stroke-miterlimit:10;" d="M 257.183594 474.132812 L 258.320312 475.585938 "/>
<path style=" stroke:none;fill-rule:nonzero;fill:rgb(20%,20%,20%);fill-opacity:1;" d="M 249.542969 464.339844 L 261.972656 472.734375 L 254.667969 478.4375 L 249.542969 464.339844 "/>
<path style="fill-rule:nonzero;fill:rgb(100%,0%,0%);fill-opacity:1;stroke-width:1;stroke-linecap:butt;stroke-linejoin:miter;stroke:rgb(0%,0%,0%);stroke-opacity:1;stroke-miterlimit:10;" d="M 409.785156 239.074219 C 409.785156 244.597656 405.308594 249.074219 399.785156 249.074219 C 394.261719 249.074219 389.785156 244.597656 389.785156 239.074219 C 389.785156 233.550781 394.261719 229.074219 399.785156 229.074219 C 405.308594 229.074219 409.785156 233.550781 409.785156 239.074219 "/>
<path style="fill-rule:nonzero;fill:rgb(100%,0%,0%);fill-opacity:1;stroke-width:1;stroke-linecap:butt;stroke-linejoin:miter;stroke:rgb(0%,0%,0%);stroke-opacity:1;stroke-miterlimit:10;" d="M 422.296875 305.488281 C 422.296875 311.011719 417.820312 315.488281 412.296875 315.488281 C 406.773438 315.488281 402.296875 311.011719 402.296875 305.488281 C 402.296875 299.964844 406.773438 295.488281 412.296875 295.488281 C 417.820312 295.488281 422.296875 299.964844 422.296875 305.488281 "/>
<path style="fill-rule:nonzero;fill:rgb(0%,0%,100%);fill-opacity:1;stroke-width:1;stroke-linecap:butt;stroke-linejoin:miter;stroke:rgb(0%,0%,0%);stroke-opacity:1;stroke-miterlimit:10;" d="M 282.792969 338.078125 C 282.792969 343.597656 278.316406 348.078125 272.792969 348.078125 C 267.269531 348.078125 262.792969 343.597656 262.792969 338.078125 C 262.792969 332.554688 267.269531 328.078125 272.792969 328.078125 C 278.316406 328.078125 282.792969 332.554688 282.792969 338.078125 "/>
<path style="fill-rule:nonzero;fill:rgb(0%,0%,100%);fill-opacity:1;stroke-width:1;stroke-linecap:butt;stroke-linejoin:miter;stroke:rgb(0%,0%,0%);stroke-opacity:1;stroke-miterlimit:10;" d="M 317.886719 248.222656 C 317.886719 253.742188 313.410156 258.222656 307.886719 258.222656 C 302.363281 258.222656 297.886719 253.742188 297.886719 248.222656 C 297.886719 242.699219 302.363281 238.222656 307.886719 238.222656 C 313.410156 238.222656 317.886719 242.699219 317.886719 248.222656 "/>
<path style="fill-rule:nonzero;fill:rgb(0%,0%,100%);fill-opacity:1;stroke-width:1;stroke-linecap:butt;stroke-linejoin:miter;stroke:rgb(0%,0%,0%);stroke-opacity:1;stroke-miterlimit:10;" d="M 477.730469 143.855469 C 477.730469 149.378906 473.253906 153.855469 467.730469 153.855469 C 462.207031 153.855469 457.730469 149.378906 457.730469 143.855469 C 457.730469 138.332031 462.207031 133.855469 467.730469 133.855469 C 473.253906 133.855469 477.730469 138.332031 477.730469 143.855469 "/>
<path style="fill-rule:nonzero;fill:rgb(100%,0%,0%);fill-opacity:1;stroke-width:1;stroke-linecap:butt;stroke-linejoin:miter;stroke:rgb(0%,0%,0%);stroke-opacity:1;stroke-miterlimit:10;" d="M 468.207031 92.667969 C 468.207031 98.191406 463.730469 102.667969 458.207031 102.667969 C 452.683594 102.667969 448.207031 98.191406 448.207031 92.667969 C 448.207031 87.144531 452.683594 82.667969 458.207031 82.667969 C 463.730469 82.667969 468.207031 87.144531 468.207031 92.667969 "/>
<path style="fill-rule:nonzero;fill:rgb(100%,0%,0%);fill-opacity:1;stroke-width:1;stroke-linecap:butt;stroke-linejoin:miter;stroke:rgb(0%,0%,0%);stroke-opacity:1;stroke-miterlimit:10;" d="M 522.25 108.5625 C 522.25 114.085938 517.773438 118.5625 512.25 118.5625 C 506.726562 118.5625 502.25 114.085938 502.25 108.5625 C 502.25 103.042969 506.726562 98.5625 512.25 98.5625 C 517.773438 98.5625 522.25 103.042969 522.25 108.5625 "/>
<path style="fill-rule:nonzero;fill:rgb(100%,0%,0%);fill-opacity:1;stroke-width:1;stroke-linecap:butt;stroke-linejoin:miter;stroke:rgb(0%,0%,0%);stroke-opacity:1;stroke-miterlimit:10;" d="M 357.3125 266.035156 C 357.3125 271.558594 352.835938 276.035156 347.3125 276.035156 C 341.789062 276.035156 337.3125 271.558594 337.3125 266.035156 C 337.3125 260.511719 341.789062 256.035156 347.3125 256.035156 C 352.835938 256.035156 357.3125 260.511719 357.3125 266.035156 "/>
<path style="fill-rule:nonzero;fill:rgb(100%,0%,0%);fill-opacity:1;stroke-width:1;stroke-linecap:butt;stroke-linejoin:miter;stroke:rgb(0%,0%,0%);stroke-opacity:1;stroke-miterlimit:10;" d="M 340.835938 380.253906 C 340.835938 385.777344 336.359375 390.253906 330.835938 390.253906 C 325.3125 390.253906 320.835938 385.777344 320.835938 380.253906 C 320.835938 374.730469 325.3125 370.253906 330.835938 370.253906 C 336.359375 370.253906 340.835938 374.730469 340.835938 380.253906 "/>
<path style="fill-rule:nonzero;fill:rgb(100%,0%,0%);fill-opacity:1;stroke-width:1;stroke-linecap:butt;stroke-linejoin:miter;stroke:rgb(0%,0%,0%);stroke-opacity:1;stroke-miterlimit:10;" d="M 154.003906 367.121094 C 154.003906 372.640625 149.527344 377.121094 144.003906 377.121094 C 138.480469 377.121094 134.003906 372.640625 134.003906 367.121094 C 134.003906 361.597656 138.480469 357.121094 144.003906 357.121094 C 149.527344 357.121094 154.003906 361.597656 154.003906 367.121094 "/>
<path style="fill-rule:nonzero;fill:rgb(100%,0%,0%);fill-opacity:1;stroke-width:1;stroke-linecap:butt;stroke-linejoin:miter;stroke:rgb(0%,0%,0%);stroke-opacity:1;stroke-miterlimit:10;" d="M 408.632812 121.898438 C 408.632812 127.421875 404.15625 131.898438 398.632812 131.898438 C 393.109375 131.898438 388.632812 127.421875 388.632812 121.898438 C 388.632812 116.375 393.109375 111.898438 398.632812 111.898438 C 404.15625 111.898438 408.632812 116.375 408.632812 121.898438 "/>
<path style="fill-rule:nonzero;fill:rgb(0%,0%,100%);fill-opacity:1;stroke-width:1;stroke-linecap:butt;stroke-linejoin:miter;stroke:rgb(0%,0%,0%);stroke-opacity:1;stroke-miterlimit:10;" d="M 590 187.910156 C 590 193.429688 585.523438 197.910156 580 197.910156 C 574.476562 197.910156 570 193.429688 570 187.910156 C 570 182.386719 574.476562 177.910156 580 177.910156 C 585.523438 177.910156 590 182.386719 590 187.910156 "/>
<path style="fill-rule:nonzero;fill:rgb(0%,0%,100%);fill-opacity:1;stroke-width:1;stroke-linecap:butt;stroke-linejoin:miter;stroke:rgb(0%,0%,0%);stroke-opacity:1;stroke-miterlimit:10;" d="M 305.871094 167.769531 C 305.871094 173.292969 301.394531 177.769531 295.871094 177.769531 C 290.347656 177.769531 285.871094 173.292969 285.871094 167.769531 C 285.871094 162.246094 290.347656 157.769531 295.871094 157.769531 C 301.394531 157.769531 305.871094 162.246094 305.871094 167.769531 "/>
<path style="fill-rule:nonzero;fill:rgb(0%,0%,100%);fill-opacity:1;stroke-width:1;stroke-linecap:butt;stroke-linejoin:miter;stroke:rgb(0%,0%,0%);stroke-opacity:1;stroke-miterlimit:10;" d="M 335.964844 323.414062 C 335.964844 328.9375 331.484375 333.414062 325.964844 333.414062 C 320.441406 333.414062 315.964844 328.9375 315.964844 323.414062 C 315.964844 317.890625 320.441406 313.414062 325.964844 313.414062 C 331.484375 313.414062 335.964844 317.890625 335.964844 323.414062 "/>
<path style="fill-rule:nonzero;fill:rgb(0%,100%,0%);fill-opacity:1;stroke-width:1;stroke-linecap:butt;stroke-linejoin:miter;stroke:rgb(0%,0%,0%);stroke-opacity:1;stroke-miterlimit:10;" d="M 239.851562 559.203125 C 239.851562 564.726562 235.371094 569.203125 229.851562 569.203125 C 224.328125 569.203125 219.851562 564.726562 219.851562 559.203125 C 219.851562 553.679688 224.328125 549.203125 229.851562 549.203125 C 235.371094 549.203125 239.851562 553.679688 239.851562 559.203125 "/>
<path style="fill-rule:nonzero;fill:rgb(0%,0%,100%);fill-opacity:1;stroke-width:1;stroke-linecap:butt;stroke-linejoin:miter;stroke:rgb(0%,0%,0%);stroke-opacity:1;stroke-miterlimit:10;" d="M 136.261719 519.816406 C 136.261719 525.339844 131.785156 529.816406 126.261719 529.816406 C 120.742188 529.816406 116.261719 525.339844 116.261719 519.816406 C 116.261719 514.292969 120.742188 509.816406 126.261719 509.816406 C 131.785156 509.816406 136.261719 514.292969 136.261719 519.816406 "/>
<path style="fill-rule:nonzero;fill:rgb(100%,0%,0%);fill-opacity:1;stroke-width:1;stroke-linecap:butt;stroke-linejoin:miter;stroke:rgb(0%,0%,0%);stroke-opacity:1;stroke-miterlimit:10;" d="M 548.703125 20 C 548.703125 25.523438 544.226562 30 538.703125 30 C 533.179688 30 528.703125 25.523438 528.703125 20 C 528.703125 14.476562 533.179688 10 538.703125 10 C 544.226562 10 548.703125 14.476562 548.703125 20 "/>
<path style="fill-rule:nonzero;fill:rgb(100%,0%,0%);fill-opacity:1;stroke-width:1;stroke-linecap:butt;stroke-linejoin:miter;stroke:rgb(0%,0%,0%);stroke-opacity:1;stroke-miterlimit:10;" d="M 527.847656 243.417969 C 527.847656 248.941406 523.371094 253.417969 517.847656 253.417969 C 512.324219 253.417969 507.847656 248.941406 507.847656 243.417969 C 507.847656 237.894531 512.324219 233.417969 517.847656 233.417969 C 523.371094 233.417969 527.847656 237.894531 527.847656 243.417969 "/>
<path style="fill-rule:nonzero;fill:rgb(100%,100%,0%);fill-opacity:1;stroke-width:1;stroke-linecap:butt;stroke-linejoin:miter;stroke:rgb(0%,0%,0%);stroke-opacity:1;stroke-miterlimit:10;" d="M 374.757812 517.109375 C 374.757812 522.632812 370.28125 527.109375 364.757812 527.109375 C 359.234375 527.109375 354.757812 522.632812 354.757812 517.109375 C 354.757812 511.585938 359.234375 507.109375 364.757812 507.109375 C 370.28125 507.109375 374.757812 511.585938 374.757812 517.109375 "/>
<path style="fill-rule:nonzero;fill:rgb(0%,0%,100%);fill-opacity:1;stroke-width:1;stroke-linecap:butt;stroke-linejoin:miter;stroke:rgb(0%,0%,0%);stroke-opacity:1;stroke-miterlimit:10;" d="M 408.902344 359.160156 C 408.902344 364.683594 404.425781 369.160156 398.902344 369.160156 C 393.378906 369.160156 388.902344 364.683594 388.902344 359.160156 C 388.902344 353.636719 393.378906 349.160156 398.902344 349.160156 C 404.425781 349.160156 408.902344 353.636719 408.902344 359.160156 "/>
<path style="fill-rule:nonzero;fill:rgb(100%,0%,100%);fill-opacity:1;stroke-width:1;stroke-linecap:butt;stroke-linejoin:miter;stroke:rgb(0%,0%,0%);stroke-opacity:1;stroke-miterlimit:10;" d="M 292.464844 560.167969 C 292.464844 565.691406 287.988281 570.167969 282.464844 570.167969 C 276.941406 570.167969 272.464844 565.691406 272.464844 560.167969 C 272.464844 554.644531 276.941406 550.167969 282.464844 550.167969 C 287.988281 550.167969 292.464844 554.644531 292.464844 560.167969 "/>
<path style="fill-rule:nonzero;fill:rgb(100%,0%,0%);fill-opacity:1;stroke-width:1;stroke-linecap:butt;stroke-linejoin:miter;stroke:rgb(0%,0%,0%);stroke-opacity:1;stroke-miterlimit:10;" d="M 549.433594 282.023438 C 549.433594 287.546875 544.957031 292.023438 539.433594 292.023438 C 533.914062 292.023438 529.433594 287.546875 529.433594 282.023438 C 529.433594 276.5 533.914062 272.023438 539.433594 272.023438 C 544.957031 272.023438 549.433594 276.5 549.433594 282.023438 "/>
<path style="fill-rule:nonzero;fill:rgb(0%,100%,100%);fill-opacity:1;stroke-width:1;stroke-linecap:butt;stroke-linejoin:miter;stroke:rgb(0%,0%,0%);stroke-opacity:1;stroke-miterlimit:10;" d="M 341.222656 547.019531 C 341.222656 552.542969 336.746094 557.019531 331.222656 557.019531 C 325.699219 557.019531 321.222656 552.542969 321.222656 547.019531 C 321.222656 541.5 325.699219 537.019531 331.222656 537.019531 C 336.746094 537.019531 341.222656 541.5 341.222656 547.019531 "/>
<path style="fill-rule:nonzero;fill:rgb(50.196078%,50.196078%,50.196078%);fill-opacity:1;stroke-width:1;stroke-linecap:butt;stroke-linejoin:miter;stroke:rgb(0%,0%,0%);stroke-opacity:1;stroke-miterlimit:10;" d="M 120.9375 469.574219 C 120.9375 475.097656 116.460938 479.574219 110.9375 479.574219 C 105.414062 479.574219 100.9375 475.097656 100.9375 469.574219 C 100.9375 464.054688 105.414062 459.574219 110.9375 459.574219 C 116.460938 459.574219 120.9375 464.054688 120.9375 469.574219 "/>
<path style="fill-rule:nonzero;fill:rgb(50%,0%,0%);fill-opacity:1;stroke-width:1;stroke-linecap:butt;stroke-linejoin:miter;stroke:rgb(0%,0%,0%);stroke-opacity:1;stroke-miterlimit:10;" d="M 32.394531 354.664062 C 32.394531 360.1875 27.917969 364.664062 22.394531 364.664062 C 16.871094 364.664062 12.394531 360.1875 12.394531 354.664062 C 12.394531 349.140625 16.871094 344.664062 22.394531 344.664062 C 27.917969 344.664062 32.394531 349.140625 32.394531 354.664062 "/>
<path style="fill-rule:nonzero;fill:rgb(50.196078%,50.196078%,50.196078%);fill-opacity:1;stroke-width:1;stroke-linecap:butt;stroke-linejoin:miter;stroke:rgb(0%,0%,0%);stroke-opacity:1;stroke-miterlimit:10;" d="M 30 404.886719 C 30 410.40625 25.523438 414.886719 20 414.886719 C 14.476562 414.886719 10 410.40625 10 404.886719 C 10 399.363281 14.476562 394.886719 20 394.886719 C 25.523438 394.886719 30 399.363281 30 404.886719 "/>
<path style="fill-rule:nonzero;fill:rgb(0%,50%,0%);fill-opacity:1;stroke-width:1;stroke-linecap:butt;stroke-linejoin:miter;stroke:rgb(0%,0%,0%);stroke-opacity:1;stroke-miterlimit:10;" d="M 154.425781 580 C 154.425781 585.523438 149.949219 590 144.425781 590 C 138.90625 590 134.425781 585.523438 134.425781 580 C 134.425781 574.476562 138.90625 570 144.425781 570 C 149.949219 570 154.425781 574.476562 154.425781 580 "/>
<path style="fill-rule:nonzero;fill:rgb(50.196078%,50.196078%,50.196078%);fill-opacity:1;stroke-width:1;stroke-linecap:butt;stroke-linejoin:miter;stroke:rgb(0%,0%,0%);stroke-opacity:1;stroke-miterlimit:10;" d="M 128.480469 403.847656 C 128.480469 409.371094 124.003906 413.847656 118.480469 413.847656 C 112.957031 413.847656 108.480469 409.371094 108.480469 403.847656 C 108.480469 398.324219 112.957031 393.847656 118.480469 393.847656 C 124.003906 393.847656 128.480469 398.324219 128.480469 403.847656 "/>
<path style="fill-rule:nonzero;fill:rgb(100%,0%,0%);fill-opacity:1;stroke-width:1;stroke-linecap:butt;stroke-linejoin:miter;stroke:rgb(0%,0%,0%);stroke-opacity:1;stroke-miterlimit:10;" d="M 220.730469 400.902344 C 220.730469 406.425781 216.253906 410.902344 210.730469 410.902344 C 205.207031 410.902344 200.730469 406.425781 200.730469 400.902344 C 200.730469 395.378906 205.207031 390.902344 210.730469 390.902344 C 216.253906 390.902344 220.730469 395.378906 220.730469 400.902344 "/>
<path style="fill-rule:nonzero;fill:rgb(0%,50%,0%);fill-opacity:1;stroke-width:1;stroke-linecap:butt;stroke-linejoin:miter;stroke:rgb(0%,0%,0%);stroke-opacity:1;stroke-miterlimit:10;" d="M 178.78125 530.621094 C 178.78125 536.140625 174.304688 540.621094 168.78125 540.621094 C 163.261719 540.621094 158.78125 536.140625 158.78125 530.621094 C 158.78125 525.097656 163.261719 520.621094 168.78125 520.621094 C 174.304688 520.621094 178.78125 525.097656 178.78125 530.621094 "/>
<path style="fill-rule:nonzero;fill:rgb(100%,0%,0%);fill-opacity:1;stroke-width:1;stroke-linecap:butt;stroke-linejoin:miter;stroke:rgb(0%,0%,0%);stroke-opacity:1;stroke-miterlimit:10;" d="M 380.085938 423.191406 C 380.085938 428.714844 375.609375 433.191406 370.085938 433.191406 C 364.5625 433.191406 360.085938 428.714844 360.085938 423.191406 C 360.085938 417.671875 364.5625 413.191406 370.085938 413.191406 C 375.609375 413.191406 380.085938 417.671875 380.085938 423.191406 "/>
<path style="fill-rule:nonzero;fill:rgb(100%,0%,0%);fill-opacity:1;stroke-width:1;stroke-linecap:butt;stroke-linejoin:miter;stroke:rgb(0%,0%,0%);stroke-opacity:1;stroke-miterlimit:10;" d="M 203.941406 360.777344 C 203.941406 366.300781 199.464844 370.777344 193.941406 370.777344 C 188.417969 370.777344 183.941406 366.300781 183.941406 360.777344 C 183.941406 355.253906 188.417969 350.777344 193.941406 350.777344 C 199.464844 350.777344 203.941406 355.253906 203.941406 360.777344 "/>
<path style="fill-rule:nonzero;fill:rgb(100%,0%,0%);fill-opacity:1;stroke-width:1;stroke-linecap:butt;stroke-linejoin:miter;stroke:rgb(0%,0%,0%);stroke-opacity:1;stroke-miterlimit:10;" d="M 267.183594 474.132812 C 267.183594 479.652344 262.707031 484.132812 257.183594 484.132812 C 251.664062 484.132812 247.183594 479.652344 247.183594 474.132812 C 247.183594 468.609375 251.664062 464.132812 257.183594 464.132812 C 262.707031 464.132812 267.183594 468.609375 267.183594 474.132812 "/>
<path style="fill-rule:nonzero;fill:rgb(100%,0%,0%);fill-opacity:1;stroke-width:1;stroke-linecap:butt;stroke-linejoin:miter;stroke:rgb(0%,0%,0%);stroke-opacity:1;stroke-miterlimit:10;" d="M 253.390625 456.457031 C 253.390625 461.980469 248.910156 466.457031 243.390625 466.457031 C 237.867188 466.457031 233.390625 461.980469 233.390625 456.457031 C 233.390625 450.933594 237.867188 446.457031 243.390625 446.457031 C 248.910156 446.457031 253.390625 450.933594 253.390625 456.457031 "/>
</g>
</svg>
