<?xml version="1.0" encoding="UTF-8"?>
<svg xmlns="http://www.w3.org/2000/svg" xmlns:xlink="http://www.w3.org/1999/xlink" width="600pt" height="600pt" viewBox="0 0 600 600" version="1.1">
<g id="surface86">
<rect x="0" y="0" width="600" height="600" style="fill:rgb(100%,100%,100%);fill-opacity:1;stroke:none;"/>
<path style="fill-rule:nonzero;fill:rgb(100%,0%,0%);fill-opacity:0.25;stroke-width:2;stroke-linecap:butt;stroke-linejoin:miter;stroke:rgb(100%,0%,0%);stroke-opacity:1;stroke-miterlimit:10;" d="M 468.707031 282.097656 L 275.949219 160.675781 C 265.375 154.011719 242.5 149.59375 230.203125 151.839844 L 227.054688 152.414062 C 214.757812 154.660156 190.46875 160.429688 178.472656 163.953125 L 128.765625 178.554688 C 116.773438 182.078125 105.917969 198.050781 107.054688 210.5 L 114.476562 291.71875 C 115.617188 304.167969 125.9375 325.09375 135.125 333.574219 L 305.40625 490.746094 C 314.589844 499.222656 335.644531 511.621094 347.515625 515.539062 L 573.570312 590.199219 C 585.441406 594.117188 595.109375 585.734375 592.90625 573.429688 L 555.84375 366.257812 C 553.644531 353.953125 541.445312 334.144531 531.449219 326.640625 L 509.855469 310.429688 C 499.859375 302.925781 479.285156 288.757812 468.707031 282.097656 "/>
<path style="fill-rule:nonzero;fill:rgb(50.196078%,50.196078%,50.196078%);fill-opacity:0.25;stroke-width:2;stroke-linecap:butt;stroke-linejoin:miter;stroke:rgb(50.196078%,50.196078%,50.196078%);stroke-opacity:1;stroke-miterlimit:10;" d="M 171.65625 91.894531 C 167.980469 99.933594 156.019531 111.058594 147.738281 114.140625 L 102.011719 131.167969 C 93.726562 134.253906 77.40625 133.660156 69.367188 129.984375 C 61.328125 126.308594 56.96875 114.59375 60.644531 106.554688 C 64.320312 98.519531 76.277344 87.394531 84.5625 84.3125 L 130.289062 67.285156 C 138.574219 64.199219 154.894531 64.792969 162.933594 68.46875 C 170.96875 72.144531 175.332031 83.859375 171.65625 91.894531 "/>
<path style="fill-rule:nonzero;fill:rgb(50%,0%,0%);fill-opacity:0.25;stroke-width:2;stroke-linecap:butt;stroke-linejoin:miter;stroke:rgb(50%,0%,0%);stroke-opacity:1;stroke-miterlimit:10;" d="M 291.917969 17.097656 L 253.988281 4.542969 C 242.121094 0.617188 229.125 9.140625 227.992188 21.589844 L 219.820312 111.503906 C 218.6875 123.953125 225.816406 127.019531 234.074219 117.636719 L 299.136719 43.714844 C 307.394531 34.332031 303.785156 21.023438 291.917969 17.097656 "/>
<path style="fill:none;stroke-width:1;stroke-linecap:butt;stroke-linejoin:miter;stroke:rgb(20%,20%,20%);stroke-opacity:1;stroke-miterlimit:10;" d="M 381.089844 367.550781 L 331.238281 369.746094 "/>
<path style=" stroke:none;fill-rule:nonzero;fill:rgb(20%,20%,20%);fill-opacity:1;" d="M 316.984375 370.375 L 331.035156 365.117188 L 331.441406 374.378906 L 316.984375 370.375 "/>
<path style="fill:none;stroke-width:1;stroke-linecap:butt;stroke-linejoin:miter;stroke:rgb(20%,20%,20%);stroke-opacity:1;stroke-miterlimit:10;" d="M 381.089844 367.550781 L 283.789062 278.335938 "/>
<path style=" stroke:none;fill-rule:nonzero;fill:rgb(20%,20%,20%);fill-opacity:1;" d="M 273.273438 268.691406 L 286.921875 274.917969 L 280.65625 281.75 L 273.273438 268.691406 "/>
<path style="fill:none;stroke-width:1;stroke-linecap:butt;stroke-linejoin:miter;stroke:rgb(20%,20%,20%);stroke-opacity:1;stroke-miterlimit:10;" d="M 381.089844 367.550781 L 375.839844 336.445312 "/>
<path style=" stroke:none;fill-rule:nonzero;fill:rgb(20%,20%,20%);fill-opacity:1;" d="M 373.464844 322.378906 L 380.410156 335.675781 L 371.269531 337.21875 L 373.464844 322.378906 "/>
<path style="fill:none;stroke-width:1;stroke-linecap:butt;stroke-linejoin:miter;stroke:rgb(20%,20%,20%);stroke-opacity:1;stroke-miterlimit:10;" d="M 381.089844 367.550781 L 446.636719 453.839844 "/>
<path style=" stroke:none;fill-rule:nonzero;fill:rgb(20%,20%,20%);fill-opacity:1;" d="M 455.269531 465.199219 L 442.945312 456.644531 L 450.328125 451.035156 L 455.269531 465.199219 "/>
<path style="fill:none;stroke-width:1;stroke-linecap:butt;stroke-linejoin:miter;stroke:rgb(20%,20%,20%);stroke-opacity:1;stroke-miterlimit:10;" d="M 381.089844 367.550781 L 503.460938 467.824219 "/>
<path style=" stroke:none;fill-rule:nonzero;fill:rgb(20%,20%,20%);fill-opacity:1;" d="M 514.496094 476.867188 L 500.523438 471.410156 L 506.398438 464.238281 L 514.496094 476.867188 "/>
<path style="fill:none;stroke-width:1;stroke-linecap:butt;stroke-linejoin:miter;stroke:rgb(20%,20%,20%);stroke-opacity:1;stroke-miterlimit:10;" d="M 381.089844 367.550781 L 476.882812 500.300781 "/>
<path style=" stroke:none;fill-rule:nonzero;fill:rgb(20%,20%,20%);fill-opacity:1;" d="M 485.230469 511.871094 L 473.125 503.015625 L 480.640625 497.589844 L 485.230469 511.871094 "/>
<path style="fill:none;stroke-width:1;stroke-linecap:butt;stroke-linejoin:miter;stroke:rgb(20%,20%,20%);stroke-opacity:1;stroke-miterlimit:10;" d="M 381.089844 367.550781 L 365.550781 305.097656 "/>
<path style=" stroke:none;fill-rule:nonzero;fill:rgb(20%,20%,20%);fill-opacity:1;" d="M 362.105469 291.253906 L 370.046875 303.976562 L 361.050781 306.214844 L 362.105469 291.253906 "/>
<path style="fill:none;stroke-width:1;stroke-linecap:butt;stroke-linejoin:miter;stroke:rgb(20%,20%,20%);stroke-opacity:1;stroke-miterlimit:10;" d="M 381.089844 367.550781 L 247.9375 295.441406 "/>
<path style=" stroke:none;fill-rule:nonzero;fill:rgb(20%,20%,20%);fill-opacity:1;" d="M 235.390625 288.648438 L 250.144531 291.367188 L 245.730469 299.519531 L 235.390625 288.648438 "/>
<path style="fill:none;stroke-width:1;stroke-linecap:butt;stroke-linejoin:miter;stroke:rgb(20%,20%,20%);stroke-opacity:1;stroke-miterlimit:10;" d="M 381.089844 367.550781 L 479.972656 415.296875 "/>
<path style=" stroke:none;fill-rule:nonzero;fill:rgb(20%,20%,20%);fill-opacity:1;" d="M 492.820312 421.5 L 477.957031 419.46875 L 481.988281 411.121094 L 492.820312 421.5 "/>
<path style="fill:none;stroke-width:1;stroke-linecap:butt;stroke-linejoin:miter;stroke:rgb(20%,20%,20%);stroke-opacity:1;stroke-miterlimit:10;" d="M 381.089844 367.550781 L 502.738281 343.890625 "/>
<path style=" stroke:none;fill-rule:nonzero;fill:rgb(20%,20%,20%);fill-opacity:1;" d="M 516.742188 341.167969 L 503.621094 348.441406 L 501.851562 339.339844 L 516.742188 341.167969 "/>
<path style="fill:none;stroke-width:1;stroke-linecap:butt;stroke-linejoin:miter;stroke:rgb(20%,20%,20%);stroke-opacity:1;stroke-miterlimit:10;" d="M 381.089844 367.550781 L 446.324219 314.601562 "/>
<path style=" stroke:none;fill-rule:nonzero;fill:rgb(20%,20%,20%);fill-opacity:1;" d="M 457.402344 305.609375 L 449.246094 318.199219 L 443.402344 311.003906 L 457.402344 305.609375 "/>
<path style="fill:none;stroke-width:1;stroke-linecap:butt;stroke-linejoin:miter;stroke:rgb(20%,20%,20%);stroke-opacity:1;stroke-miterlimit:10;" d="M 381.089844 367.550781 L 308.925781 314.996094 "/>
<path style=" stroke:none;fill-rule:nonzero;fill:rgb(20%,20%,20%);fill-opacity:1;" d="M 297.394531 306.597656 L 311.65625 311.25 L 306.199219 318.742188 L 297.394531 306.597656 "/>
<path style="fill:none;stroke-width:1;stroke-linecap:butt;stroke-linejoin:miter;stroke:rgb(20%,20%,20%);stroke-opacity:1;stroke-miterlimit:10;" d="M 381.089844 367.550781 L 335.394531 460.921875 "/>
<path style=" stroke:none;fill-rule:nonzero;fill:rgb(20%,20%,20%);fill-opacity:1;" d="M 329.121094 473.738281 L 331.230469 458.886719 L 339.558594 462.960938 L 329.121094 473.738281 "/>
<path style="fill:none;stroke-width:1;stroke-linecap:butt;stroke-linejoin:miter;stroke:rgb(20%,20%,20%);stroke-opacity:1;stroke-miterlimit:10;" d="M 381.089844 367.550781 L 269.734375 356.332031 "/>
<path style=" stroke:none;fill-rule:nonzero;fill:rgb(20%,20%,20%);fill-opacity:1;" d="M 255.539062 354.902344 L 270.199219 351.722656 L 269.269531 360.945312 L 255.539062 354.902344 "/>
<path style="fill:none;stroke-width:1;stroke-linecap:butt;stroke-linejoin:miter;stroke:rgb(20%,20%,20%);stroke-opacity:1;stroke-miterlimit:10;" d="M 381.089844 367.550781 L 371.992188 446.707031 "/>
<path style=" stroke:none;fill-rule:nonzero;fill:rgb(20%,20%,20%);fill-opacity:1;" d="M 370.363281 460.878906 L 367.386719 446.179688 L 376.597656 447.238281 L 370.363281 460.878906 "/>
<path style="fill:none;stroke-width:1;stroke-linecap:butt;stroke-linejoin:miter;stroke:rgb(20%,20%,20%);stroke-opacity:1;stroke-miterlimit:10;" d="M 381.089844 367.550781 L 277.175781 191.144531 "/>
<path style=" stroke:none;fill-rule:nonzero;fill:rgb(20%,20%,20%);fill-opacity:1;" d="M 269.933594 178.851562 L 281.167969 188.789062 L 273.179688 193.496094 L 269.933594 178.851562 "/>
<path style="fill:none;stroke-width:1;stroke-linecap:butt;stroke-linejoin:miter;stroke:rgb(20%,20%,20%);stroke-opacity:1;stroke-miterlimit:10;" d="M 306.996094 370.816406 L 274.472656 284.636719 "/>
<path style=" stroke:none;fill-rule:nonzero;fill:rgb(20%,20%,20%);fill-opacity:1;" d="M 269.433594 271.289062 L 278.808594 283 L 270.136719 286.273438 L 269.433594 271.289062 "/>
<path style="fill:none;stroke-width:1;stroke-linecap:butt;stroke-linejoin:miter;stroke:rgb(20%,20%,20%);stroke-opacity:1;stroke-miterlimit:10;" d="M 306.996094 370.816406 L 353.757812 328.746094 "/>
<path style=" stroke:none;fill-rule:nonzero;fill:rgb(20%,20%,20%);fill-opacity:1;" d="M 364.363281 319.207031 L 356.859375 332.195312 L 350.660156 325.300781 L 364.363281 319.207031 "/>
<path style="fill:none;stroke-width:1;stroke-linecap:butt;stroke-linejoin:miter;stroke:rgb(20%,20%,20%);stroke-opacity:1;stroke-miterlimit:10;" d="M 306.996094 370.816406 L 347.355469 302.445312 "/>
<path style=" stroke:none;fill-rule:nonzero;fill:rgb(20%,20%,20%);fill-opacity:1;" d="M 354.605469 290.160156 L 351.347656 304.800781 L 343.363281 300.089844 L 354.605469 290.160156 "/>
<path style="fill:none;stroke-width:1;stroke-linecap:butt;stroke-linejoin:miter;stroke:rgb(20%,20%,20%);stroke-opacity:1;stroke-miterlimit:10;" d="M 306.996094 370.816406 L 295.246094 324.242188 "/>
<path style=" stroke:none;fill-rule:nonzero;fill:rgb(20%,20%,20%);fill-opacity:1;" d="M 291.757812 310.40625 L 299.742188 323.105469 L 290.75 325.375 L 291.757812 310.40625 "/>
<path style="fill:none;stroke-width:1;stroke-linecap:butt;stroke-linejoin:miter;stroke:rgb(20%,20%,20%);stroke-opacity:1;stroke-miterlimit:10;" d="M 306.996094 370.816406 L 320.929688 458.75 "/>
<path style=" stroke:none;fill-rule:nonzero;fill:rgb(20%,20%,20%);fill-opacity:1;" d="M 323.164062 472.84375 L 316.351562 459.476562 L 325.507812 458.027344 L 323.164062 472.84375 "/>
<path style="fill:none;stroke-width:1;stroke-linecap:butt;stroke-linejoin:miter;stroke:rgb(20%,20%,20%);stroke-opacity:1;stroke-miterlimit:10;" d="M 306.996094 370.816406 L 268.984375 360.34375 "/>
<path style=" stroke:none;fill-rule:nonzero;fill:rgb(20%,20%,20%);fill-opacity:1;" d="M 255.230469 356.558594 L 270.214844 355.875 L 267.753906 364.816406 L 255.230469 356.558594 "/>
<path style="fill:none;stroke-width:1;stroke-linecap:butt;stroke-linejoin:miter;stroke:rgb(20%,20%,20%);stroke-opacity:1;stroke-miterlimit:10;" d="M 306.996094 370.816406 L 356.402344 450.210938 "/>
<path style=" stroke:none;fill-rule:nonzero;fill:rgb(20%,20%,20%);fill-opacity:1;" d="M 363.9375 462.324219 L 352.464844 452.660156 L 360.335938 447.761719 L 363.9375 462.324219 "/>
<path style="fill:none;stroke-width:1;stroke-linecap:butt;stroke-linejoin:miter;stroke:rgb(20%,20%,20%);stroke-opacity:1;stroke-miterlimit:10;" d="M 306.996094 370.816406 L 204.0625 317.511719 "/>
<path style=" stroke:none;fill-rule:nonzero;fill:rgb(20%,20%,20%);fill-opacity:1;" d="M 191.394531 310.953125 L 206.195312 313.394531 L 201.933594 321.628906 L 191.394531 310.953125 "/>
<path style="fill:none;stroke-width:1;stroke-linecap:butt;stroke-linejoin:miter;stroke:rgb(20%,20%,20%);stroke-opacity:1;stroke-miterlimit:10;" d="M 265.902344 261.933594 L 349.902344 302.058594 "/>
<path style=" stroke:none;fill-rule:nonzero;fill:rgb(20%,20%,20%);fill-opacity:1;" d="M 362.777344 308.207031 L 347.90625 306.242188 L 351.902344 297.875 L 362.777344 308.207031 "/>
<path style="fill:none;stroke-width:1;stroke-linecap:butt;stroke-linejoin:miter;stroke:rgb(20%,20%,20%);stroke-opacity:1;stroke-miterlimit:10;" d="M 265.902344 261.933594 L 335.9375 276.582031 "/>
<path style=" stroke:none;fill-rule:nonzero;fill:rgb(20%,20%,20%);fill-opacity:1;" d="M 349.902344 279.5 L 334.988281 281.117188 L 336.886719 272.042969 L 349.902344 279.5 "/>
<path style="fill:none;stroke-width:1;stroke-linecap:butt;stroke-linejoin:miter;stroke:rgb(20%,20%,20%);stroke-opacity:1;stroke-miterlimit:10;" d="M 265.902344 261.933594 L 247.785156 272.054688 "/>
<path style=" stroke:none;fill-rule:nonzero;fill:rgb(20%,20%,20%);fill-opacity:1;" d="M 235.328125 279.011719 L 245.523438 268.007812 L 250.046875 276.101562 L 235.328125 279.011719 "/>
<path style="fill:none;stroke-width:1;stroke-linecap:butt;stroke-linejoin:miter;stroke:rgb(20%,20%,20%);stroke-opacity:1;stroke-miterlimit:10;" d="M 265.902344 261.933594 L 163.925781 307.214844 "/>
<path style=" stroke:none;fill-rule:nonzero;fill:rgb(20%,20%,20%);fill-opacity:1;" d="M 150.886719 313.003906 L 162.046875 302.980469 L 165.808594 311.453125 L 150.886719 313.003906 "/>
<path style="fill:none;stroke-width:1;stroke-linecap:butt;stroke-linejoin:miter;stroke:rgb(20%,20%,20%);stroke-opacity:1;stroke-miterlimit:10;" d="M 265.902344 261.933594 L 276.769531 279.9375 "/>
<path style=" stroke:none;fill-rule:nonzero;fill:rgb(20%,20%,20%);fill-opacity:1;" d="M 284.144531 292.152344 L 272.800781 282.332031 L 280.738281 277.542969 L 284.144531 292.152344 "/>
<path style="fill:none;stroke-width:1;stroke-linecap:butt;stroke-linejoin:miter;stroke:rgb(80%,80%,80%);stroke-opacity:1;stroke-miterlimit:10;" d="M 265.902344 261.933594 L 233.863281 137.113281 "/>
<path style=" stroke:none;fill-rule:nonzero;fill:rgb(80%,80%,80%);fill-opacity:1;" d="M 230.3125 123.292969 L 238.351562 135.960938 L 229.371094 138.265625 L 230.3125 123.292969 "/>
<path style="fill:none;stroke-width:1;stroke-linecap:butt;stroke-linejoin:miter;stroke:rgb(20%,20%,20%);stroke-opacity:1;stroke-miterlimit:10;" d="M 265.902344 261.933594 L 229.796875 197.71875 "/>
<path style=" stroke:none;fill-rule:nonzero;fill:rgb(20%,20%,20%);fill-opacity:1;" d="M 222.804688 185.28125 L 233.835938 195.445312 L 225.753906 199.988281 L 222.804688 185.28125 "/>
<path style="fill:none;stroke-width:1;stroke-linecap:butt;stroke-linejoin:miter;stroke:rgb(20%,20%,20%);stroke-opacity:1;stroke-miterlimit:10;" d="M 265.902344 261.933594 L 148.339844 208.453125 "/>
<path style=" stroke:none;fill-rule:nonzero;fill:rgb(20%,20%,20%);fill-opacity:1;" d="M 135.355469 202.546875 L 150.261719 204.234375 L 146.421875 212.675781 L 135.355469 202.546875 "/>
<path style="fill:none;stroke-width:1;stroke-linecap:butt;stroke-linejoin:miter;stroke:rgb(20%,20%,20%);stroke-opacity:1;stroke-miterlimit:10;" d="M 371.800781 312.519531 L 368.527344 304.148438 "/>
<path style=" stroke:none;fill-rule:nonzero;fill:rgb(20%,20%,20%);fill-opacity:1;" d="M 363.332031 290.863281 L 372.84375 302.460938 L 364.210938 305.835938 L 363.332031 290.863281 "/>
<path style="fill:none;stroke-width:1;stroke-linecap:butt;stroke-linejoin:miter;stroke:rgb(20%,20%,20%);stroke-opacity:1;stroke-miterlimit:10;" d="M 371.800781 312.519531 L 441.136719 302.707031 "/>
<path style=" stroke:none;fill-rule:nonzero;fill:rgb(20%,20%,20%);fill-opacity:1;" d="M 455.261719 300.710938 L 441.789062 307.296875 L 440.488281 298.117188 L 455.261719 300.710938 "/>
<path style="fill:none;stroke-width:1;stroke-linecap:butt;stroke-linejoin:miter;stroke:rgb(20%,20%,20%);stroke-opacity:1;stroke-miterlimit:10;" d="M 371.800781 312.519531 L 313.332031 304.148438 "/>
<path style=" stroke:none;fill-rule:nonzero;fill:rgb(20%,20%,20%);fill-opacity:1;" d="M 299.210938 302.128906 L 313.988281 299.5625 L 312.675781 308.738281 L 299.210938 302.128906 "/>
<path style="fill:none;stroke-width:1;stroke-linecap:butt;stroke-linejoin:miter;stroke:rgb(20%,20%,20%);stroke-opacity:1;stroke-miterlimit:10;" d="M 461.316406 473.164062 L 478.0625 499.503906 "/>
<path style=" stroke:none;fill-rule:nonzero;fill:rgb(20%,20%,20%);fill-opacity:1;" d="M 485.714844 511.539062 L 474.152344 501.988281 L 481.972656 497.015625 L 485.714844 511.539062 "/>
<path style="fill:none;stroke-width:1;stroke-linecap:butt;stroke-linejoin:miter;stroke:rgb(20%,20%,20%);stroke-opacity:1;stroke-miterlimit:10;" d="M 461.316406 473.164062 L 486.042969 444.28125 "/>
<path style=" stroke:none;fill-rule:nonzero;fill:rgb(20%,20%,20%);fill-opacity:1;" d="M 495.324219 433.441406 L 489.566406 447.292969 L 482.523438 441.265625 L 495.324219 433.441406 "/>
<path style="fill:none;stroke-width:1;stroke-linecap:butt;stroke-linejoin:miter;stroke:rgb(20%,20%,20%);stroke-opacity:1;stroke-miterlimit:10;" d="M 522.230469 483.203125 L 506.765625 501.464844 "/>
<path style=" stroke:none;fill-rule:nonzero;fill:rgb(20%,20%,20%);fill-opacity:1;" d="M 497.546875 512.347656 L 503.230469 498.46875 L 510.300781 504.460938 L 497.546875 512.347656 "/>
<path style="fill:none;stroke-width:1;stroke-linecap:butt;stroke-linejoin:miter;stroke:rgb(20%,20%,20%);stroke-opacity:1;stroke-miterlimit:10;" d="M 522.230469 483.203125 L 509.960938 448.710938 "/>
<path style=" stroke:none;fill-rule:nonzero;fill:rgb(20%,20%,20%);fill-opacity:1;" d="M 505.179688 435.269531 L 514.328125 447.15625 L 505.59375 450.261719 L 505.179688 435.269531 "/>
<path style="fill:none;stroke-width:1;stroke-linecap:butt;stroke-linejoin:miter;stroke:rgb(20%,20%,20%);stroke-opacity:1;stroke-miterlimit:10;" d="M 522.230469 483.203125 L 567.5625 559.164062 "/>
<path style=" stroke:none;fill-rule:nonzero;fill:rgb(20%,20%,20%);fill-opacity:1;" d="M 574.875 571.414062 L 563.582031 561.539062 L 571.542969 556.789062 L 574.875 571.414062 "/>
<path style="fill:none;stroke-width:1;stroke-linecap:butt;stroke-linejoin:miter;stroke:rgb(20%,20%,20%);stroke-opacity:1;stroke-miterlimit:10;" d="M 491.082031 519.980469 L 559.886719 566.421875 "/>
<path style=" stroke:none;fill-rule:nonzero;fill:rgb(20%,20%,20%);fill-opacity:1;" d="M 571.710938 574.40625 L 557.292969 570.265625 L 562.480469 562.582031 L 571.710938 574.40625 "/>
<path style="fill:none;stroke-width:1;stroke-linecap:butt;stroke-linejoin:miter;stroke:rgb(20%,20%,20%);stroke-opacity:1;stroke-miterlimit:10;" d="M 226.597656 283.886719 L 204.136719 295.335938 "/>
<path style=" stroke:none;fill-rule:nonzero;fill:rgb(20%,20%,20%);fill-opacity:1;" d="M 191.425781 301.8125 L 202.03125 291.203125 L 206.242188 299.464844 L 191.425781 301.8125 "/>
<path style="fill:none;stroke-width:1;stroke-linecap:butt;stroke-linejoin:miter;stroke:rgb(20%,20%,20%);stroke-opacity:1;stroke-miterlimit:10;" d="M 226.597656 283.886719 L 144.726562 214.140625 "/>
<path style=" stroke:none;fill-rule:nonzero;fill:rgb(20%,20%,20%);fill-opacity:1;" d="M 133.867188 204.890625 L 147.730469 210.613281 L 141.71875 217.671875 L 133.867188 204.890625 "/>
<path style="fill:none;stroke-width:1;stroke-linecap:butt;stroke-linejoin:miter;stroke:rgb(20%,20%,20%);stroke-opacity:1;stroke-miterlimit:10;" d="M 226.597656 283.886719 L 162.199219 224.476562 "/>
<path style=" stroke:none;fill-rule:nonzero;fill:rgb(20%,20%,20%);fill-opacity:1;" d="M 151.714844 214.800781 L 165.34375 221.070312 L 159.058594 227.882812 L 151.714844 214.800781 "/>
<path style="fill:none;stroke-width:1;stroke-linecap:butt;stroke-linejoin:miter;stroke:rgb(20%,20%,20%);stroke-opacity:1;stroke-miterlimit:10;" d="M 141.75 317.0625 L 143.78125 232.28125 "/>
<path style=" stroke:none;fill-rule:nonzero;fill:rgb(20%,20%,20%);fill-opacity:1;" d="M 144.125 218.019531 L 148.417969 232.390625 L 139.148438 232.167969 L 144.125 218.019531 "/>
<path style="fill:none;stroke-width:1;stroke-linecap:butt;stroke-linejoin:miter;stroke:rgb(20%,20%,20%);stroke-opacity:1;stroke-miterlimit:10;" d="M 289.308594 300.710938 L 164.808594 221.09375 "/>
<path style=" stroke:none;fill-rule:nonzero;fill:rgb(20%,20%,20%);fill-opacity:1;" d="M 152.789062 213.410156 L 167.304688 217.191406 L 162.3125 225 L 152.789062 213.410156 "/>
<path style="fill:none;stroke-width:1;stroke-linecap:butt;stroke-linejoin:miter;stroke:rgb(80%,80%,80%);stroke-opacity:1;stroke-miterlimit:10;" d="M 96.816406 82.191406 L 120.296875 174.882812 "/>
<path style=" stroke:none;fill-rule:nonzero;fill:rgb(80%,80%,80%);fill-opacity:1;" d="M 123.796875 188.714844 L 115.800781 176.023438 L 124.789062 173.746094 L 123.796875 188.714844 "/>
<path style="fill:none;stroke-width:1;stroke-linecap:butt;stroke-linejoin:miter;stroke:rgb(80%,80%,80%);stroke-opacity:1;stroke-miterlimit:10;" d="M 96.816406 82.191406 L 135.789062 185.324219 "/>
<path style=" stroke:none;fill-rule:nonzero;fill:rgb(80%,80%,80%);fill-opacity:1;" d="M 140.828125 198.667969 L 131.453125 186.960938 L 140.125 183.683594 L 140.828125 198.667969 "/>
<path style="fill:none;stroke-width:1;stroke-linecap:butt;stroke-linejoin:miter;stroke:rgb(80%,80%,80%);stroke-opacity:1;stroke-miterlimit:10;" d="M 38.390625 160.875 L 103.9375 188.875 "/>
<path style=" stroke:none;fill-rule:nonzero;fill:rgb(80%,80%,80%);fill-opacity:1;" d="M 117.058594 194.480469 L 102.117188 193.136719 L 105.757812 184.613281 L 117.058594 194.480469 "/>
<path style="fill:none;stroke-width:1;stroke-linecap:butt;stroke-linejoin:miter;stroke:rgb(80%,80%,80%);stroke-opacity:1;stroke-miterlimit:10;" d="M 38.390625 160.875 L 122.195312 198.160156 "/>
<path style=" stroke:none;fill-rule:nonzero;fill:rgb(80%,80%,80%);fill-opacity:1;" d="M 135.226562 203.957031 L 120.308594 202.394531 L 124.078125 193.921875 L 135.226562 203.957031 "/>
<path style="fill:none;stroke-width:1;stroke-linecap:butt;stroke-linejoin:miter;stroke:rgb(80%,80%,80%);stroke-opacity:1;stroke-miterlimit:10;" d="M 54.746094 284.203125 L 110.71875 217.046875 "/>
<path style=" stroke:none;fill-rule:nonzero;fill:rgb(80%,80%,80%);fill-opacity:1;" d="M 119.851562 206.089844 L 114.277344 220.015625 L 107.15625 214.078125 L 119.851562 206.089844 "/>
<path style="fill:none;stroke-width:1;stroke-linecap:butt;stroke-linejoin:miter;stroke:rgb(80%,80%,80%);stroke-opacity:1;stroke-miterlimit:10;" d="M 54.746094 284.203125 L 125.875 223.738281 "/>
<path style=" stroke:none;fill-rule:nonzero;fill:rgb(80%,80%,80%);fill-opacity:1;" d="M 136.746094 214.5 L 128.878906 227.269531 L 122.875 220.207031 L 136.746094 214.5 "/>
<path style="fill:none;stroke-width:1;stroke-linecap:butt;stroke-linejoin:miter;stroke:rgb(20%,20%,20%);stroke-opacity:1;stroke-miterlimit:10;" d="M 245.589844 353.902344 L 158.199219 227.957031 "/>
<path style=" stroke:none;fill-rule:nonzero;fill:rgb(20%,20%,20%);fill-opacity:1;" d="M 150.066406 216.238281 L 162.007812 225.316406 L 154.390625 230.601562 L 150.066406 216.238281 "/>
<path style="fill:none;stroke-width:1;stroke-linecap:butt;stroke-linejoin:miter;stroke:rgb(80%,80%,80%);stroke-opacity:1;stroke-miterlimit:10;" d="M 31.78125 244.996094 L 104.488281 209.140625 "/>
<path style=" stroke:none;fill-rule:nonzero;fill:rgb(80%,80%,80%);fill-opacity:1;" d="M 117.285156 202.828125 L 106.539062 213.296875 L 102.441406 204.980469 L 117.285156 202.828125 "/>
<path style="fill:none;stroke-width:1;stroke-linecap:butt;stroke-linejoin:miter;stroke:rgb(80%,80%,80%);stroke-opacity:1;stroke-miterlimit:10;" d="M 31.78125 244.996094 L 121.308594 215.59375 "/>
<path style=" stroke:none;fill-rule:nonzero;fill:rgb(80%,80%,80%);fill-opacity:1;" d="M 134.863281 211.140625 L 122.757812 219.996094 L 119.863281 211.1875 L 134.863281 211.140625 "/>
<path style="fill:none;stroke-width:1;stroke-linecap:butt;stroke-linejoin:miter;stroke:rgb(80%,80%,80%);stroke-opacity:1;stroke-miterlimit:10;" d="M 20.097656 201.671875 L 102 199.152344 "/>
<path style=" stroke:none;fill-rule:nonzero;fill:rgb(80%,80%,80%);fill-opacity:1;" d="M 116.257812 198.714844 L 102.140625 203.785156 L 101.855469 194.519531 L 116.257812 198.714844 "/>
<path style="fill:none;stroke-width:1;stroke-linecap:butt;stroke-linejoin:miter;stroke:rgb(80%,80%,80%);stroke-opacity:1;stroke-miterlimit:10;" d="M 20.097656 201.671875 L 120.128906 206.78125 "/>
<path style=" stroke:none;fill-rule:nonzero;fill:rgb(80%,80%,80%);fill-opacity:1;" d="M 134.378906 207.511719 L 119.894531 211.414062 L 120.367188 202.152344 L 134.378906 207.511719 "/>
<path style="fill:none;stroke-width:1;stroke-linecap:butt;stroke-linejoin:miter;stroke:rgb(80%,80%,80%);stroke-opacity:1;stroke-miterlimit:10;" d="M 155.578125 84.542969 L 220.074219 34.816406 "/>
<path style=" stroke:none;fill-rule:nonzero;fill:rgb(80%,80%,80%);fill-opacity:1;" d="M 231.375 26.105469 L 222.90625 38.488281 L 217.246094 31.144531 L 231.375 26.105469 "/>
<path style="fill:none;stroke-width:1;stroke-linecap:butt;stroke-linejoin:miter;stroke:rgb(80%,80%,80%);stroke-opacity:1;stroke-miterlimit:10;" d="M 155.578125 84.542969 L 205.316406 104.550781 "/>
<path style=" stroke:none;fill-rule:nonzero;fill:rgb(80%,80%,80%);fill-opacity:1;" d="M 218.550781 109.875 L 203.585938 108.851562 L 207.046875 100.253906 L 218.550781 109.875 "/>
<path style="fill:none;stroke-width:1;stroke-linecap:butt;stroke-linejoin:miter;stroke:rgb(20%,20%,20%);stroke-opacity:1;stroke-miterlimit:10;" d="M 155.578125 84.542969 L 99.460938 105.441406 "/>
<path style=" stroke:none;fill-rule:nonzero;fill:rgb(20%,20%,20%);fill-opacity:1;" d="M 86.089844 110.417969 L 97.84375 101.097656 L 101.078125 109.785156 L 86.089844 110.417969 "/>
<path style="fill:none;stroke-width:1;stroke-linecap:butt;stroke-linejoin:miter;stroke:rgb(80%,80%,80%);stroke-opacity:1;stroke-miterlimit:10;" d="M 155.578125 84.542969 L 132.304688 174.90625 "/>
<path style=" stroke:none;fill-rule:nonzero;fill:rgb(80%,80%,80%);fill-opacity:1;" d="M 128.746094 188.722656 L 127.816406 173.75 L 136.792969 176.0625 L 128.746094 188.722656 "/>
<path style="fill:none;stroke-width:1;stroke-linecap:butt;stroke-linejoin:miter;stroke:rgb(80%,80%,80%);stroke-opacity:1;stroke-miterlimit:10;" d="M 155.578125 84.542969 L 146.558594 183.855469 "/>
<path style=" stroke:none;fill-rule:nonzero;fill:rgb(80%,80%,80%);fill-opacity:1;" d="M 145.269531 198.0625 L 141.941406 183.4375 L 151.175781 184.273438 L 145.269531 198.0625 "/>
<path style="fill:none;stroke-width:1;stroke-linecap:butt;stroke-linejoin:miter;stroke:rgb(20%,20%,20%);stroke-opacity:1;stroke-miterlimit:10;" d="M 293.378906 36.304688 L 262.527344 27.003906 "/>
<path style=" stroke:none;fill-rule:nonzero;fill:rgb(20%,20%,20%);fill-opacity:1;" d="M 248.867188 22.886719 L 263.863281 22.566406 L 261.1875 31.441406 L 248.867188 22.886719 "/>
<path style="fill:none;stroke-width:1;stroke-linecap:butt;stroke-linejoin:miter;stroke:rgb(20%,20%,20%);stroke-opacity:1;stroke-miterlimit:10;" d="M 293.378906 36.304688 L 243.523438 95.101562 "/>
<path style=" stroke:none;fill-rule:nonzero;fill:rgb(20%,20%,20%);fill-opacity:1;" d="M 234.296875 105.980469 L 239.988281 92.105469 L 247.058594 98.097656 L 234.296875 105.980469 "/>
<path style="fill:none;stroke-width:1;stroke-linecap:butt;stroke-linejoin:miter;stroke:rgb(80%,80%,80%);stroke-opacity:1;stroke-miterlimit:10;" d="M 293.378906 36.304688 L 269.914062 146.5 "/>
<path style=" stroke:none;fill-rule:nonzero;fill:rgb(80%,80%,80%);fill-opacity:1;" d="M 266.941406 160.453125 L 265.378906 145.535156 L 274.445312 147.46875 L 266.941406 160.453125 "/>
<path style="fill:none;stroke-width:1;stroke-linecap:butt;stroke-linejoin:miter;stroke:rgb(80%,80%,80%);stroke-opacity:1;stroke-miterlimit:10;" d="M 239.292969 20 L 260.789062 146.3125 "/>
<path style=" stroke:none;fill-rule:nonzero;fill:rgb(80%,80%,80%);fill-opacity:1;" d="M 263.179688 160.378906 L 256.21875 147.089844 L 265.359375 145.535156 L 263.179688 160.378906 "/>
<path style="fill:none;stroke-width:1;stroke-linecap:butt;stroke-linejoin:miter;stroke:rgb(80%,80%,80%);stroke-opacity:1;stroke-miterlimit:10;" d="M 20 92.714844 L 53.988281 105.414062 "/>
<path style=" stroke:none;fill-rule:nonzero;fill:rgb(80%,80%,80%);fill-opacity:1;" d="M 67.351562 110.40625 L 52.367188 109.757812 L 55.613281 101.074219 L 67.351562 110.40625 "/>
<path style="fill:none;stroke-width:1;stroke-linecap:butt;stroke-linejoin:miter;stroke:rgb(80%,80%,80%);stroke-opacity:1;stroke-miterlimit:10;" d="M 20 92.714844 L 126.570312 191.523438 "/>
<path style=" stroke:none;fill-rule:nonzero;fill:rgb(80%,80%,80%);fill-opacity:1;" d="M 137.03125 201.222656 L 123.417969 194.921875 L 129.722656 188.125 L 137.03125 201.222656 "/>
<path style="fill:none;stroke-width:1;stroke-linecap:butt;stroke-linejoin:miter;stroke:rgb(80%,80%,80%);stroke-opacity:1;stroke-miterlimit:10;" d="M 227.828125 113.609375 L 160.4375 189.839844 "/>
<path style=" stroke:none;fill-rule:nonzero;fill:rgb(80%,80%,80%);fill-opacity:1;" d="M 150.988281 200.53125 L 156.964844 186.769531 L 163.910156 192.910156 L 150.988281 200.53125 "/>
<path style="fill:none;stroke-width:1;stroke-linecap:butt;stroke-linejoin:miter;stroke:rgb(20%,20%,20%);stroke-opacity:1;stroke-miterlimit:10;" d="M 217.902344 176.566406 L 240.8125 173.476562 "/>
<path style=" stroke:none;fill-rule:nonzero;fill:rgb(20%,20%,20%);fill-opacity:1;" d="M 254.949219 171.570312 L 241.429688 178.070312 L 240.191406 168.882812 L 254.949219 171.570312 "/>
<path style="fill:none;stroke-width:1;stroke-linecap:butt;stroke-linejoin:miter;stroke:rgb(20%,20%,20%);stroke-opacity:1;stroke-miterlimit:10;" d="M 217.902344 176.566406 L 166.675781 198.476562 "/>
<path style=" stroke:none;fill-rule:nonzero;fill:rgb(20%,20%,20%);fill-opacity:1;" d="M 153.558594 204.089844 L 164.851562 194.214844 L 168.5 202.738281 L 153.558594 204.089844 "/>
<path style="fill:none;stroke-width:1;stroke-linecap:butt;stroke-linejoin:miter;stroke:rgb(80%,80%,80%);stroke-opacity:1;stroke-miterlimit:10;" d="M 76.71875 113.910156 L 113.980469 177.472656 "/>
<path style=" stroke:none;fill-rule:nonzero;fill:rgb(80%,80%,80%);fill-opacity:1;" d="M 121.195312 189.78125 L 109.984375 179.816406 L 117.980469 175.128906 L 121.195312 189.78125 "/>
<path style="fill:none;stroke-width:1;stroke-linecap:butt;stroke-linejoin:miter;stroke:rgb(80%,80%,80%);stroke-opacity:1;stroke-miterlimit:10;" d="M 76.71875 113.910156 L 130.203125 188.316406 "/>
<path style=" stroke:none;fill-rule:nonzero;fill:rgb(80%,80%,80%);fill-opacity:1;" d="M 138.527344 199.902344 L 126.4375 191.023438 L 133.964844 185.613281 L 138.527344 199.902344 "/>
<path style="fill:none;stroke-width:1;stroke-linecap:butt;stroke-linejoin:miter;stroke:rgb(20%,20%,20%);stroke-opacity:1;stroke-miterlimit:10;" d="M 182.515625 306.351562 L 137.46875 219.925781 "/>
<path style=" stroke:none;fill-rule:nonzero;fill:rgb(20%,20%,20%);fill-opacity:1;" d="M 130.875 207.273438 L 141.578125 217.78125 L 133.359375 222.066406 L 130.875 207.273438 "/>
<path style="fill:none;stroke-width:1;stroke-linecap:butt;stroke-linejoin:miter;stroke:rgb(20%,20%,20%);stroke-opacity:1;stroke-miterlimit:10;" d="M 182.515625 306.351562 L 153.140625 230.644531 "/>
<path style=" stroke:none;fill-rule:nonzero;fill:rgb(20%,20%,20%);fill-opacity:1;" d="M 147.980469 217.34375 L 157.464844 228.96875 L 148.820312 232.320312 L 147.980469 217.34375 "/>
<path style="fill:none;stroke-width:1;stroke-linecap:butt;stroke-linejoin:miter;stroke:rgb(20%,20%,20%);stroke-opacity:1;stroke-miterlimit:10;" d="M 264.859375 170.234375 L 150.03125 193.574219 "/>
<path style=" stroke:none;fill-rule:nonzero;fill:rgb(20%,20%,20%);fill-opacity:1;" d="M 136.054688 196.414062 L 149.109375 189.03125 L 150.957031 198.117188 L 136.054688 196.414062 "/>
<path style="fill:none;stroke-width:1;stroke-linecap:butt;stroke-linejoin:miter;stroke:rgb(20%,20%,20%);stroke-opacity:1;stroke-miterlimit:10;" d="M 264.859375 170.234375 L 167.519531 200.761719 "/>
<path style=" stroke:none;fill-rule:nonzero;fill:rgb(20%,20%,20%);fill-opacity:1;" d="M 153.90625 205.03125 L 166.132812 196.339844 L 168.90625 205.183594 L 153.90625 205.03125 "/>
<path style="fill:none;stroke-width:1;stroke-linecap:butt;stroke-linejoin:miter;stroke:rgb(20%,20%,20%);stroke-opacity:1;stroke-miterlimit:10;" d="M 126.253906 198.40625 L 122.933594 196.644531 "/>
<path style=" stroke:none;fill-rule:nonzero;fill:rgb(20%,20%,20%);fill-opacity:1;" d="M 135.53125 203.332031 L 120.757812 200.738281 L 125.105469 192.550781 L 135.53125 203.332031 "/>
<path style="fill-rule:nonzero;fill:rgb(100%,0%,0%);fill-opacity:1;stroke-width:1;stroke-linecap:butt;stroke-linejoin:miter;stroke:rgb(0%,0%,0%);stroke-opacity:1;stroke-miterlimit:10;" d="M 391.089844 367.550781 C 391.089844 373.074219 386.613281 377.550781 381.089844 377.550781 C 375.566406 377.550781 371.089844 373.074219 371.089844 367.550781 C 371.089844 362.027344 375.566406 357.550781 381.089844 357.550781 C 386.613281 357.550781 391.089844 362.027344 391.089844 367.550781 "/>
<path style="fill-rule:nonzero;fill:rgb(100%,0%,0%);fill-opacity:1;stroke-width:1;stroke-linecap:butt;stroke-linejoin:miter;stroke:rgb(0%,0%,0%);stroke-opacity:1;stroke-miterlimit:10;" d="M 316.996094 370.816406 C 316.996094 376.339844 312.519531 380.816406 306.996094 380.816406 C 301.472656 380.816406 296.996094 376.339844 296.996094 370.816406 C 296.996094 365.292969 301.472656 360.816406 306.996094 360.816406 C 312.519531 360.816406 316.996094 365.292969 316.996094 370.816406 "/>
<path style="fill-rule:nonzero;fill:rgb(0%,0%,100%);fill-opacity:1;stroke-width:1;stroke-linecap:butt;stroke-linejoin:miter;stroke:rgb(0%,0%,0%);stroke-opacity:1;stroke-miterlimit:10;" d="M 275.902344 261.933594 C 275.902344 267.457031 271.425781 271.933594 265.902344 271.933594 C 260.382812 271.933594 255.902344 267.457031 255.902344 261.933594 C 255.902344 256.410156 260.382812 251.933594 265.902344 251.933594 C 271.425781 251.933594 275.902344 256.410156 275.902344 261.933594 "/>
<path style="fill-rule:nonzero;fill:rgb(0%,0%,100%);fill-opacity:1;stroke-width:1;stroke-linecap:butt;stroke-linejoin:miter;stroke:rgb(0%,0%,0%);stroke-opacity:1;stroke-miterlimit:10;" d="M 381.800781 312.519531 C 381.800781 318.042969 377.320312 322.519531 371.800781 322.519531 C 366.277344 322.519531 361.800781 318.042969 361.800781 312.519531 C 361.800781 306.996094 366.277344 302.519531 371.800781 302.519531 C 377.320312 302.519531 381.800781 306.996094 381.800781 312.519531 "/>
<path style="fill-rule:nonzero;fill:rgb(0%,0%,100%);fill-opacity:1;stroke-width:1;stroke-linecap:butt;stroke-linejoin:miter;stroke:rgb(0%,0%,0%);stroke-opacity:1;stroke-miterlimit:10;" d="M 471.316406 473.164062 C 471.316406 478.6875 466.839844 483.164062 461.316406 483.164062 C 455.792969 483.164062 451.316406 478.6875 451.316406 473.164062 C 451.316406 467.640625 455.792969 463.164062 461.316406 463.164062 C 466.839844 463.164062 471.316406 467.640625 471.316406 473.164062 "/>
<path style="fill-rule:nonzero;fill:rgb(100%,0%,0%);fill-opacity:1;stroke-width:1;stroke-linecap:butt;stroke-linejoin:miter;stroke:rgb(0%,0%,0%);stroke-opacity:1;stroke-miterlimit:10;" d="M 532.230469 483.203125 C 532.230469 488.726562 527.753906 493.203125 522.230469 493.203125 C 516.707031 493.203125 512.230469 488.726562 512.230469 483.203125 C 512.230469 477.683594 516.707031 473.203125 522.230469 473.203125 C 527.753906 473.203125 532.230469 477.683594 532.230469 483.203125 "/>
<path style="fill-rule:nonzero;fill:rgb(100%,0%,0%);fill-opacity:1;stroke-width:1;stroke-linecap:butt;stroke-linejoin:miter;stroke:rgb(0%,0%,0%);stroke-opacity:1;stroke-miterlimit:10;" d="M 501.082031 519.980469 C 501.082031 525.503906 496.605469 529.980469 491.082031 529.980469 C 485.558594 529.980469 481.082031 525.503906 481.082031 519.980469 C 481.082031 514.457031 485.558594 509.980469 491.082031 509.980469 C 496.605469 509.980469 501.082031 514.457031 501.082031 519.980469 "/>
<path style="fill-rule:nonzero;fill:rgb(100%,0%,0%);fill-opacity:1;stroke-width:1;stroke-linecap:butt;stroke-linejoin:miter;stroke:rgb(0%,0%,0%);stroke-opacity:1;stroke-miterlimit:10;" d="M 369.691406 281.546875 C 369.691406 287.070312 365.210938 291.546875 359.691406 291.546875 C 354.167969 291.546875 349.691406 287.070312 349.691406 281.546875 C 349.691406 276.027344 354.167969 271.546875 359.691406 271.546875 C 365.210938 271.546875 369.691406 276.027344 369.691406 281.546875 "/>
<path style="fill-rule:nonzero;fill:rgb(100%,0%,0%);fill-opacity:1;stroke-width:1;stroke-linecap:butt;stroke-linejoin:miter;stroke:rgb(0%,0%,0%);stroke-opacity:1;stroke-miterlimit:10;" d="M 236.597656 283.886719 C 236.597656 289.410156 232.121094 293.886719 226.597656 293.886719 C 221.078125 293.886719 216.597656 289.410156 216.597656 283.886719 C 216.597656 278.363281 221.078125 273.886719 226.597656 273.886719 C 232.121094 273.886719 236.597656 278.363281 236.597656 283.886719 "/>
<path style="fill-rule:nonzero;fill:rgb(100%,0%,0%);fill-opacity:1;stroke-width:1;stroke-linecap:butt;stroke-linejoin:miter;stroke:rgb(0%,0%,0%);stroke-opacity:1;stroke-miterlimit:10;" d="M 151.75 317.0625 C 151.75 322.585938 147.273438 327.0625 141.75 327.0625 C 136.226562 327.0625 131.75 322.585938 131.75 317.0625 C 131.75 311.539062 136.226562 307.0625 141.75 307.0625 C 147.273438 307.0625 151.75 311.539062 151.75 317.0625 "/>
<path style="fill-rule:nonzero;fill:rgb(100%,0%,0%);fill-opacity:1;stroke-width:1;stroke-linecap:butt;stroke-linejoin:miter;stroke:rgb(0%,0%,0%);stroke-opacity:1;stroke-miterlimit:10;" d="M 511.828125 425.847656 C 511.828125 431.371094 507.347656 435.847656 501.828125 435.847656 C 496.304688 435.847656 491.828125 431.371094 491.828125 425.847656 C 491.828125 420.324219 496.304688 415.847656 501.828125 415.847656 C 507.347656 415.847656 511.828125 420.324219 511.828125 425.847656 "/>
<path style="fill-rule:nonzero;fill:rgb(0%,0%,100%);fill-opacity:1;stroke-width:1;stroke-linecap:butt;stroke-linejoin:miter;stroke:rgb(0%,0%,0%);stroke-opacity:1;stroke-miterlimit:10;" d="M 536.558594 339.257812 C 536.558594 344.78125 532.078125 349.257812 526.558594 349.257812 C 521.035156 349.257812 516.558594 344.78125 516.558594 339.257812 C 516.558594 333.734375 521.035156 329.257812 526.558594 329.257812 C 532.078125 329.257812 536.558594 333.734375 536.558594 339.257812 "/>
<path style="fill-rule:nonzero;fill:rgb(0%,0%,100%);fill-opacity:1;stroke-width:1;stroke-linecap:butt;stroke-linejoin:miter;stroke:rgb(0%,0%,0%);stroke-opacity:1;stroke-miterlimit:10;" d="M 475.164062 299.308594 C 475.164062 304.832031 470.6875 309.308594 465.164062 309.308594 C 459.640625 309.308594 455.164062 304.832031 455.164062 299.308594 C 455.164062 293.785156 459.640625 289.308594 465.164062 289.308594 C 470.6875 289.308594 475.164062 293.785156 475.164062 299.308594 "/>
<path style="fill-rule:nonzero;fill:rgb(0%,0%,100%);fill-opacity:1;stroke-width:1;stroke-linecap:butt;stroke-linejoin:miter;stroke:rgb(0%,0%,0%);stroke-opacity:1;stroke-miterlimit:10;" d="M 299.308594 300.710938 C 299.308594 306.234375 294.832031 310.710938 289.308594 310.710938 C 283.789062 310.710938 279.308594 306.234375 279.308594 300.710938 C 279.308594 295.1875 283.789062 290.710938 289.308594 290.710938 C 294.832031 290.710938 299.308594 295.1875 299.308594 300.710938 "/>
<path style="fill-rule:nonzero;fill:rgb(0%,100%,0%);fill-opacity:1;stroke-width:1;stroke-linecap:butt;stroke-linejoin:miter;stroke:rgb(0%,0%,0%);stroke-opacity:1;stroke-miterlimit:10;" d="M 106.816406 82.191406 C 106.816406 87.714844 102.339844 92.191406 96.816406 92.191406 C 91.292969 92.191406 86.816406 87.714844 86.816406 82.191406 C 86.816406 76.671875 91.292969 72.191406 96.816406 72.191406 C 102.339844 72.191406 106.816406 76.671875 106.816406 82.191406 "/>
<path style="fill-rule:nonzero;fill:rgb(0%,0%,100%);fill-opacity:1;stroke-width:1;stroke-linecap:butt;stroke-linejoin:miter;stroke:rgb(0%,0%,0%);stroke-opacity:1;stroke-miterlimit:10;" d="M 48.390625 160.875 C 48.390625 166.398438 43.914062 170.875 38.390625 170.875 C 32.867188 170.875 28.390625 166.398438 28.390625 160.875 C 28.390625 155.351562 32.867188 150.875 38.390625 150.875 C 43.914062 150.875 48.390625 155.351562 48.390625 160.875 "/>
<path style="fill-rule:nonzero;fill:rgb(100%,0%,0%);fill-opacity:1;stroke-width:1;stroke-linecap:butt;stroke-linejoin:miter;stroke:rgb(0%,0%,0%);stroke-opacity:1;stroke-miterlimit:10;" d="M 590 580 C 590 585.523438 585.523438 590 580 590 C 574.476562 590 570 585.523438 570 580 C 570 574.476562 574.476562 570 580 570 C 585.523438 570 590 574.476562 590 580 "/>
<path style="fill-rule:nonzero;fill:rgb(100%,0%,0%);fill-opacity:1;stroke-width:1;stroke-linecap:butt;stroke-linejoin:miter;stroke:rgb(0%,0%,0%);stroke-opacity:1;stroke-miterlimit:10;" d="M 334.726562 482.71875 C 334.726562 488.242188 330.25 492.71875 324.726562 492.71875 C 319.203125 492.71875 314.726562 488.242188 314.726562 482.71875 C 314.726562 477.195312 319.203125 472.71875 324.726562 472.71875 C 330.25 472.71875 334.726562 477.195312 334.726562 482.71875 "/>
<path style="fill-rule:nonzero;fill:rgb(100%,100%,0%);fill-opacity:1;stroke-width:1;stroke-linecap:butt;stroke-linejoin:miter;stroke:rgb(0%,0%,0%);stroke-opacity:1;stroke-miterlimit:10;" d="M 64.746094 284.203125 C 64.746094 289.722656 60.265625 294.203125 54.746094 294.203125 C 49.222656 294.203125 44.746094 289.722656 44.746094 284.203125 C 44.746094 278.679688 49.222656 274.203125 54.746094 274.203125 C 60.265625 274.203125 64.746094 278.679688 64.746094 284.203125 "/>
<path style="fill-rule:nonzero;fill:rgb(0%,0%,100%);fill-opacity:1;stroke-width:1;stroke-linecap:butt;stroke-linejoin:miter;stroke:rgb(0%,0%,0%);stroke-opacity:1;stroke-miterlimit:10;" d="M 255.589844 353.902344 C 255.589844 359.425781 251.113281 363.902344 245.589844 363.902344 C 240.066406 363.902344 235.589844 359.425781 235.589844 353.902344 C 235.589844 348.378906 240.066406 343.902344 245.589844 343.902344 C 251.113281 343.902344 255.589844 348.378906 255.589844 353.902344 "/>
<path style="fill-rule:nonzero;fill:rgb(100%,0%,100%);fill-opacity:1;stroke-width:1;stroke-linecap:butt;stroke-linejoin:miter;stroke:rgb(0%,0%,0%);stroke-opacity:1;stroke-miterlimit:10;" d="M 41.78125 244.996094 C 41.78125 250.515625 37.300781 254.996094 31.78125 254.996094 C 26.257812 254.996094 21.78125 250.515625 21.78125 244.996094 C 21.78125 239.472656 26.257812 234.996094 31.78125 234.996094 C 37.300781 234.996094 41.78125 239.472656 41.78125 244.996094 "/>
<path style="fill-rule:nonzero;fill:rgb(100%,0%,0%);fill-opacity:1;stroke-width:1;stroke-linecap:butt;stroke-linejoin:miter;stroke:rgb(0%,0%,0%);stroke-opacity:1;stroke-miterlimit:10;" d="M 379.222656 470.816406 C 379.222656 476.335938 374.742188 480.816406 369.222656 480.816406 C 363.699219 480.816406 359.222656 476.335938 359.222656 470.816406 C 359.222656 465.292969 363.699219 460.816406 369.222656 460.816406 C 374.742188 460.816406 379.222656 465.292969 379.222656 470.816406 "/>
<path style="fill-rule:nonzero;fill:rgb(0%,100%,100%);fill-opacity:1;stroke-width:1;stroke-linecap:butt;stroke-linejoin:miter;stroke:rgb(0%,0%,0%);stroke-opacity:1;stroke-miterlimit:10;" d="M 30.097656 201.671875 C 30.097656 207.191406 25.621094 211.671875 20.097656 211.671875 C 14.574219 211.671875 10.097656 207.191406 10.097656 201.671875 C 10.097656 196.148438 14.574219 191.671875 20.097656 191.671875 C 25.621094 191.671875 30.097656 196.148438 30.097656 201.671875 "/>
<path style="fill-rule:nonzero;fill:rgb(50.196078%,50.196078%,50.196078%);fill-opacity:1;stroke-width:1;stroke-linecap:butt;stroke-linejoin:miter;stroke:rgb(0%,0%,0%);stroke-opacity:1;stroke-miterlimit:10;" d="M 165.578125 84.542969 C 165.578125 90.066406 161.101562 94.542969 155.578125 94.542969 C 150.054688 94.542969 145.578125 90.066406 145.578125 84.542969 C 145.578125 79.019531 150.054688 74.542969 155.578125 74.542969 C 161.101562 74.542969 165.578125 79.019531 165.578125 84.542969 "/>
<path style="fill-rule:nonzero;fill:rgb(50%,0%,0%);fill-opacity:1;stroke-width:1;stroke-linecap:butt;stroke-linejoin:miter;stroke:rgb(0%,0%,0%);stroke-opacity:1;stroke-miterlimit:10;" d="M 303.378906 36.304688 C 303.378906 41.828125 298.902344 46.304688 293.378906 46.304688 C 287.859375 46.304688 283.378906 41.828125 283.378906 36.304688 C 283.378906 30.78125 287.859375 26.304688 293.378906 26.304688 C 298.902344 26.304688 303.378906 30.78125 303.378906 36.304688 "/>
<path style="fill-rule:nonzero;fill:rgb(50%,0%,0%);fill-opacity:1;stroke-width:1;stroke-linecap:butt;stroke-linejoin:miter;stroke:rgb(0%,0%,0%);stroke-opacity:1;stroke-miterlimit:10;" d="M 249.292969 20 C 249.292969 25.523438 244.816406 30 239.292969 30 C 233.769531 30 229.292969 25.523438 229.292969 20 C 229.292969 14.476562 233.769531 10 239.292969 10 C 244.816406 10 249.292969 14.476562 249.292969 20 "/>
<path style="fill-rule:nonzero;fill:rgb(0%,50%,0%);fill-opacity:1;stroke-width:1;stroke-linecap:butt;stroke-linejoin:miter;stroke:rgb(0%,0%,0%);stroke-opacity:1;stroke-miterlimit:10;" d="M 30 92.714844 C 30 98.234375 25.523438 102.714844 20 102.714844 C 14.476562 102.714844 10 98.234375 10 92.714844 C 10 87.191406 14.476562 82.714844 20 82.714844 C 25.523438 82.714844 30 87.191406 30 92.714844 "/>
<path style="fill-rule:nonzero;fill:rgb(50%,0%,0%);fill-opacity:1;stroke-width:1;stroke-linecap:butt;stroke-linejoin:miter;stroke:rgb(0%,0%,0%);stroke-opacity:1;stroke-miterlimit:10;" d="M 237.828125 113.609375 C 237.828125 119.132812 233.351562 123.609375 227.828125 123.609375 C 222.304688 123.609375 217.828125 119.132812 217.828125 113.609375 C 217.828125 108.085938 222.304688 103.609375 227.828125 103.609375 C 233.351562 103.609375 237.828125 108.085938 237.828125 113.609375 "/>
<path style="fill-rule:nonzero;fill:rgb(100%,0%,0%);fill-opacity:1;stroke-width:1;stroke-linecap:butt;stroke-linejoin:miter;stroke:rgb(0%,0%,0%);stroke-opacity:1;stroke-miterlimit:10;" d="M 227.902344 176.566406 C 227.902344 182.089844 223.425781 186.566406 217.902344 186.566406 C 212.378906 186.566406 207.902344 182.089844 207.902344 176.566406 C 207.902344 171.042969 212.378906 166.566406 217.902344 166.566406 C 223.425781 166.566406 227.902344 171.042969 227.902344 176.566406 "/>
<path style="fill-rule:nonzero;fill:rgb(50.196078%,50.196078%,50.196078%);fill-opacity:1;stroke-width:1;stroke-linecap:butt;stroke-linejoin:miter;stroke:rgb(0%,0%,0%);stroke-opacity:1;stroke-miterlimit:10;" d="M 86.71875 113.910156 C 86.71875 119.429688 82.242188 123.910156 76.71875 123.910156 C 71.195312 123.910156 66.71875 119.429688 66.71875 113.910156 C 66.71875 108.386719 71.195312 103.910156 76.71875 103.910156 C 82.242188 103.910156 86.71875 108.386719 86.71875 113.910156 "/>
<path style="fill-rule:nonzero;fill:rgb(100%,0%,0%);fill-opacity:1;stroke-width:1;stroke-linecap:butt;stroke-linejoin:miter;stroke:rgb(0%,0%,0%);stroke-opacity:1;stroke-miterlimit:10;" d="M 192.515625 306.351562 C 192.515625 311.875 188.039062 316.351562 182.515625 316.351562 C 176.992188 316.351562 172.515625 311.875 172.515625 306.351562 C 172.515625 300.828125 176.992188 296.351562 182.515625 296.351562 C 188.039062 296.351562 192.515625 300.828125 192.515625 306.351562 "/>
<path style="fill-rule:nonzero;fill:rgb(100%,0%,0%);fill-opacity:1;stroke-width:1;stroke-linecap:butt;stroke-linejoin:miter;stroke:rgb(0%,0%,0%);stroke-opacity:1;stroke-miterlimit:10;" d="M 274.859375 170.234375 C 274.859375 175.757812 270.382812 180.234375 264.859375 180.234375 C 259.335938 180.234375 254.859375 175.757812 254.859375 170.234375 C 254.859375 164.710938 259.335938 160.234375 264.859375 160.234375 C 270.382812 160.234375 274.859375 164.710938 274.859375 170.234375 "/>
<path style="fill-rule:nonzero;fill:rgb(100%,0%,0%);fill-opacity:1;stroke-width:1;stroke-linecap:butt;stroke-linejoin:miter;stroke:rgb(0%,0%,0%);stroke-opacity:1;stroke-miterlimit:10;" d="M 136.253906 198.40625 C 136.253906 203.929688 131.777344 208.40625 126.253906 208.40625 C 120.730469 208.40625 116.253906 203.929688 116.253906 198.40625 C 116.253906 192.882812 120.730469 188.40625 126.253906 188.40625 C 131.777344 188.40625 136.253906 192.882812 136.253906 198.40625 "/>
<path style="fill-rule:nonzero;fill:rgb(100%,0%,0%);fill-opacity:1;stroke-width:1;stroke-linecap:butt;stroke-linejoin:miter;stroke:rgb(0%,0%,0%);stroke-opacity:1;stroke-miterlimit:10;" d="M 154.363281 208.023438 C 154.363281 213.542969 149.886719 218.023438 144.363281 218.023438 C 138.84375 218.023438 134.363281 213.542969 134.363281 208.023438 C 134.363281 202.5 138.84375 198.023438 144.363281 198.023438 C 149.886719 198.023438 154.363281 202.5 154.363281 208.023438 "/>
</g>
</svg>
