<?xml version="1.0" encoding="UTF-8"?>
<svg xmlns="http://www.w3.org/2000/svg" xmlns:xlink="http://www.w3.org/1999/xlink" width="600pt" height="600pt" viewBox="0 0 600 600" version="1.1">
<g id="surface86">
<rect x="0" y="0" width="600" height="600" style="fill:rgb(100%,100%,100%);fill-opacity:1;stroke:none;"/>
<path style="fill-rule:nonzero;fill:rgb(100%,0%,0%);fill-opacity:0.25;stroke-width:2;stroke-linecap:butt;stroke-linejoin:miter;stroke:rgb(100%,0%,0%);stroke-opacity:1;stroke-miterlimit:10;" d="M 461.488281 161.679688 L 414.652344 135.773438 C 403.710938 129.722656 380.3125 124.664062 367.851562 125.65625 L 200.367188 138.980469 C 187.90625 139.972656 168.429688 151.308594 161.410156 161.652344 L 10.011719 384.859375 C 2.996094 395.203125 4.625 414.574219 13.269531 423.605469 L 160.425781 577.257812 C 169.074219 586.285156 187.886719 588.039062 198.054688 580.769531 L 402.101562 434.878906 C 412.269531 427.609375 428.703125 409.519531 434.96875 398.703125 L 440.515625 389.128906 C 446.78125 378.3125 454.976562 355.148438 456.910156 342.796875 L 479.5 198.480469 C 481.429688 186.132812 472.425781 167.730469 461.488281 161.679688 "/>
<path style="fill-rule:nonzero;fill:rgb(50.196078%,50.196078%,50.196078%);fill-opacity:0.25;stroke-width:2;stroke-linecap:butt;stroke-linejoin:miter;stroke:rgb(50.196078%,50.196078%,50.196078%);stroke-opacity:1;stroke-miterlimit:10;" d="M 500.421875 523.875 L 514.765625 349.15625 C 515.789062 336.699219 508.121094 333.222656 499.429688 342.207031 L 449.070312 394.265625 C 440.382812 403.25 437.175781 423.46875 442.660156 434.699219 L 487.402344 526.328125 C 492.890625 537.558594 499.398438 536.335938 500.421875 523.875 "/>
<path style="fill-rule:nonzero;fill:rgb(0%,50%,0%);fill-opacity:0.25;stroke-width:2;stroke-linecap:butt;stroke-linejoin:miter;stroke:rgb(0%,50%,0%);stroke-opacity:1;stroke-miterlimit:10;" d="M 597.675781 168 C 597.839844 176.839844 591.871094 192.042969 585.738281 198.40625 L 567.039062 217.816406 C 560.90625 224.179688 545.9375 230.710938 537.097656 230.875 C 528.261719 231.039062 519.261719 222.363281 519.09375 213.527344 C 518.929688 204.691406 524.898438 189.488281 531.03125 183.121094 L 549.730469 163.714844 C 555.863281 157.351562 570.832031 150.820312 579.671875 150.65625 C 588.507812 150.492188 597.511719 159.164062 597.675781 168 "/>
<path style="fill:none;stroke-width:1;stroke-linecap:butt;stroke-linejoin:miter;stroke:rgb(20%,20%,20%);stroke-opacity:1;stroke-miterlimit:10;" d="M 238.089844 344.242188 L 268.8125 301.136719 "/>
<path style=" stroke:none;fill-rule:nonzero;fill:rgb(20%,20%,20%);fill-opacity:1;" d="M 277.09375 289.519531 L 272.585938 303.828125 L 265.039062 298.449219 L 277.09375 289.519531 "/>
<path style="fill:none;stroke-width:1;stroke-linecap:butt;stroke-linejoin:miter;stroke:rgb(20%,20%,20%);stroke-opacity:1;stroke-miterlimit:10;" d="M 238.089844 344.242188 L 329.839844 325.703125 "/>
<path style=" stroke:none;fill-rule:nonzero;fill:rgb(20%,20%,20%);fill-opacity:1;" d="M 343.824219 322.878906 L 330.757812 330.246094 L 328.921875 321.160156 L 343.824219 322.878906 "/>
<path style="fill:none;stroke-width:1;stroke-linecap:butt;stroke-linejoin:miter;stroke:rgb(20%,20%,20%);stroke-opacity:1;stroke-miterlimit:10;" d="M 238.089844 344.242188 L 253.742188 270.136719 "/>
<path style=" stroke:none;fill-rule:nonzero;fill:rgb(20%,20%,20%);fill-opacity:1;" d="M 256.691406 256.179688 L 258.277344 271.09375 L 249.207031 269.179688 L 256.691406 256.179688 "/>
<path style="fill:none;stroke-width:1;stroke-linecap:butt;stroke-linejoin:miter;stroke:rgb(20%,20%,20%);stroke-opacity:1;stroke-miterlimit:10;" d="M 238.089844 344.242188 L 162.996094 357.773438 "/>
<path style=" stroke:none;fill-rule:nonzero;fill:rgb(20%,20%,20%);fill-opacity:1;" d="M 148.957031 360.300781 L 162.175781 353.210938 L 163.816406 362.332031 L 148.957031 360.300781 "/>
<path style="fill:none;stroke-width:1;stroke-linecap:butt;stroke-linejoin:miter;stroke:rgb(20%,20%,20%);stroke-opacity:1;stroke-miterlimit:10;" d="M 238.089844 344.242188 L 123.277344 407.046875 "/>
<path style=" stroke:none;fill-rule:nonzero;fill:rgb(20%,20%,20%);fill-opacity:1;" d="M 110.761719 413.894531 L 121.054688 402.980469 L 125.5 411.113281 L 110.761719 413.894531 "/>
<path style="fill:none;stroke-width:1;stroke-linecap:butt;stroke-linejoin:miter;stroke:rgb(20%,20%,20%);stroke-opacity:1;stroke-miterlimit:10;" d="M 238.089844 344.242188 L 123.292969 341.539062 "/>
<path style=" stroke:none;fill-rule:nonzero;fill:rgb(20%,20%,20%);fill-opacity:1;" d="M 109.03125 341.203125 L 123.402344 336.90625 L 123.183594 346.171875 L 109.03125 341.203125 "/>
<path style="fill:none;stroke-width:1;stroke-linecap:butt;stroke-linejoin:miter;stroke:rgb(20%,20%,20%);stroke-opacity:1;stroke-miterlimit:10;" d="M 238.089844 344.242188 L 262.425781 367.007812 "/>
<path style=" stroke:none;fill-rule:nonzero;fill:rgb(20%,20%,20%);fill-opacity:1;" d="M 272.84375 376.753906 L 259.261719 370.394531 L 265.59375 363.625 L 272.84375 376.753906 "/>
<path style="fill:none;stroke-width:1;stroke-linecap:butt;stroke-linejoin:miter;stroke:rgb(20%,20%,20%);stroke-opacity:1;stroke-miterlimit:10;" d="M 238.089844 344.242188 L 347.726562 246.386719 "/>
<path style=" stroke:none;fill-rule:nonzero;fill:rgb(20%,20%,20%);fill-opacity:1;" d="M 358.371094 236.886719 L 350.8125 249.847656 L 344.640625 242.929688 L 358.371094 236.886719 "/>
<path style="fill:none;stroke-width:1;stroke-linecap:butt;stroke-linejoin:miter;stroke:rgb(20%,20%,20%);stroke-opacity:1;stroke-miterlimit:10;" d="M 238.089844 344.242188 L 158.21875 442.019531 "/>
<path style=" stroke:none;fill-rule:nonzero;fill:rgb(20%,20%,20%);fill-opacity:1;" d="M 149.191406 453.070312 L 154.628906 439.089844 L 161.808594 444.953125 L 149.191406 453.070312 "/>
<path style="fill:none;stroke-width:1;stroke-linecap:butt;stroke-linejoin:miter;stroke:rgb(20%,20%,20%);stroke-opacity:1;stroke-miterlimit:10;" d="M 238.089844 344.242188 L 192.828125 548.648438 "/>
<path style=" stroke:none;fill-rule:nonzero;fill:rgb(20%,20%,20%);fill-opacity:1;" d="M 189.742188 562.574219 L 188.300781 547.644531 L 197.351562 549.648438 L 189.742188 562.574219 "/>
<path style="fill:none;stroke-width:1;stroke-linecap:butt;stroke-linejoin:miter;stroke:rgb(20%,20%,20%);stroke-opacity:1;stroke-miterlimit:10;" d="M 238.089844 344.242188 L 195.734375 185.089844 "/>
<path style=" stroke:none;fill-rule:nonzero;fill:rgb(20%,20%,20%);fill-opacity:1;" d="M 192.066406 171.304688 L 200.214844 183.898438 L 191.253906 186.285156 L 192.066406 171.304688 "/>
<path style="fill:none;stroke-width:1;stroke-linecap:butt;stroke-linejoin:miter;stroke:rgb(20%,20%,20%);stroke-opacity:1;stroke-miterlimit:10;" d="M 238.089844 344.242188 L 306.421875 282.914062 "/>
<path style=" stroke:none;fill-rule:nonzero;fill:rgb(20%,20%,20%);fill-opacity:1;" d="M 317.039062 273.386719 L 309.515625 286.363281 L 303.324219 279.464844 L 317.039062 273.386719 "/>
<path style="fill:none;stroke-width:1;stroke-linecap:butt;stroke-linejoin:miter;stroke:rgb(20%,20%,20%);stroke-opacity:1;stroke-miterlimit:10;" d="M 238.089844 344.242188 L 231.074219 429.558594 "/>
<path style=" stroke:none;fill-rule:nonzero;fill:rgb(20%,20%,20%);fill-opacity:1;" d="M 229.902344 443.773438 L 226.453125 429.175781 L 235.691406 429.9375 L 229.902344 443.773438 "/>
<path style="fill:none;stroke-width:1;stroke-linecap:butt;stroke-linejoin:miter;stroke:rgb(20%,20%,20%);stroke-opacity:1;stroke-miterlimit:10;" d="M 238.089844 344.242188 L 311.207031 207.878906 "/>
<path style=" stroke:none;fill-rule:nonzero;fill:rgb(20%,20%,20%);fill-opacity:1;" d="M 317.949219 195.304688 L 315.292969 210.066406 L 307.125 205.6875 L 317.949219 195.304688 "/>
<path style="fill:none;stroke-width:1;stroke-linecap:butt;stroke-linejoin:miter;stroke:rgb(20%,20%,20%);stroke-opacity:1;stroke-miterlimit:10;" d="M 238.089844 344.242188 L 204.566406 268.671875 "/>
<path style=" stroke:none;fill-rule:nonzero;fill:rgb(20%,20%,20%);fill-opacity:1;" d="M 198.78125 255.632812 L 208.804688 266.792969 L 200.332031 270.554688 L 198.78125 255.632812 "/>
<path style="fill:none;stroke-width:1;stroke-linecap:butt;stroke-linejoin:miter;stroke:rgb(20%,20%,20%);stroke-opacity:1;stroke-miterlimit:10;" d="M 238.089844 344.242188 L 380.171875 396.320312 "/>
<path style=" stroke:none;fill-rule:nonzero;fill:rgb(20%,20%,20%);fill-opacity:1;" d="M 393.566406 401.226562 L 378.578125 400.671875 L 381.769531 391.96875 L 393.566406 401.226562 "/>
<path style="fill:none;stroke-width:1;stroke-linecap:butt;stroke-linejoin:miter;stroke:rgb(20%,20%,20%);stroke-opacity:1;stroke-miterlimit:10;" d="M 282.898438 281.378906 L 332.441406 309.0625 "/>
<path style=" stroke:none;fill-rule:nonzero;fill:rgb(20%,20%,20%);fill-opacity:1;" d="M 344.894531 316.019531 L 330.179688 313.105469 L 334.703125 305.015625 L 344.894531 316.019531 "/>
<path style="fill:none;stroke-width:1;stroke-linecap:butt;stroke-linejoin:miter;stroke:rgb(20%,20%,20%);stroke-opacity:1;stroke-miterlimit:10;" d="M 282.898438 281.378906 L 272.539062 266.367188 "/>
<path style=" stroke:none;fill-rule:nonzero;fill:rgb(20%,20%,20%);fill-opacity:1;" d="M 264.4375 254.625 L 276.355469 263.734375 L 268.722656 269 L 264.4375 254.625 "/>
<path style="fill:none;stroke-width:1;stroke-linecap:butt;stroke-linejoin:miter;stroke:rgb(20%,20%,20%);stroke-opacity:1;stroke-miterlimit:10;" d="M 282.898438 281.378906 L 280.800781 359.328125 "/>
<path style=" stroke:none;fill-rule:nonzero;fill:rgb(20%,20%,20%);fill-opacity:1;" d="M 280.417969 373.589844 L 276.167969 359.203125 L 285.433594 359.453125 L 280.417969 373.589844 "/>
<path style="fill:none;stroke-width:1;stroke-linecap:butt;stroke-linejoin:miter;stroke:rgb(20%,20%,20%);stroke-opacity:1;stroke-miterlimit:10;" d="M 282.898438 281.378906 L 301.597656 274.78125 "/>
<path style=" stroke:none;fill-rule:nonzero;fill:rgb(20%,20%,20%);fill-opacity:1;" d="M 315.050781 270.035156 L 303.136719 279.152344 L 300.054688 270.410156 L 315.050781 270.035156 "/>
<path style="fill:none;stroke-width:1;stroke-linecap:butt;stroke-linejoin:miter;stroke:rgb(20%,20%,20%);stroke-opacity:1;stroke-miterlimit:10;" d="M 282.898438 281.378906 L 236.316406 430.578125 "/>
<path style=" stroke:none;fill-rule:nonzero;fill:rgb(20%,20%,20%);fill-opacity:1;" d="M 232.0625 444.195312 L 231.890625 429.195312 L 240.738281 431.960938 L 232.0625 444.195312 "/>
<path style="fill:none;stroke-width:1;stroke-linecap:butt;stroke-linejoin:miter;stroke:rgb(20%,20%,20%);stroke-opacity:1;stroke-miterlimit:10;" d="M 282.898438 281.378906 L 313.292969 208.871094 "/>
<path style=" stroke:none;fill-rule:nonzero;fill:rgb(20%,20%,20%);fill-opacity:1;" d="M 318.808594 195.714844 L 317.570312 210.664062 L 309.019531 207.078125 L 318.808594 195.714844 "/>
<path style="fill:none;stroke-width:1;stroke-linecap:butt;stroke-linejoin:miter;stroke:rgb(20%,20%,20%);stroke-opacity:1;stroke-miterlimit:10;" d="M 282.898438 281.378906 L 217.292969 255.421875 "/>
<path style=" stroke:none;fill-rule:nonzero;fill:rgb(20%,20%,20%);fill-opacity:1;" d="M 204.027344 250.171875 L 218.996094 251.109375 L 215.585938 259.730469 L 204.027344 250.171875 "/>
<path style="fill:none;stroke-width:1;stroke-linecap:butt;stroke-linejoin:miter;stroke:rgb(20%,20%,20%);stroke-opacity:1;stroke-miterlimit:10;" d="M 282.898438 281.378906 L 367.394531 165.683594 "/>
<path style=" stroke:none;fill-rule:nonzero;fill:rgb(20%,20%,20%);fill-opacity:1;" d="M 375.808594 154.164062 L 371.136719 168.417969 L 363.652344 162.949219 L 375.808594 154.164062 "/>
<path style="fill:none;stroke-width:1;stroke-linecap:butt;stroke-linejoin:miter;stroke:rgb(20%,20%,20%);stroke-opacity:1;stroke-miterlimit:10;" d="M 353.625 320.898438 L 277.84375 261.382812 "/>
<path style=" stroke:none;fill-rule:nonzero;fill:rgb(20%,20%,20%);fill-opacity:1;" d="M 266.621094 252.570312 L 280.703125 257.734375 L 274.980469 265.027344 L 266.621094 252.570312 "/>
<path style="fill:none;stroke-width:1;stroke-linecap:butt;stroke-linejoin:miter;stroke:rgb(20%,20%,20%);stroke-opacity:1;stroke-miterlimit:10;" d="M 353.625 320.898438 L 298.609375 367.835938 "/>
<path style=" stroke:none;fill-rule:nonzero;fill:rgb(20%,20%,20%);fill-opacity:1;" d="M 287.753906 377.097656 L 295.601562 364.3125 L 301.617188 371.363281 L 287.753906 377.097656 "/>
<path style="fill:none;stroke-width:1;stroke-linecap:butt;stroke-linejoin:miter;stroke:rgb(20%,20%,20%);stroke-opacity:1;stroke-miterlimit:10;" d="M 353.625 320.898438 L 362.59375 254.277344 "/>
<path style=" stroke:none;fill-rule:nonzero;fill:rgb(20%,20%,20%);fill-opacity:1;" d="M 364.496094 240.140625 L 367.1875 254.898438 L 358 253.660156 L 364.496094 240.140625 "/>
<path style="fill:none;stroke-width:1;stroke-linecap:butt;stroke-linejoin:miter;stroke:rgb(20%,20%,20%);stroke-opacity:1;stroke-miterlimit:10;" d="M 353.625 320.898438 L 397.261719 280.167969 "/>
<path style=" stroke:none;fill-rule:nonzero;fill:rgb(20%,20%,20%);fill-opacity:1;" d="M 407.691406 270.433594 L 400.425781 283.558594 L 394.101562 276.78125 L 407.691406 270.433594 "/>
<path style="fill:none;stroke-width:1;stroke-linecap:butt;stroke-linejoin:miter;stroke:rgb(20%,20%,20%);stroke-opacity:1;stroke-miterlimit:10;" d="M 353.625 320.898438 L 335.972656 288.078125 "/>
<path style=" stroke:none;fill-rule:nonzero;fill:rgb(20%,20%,20%);fill-opacity:1;" d="M 329.214844 275.511719 L 340.054688 285.882812 L 331.890625 290.273438 L 329.214844 275.511719 "/>
<path style="fill:none;stroke-width:1;stroke-linecap:butt;stroke-linejoin:miter;stroke:rgb(80%,80%,80%);stroke-opacity:1;stroke-miterlimit:10;" d="M 353.625 320.898438 L 438.027344 403.222656 "/>
<path style=" stroke:none;fill-rule:nonzero;fill:rgb(80%,80%,80%);fill-opacity:1;" d="M 448.238281 413.183594 L 434.792969 406.542969 L 441.265625 399.90625 L 448.238281 413.183594 "/>
<path style="fill:none;stroke-width:1;stroke-linecap:butt;stroke-linejoin:miter;stroke:rgb(20%,20%,20%);stroke-opacity:1;stroke-miterlimit:10;" d="M 353.625 320.898438 L 407.628906 348.921875 "/>
<path style=" stroke:none;fill-rule:nonzero;fill:rgb(20%,20%,20%);fill-opacity:1;" d="M 420.289062 355.492188 L 405.492188 353.035156 L 409.761719 344.804688 L 420.289062 355.492188 "/>
<path style="fill:none;stroke-width:1;stroke-linecap:butt;stroke-linejoin:miter;stroke:rgb(20%,20%,20%);stroke-opacity:1;stroke-miterlimit:10;" d="M 353.625 320.898438 L 448.066406 207.742188 "/>
<path style=" stroke:none;fill-rule:nonzero;fill:rgb(20%,20%,20%);fill-opacity:1;" d="M 457.207031 196.789062 L 451.625 210.710938 L 444.507812 204.769531 L 457.207031 196.789062 "/>
<path style="fill:none;stroke-width:1;stroke-linecap:butt;stroke-linejoin:miter;stroke:rgb(20%,20%,20%);stroke-opacity:1;stroke-miterlimit:10;" d="M 258.757812 246.394531 L 276.410156 359.609375 "/>
<path style=" stroke:none;fill-rule:nonzero;fill:rgb(20%,20%,20%);fill-opacity:1;" d="M 278.609375 373.707031 L 271.828125 360.324219 L 280.988281 358.894531 L 278.609375 373.707031 "/>
<path style="fill:none;stroke-width:1;stroke-linecap:butt;stroke-linejoin:miter;stroke:rgb(20%,20%,20%);stroke-opacity:1;stroke-miterlimit:10;" d="M 258.757812 246.394531 L 204.847656 180.429688 "/>
<path style=" stroke:none;fill-rule:nonzero;fill:rgb(20%,20%,20%);fill-opacity:1;" d="M 195.820312 169.386719 L 208.4375 177.496094 L 201.261719 183.363281 L 195.820312 169.386719 "/>
<path style="fill:none;stroke-width:1;stroke-linecap:butt;stroke-linejoin:miter;stroke:rgb(20%,20%,20%);stroke-opacity:1;stroke-miterlimit:10;" d="M 258.757812 246.394531 L 301.296875 259.542969 "/>
<path style=" stroke:none;fill-rule:nonzero;fill:rgb(20%,20%,20%);fill-opacity:1;" d="M 314.925781 263.753906 L 299.925781 263.96875 L 302.664062 255.113281 L 314.925781 263.753906 "/>
<path style="fill:none;stroke-width:1;stroke-linecap:butt;stroke-linejoin:miter;stroke:rgb(20%,20%,20%);stroke-opacity:1;stroke-miterlimit:10;" d="M 139.113281 362.074219 L 120.503906 352.273438 "/>
<path style=" stroke:none;fill-rule:nonzero;fill:rgb(20%,20%,20%);fill-opacity:1;" d="M 107.882812 345.628906 L 122.664062 348.171875 L 118.34375 356.375 L 107.882812 345.628906 "/>
<path style="fill:none;stroke-width:1;stroke-linecap:butt;stroke-linejoin:miter;stroke:rgb(20%,20%,20%);stroke-opacity:1;stroke-miterlimit:10;" d="M 139.113281 362.074219 L 141.945312 436.566406 "/>
<path style=" stroke:none;fill-rule:nonzero;fill:rgb(20%,20%,20%);fill-opacity:1;" d="M 142.484375 450.820312 L 137.3125 436.742188 L 146.578125 436.390625 L 142.484375 450.820312 "/>
<path style="fill:none;stroke-width:1;stroke-linecap:butt;stroke-linejoin:miter;stroke:rgb(20%,20%,20%);stroke-opacity:1;stroke-miterlimit:10;" d="M 101.988281 418.691406 L 99.957031 365.214844 "/>
<path style=" stroke:none;fill-rule:nonzero;fill:rgb(20%,20%,20%);fill-opacity:1;" d="M 99.414062 350.960938 L 104.589844 365.039062 L 95.324219 365.390625 L 99.414062 350.960938 "/>
<path style="fill:none;stroke-width:1;stroke-linecap:butt;stroke-linejoin:miter;stroke:rgb(20%,20%,20%);stroke-opacity:1;stroke-miterlimit:10;" d="M 101.988281 418.691406 L 125.964844 443.398438 "/>
<path style=" stroke:none;fill-rule:nonzero;fill:rgb(20%,20%,20%);fill-opacity:1;" d="M 135.902344 453.636719 L 122.640625 446.628906 L 129.292969 440.171875 L 135.902344 453.636719 "/>
<path style="fill:none;stroke-width:1;stroke-linecap:butt;stroke-linejoin:miter;stroke:rgb(20%,20%,20%);stroke-opacity:1;stroke-miterlimit:10;" d="M 101.988281 418.691406 L 43.570312 404.390625 "/>
<path style=" stroke:none;fill-rule:nonzero;fill:rgb(20%,20%,20%);fill-opacity:1;" d="M 29.714844 401 L 44.671875 399.890625 L 42.46875 408.894531 L 29.714844 401 "/>
<path style="fill:none;stroke-width:1;stroke-linecap:butt;stroke-linejoin:miter;stroke:rgb(20%,20%,20%);stroke-opacity:1;stroke-miterlimit:10;" d="M 99.035156 340.96875 L 39.605469 384.320312 "/>
<path style=" stroke:none;fill-rule:nonzero;fill:rgb(20%,20%,20%);fill-opacity:1;" d="M 28.078125 392.730469 L 36.871094 380.578125 L 42.335938 388.066406 L 28.078125 392.730469 "/>
<path style="fill:none;stroke-width:1;stroke-linecap:butt;stroke-linejoin:miter;stroke:rgb(20%,20%,20%);stroke-opacity:1;stroke-miterlimit:10;" d="M 365.828125 230.230469 L 377.207031 169.933594 "/>
<path style=" stroke:none;fill-rule:nonzero;fill:rgb(20%,20%,20%);fill-opacity:1;" d="M 379.851562 155.914062 L 381.761719 170.792969 L 372.652344 169.074219 L 379.851562 155.914062 "/>
<path style="fill:none;stroke-width:1;stroke-linecap:butt;stroke-linejoin:miter;stroke:rgb(20%,20%,20%);stroke-opacity:1;stroke-miterlimit:10;" d="M 365.828125 230.230469 L 441.246094 198.515625 "/>
<path style=" stroke:none;fill-rule:nonzero;fill:rgb(20%,20%,20%);fill-opacity:1;" d="M 454.398438 192.988281 L 443.042969 202.789062 L 439.449219 194.242188 L 454.398438 192.988281 "/>
<path style="fill:none;stroke-width:1;stroke-linecap:butt;stroke-linejoin:miter;stroke:rgb(20%,20%,20%);stroke-opacity:1;stroke-miterlimit:10;" d="M 365.828125 230.230469 L 429.675781 219.054688 "/>
<path style=" stroke:none;fill-rule:nonzero;fill:rgb(20%,20%,20%);fill-opacity:1;" d="M 443.730469 216.59375 L 430.476562 223.621094 L 428.878906 214.488281 L 443.730469 216.59375 "/>
<path style="fill:none;stroke-width:1;stroke-linecap:butt;stroke-linejoin:miter;stroke:rgb(20%,20%,20%);stroke-opacity:1;stroke-miterlimit:10;" d="M 415.003906 263.613281 L 438.519531 233.898438 "/>
<path style=" stroke:none;fill-rule:nonzero;fill:rgb(20%,20%,20%);fill-opacity:1;" d="M 447.375 222.710938 L 442.15625 236.773438 L 434.886719 231.019531 L 447.375 222.710938 "/>
<path style="fill:none;stroke-width:1;stroke-linecap:butt;stroke-linejoin:miter;stroke:rgb(20%,20%,20%);stroke-opacity:1;stroke-miterlimit:10;" d="M 324.480469 266.707031 L 431.0625 223.910156 "/>
<path style=" stroke:none;fill-rule:nonzero;fill:rgb(20%,20%,20%);fill-opacity:1;" d="M 444.300781 218.597656 L 432.789062 228.214844 L 429.335938 219.609375 L 444.300781 218.597656 "/>
<path style="fill:none;stroke-width:1;stroke-linecap:butt;stroke-linejoin:miter;stroke:rgb(80%,80%,80%);stroke-opacity:1;stroke-miterlimit:10;" d="M 454.742188 20 L 462.34375 164.878906 "/>
<path style=" stroke:none;fill-rule:nonzero;fill:rgb(80%,80%,80%);fill-opacity:1;" d="M 463.089844 179.125 L 457.714844 165.121094 L 466.972656 164.636719 L 463.089844 179.125 "/>
<path style="fill:none;stroke-width:1;stroke-linecap:butt;stroke-linejoin:miter;stroke:rgb(80%,80%,80%);stroke-opacity:1;stroke-miterlimit:10;" d="M 454.742188 20 L 453.726562 190.605469 "/>
<path style=" stroke:none;fill-rule:nonzero;fill:rgb(80%,80%,80%);fill-opacity:1;" d="M 453.640625 204.871094 L 449.089844 190.578125 L 458.359375 190.632812 L 453.640625 204.871094 "/>
<path style="fill:none;stroke-width:1;stroke-linecap:butt;stroke-linejoin:miter;stroke:rgb(80%,80%,80%);stroke-opacity:1;stroke-miterlimit:10;" d="M 518.152344 52.8125 L 472.628906 166.582031 "/>
<path style=" stroke:none;fill-rule:nonzero;fill:rgb(80%,80%,80%);fill-opacity:1;" d="M 467.332031 179.828125 L 468.328125 164.859375 L 476.933594 168.304688 L 467.332031 179.828125 "/>
<path style="fill:none;stroke-width:1;stroke-linecap:butt;stroke-linejoin:miter;stroke:rgb(80%,80%,80%);stroke-opacity:1;stroke-miterlimit:10;" d="M 518.152344 52.8125 L 462.5625 192.328125 "/>
<path style=" stroke:none;fill-rule:nonzero;fill:rgb(80%,80%,80%);fill-opacity:1;" d="M 457.28125 205.582031 L 458.257812 190.613281 L 466.867188 194.042969 L 457.28125 205.582031 "/>
<path style="fill:none;stroke-width:1;stroke-linecap:butt;stroke-linejoin:miter;stroke:rgb(80%,80%,80%);stroke-opacity:1;stroke-miterlimit:10;" d="M 543.199219 269.996094 L 480.632812 206.40625 "/>
<path style=" stroke:none;fill-rule:nonzero;fill:rgb(80%,80%,80%);fill-opacity:1;" d="M 470.628906 196.238281 L 483.9375 203.15625 L 477.328125 209.660156 L 470.628906 196.238281 "/>
<path style="fill:none;stroke-width:1;stroke-linecap:butt;stroke-linejoin:miter;stroke:rgb(80%,80%,80%);stroke-opacity:1;stroke-miterlimit:10;" d="M 543.199219 269.996094 L 474.25 227.582031 "/>
<path style=" stroke:none;fill-rule:nonzero;fill:rgb(80%,80%,80%);fill-opacity:1;" d="M 462.097656 220.109375 L 476.675781 223.636719 L 471.820312 231.53125 L 462.097656 220.109375 "/>
<path style="fill:none;stroke-width:1;stroke-linecap:butt;stroke-linejoin:miter;stroke:rgb(20%,20%,20%);stroke-opacity:1;stroke-miterlimit:10;" d="M 322.675781 186.492188 L 429.863281 209.730469 "/>
<path style=" stroke:none;fill-rule:nonzero;fill:rgb(20%,20%,20%);fill-opacity:1;" d="M 443.808594 212.75 L 428.882812 214.257812 L 430.847656 205.199219 L 443.808594 212.75 "/>
<path style="fill:none;stroke-width:1;stroke-linecap:butt;stroke-linejoin:miter;stroke:rgb(80%,80%,80%);stroke-opacity:1;stroke-miterlimit:10;" d="M 533.699219 113.617188 L 480.125 171.328125 "/>
<path style=" stroke:none;fill-rule:nonzero;fill:rgb(80%,80%,80%);fill-opacity:1;" d="M 470.417969 181.78125 L 476.726562 168.171875 L 483.523438 174.480469 L 470.417969 181.78125 "/>
<path style="fill:none;stroke-width:1;stroke-linecap:butt;stroke-linejoin:miter;stroke:rgb(80%,80%,80%);stroke-opacity:1;stroke-miterlimit:10;" d="M 533.699219 113.617188 L 468.636719 195.839844 "/>
<path style=" stroke:none;fill-rule:nonzero;fill:rgb(80%,80%,80%);fill-opacity:1;" d="M 459.785156 207.027344 L 465.003906 192.964844 L 472.273438 198.71875 L 459.785156 207.027344 "/>
<path style="fill:none;stroke-width:1;stroke-linecap:butt;stroke-linejoin:miter;stroke:rgb(80%,80%,80%);stroke-opacity:1;stroke-miterlimit:10;" d="M 488.953125 23.144531 L 467.277344 165.121094 "/>
<path style=" stroke:none;fill-rule:nonzero;fill:rgb(80%,80%,80%);fill-opacity:1;" d="M 465.125 179.226562 L 462.695312 164.421875 L 471.859375 165.824219 L 465.125 179.226562 "/>
<path style="fill:none;stroke-width:1;stroke-linecap:butt;stroke-linejoin:miter;stroke:rgb(80%,80%,80%);stroke-opacity:1;stroke-miterlimit:10;" d="M 488.953125 23.144531 L 457.984375 191.007812 "/>
<path style=" stroke:none;fill-rule:nonzero;fill:rgb(80%,80%,80%);fill-opacity:1;" d="M 455.394531 205.035156 L 453.425781 190.164062 L 462.542969 191.847656 L 455.394531 205.035156 "/>
<path style="fill:none;stroke-width:1;stroke-linecap:butt;stroke-linejoin:miter;stroke:rgb(20%,20%,20%);stroke-opacity:1;stroke-miterlimit:10;" d="M 510.113281 348.324219 L 497.953125 499.714844 "/>
<path style=" stroke:none;fill-rule:nonzero;fill:rgb(20%,20%,20%);fill-opacity:1;" d="M 496.8125 513.9375 L 493.335938 499.34375 L 502.574219 500.085938 L 496.8125 513.9375 "/>
<path style="fill:none;stroke-width:1;stroke-linecap:butt;stroke-linejoin:miter;stroke:rgb(20%,20%,20%);stroke-opacity:1;stroke-miterlimit:10;" d="M 510.113281 348.324219 L 470.101562 400.863281 "/>
<path style=" stroke:none;fill-rule:nonzero;fill:rgb(20%,20%,20%);fill-opacity:1;" d="M 461.457031 412.210938 L 466.414062 398.054688 L 473.789062 403.671875 L 461.457031 412.210938 "/>
<path style="fill:none;stroke-width:1;stroke-linecap:butt;stroke-linejoin:miter;stroke:rgb(80%,80%,80%);stroke-opacity:1;stroke-miterlimit:10;" d="M 510.113281 348.324219 L 532.074219 237.007812 "/>
<path style=" stroke:none;fill-rule:nonzero;fill:rgb(80%,80%,80%);fill-opacity:1;" d="M 534.835938 223.011719 L 536.621094 237.902344 L 527.527344 236.109375 L 534.835938 223.011719 "/>
<path style="fill:none;stroke-width:1;stroke-linecap:butt;stroke-linejoin:miter;stroke:rgb(80%,80%,80%);stroke-opacity:1;stroke-miterlimit:10;" d="M 510.113281 348.324219 L 470.417969 212.402344 "/>
<path style=" stroke:none;fill-rule:nonzero;fill:rgb(80%,80%,80%);fill-opacity:1;" d="M 466.417969 198.710938 L 474.867188 211.105469 L 465.96875 213.703125 L 466.417969 198.710938 "/>
<path style="fill:none;stroke-width:1;stroke-linecap:butt;stroke-linejoin:miter;stroke:rgb(80%,80%,80%);stroke-opacity:1;stroke-miterlimit:10;" d="M 510.113281 348.324219 L 463.046875 237.214844 "/>
<path style=" stroke:none;fill-rule:nonzero;fill:rgb(80%,80%,80%);fill-opacity:1;" d="M 457.480469 224.078125 L 467.3125 235.40625 L 458.777344 239.023438 L 457.480469 224.078125 "/>
<path style="fill:none;stroke-width:1;stroke-linecap:butt;stroke-linejoin:miter;stroke:rgb(80%,80%,80%);stroke-opacity:1;stroke-miterlimit:10;" d="M 457.566406 580 L 482.292969 543.921875 "/>
<path style=" stroke:none;fill-rule:nonzero;fill:rgb(80%,80%,80%);fill-opacity:1;" d="M 490.359375 532.152344 L 486.117188 546.539062 L 478.46875 541.300781 L 490.359375 532.152344 "/>
<path style="fill:none;stroke-width:1;stroke-linecap:butt;stroke-linejoin:miter;stroke:rgb(80%,80%,80%);stroke-opacity:1;stroke-miterlimit:10;" d="M 457.566406 580 L 455.726562 444.429688 "/>
<path style=" stroke:none;fill-rule:nonzero;fill:rgb(80%,80%,80%);fill-opacity:1;" d="M 455.535156 430.167969 L 460.363281 444.367188 L 451.09375 444.492188 L 455.535156 430.167969 "/>
<path style="fill:none;stroke-width:1;stroke-linecap:butt;stroke-linejoin:miter;stroke:rgb(80%,80%,80%);stroke-opacity:1;stroke-miterlimit:10;" d="M 457.566406 580 L 410.171875 427.835938 "/>
<path style=" stroke:none;fill-rule:nonzero;fill:rgb(80%,80%,80%);fill-opacity:1;" d="M 405.929688 414.21875 L 414.597656 426.460938 L 405.746094 429.214844 L 405.929688 414.21875 "/>
<path style="fill:none;stroke-width:1;stroke-linecap:butt;stroke-linejoin:miter;stroke:rgb(80%,80%,80%);stroke-opacity:1;stroke-miterlimit:10;" d="M 496.011719 523.902344 L 417.886719 423.800781 "/>
<path style=" stroke:none;fill-rule:nonzero;fill:rgb(80%,80%,80%);fill-opacity:1;" d="M 409.109375 412.554688 L 421.539062 420.949219 L 414.230469 426.652344 L 409.109375 412.554688 "/>
<path style="fill:none;stroke-width:1;stroke-linecap:butt;stroke-linejoin:miter;stroke:rgb(20%,20%,20%);stroke-opacity:1;stroke-miterlimit:10;" d="M 580 168.332031 L 553.605469 195.722656 "/>
<path style=" stroke:none;fill-rule:nonzero;fill:rgb(20%,20%,20%);fill-opacity:1;" d="M 543.707031 205.996094 L 550.269531 192.507812 L 556.945312 198.941406 L 543.707031 205.996094 "/>
<path style="fill:none;stroke-width:1;stroke-linecap:butt;stroke-linejoin:miter;stroke:rgb(80%,80%,80%);stroke-opacity:1;stroke-miterlimit:10;" d="M 580 168.332031 L 476.351562 206.488281 "/>
<path style=" stroke:none;fill-rule:nonzero;fill:rgb(80%,80%,80%);fill-opacity:1;" d="M 462.964844 211.414062 L 474.75 202.136719 L 477.953125 210.835938 L 462.964844 211.414062 "/>
<path style="fill:none;stroke-width:1;stroke-linecap:butt;stroke-linejoin:miter;stroke:rgb(80%,80%,80%);stroke-opacity:1;stroke-miterlimit:10;" d="M 455.398438 420.167969 L 453.796875 239.132812 "/>
<path style=" stroke:none;fill-rule:nonzero;fill:rgb(80%,80%,80%);fill-opacity:1;" d="M 453.667969 224.871094 L 458.429688 239.09375 L 449.160156 239.175781 L 453.667969 224.871094 "/>
<path style="fill:none;stroke-width:1;stroke-linecap:butt;stroke-linejoin:miter;stroke:rgb(20%,20%,20%);stroke-opacity:1;stroke-miterlimit:10;" d="M 429.164062 360.097656 L 415.257812 383.753906 "/>
<path style=" stroke:none;fill-rule:nonzero;fill:rgb(20%,20%,20%);fill-opacity:1;" d="M 408.027344 396.050781 L 411.261719 381.402344 L 419.253906 386.101562 L 408.027344 396.050781 "/>
<path style="fill:none;stroke-width:1;stroke-linecap:butt;stroke-linejoin:miter;stroke:rgb(20%,20%,20%);stroke-opacity:1;stroke-miterlimit:10;" d="M 429.164062 360.097656 L 449.558594 238.800781 "/>
<path style=" stroke:none;fill-rule:nonzero;fill:rgb(20%,20%,20%);fill-opacity:1;" d="M 451.921875 224.730469 L 454.128906 239.566406 L 444.984375 238.03125 L 451.921875 224.730469 "/>
<path style="fill:none;stroke-width:1;stroke-linecap:butt;stroke-linejoin:miter;stroke:rgb(80%,80%,80%);stroke-opacity:1;stroke-miterlimit:10;" d="M 536.769531 213.199219 L 486.664062 196.699219 "/>
<path style=" stroke:none;fill-rule:nonzero;fill:rgb(80%,80%,80%);fill-opacity:1;" d="M 473.113281 192.238281 L 488.113281 192.296875 L 485.214844 201.101562 L 473.113281 192.238281 "/>
<path style="fill:none;stroke-width:1;stroke-linecap:butt;stroke-linejoin:miter;stroke:rgb(80%,80%,80%);stroke-opacity:1;stroke-miterlimit:10;" d="M 536.769531 213.199219 L 477.839844 214.382812 "/>
<path style=" stroke:none;fill-rule:nonzero;fill:rgb(80%,80%,80%);fill-opacity:1;" d="M 463.578125 214.667969 L 477.746094 209.75 L 477.933594 219.015625 L 463.578125 214.667969 "/>
<path style="fill:none;stroke-width:1;stroke-linecap:butt;stroke-linejoin:miter;stroke:rgb(20%,20%,20%);stroke-opacity:1;stroke-miterlimit:10;" d="M 381.707031 146.089844 L 442.132812 177.828125 "/>
<path style=" stroke:none;fill-rule:nonzero;fill:rgb(20%,20%,20%);fill-opacity:1;" d="M 454.761719 184.460938 L 439.976562 181.929688 L 444.289062 173.722656 L 454.761719 184.460938 "/>
<path style="fill:none;stroke-width:1;stroke-linecap:butt;stroke-linejoin:miter;stroke:rgb(20%,20%,20%);stroke-opacity:1;stroke-miterlimit:10;" d="M 381.707031 146.089844 L 436.046875 198.09375 "/>
<path style=" stroke:none;fill-rule:nonzero;fill:rgb(20%,20%,20%);fill-opacity:1;" d="M 446.355469 207.957031 L 432.84375 201.441406 L 439.253906 194.742188 L 446.355469 207.957031 "/>
<path style="fill:none;stroke-width:1;stroke-linecap:butt;stroke-linejoin:miter;stroke:rgb(20%,20%,20%);stroke-opacity:1;stroke-miterlimit:10;" d="M 402.957031 404.667969 L 457.042969 212.46875 "/>
<path style=" stroke:none;fill-rule:nonzero;fill:rgb(20%,20%,20%);fill-opacity:1;" d="M 460.90625 198.738281 L 461.503906 213.726562 L 452.582031 211.214844 L 460.90625 198.738281 "/>
<path style="fill:none;stroke-width:1;stroke-linecap:butt;stroke-linejoin:miter;stroke:rgb(20%,20%,20%);stroke-opacity:1;stroke-miterlimit:10;" d="M 402.957031 404.667969 L 447.328125 238.316406 "/>
<path style=" stroke:none;fill-rule:nonzero;fill:rgb(20%,20%,20%);fill-opacity:1;" d="M 451.003906 224.53125 L 451.804688 239.511719 L 442.847656 237.121094 L 451.003906 224.53125 "/>
<path style="fill:none;stroke-width:1;stroke-linecap:butt;stroke-linejoin:miter;stroke:rgb(20%,20%,20%);stroke-opacity:1;stroke-miterlimit:10;" d="M 463.617188 189.109375 L 462.390625 192.257812 "/>
<path style=" stroke:none;fill-rule:nonzero;fill:rgb(20%,20%,20%);fill-opacity:1;" d="M 457.210938 205.550781 L 458.070312 190.578125 L 466.707031 193.941406 L 457.210938 205.550781 "/>
<path style="fill-rule:nonzero;fill:rgb(100%,0%,0%);fill-opacity:1;stroke-width:1;stroke-linecap:butt;stroke-linejoin:miter;stroke:rgb(0%,0%,0%);stroke-opacity:1;stroke-miterlimit:10;" d="M 248.089844 344.242188 C 248.089844 349.765625 243.613281 354.242188 238.089844 354.242188 C 232.566406 354.242188 228.089844 349.765625 228.089844 344.242188 C 228.089844 338.71875 232.566406 334.242188 238.089844 334.242188 C 243.613281 334.242188 248.089844 338.71875 248.089844 344.242188 "/>
<path style="fill-rule:nonzero;fill:rgb(100%,0%,0%);fill-opacity:1;stroke-width:1;stroke-linecap:butt;stroke-linejoin:miter;stroke:rgb(0%,0%,0%);stroke-opacity:1;stroke-miterlimit:10;" d="M 292.898438 281.378906 C 292.898438 286.902344 288.417969 291.378906 282.898438 291.378906 C 277.375 291.378906 272.898438 286.902344 272.898438 281.378906 C 272.898438 275.855469 277.375 271.378906 282.898438 271.378906 C 288.417969 271.378906 292.898438 275.855469 292.898438 281.378906 "/>
<path style="fill-rule:nonzero;fill:rgb(0%,0%,100%);fill-opacity:1;stroke-width:1;stroke-linecap:butt;stroke-linejoin:miter;stroke:rgb(0%,0%,0%);stroke-opacity:1;stroke-miterlimit:10;" d="M 363.625 320.898438 C 363.625 326.417969 359.148438 330.898438 353.625 330.898438 C 348.101562 330.898438 343.625 326.417969 343.625 320.898438 C 343.625 315.375 348.101562 310.898438 353.625 310.898438 C 359.148438 310.898438 363.625 315.375 363.625 320.898438 "/>
<path style="fill-rule:nonzero;fill:rgb(0%,0%,100%);fill-opacity:1;stroke-width:1;stroke-linecap:butt;stroke-linejoin:miter;stroke:rgb(0%,0%,0%);stroke-opacity:1;stroke-miterlimit:10;" d="M 268.757812 246.394531 C 268.757812 251.917969 264.28125 256.394531 258.757812 256.394531 C 253.234375 256.394531 248.757812 251.917969 248.757812 246.394531 C 248.757812 240.871094 253.234375 236.394531 258.757812 236.394531 C 264.28125 236.394531 268.757812 240.871094 268.757812 246.394531 "/>
<path style="fill-rule:nonzero;fill:rgb(0%,0%,100%);fill-opacity:1;stroke-width:1;stroke-linecap:butt;stroke-linejoin:miter;stroke:rgb(0%,0%,0%);stroke-opacity:1;stroke-miterlimit:10;" d="M 149.113281 362.074219 C 149.113281 367.597656 144.636719 372.074219 139.113281 372.074219 C 133.589844 372.074219 129.113281 367.597656 129.113281 362.074219 C 129.113281 356.550781 133.589844 352.074219 139.113281 352.074219 C 144.636719 352.074219 149.113281 356.550781 149.113281 362.074219 "/>
<path style="fill-rule:nonzero;fill:rgb(100%,0%,0%);fill-opacity:1;stroke-width:1;stroke-linecap:butt;stroke-linejoin:miter;stroke:rgb(0%,0%,0%);stroke-opacity:1;stroke-miterlimit:10;" d="M 111.988281 418.691406 C 111.988281 424.214844 107.511719 428.691406 101.988281 428.691406 C 96.464844 428.691406 91.988281 424.214844 91.988281 418.691406 C 91.988281 413.167969 96.464844 408.691406 101.988281 408.691406 C 107.511719 408.691406 111.988281 413.167969 111.988281 418.691406 "/>
<path style="fill-rule:nonzero;fill:rgb(100%,0%,0%);fill-opacity:1;stroke-width:1;stroke-linecap:butt;stroke-linejoin:miter;stroke:rgb(0%,0%,0%);stroke-opacity:1;stroke-miterlimit:10;" d="M 109.035156 340.96875 C 109.035156 346.492188 104.558594 350.96875 99.035156 350.96875 C 93.511719 350.96875 89.035156 346.492188 89.035156 340.96875 C 89.035156 335.445312 93.511719 330.96875 99.035156 330.96875 C 104.558594 330.96875 109.035156 335.445312 109.035156 340.96875 "/>
<path style="fill-rule:nonzero;fill:rgb(100%,0%,0%);fill-opacity:1;stroke-width:1;stroke-linecap:butt;stroke-linejoin:miter;stroke:rgb(0%,0%,0%);stroke-opacity:1;stroke-miterlimit:10;" d="M 290.148438 383.585938 C 290.148438 389.109375 285.671875 393.585938 280.148438 393.585938 C 274.625 393.585938 270.148438 389.109375 270.148438 383.585938 C 270.148438 378.0625 274.625 373.585938 280.148438 373.585938 C 285.671875 373.585938 290.148438 378.0625 290.148438 383.585938 "/>
<path style="fill-rule:nonzero;fill:rgb(100%,0%,0%);fill-opacity:1;stroke-width:1;stroke-linecap:butt;stroke-linejoin:miter;stroke:rgb(0%,0%,0%);stroke-opacity:1;stroke-miterlimit:10;" d="M 375.828125 230.230469 C 375.828125 235.753906 371.351562 240.230469 365.828125 240.230469 C 360.308594 240.230469 355.828125 235.753906 355.828125 230.230469 C 355.828125 224.707031 360.308594 220.230469 365.828125 220.230469 C 371.351562 220.230469 375.828125 224.707031 375.828125 230.230469 "/>
<path style="fill-rule:nonzero;fill:rgb(100%,0%,0%);fill-opacity:1;stroke-width:1;stroke-linecap:butt;stroke-linejoin:miter;stroke:rgb(0%,0%,0%);stroke-opacity:1;stroke-miterlimit:10;" d="M 425.003906 263.613281 C 425.003906 269.136719 420.523438 273.613281 415.003906 273.613281 C 409.480469 273.613281 405.003906 269.136719 405.003906 263.613281 C 405.003906 258.089844 409.480469 253.613281 415.003906 253.613281 C 420.523438 253.613281 425.003906 258.089844 425.003906 263.613281 "/>
<path style="fill-rule:nonzero;fill:rgb(100%,0%,0%);fill-opacity:1;stroke-width:1;stroke-linecap:butt;stroke-linejoin:miter;stroke:rgb(0%,0%,0%);stroke-opacity:1;stroke-miterlimit:10;" d="M 152.867188 460.8125 C 152.867188 466.335938 148.386719 470.8125 142.867188 470.8125 C 137.34375 470.8125 132.867188 466.335938 132.867188 460.8125 C 132.867188 455.292969 137.34375 450.8125 142.867188 450.8125 C 148.386719 450.8125 152.867188 455.292969 152.867188 460.8125 "/>
<path style="fill-rule:nonzero;fill:rgb(0%,0%,100%);fill-opacity:1;stroke-width:1;stroke-linecap:butt;stroke-linejoin:miter;stroke:rgb(0%,0%,0%);stroke-opacity:1;stroke-miterlimit:10;" d="M 197.582031 572.339844 C 197.582031 577.859375 193.105469 582.339844 187.582031 582.339844 C 182.058594 582.339844 177.582031 577.859375 177.582031 572.339844 C 177.582031 566.816406 182.058594 562.339844 187.582031 562.339844 C 193.105469 562.339844 197.582031 566.816406 197.582031 572.339844 "/>
<path style="fill-rule:nonzero;fill:rgb(0%,0%,100%);fill-opacity:1;stroke-width:1;stroke-linecap:butt;stroke-linejoin:miter;stroke:rgb(0%,0%,0%);stroke-opacity:1;stroke-miterlimit:10;" d="M 199.492188 161.640625 C 199.492188 167.164062 195.015625 171.640625 189.492188 171.640625 C 183.972656 171.640625 179.492188 167.164062 179.492188 161.640625 C 179.492188 156.117188 183.972656 151.640625 189.492188 151.640625 C 195.015625 151.640625 199.492188 156.117188 199.492188 161.640625 "/>
<path style="fill-rule:nonzero;fill:rgb(0%,0%,100%);fill-opacity:1;stroke-width:1;stroke-linecap:butt;stroke-linejoin:miter;stroke:rgb(0%,0%,0%);stroke-opacity:1;stroke-miterlimit:10;" d="M 334.480469 266.707031 C 334.480469 272.230469 330.003906 276.707031 324.480469 276.707031 C 318.957031 276.707031 314.480469 272.230469 314.480469 266.707031 C 314.480469 261.183594 318.957031 256.707031 324.480469 256.707031 C 330.003906 256.707031 334.480469 261.183594 334.480469 266.707031 "/>
<path style="fill-rule:nonzero;fill:rgb(0%,100%,0%);fill-opacity:1;stroke-width:1;stroke-linecap:butt;stroke-linejoin:miter;stroke:rgb(0%,0%,0%);stroke-opacity:1;stroke-miterlimit:10;" d="M 464.742188 20 C 464.742188 25.523438 460.265625 30 454.742188 30 C 449.21875 30 444.742188 25.523438 444.742188 20 C 444.742188 14.476562 449.21875 10 454.742188 10 C 460.265625 10 464.742188 14.476562 464.742188 20 "/>
<path style="fill-rule:nonzero;fill:rgb(0%,0%,100%);fill-opacity:1;stroke-width:1;stroke-linecap:butt;stroke-linejoin:miter;stroke:rgb(0%,0%,0%);stroke-opacity:1;stroke-miterlimit:10;" d="M 528.152344 52.8125 C 528.152344 58.335938 523.675781 62.8125 518.152344 62.8125 C 512.628906 62.8125 508.152344 58.335938 508.152344 52.8125 C 508.152344 47.289062 512.628906 42.8125 518.152344 42.8125 C 523.675781 42.8125 528.152344 47.289062 528.152344 52.8125 "/>
<path style="fill-rule:nonzero;fill:rgb(100%,0%,0%);fill-opacity:1;stroke-width:1;stroke-linecap:butt;stroke-linejoin:miter;stroke:rgb(0%,0%,0%);stroke-opacity:1;stroke-miterlimit:10;" d="M 30 398.621094 C 30 404.144531 25.523438 408.621094 20 408.621094 C 14.476562 408.621094 10 404.144531 10 398.621094 C 10 393.097656 14.476562 388.621094 20 388.621094 C 25.523438 388.621094 30 393.097656 30 398.621094 "/>
<path style="fill-rule:nonzero;fill:rgb(100%,0%,0%);fill-opacity:1;stroke-width:1;stroke-linecap:butt;stroke-linejoin:miter;stroke:rgb(0%,0%,0%);stroke-opacity:1;stroke-miterlimit:10;" d="M 239.082031 453.742188 C 239.082031 459.265625 234.605469 463.742188 229.082031 463.742188 C 223.558594 463.742188 219.082031 459.265625 219.082031 453.742188 C 219.082031 448.21875 223.558594 443.742188 229.082031 443.742188 C 234.605469 443.742188 239.082031 448.21875 239.082031 453.742188 "/>
<path style="fill-rule:nonzero;fill:rgb(100%,100%,0%);fill-opacity:1;stroke-width:1;stroke-linecap:butt;stroke-linejoin:miter;stroke:rgb(0%,0%,0%);stroke-opacity:1;stroke-miterlimit:10;" d="M 553.199219 269.996094 C 553.199219 275.519531 548.722656 279.996094 543.199219 279.996094 C 537.675781 279.996094 533.199219 275.519531 533.199219 269.996094 C 533.199219 264.476562 537.675781 259.996094 543.199219 259.996094 C 548.722656 259.996094 553.199219 264.476562 553.199219 269.996094 "/>
<path style="fill-rule:nonzero;fill:rgb(0%,0%,100%);fill-opacity:1;stroke-width:1;stroke-linecap:butt;stroke-linejoin:miter;stroke:rgb(0%,0%,0%);stroke-opacity:1;stroke-miterlimit:10;" d="M 332.675781 186.492188 C 332.675781 192.015625 328.199219 196.492188 322.675781 196.492188 C 317.152344 196.492188 312.675781 192.015625 312.675781 186.492188 C 312.675781 180.96875 317.152344 176.492188 322.675781 176.492188 C 328.199219 176.492188 332.675781 180.96875 332.675781 186.492188 "/>
<path style="fill-rule:nonzero;fill:rgb(100%,0%,100%);fill-opacity:1;stroke-width:1;stroke-linecap:butt;stroke-linejoin:miter;stroke:rgb(0%,0%,0%);stroke-opacity:1;stroke-miterlimit:10;" d="M 543.699219 113.617188 C 543.699219 119.140625 539.222656 123.617188 533.699219 123.617188 C 528.175781 123.617188 523.699219 119.140625 523.699219 113.617188 C 523.699219 108.09375 528.175781 103.617188 533.699219 103.617188 C 539.222656 103.617188 543.699219 108.09375 543.699219 113.617188 "/>
<path style="fill-rule:nonzero;fill:rgb(100%,0%,0%);fill-opacity:1;stroke-width:1;stroke-linecap:butt;stroke-linejoin:miter;stroke:rgb(0%,0%,0%);stroke-opacity:1;stroke-miterlimit:10;" d="M 204.726562 246.492188 C 204.726562 252.015625 200.25 256.492188 194.726562 256.492188 C 189.203125 256.492188 184.726562 252.015625 184.726562 246.492188 C 184.726562 240.96875 189.203125 236.492188 194.726562 236.492188 C 200.25 236.492188 204.726562 240.96875 204.726562 246.492188 "/>
<path style="fill-rule:nonzero;fill:rgb(0%,100%,100%);fill-opacity:1;stroke-width:1;stroke-linecap:butt;stroke-linejoin:miter;stroke:rgb(0%,0%,0%);stroke-opacity:1;stroke-miterlimit:10;" d="M 498.953125 23.144531 C 498.953125 28.667969 494.476562 33.144531 488.953125 33.144531 C 483.429688 33.144531 478.953125 28.667969 478.953125 23.144531 C 478.953125 17.625 483.429688 13.144531 488.953125 13.144531 C 494.476562 13.144531 498.953125 17.625 498.953125 23.144531 "/>
<path style="fill-rule:nonzero;fill:rgb(50.196078%,50.196078%,50.196078%);fill-opacity:1;stroke-width:1;stroke-linecap:butt;stroke-linejoin:miter;stroke:rgb(0%,0%,0%);stroke-opacity:1;stroke-miterlimit:10;" d="M 520.113281 348.324219 C 520.113281 353.847656 515.636719 358.324219 510.113281 358.324219 C 504.589844 358.324219 500.113281 353.847656 500.113281 348.324219 C 500.113281 342.800781 504.589844 338.324219 510.113281 338.324219 C 515.636719 338.324219 520.113281 342.800781 520.113281 348.324219 "/>
<path style="fill-rule:nonzero;fill:rgb(50%,0%,0%);fill-opacity:1;stroke-width:1;stroke-linecap:butt;stroke-linejoin:miter;stroke:rgb(0%,0%,0%);stroke-opacity:1;stroke-miterlimit:10;" d="M 467.566406 580 C 467.566406 585.523438 463.089844 590 457.566406 590 C 452.042969 590 447.566406 585.523438 447.566406 580 C 447.566406 574.476562 452.042969 570 457.566406 570 C 463.089844 570 467.566406 574.476562 467.566406 580 "/>
<path style="fill-rule:nonzero;fill:rgb(50.196078%,50.196078%,50.196078%);fill-opacity:1;stroke-width:1;stroke-linecap:butt;stroke-linejoin:miter;stroke:rgb(0%,0%,0%);stroke-opacity:1;stroke-miterlimit:10;" d="M 506.011719 523.902344 C 506.011719 529.425781 501.535156 533.902344 496.011719 533.902344 C 490.488281 533.902344 486.011719 529.425781 486.011719 523.902344 C 486.011719 518.382812 490.488281 513.902344 496.011719 513.902344 C 501.535156 513.902344 506.011719 518.382812 506.011719 523.902344 "/>
<path style="fill-rule:nonzero;fill:rgb(0%,50%,0%);fill-opacity:1;stroke-width:1;stroke-linecap:butt;stroke-linejoin:miter;stroke:rgb(0%,0%,0%);stroke-opacity:1;stroke-miterlimit:10;" d="M 590 168.332031 C 590 173.851562 585.523438 178.332031 580 178.332031 C 574.476562 178.332031 570 173.851562 570 168.332031 C 570 162.808594 574.476562 158.332031 580 158.332031 C 585.523438 158.332031 590 162.808594 590 168.332031 "/>
<path style="fill-rule:nonzero;fill:rgb(50.196078%,50.196078%,50.196078%);fill-opacity:1;stroke-width:1;stroke-linecap:butt;stroke-linejoin:miter;stroke:rgb(0%,0%,0%);stroke-opacity:1;stroke-miterlimit:10;" d="M 465.398438 420.167969 C 465.398438 425.691406 460.921875 430.167969 455.398438 430.167969 C 449.875 430.167969 445.398438 425.691406 445.398438 420.167969 C 445.398438 414.644531 449.875 410.167969 455.398438 410.167969 C 460.921875 410.167969 465.398438 414.644531 465.398438 420.167969 "/>
<path style="fill-rule:nonzero;fill:rgb(100%,0%,0%);fill-opacity:1;stroke-width:1;stroke-linecap:butt;stroke-linejoin:miter;stroke:rgb(0%,0%,0%);stroke-opacity:1;stroke-miterlimit:10;" d="M 439.164062 360.097656 C 439.164062 365.621094 434.6875 370.097656 429.164062 370.097656 C 423.644531 370.097656 419.164062 365.621094 419.164062 360.097656 C 419.164062 354.574219 423.644531 350.097656 429.164062 350.097656 C 434.6875 350.097656 439.164062 354.574219 439.164062 360.097656 "/>
<path style="fill-rule:nonzero;fill:rgb(0%,50%,0%);fill-opacity:1;stroke-width:1;stroke-linecap:butt;stroke-linejoin:miter;stroke:rgb(0%,0%,0%);stroke-opacity:1;stroke-miterlimit:10;" d="M 546.769531 213.199219 C 546.769531 218.722656 542.292969 223.199219 536.769531 223.199219 C 531.246094 223.199219 526.769531 218.722656 526.769531 213.199219 C 526.769531 207.675781 531.246094 203.199219 536.769531 203.199219 C 542.292969 203.199219 546.769531 207.675781 546.769531 213.199219 "/>
<path style="fill-rule:nonzero;fill:rgb(100%,0%,0%);fill-opacity:1;stroke-width:1;stroke-linecap:butt;stroke-linejoin:miter;stroke:rgb(0%,0%,0%);stroke-opacity:1;stroke-miterlimit:10;" d="M 391.707031 146.089844 C 391.707031 151.613281 387.230469 156.089844 381.707031 156.089844 C 376.183594 156.089844 371.707031 151.613281 371.707031 146.089844 C 371.707031 140.566406 376.183594 136.089844 381.707031 136.089844 C 387.230469 136.089844 391.707031 140.566406 391.707031 146.089844 "/>
<path style="fill-rule:nonzero;fill:rgb(100%,0%,0%);fill-opacity:1;stroke-width:1;stroke-linecap:butt;stroke-linejoin:miter;stroke:rgb(0%,0%,0%);stroke-opacity:1;stroke-miterlimit:10;" d="M 412.957031 404.667969 C 412.957031 410.191406 408.480469 414.667969 402.957031 414.667969 C 397.433594 414.667969 392.957031 410.191406 392.957031 404.667969 C 392.957031 399.148438 397.433594 394.667969 402.957031 394.667969 C 408.480469 394.667969 412.957031 399.148438 412.957031 404.667969 "/>
<path style="fill-rule:nonzero;fill:rgb(100%,0%,0%);fill-opacity:1;stroke-width:1;stroke-linecap:butt;stroke-linejoin:miter;stroke:rgb(0%,0%,0%);stroke-opacity:1;stroke-miterlimit:10;" d="M 473.617188 189.109375 C 473.617188 194.632812 469.136719 199.109375 463.617188 199.109375 C 458.09375 199.109375 453.617188 194.632812 453.617188 189.109375 C 453.617188 183.589844 458.09375 179.109375 463.617188 179.109375 C 469.136719 179.109375 473.617188 183.589844 473.617188 189.109375 "/>
<path style="fill-rule:nonzero;fill:rgb(100%,0%,0%);fill-opacity:1;stroke-width:1;stroke-linecap:butt;stroke-linejoin:miter;stroke:rgb(0%,0%,0%);stroke-opacity:1;stroke-miterlimit:10;" d="M 463.582031 214.871094 C 463.582031 220.394531 459.101562 224.871094 453.582031 224.871094 C 448.058594 224.871094 443.582031 220.394531 443.582031 214.871094 C 443.582031 209.347656 448.058594 204.871094 453.582031 204.871094 C 459.101562 204.871094 463.582031 209.347656 463.582031 214.871094 "/>
</g>
</svg>
