<?xml version="1.0" encoding="UTF-8"?>
<svg xmlns="http://www.w3.org/2000/svg" xmlns:xlink="http://www.w3.org/1999/xlink" width="600pt" height="600pt" viewBox="0 0 600 600" version="1.1">
<g id="surface86">
<rect x="0" y="0" width="600" height="600" style="fill:rgb(100%,100%,100%);fill-opacity:1;stroke:none;"/>
<path style="fill-rule:nonzero;fill:rgb(100%,0%,0%);fill-opacity:0.25;stroke-width:2;stroke-linecap:butt;stroke-linejoin:miter;stroke:rgb(100%,0%,0%);stroke-opacity:1;stroke-miterlimit:10;" d="M 478.890625 255.371094 L 232.414062 14.042969 C 223.484375 5.296875 202.128906 -2.058594 189.707031 -0.664062 L 24.980469 17.78125 C 12.558594 19.171875 5.957031 31.621094 11.78125 42.683594 L 140.296875 286.808594 C 146.121094 297.867188 162.234375 316.023438 172.527344 323.121094 L 329.804688 431.554688 C 340.09375 438.652344 362.503906 448.816406 374.621094 451.886719 L 428.617188 465.566406 C 440.734375 468.636719 458.292969 460.457031 463.738281 449.203125 L 517.875 337.3125 C 523.316406 326.058594 521.179688 304.871094 513.59375 294.933594 L 511.917969 292.734375 C 504.335938 282.800781 487.820312 264.117188 478.890625 255.371094 "/>
<path style="fill-rule:nonzero;fill:rgb(50.196078%,50.196078%,50.196078%);fill-opacity:0.25;stroke-width:2;stroke-linecap:butt;stroke-linejoin:miter;stroke:rgb(50.196078%,50.196078%,50.196078%);stroke-opacity:1;stroke-miterlimit:10;" d="M 550.140625 375.429688 C 556.398438 381.667969 562.671875 396.75 562.683594 405.585938 L 562.742188 446.664062 C 562.757812 455.5 556.527344 470.597656 550.289062 476.859375 C 544.046875 483.117188 531.546875 483.136719 525.289062 476.894531 C 519.027344 470.652344 512.757812 455.574219 512.742188 446.734375 L 512.683594 405.660156 C 512.671875 396.820312 518.898438 381.722656 525.140625 375.464844 C 531.382812 369.207031 543.882812 369.1875 550.140625 375.429688 "/>
<path style="fill-rule:nonzero;fill:rgb(50%,0%,0%);fill-opacity:0.25;stroke-width:2;stroke-linecap:butt;stroke-linejoin:miter;stroke:rgb(50%,0%,0%);stroke-opacity:1;stroke-miterlimit:10;" d="M 554.453125 196.070312 C 562.46875 199.792969 573.519531 211.820312 576.554688 220.121094 L 587.457031 249.941406 C 590.492188 258.242188 589.804688 274.5625 586.082031 282.578125 C 582.355469 290.59375 570.617188 294.886719 562.601562 291.160156 C 554.585938 287.4375 543.535156 275.414062 540.5 267.109375 L 529.59375 237.289062 C 526.558594 228.988281 527.25 212.671875 530.972656 204.65625 C 534.695312 196.636719 546.4375 192.347656 554.453125 196.070312 "/>
<path style="fill:none;stroke-width:1;stroke-linecap:butt;stroke-linejoin:miter;stroke:rgb(20%,20%,20%);stroke-opacity:1;stroke-miterlimit:10;" d="M 247.941406 197.871094 L 264.058594 258.285156 "/>
<path style=" stroke:none;fill-rule:nonzero;fill:rgb(20%,20%,20%);fill-opacity:1;" d="M 267.734375 272.070312 L 259.578125 259.480469 L 268.535156 257.089844 L 267.734375 272.070312 "/>
<path style="fill:none;stroke-width:1;stroke-linecap:butt;stroke-linejoin:miter;stroke:rgb(20%,20%,20%);stroke-opacity:1;stroke-miterlimit:10;" d="M 247.941406 197.871094 L 354.433594 264.492188 "/>
<path style=" stroke:none;fill-rule:nonzero;fill:rgb(20%,20%,20%);fill-opacity:1;" d="M 366.527344 272.058594 L 351.972656 268.421875 L 356.890625 260.5625 L 366.527344 272.058594 "/>
<path style="fill:none;stroke-width:1;stroke-linecap:butt;stroke-linejoin:miter;stroke:rgb(20%,20%,20%);stroke-opacity:1;stroke-miterlimit:10;" d="M 247.941406 197.871094 L 273.003906 192.371094 "/>
<path style=" stroke:none;fill-rule:nonzero;fill:rgb(20%,20%,20%);fill-opacity:1;" d="M 286.9375 189.3125 L 274 196.898438 L 272.011719 187.84375 L 286.9375 189.3125 "/>
<path style="fill:none;stroke-width:1;stroke-linecap:butt;stroke-linejoin:miter;stroke:rgb(20%,20%,20%);stroke-opacity:1;stroke-miterlimit:10;" d="M 247.941406 197.871094 L 158.355469 156.992188 "/>
<path style=" stroke:none;fill-rule:nonzero;fill:rgb(20%,20%,20%);fill-opacity:1;" d="M 145.378906 151.070312 L 160.28125 152.777344 L 156.433594 161.210938 L 145.378906 151.070312 "/>
<path style="fill:none;stroke-width:1;stroke-linecap:butt;stroke-linejoin:miter;stroke:rgb(20%,20%,20%);stroke-opacity:1;stroke-miterlimit:10;" d="M 247.941406 197.871094 L 131.863281 88.429688 "/>
<path style=" stroke:none;fill-rule:nonzero;fill:rgb(20%,20%,20%);fill-opacity:1;" d="M 121.480469 78.644531 L 135.042969 85.058594 L 128.683594 91.804688 L 121.480469 78.644531 "/>
<path style="fill:none;stroke-width:1;stroke-linecap:butt;stroke-linejoin:miter;stroke:rgb(20%,20%,20%);stroke-opacity:1;stroke-miterlimit:10;" d="M 247.941406 197.871094 L 115.328125 130.417969 "/>
<path style=" stroke:none;fill-rule:nonzero;fill:rgb(20%,20%,20%);fill-opacity:1;" d="M 102.613281 123.953125 L 117.429688 126.289062 L 113.226562 134.550781 L 102.613281 123.953125 "/>
<path style="fill:none;stroke-width:1;stroke-linecap:butt;stroke-linejoin:miter;stroke:rgb(20%,20%,20%);stroke-opacity:1;stroke-miterlimit:10;" d="M 247.941406 197.871094 L 301.371094 185.335938 "/>
<path style=" stroke:none;fill-rule:nonzero;fill:rgb(20%,20%,20%);fill-opacity:1;" d="M 315.257812 182.078125 L 302.429688 189.847656 L 300.3125 180.824219 L 315.257812 182.078125 "/>
<path style="fill:none;stroke-width:1;stroke-linecap:butt;stroke-linejoin:miter;stroke:rgb(20%,20%,20%);stroke-opacity:1;stroke-miterlimit:10;" d="M 247.941406 197.871094 L 339.734375 333.574219 "/>
<path style=" stroke:none;fill-rule:nonzero;fill:rgb(20%,20%,20%);fill-opacity:1;" d="M 347.726562 345.390625 L 335.894531 336.171875 L 343.574219 330.976562 L 347.726562 345.390625 "/>
<path style="fill:none;stroke-width:1;stroke-linecap:butt;stroke-linejoin:miter;stroke:rgb(20%,20%,20%);stroke-opacity:1;stroke-miterlimit:10;" d="M 247.941406 197.871094 L 178.066406 102.914062 "/>
<path style=" stroke:none;fill-rule:nonzero;fill:rgb(20%,20%,20%);fill-opacity:1;" d="M 169.613281 91.425781 L 181.800781 100.167969 L 174.332031 105.664062 L 169.613281 91.425781 "/>
<path style="fill:none;stroke-width:1;stroke-linecap:butt;stroke-linejoin:miter;stroke:rgb(20%,20%,20%);stroke-opacity:1;stroke-miterlimit:10;" d="M 247.941406 197.871094 L 226.5625 44.035156 "/>
<path style=" stroke:none;fill-rule:nonzero;fill:rgb(20%,20%,20%);fill-opacity:1;" d="M 224.601562 29.90625 L 231.15625 43.398438 L 221.972656 44.671875 L 224.601562 29.90625 "/>
<path style="fill:none;stroke-width:1;stroke-linecap:butt;stroke-linejoin:miter;stroke:rgb(20%,20%,20%);stroke-opacity:1;stroke-miterlimit:10;" d="M 247.941406 197.871094 L 270.691406 98.273438 "/>
<path style=" stroke:none;fill-rule:nonzero;fill:rgb(20%,20%,20%);fill-opacity:1;" d="M 273.867188 84.363281 L 275.210938 99.304688 L 266.171875 97.238281 L 273.867188 84.363281 "/>
<path style="fill:none;stroke-width:1;stroke-linecap:butt;stroke-linejoin:miter;stroke:rgb(20%,20%,20%);stroke-opacity:1;stroke-miterlimit:10;" d="M 247.941406 197.871094 L 313.316406 265.0625 "/>
<path style=" stroke:none;fill-rule:nonzero;fill:rgb(20%,20%,20%);fill-opacity:1;" d="M 323.261719 275.285156 L 309.992188 268.292969 L 316.636719 261.828125 L 323.261719 275.285156 "/>
<path style="fill:none;stroke-width:1;stroke-linecap:butt;stroke-linejoin:miter;stroke:rgb(20%,20%,20%);stroke-opacity:1;stroke-miterlimit:10;" d="M 247.941406 197.871094 L 189.652344 281.46875 "/>
<path style=" stroke:none;fill-rule:nonzero;fill:rgb(20%,20%,20%);fill-opacity:1;" d="M 181.492188 293.171875 L 185.851562 278.820312 L 193.457031 284.121094 L 181.492188 293.171875 "/>
<path style="fill:none;stroke-width:1;stroke-linecap:butt;stroke-linejoin:miter;stroke:rgb(20%,20%,20%);stroke-opacity:1;stroke-miterlimit:10;" d="M 247.941406 197.871094 L 291.570312 327.199219 "/>
<path style=" stroke:none;fill-rule:nonzero;fill:rgb(20%,20%,20%);fill-opacity:1;" d="M 296.128906 340.714844 L 287.175781 328.679688 L 295.960938 325.71875 L 296.128906 340.714844 "/>
<path style="fill:none;stroke-width:1;stroke-linecap:butt;stroke-linejoin:miter;stroke:rgb(20%,20%,20%);stroke-opacity:1;stroke-miterlimit:10;" d="M 247.941406 197.871094 L 192.394531 232.734375 "/>
<path style=" stroke:none;fill-rule:nonzero;fill:rgb(20%,20%,20%);fill-opacity:1;" d="M 180.3125 240.320312 L 189.929688 228.808594 L 194.859375 236.660156 L 180.3125 240.320312 "/>
<path style="fill:none;stroke-width:1;stroke-linecap:butt;stroke-linejoin:miter;stroke:rgb(20%,20%,20%);stroke-opacity:1;stroke-miterlimit:10;" d="M 247.941406 197.871094 L 413.539062 271.933594 "/>
<path style=" stroke:none;fill-rule:nonzero;fill:rgb(20%,20%,20%);fill-opacity:1;" d="M 426.5625 277.761719 L 411.648438 276.167969 L 415.433594 267.703125 L 426.5625 277.761719 "/>
<path style="fill:none;stroke-width:1;stroke-linecap:butt;stroke-linejoin:miter;stroke:rgb(20%,20%,20%);stroke-opacity:1;stroke-miterlimit:10;" d="M 270.3125 281.730469 L 350.757812 278.371094 "/>
<path style=" stroke:none;fill-rule:nonzero;fill:rgb(20%,20%,20%);fill-opacity:1;" d="M 365.011719 277.777344 L 350.953125 283.003906 L 350.566406 273.742188 L 365.011719 277.777344 "/>
<path style="fill:none;stroke-width:1;stroke-linecap:butt;stroke-linejoin:miter;stroke:rgb(20%,20%,20%);stroke-opacity:1;stroke-miterlimit:10;" d="M 270.3125 281.730469 L 290.183594 210.542969 "/>
<path style=" stroke:none;fill-rule:nonzero;fill:rgb(20%,20%,20%);fill-opacity:1;" d="M 294.019531 196.804688 L 294.648438 211.789062 L 285.71875 209.296875 L 294.019531 196.804688 "/>
<path style="fill:none;stroke-width:1;stroke-linecap:butt;stroke-linejoin:miter;stroke:rgb(20%,20%,20%);stroke-opacity:1;stroke-miterlimit:10;" d="M 270.3125 281.730469 L 313.523438 201.175781 "/>
<path style=" stroke:none;fill-rule:nonzero;fill:rgb(20%,20%,20%);fill-opacity:1;" d="M 320.269531 188.605469 L 317.609375 203.367188 L 309.441406 198.984375 L 320.269531 188.605469 "/>
<path style="fill:none;stroke-width:1;stroke-linecap:butt;stroke-linejoin:miter;stroke:rgb(20%,20%,20%);stroke-opacity:1;stroke-miterlimit:10;" d="M 270.3125 281.730469 L 305.972656 282.160156 "/>
<path style=" stroke:none;fill-rule:nonzero;fill:rgb(20%,20%,20%);fill-opacity:1;" d="M 320.238281 282.332031 L 305.917969 286.796875 L 306.027344 277.527344 L 320.238281 282.332031 "/>
<path style="fill:none;stroke-width:1;stroke-linecap:butt;stroke-linejoin:miter;stroke:rgb(20%,20%,20%);stroke-opacity:1;stroke-miterlimit:10;" d="M 270.3125 281.730469 L 199.53125 296.4375 "/>
<path style=" stroke:none;fill-rule:nonzero;fill:rgb(20%,20%,20%);fill-opacity:1;" d="M 185.566406 299.339844 L 198.589844 291.898438 L 200.476562 300.976562 L 185.566406 299.339844 "/>
<path style="fill:none;stroke-width:1;stroke-linecap:butt;stroke-linejoin:miter;stroke:rgb(20%,20%,20%);stroke-opacity:1;stroke-miterlimit:10;" d="M 270.3125 281.730469 L 289.855469 327.847656 "/>
<path style=" stroke:none;fill-rule:nonzero;fill:rgb(20%,20%,20%);fill-opacity:1;" d="M 295.421875 340.984375 L 285.589844 329.65625 L 294.125 326.039062 L 295.421875 340.984375 "/>
<path style="fill:none;stroke-width:1;stroke-linecap:butt;stroke-linejoin:miter;stroke:rgb(20%,20%,20%);stroke-opacity:1;stroke-miterlimit:10;" d="M 270.3125 281.730469 L 194.625 253.988281 "/>
<path style=" stroke:none;fill-rule:nonzero;fill:rgb(20%,20%,20%);fill-opacity:1;" d="M 181.230469 249.078125 L 196.222656 249.636719 L 193.03125 258.339844 L 181.230469 249.078125 "/>
<path style="fill:none;stroke-width:1;stroke-linecap:butt;stroke-linejoin:miter;stroke:rgb(20%,20%,20%);stroke-opacity:1;stroke-miterlimit:10;" d="M 270.3125 281.730469 L 333.808594 399.894531 "/>
<path style=" stroke:none;fill-rule:nonzero;fill:rgb(20%,20%,20%);fill-opacity:1;" d="M 340.558594 412.460938 L 329.722656 402.089844 L 337.890625 397.703125 L 340.558594 412.460938 "/>
<path style="fill:none;stroke-width:1;stroke-linecap:butt;stroke-linejoin:miter;stroke:rgb(20%,20%,20%);stroke-opacity:1;stroke-miterlimit:10;" d="M 375.003906 277.359375 L 312.613281 205.496094 "/>
<path style=" stroke:none;fill-rule:nonzero;fill:rgb(20%,20%,20%);fill-opacity:1;" d="M 303.261719 194.722656 L 316.113281 202.457031 L 309.113281 208.535156 L 303.261719 194.722656 "/>
<path style="fill:none;stroke-width:1;stroke-linecap:butt;stroke-linejoin:miter;stroke:rgb(20%,20%,20%);stroke-opacity:1;stroke-miterlimit:10;" d="M 375.003906 277.359375 L 336.0625 201.386719 "/>
<path style=" stroke:none;fill-rule:nonzero;fill:rgb(20%,20%,20%);fill-opacity:1;" d="M 329.554688 188.691406 L 340.1875 199.273438 L 331.9375 203.5 L 329.554688 188.691406 "/>
<path style="fill:none;stroke-width:1;stroke-linecap:butt;stroke-linejoin:miter;stroke:rgb(20%,20%,20%);stroke-opacity:1;stroke-miterlimit:10;" d="M 375.003906 277.359375 L 359.960938 330.332031 "/>
<path style=" stroke:none;fill-rule:nonzero;fill:rgb(20%,20%,20%);fill-opacity:1;" d="M 356.0625 344.054688 L 355.5 329.066406 L 364.417969 331.597656 L 356.0625 344.054688 "/>
<path style="fill:none;stroke-width:1;stroke-linecap:butt;stroke-linejoin:miter;stroke:rgb(20%,20%,20%);stroke-opacity:1;stroke-miterlimit:10;" d="M 375.003906 277.359375 L 447.617188 272.527344 "/>
<path style=" stroke:none;fill-rule:nonzero;fill:rgb(20%,20%,20%);fill-opacity:1;" d="M 461.851562 271.578125 L 447.921875 277.152344 L 447.308594 267.902344 L 461.851562 271.578125 "/>
<path style="fill:none;stroke-width:1;stroke-linecap:butt;stroke-linejoin:miter;stroke:rgb(20%,20%,20%);stroke-opacity:1;stroke-miterlimit:10;" d="M 375.003906 277.359375 L 354.347656 279.710938 "/>
<path style=" stroke:none;fill-rule:nonzero;fill:rgb(20%,20%,20%);fill-opacity:1;" d="M 340.171875 281.324219 L 353.824219 275.105469 L 354.871094 284.316406 L 340.171875 281.324219 "/>
<path style="fill:none;stroke-width:1;stroke-linecap:butt;stroke-linejoin:miter;stroke:rgb(20%,20%,20%);stroke-opacity:1;stroke-miterlimit:10;" d="M 375.003906 277.359375 L 480.972656 302.851562 "/>
<path style=" stroke:none;fill-rule:nonzero;fill:rgb(20%,20%,20%);fill-opacity:1;" d="M 494.839844 306.1875 L 479.886719 307.355469 L 482.054688 298.34375 L 494.839844 306.1875 "/>
<path style="fill:none;stroke-width:1;stroke-linecap:butt;stroke-linejoin:miter;stroke:rgb(20%,20%,20%);stroke-opacity:1;stroke-miterlimit:10;" d="M 375.003906 277.359375 L 425.753906 322.597656 "/>
<path style=" stroke:none;fill-rule:nonzero;fill:rgb(20%,20%,20%);fill-opacity:1;" d="M 436.402344 332.089844 L 422.671875 326.058594 L 428.839844 319.136719 L 436.402344 332.089844 "/>
<path style="fill:none;stroke-width:1;stroke-linecap:butt;stroke-linejoin:miter;stroke:rgb(20%,20%,20%);stroke-opacity:1;stroke-miterlimit:10;" d="M 375.003906 277.359375 L 430.632812 428.109375 "/>
<path style=" stroke:none;fill-rule:nonzero;fill:rgb(20%,20%,20%);fill-opacity:1;" d="M 435.570312 441.492188 L 426.285156 429.710938 L 434.980469 426.503906 L 435.570312 441.492188 "/>
<path style="fill:none;stroke-width:1;stroke-linecap:butt;stroke-linejoin:miter;stroke:rgb(20%,20%,20%);stroke-opacity:1;stroke-miterlimit:10;" d="M 296.707031 187.171875 L 301.515625 185.917969 "/>
<path style=" stroke:none;fill-rule:nonzero;fill:rgb(20%,20%,20%);fill-opacity:1;" d="M 315.320312 182.316406 L 302.683594 190.402344 L 300.34375 181.433594 L 315.320312 182.316406 "/>
<path style="fill:none;stroke-width:1;stroke-linecap:butt;stroke-linejoin:miter;stroke:rgb(20%,20%,20%);stroke-opacity:1;stroke-miterlimit:10;" d="M 296.707031 187.171875 L 280.464844 98.484375 "/>
<path style=" stroke:none;fill-rule:nonzero;fill:rgb(20%,20%,20%);fill-opacity:1;" d="M 277.894531 84.453125 L 285.023438 97.648438 L 275.90625 99.320312 L 277.894531 84.453125 "/>
<path style="fill:none;stroke-width:1;stroke-linecap:butt;stroke-linejoin:miter;stroke:rgb(20%,20%,20%);stroke-opacity:1;stroke-miterlimit:10;" d="M 296.707031 187.171875 L 322.183594 259.5625 "/>
<path style=" stroke:none;fill-rule:nonzero;fill:rgb(20%,20%,20%);fill-opacity:1;" d="M 326.917969 273.019531 L 317.808594 261.101562 L 326.554688 258.023438 L 326.917969 273.019531 "/>
<path style="fill:none;stroke-width:1;stroke-linecap:butt;stroke-linejoin:miter;stroke:rgb(20%,20%,20%);stroke-opacity:1;stroke-miterlimit:10;" d="M 136.28125 146.921875 L 114.082031 132.582031 "/>
<path style=" stroke:none;fill-rule:nonzero;fill:rgb(20%,20%,20%);fill-opacity:1;" d="M 102.097656 124.84375 L 116.597656 128.691406 L 111.566406 136.476562 L 102.097656 124.84375 "/>
<path style="fill:none;stroke-width:1;stroke-linecap:butt;stroke-linejoin:miter;stroke:rgb(20%,20%,20%);stroke-opacity:1;stroke-miterlimit:10;" d="M 136.28125 146.921875 L 154.078125 105.652344 "/>
<path style=" stroke:none;fill-rule:nonzero;fill:rgb(20%,20%,20%);fill-opacity:1;" d="M 159.726562 92.554688 L 158.332031 107.488281 L 149.820312 103.816406 L 159.726562 92.554688 "/>
<path style="fill:none;stroke-width:1;stroke-linecap:butt;stroke-linejoin:miter;stroke:rgb(20%,20%,20%);stroke-opacity:1;stroke-miterlimit:10;" d="M 114.207031 71.785156 L 103.292969 97.128906 "/>
<path style=" stroke:none;fill-rule:nonzero;fill:rgb(20%,20%,20%);fill-opacity:1;" d="M 97.652344 110.234375 L 99.039062 95.296875 L 107.550781 98.960938 L 97.652344 110.234375 "/>
<path style="fill:none;stroke-width:1;stroke-linecap:butt;stroke-linejoin:miter;stroke:rgb(20%,20%,20%);stroke-opacity:1;stroke-miterlimit:10;" d="M 114.207031 71.785156 L 140.058594 77.835938 "/>
<path style=" stroke:none;fill-rule:nonzero;fill:rgb(20%,20%,20%);fill-opacity:1;" d="M 153.949219 81.089844 L 139.003906 82.351562 L 141.117188 73.324219 L 153.949219 81.089844 "/>
<path style="fill:none;stroke-width:1;stroke-linecap:butt;stroke-linejoin:miter;stroke:rgb(20%,20%,20%);stroke-opacity:1;stroke-miterlimit:10;" d="M 114.207031 71.785156 L 42.664062 44.410156 "/>
<path style=" stroke:none;fill-rule:nonzero;fill:rgb(20%,20%,20%);fill-opacity:1;" d="M 29.339844 39.3125 L 44.320312 40.082031 L 41.007812 48.742188 L 29.339844 39.3125 "/>
<path style="fill:none;stroke-width:1;stroke-linecap:butt;stroke-linejoin:miter;stroke:rgb(20%,20%,20%);stroke-opacity:1;stroke-miterlimit:10;" d="M 93.699219 119.417969 L 36.039062 53.949219 "/>
<path style=" stroke:none;fill-rule:nonzero;fill:rgb(20%,20%,20%);fill-opacity:1;" d="M 26.609375 43.246094 L 39.515625 50.886719 L 32.558594 57.015625 L 26.609375 43.246094 "/>
<path style="fill:none;stroke-width:1;stroke-linecap:butt;stroke-linejoin:miter;stroke:rgb(20%,20%,20%);stroke-opacity:1;stroke-miterlimit:10;" d="M 353.332031 353.675781 L 348.15625 397.175781 "/>
<path style=" stroke:none;fill-rule:nonzero;fill:rgb(20%,20%,20%);fill-opacity:1;" d="M 346.472656 411.339844 L 343.554688 396.628906 L 352.761719 397.722656 L 346.472656 411.339844 "/>
<path style="fill:none;stroke-width:1;stroke-linecap:butt;stroke-linejoin:miter;stroke:rgb(20%,20%,20%);stroke-opacity:1;stroke-miterlimit:10;" d="M 353.332031 353.675781 L 422.984375 432.671875 "/>
<path style=" stroke:none;fill-rule:nonzero;fill:rgb(20%,20%,20%);fill-opacity:1;" d="M 432.417969 443.371094 L 419.507812 435.738281 L 426.460938 429.605469 L 432.417969 443.371094 "/>
<path style="fill:none;stroke-width:1;stroke-linecap:butt;stroke-linejoin:miter;stroke:rgb(20%,20%,20%);stroke-opacity:1;stroke-miterlimit:10;" d="M 353.332031 353.675781 L 424.113281 407.066406 "/>
<path style=" stroke:none;fill-rule:nonzero;fill:rgb(20%,20%,20%);fill-opacity:1;" d="M 435.503906 415.65625 L 421.324219 410.765625 L 426.90625 403.367188 L 435.503906 415.65625 "/>
<path style="fill:none;stroke-width:1;stroke-linecap:butt;stroke-linejoin:miter;stroke:rgb(20%,20%,20%);stroke-opacity:1;stroke-miterlimit:10;" d="M 471.828125 270.914062 L 447.96875 397.832031 "/>
<path style=" stroke:none;fill-rule:nonzero;fill:rgb(20%,20%,20%);fill-opacity:1;" d="M 445.335938 411.851562 L 443.414062 396.972656 L 452.527344 398.6875 L 445.335938 411.851562 "/>
<path style="fill:none;stroke-width:1;stroke-linecap:butt;stroke-linejoin:miter;stroke:rgb(20%,20%,20%);stroke-opacity:1;stroke-miterlimit:10;" d="M 330.238281 282.453125 L 428.175781 402.855469 "/>
<path style=" stroke:none;fill-rule:nonzero;fill:rgb(20%,20%,20%);fill-opacity:1;" d="M 437.175781 413.921875 L 424.578125 405.777344 L 431.769531 399.929688 L 437.175781 413.921875 "/>
<path style="fill:none;stroke-width:1;stroke-linecap:butt;stroke-linejoin:miter;stroke:rgb(80%,80%,80%);stroke-opacity:1;stroke-miterlimit:10;" d="M 482.59375 544.28125 L 449.289062 472.867188 "/>
<path style=" stroke:none;fill-rule:nonzero;fill:rgb(80%,80%,80%);fill-opacity:1;" d="M 443.261719 459.9375 L 453.488281 470.90625 L 445.089844 474.824219 L 443.261719 459.9375 "/>
<path style="fill:none;stroke-width:1;stroke-linecap:butt;stroke-linejoin:miter;stroke:rgb(80%,80%,80%);stroke-opacity:1;stroke-miterlimit:10;" d="M 482.59375 544.28125 L 450.859375 444.796875 "/>
<path style=" stroke:none;fill-rule:nonzero;fill:rgb(80%,80%,80%);fill-opacity:1;" d="M 446.527344 431.207031 L 455.277344 443.386719 L 446.445312 446.207031 L 446.527344 431.207031 "/>
<path style="fill:none;stroke-width:1;stroke-linecap:butt;stroke-linejoin:miter;stroke:rgb(80%,80%,80%);stroke-opacity:1;stroke-miterlimit:10;" d="M 385.328125 542.449219 L 426.757812 471.804688 "/>
<path style=" stroke:none;fill-rule:nonzero;fill:rgb(80%,80%,80%);fill-opacity:1;" d="M 433.972656 459.5 L 430.753906 474.148438 L 422.757812 469.460938 L 433.972656 459.5 "/>
<path style="fill:none;stroke-width:1;stroke-linecap:butt;stroke-linejoin:miter;stroke:rgb(80%,80%,80%);stroke-opacity:1;stroke-miterlimit:10;" d="M 385.328125 542.449219 L 432.957031 443.542969 "/>
<path style=" stroke:none;fill-rule:nonzero;fill:rgb(80%,80%,80%);fill-opacity:1;" d="M 439.148438 430.6875 L 437.132812 445.550781 L 428.78125 441.53125 L 439.148438 430.6875 "/>
<path style="fill:none;stroke-width:1;stroke-linecap:butt;stroke-linejoin:miter;stroke:rgb(80%,80%,80%);stroke-opacity:1;stroke-miterlimit:10;" d="M 517.882812 530.78125 L 456.078125 468.144531 "/>
<path style=" stroke:none;fill-rule:nonzero;fill:rgb(80%,80%,80%);fill-opacity:1;" d="M 446.058594 457.992188 L 459.375 464.890625 L 452.777344 471.402344 L 446.058594 457.992188 "/>
<path style="fill:none;stroke-width:1;stroke-linecap:butt;stroke-linejoin:miter;stroke:rgb(80%,80%,80%);stroke-opacity:1;stroke-miterlimit:10;" d="M 517.882812 530.78125 L 457.15625 441.726562 "/>
<path style=" stroke:none;fill-rule:nonzero;fill:rgb(80%,80%,80%);fill-opacity:1;" d="M 449.121094 429.941406 L 460.988281 439.117188 L 453.328125 444.339844 L 449.121094 429.941406 "/>
<path style="fill:none;stroke-width:1;stroke-linecap:butt;stroke-linejoin:miter;stroke:rgb(20%,20%,20%);stroke-opacity:1;stroke-miterlimit:10;" d="M 299.324219 350.191406 L 421.746094 410.898438 "/>
<path style=" stroke:none;fill-rule:nonzero;fill:rgb(20%,20%,20%);fill-opacity:1;" d="M 434.527344 417.234375 L 419.6875 415.050781 L 423.808594 406.746094 L 434.527344 417.234375 "/>
<path style="fill:none;stroke-width:1;stroke-linecap:butt;stroke-linejoin:miter;stroke:rgb(80%,80%,80%);stroke-opacity:1;stroke-miterlimit:10;" d="M 421.152344 566.273438 L 435.316406 474.851562 "/>
<path style=" stroke:none;fill-rule:nonzero;fill:rgb(80%,80%,80%);fill-opacity:1;" d="M 437.503906 460.753906 L 439.898438 475.5625 L 430.738281 474.144531 L 437.503906 460.753906 "/>
<path style="fill:none;stroke-width:1;stroke-linecap:butt;stroke-linejoin:miter;stroke:rgb(80%,80%,80%);stroke-opacity:1;stroke-miterlimit:10;" d="M 421.152344 566.273438 L 439.78125 445.660156 "/>
<path style=" stroke:none;fill-rule:nonzero;fill:rgb(80%,80%,80%);fill-opacity:1;" d="M 441.960938 431.5625 L 444.363281 446.367188 L 435.203125 444.953125 L 441.960938 431.5625 "/>
<path style="fill:none;stroke-width:1;stroke-linecap:butt;stroke-linejoin:miter;stroke:rgb(80%,80%,80%);stroke-opacity:1;stroke-miterlimit:10;" d="M 459.710938 580 L 442.871094 474.832031 "/>
<path style=" stroke:none;fill-rule:nonzero;fill:rgb(80%,80%,80%);fill-opacity:1;" d="M 440.613281 460.746094 L 447.449219 474.101562 L 438.292969 475.566406 L 440.613281 460.746094 "/>
<path style="fill:none;stroke-width:1;stroke-linecap:butt;stroke-linejoin:miter;stroke:rgb(80%,80%,80%);stroke-opacity:1;stroke-miterlimit:10;" d="M 459.710938 580 L 445.960938 445.816406 "/>
<path style=" stroke:none;fill-rule:nonzero;fill:rgb(80%,80%,80%);fill-opacity:1;" d="M 444.507812 431.625 L 450.570312 445.34375 L 441.351562 446.289062 L 444.507812 431.625 "/>
<path style="fill:none;stroke-width:1;stroke-linecap:butt;stroke-linejoin:miter;stroke:rgb(80%,80%,80%);stroke-opacity:1;stroke-miterlimit:10;" d="M 537.660156 387.945312 L 563.351562 298.453125 "/>
<path style=" stroke:none;fill-rule:nonzero;fill:rgb(80%,80%,80%);fill-opacity:1;" d="M 567.289062 284.742188 L 567.808594 299.730469 L 558.898438 297.171875 L 567.289062 284.742188 "/>
<path style="fill:none;stroke-width:1;stroke-linecap:butt;stroke-linejoin:miter;stroke:rgb(80%,80%,80%);stroke-opacity:1;stroke-miterlimit:10;" d="M 537.660156 387.945312 L 513.898438 330.925781 "/>
<path style=" stroke:none;fill-rule:nonzero;fill:rgb(80%,80%,80%);fill-opacity:1;" d="M 508.410156 317.757812 L 518.175781 329.140625 L 509.617188 332.707031 L 508.410156 317.757812 "/>
<path style="fill:none;stroke-width:1;stroke-linecap:butt;stroke-linejoin:miter;stroke:rgb(20%,20%,20%);stroke-opacity:1;stroke-miterlimit:10;" d="M 537.660156 387.945312 L 537.734375 440.109375 "/>
<path style=" stroke:none;fill-rule:nonzero;fill:rgb(20%,20%,20%);fill-opacity:1;" d="M 537.753906 454.375 L 533.097656 440.117188 L 542.371094 440.105469 L 537.753906 454.375 "/>
<path style="fill:none;stroke-width:1;stroke-linecap:butt;stroke-linejoin:miter;stroke:rgb(80%,80%,80%);stroke-opacity:1;stroke-miterlimit:10;" d="M 537.660156 387.945312 L 459.488281 437.820312 "/>
<path style=" stroke:none;fill-rule:nonzero;fill:rgb(80%,80%,80%);fill-opacity:1;" d="M 447.464844 445.496094 L 456.996094 433.914062 L 461.984375 441.730469 L 447.464844 445.496094 "/>
<path style="fill:none;stroke-width:1;stroke-linecap:butt;stroke-linejoin:miter;stroke:rgb(80%,80%,80%);stroke-opacity:1;stroke-miterlimit:10;" d="M 537.660156 387.945312 L 466.332031 413.496094 "/>
<path style=" stroke:none;fill-rule:nonzero;fill:rgb(80%,80%,80%);fill-opacity:1;" d="M 452.902344 418.304688 L 464.769531 409.132812 L 467.894531 417.859375 L 452.902344 418.304688 "/>
<path style="fill:none;stroke-width:1;stroke-linecap:butt;stroke-linejoin:miter;stroke:rgb(20%,20%,20%);stroke-opacity:1;stroke-miterlimit:10;" d="M 547.003906 212.101562 L 561.714844 252.339844 "/>
<path style=" stroke:none;fill-rule:nonzero;fill:rgb(20%,20%,20%);fill-opacity:1;" d="M 566.613281 265.738281 L 557.363281 253.929688 L 566.070312 250.746094 L 566.613281 265.738281 "/>
<path style="fill:none;stroke-width:1;stroke-linecap:butt;stroke-linejoin:miter;stroke:rgb(80%,80%,80%);stroke-opacity:1;stroke-miterlimit:10;" d="M 547.003906 212.101562 L 514.339844 286.316406 "/>
<path style=" stroke:none;fill-rule:nonzero;fill:rgb(80%,80%,80%);fill-opacity:1;" d="M 508.59375 299.375 L 510.097656 284.449219 L 518.582031 288.183594 L 508.59375 299.375 "/>
<path style="fill:none;stroke-width:1;stroke-linecap:butt;stroke-linejoin:miter;stroke:rgb(80%,80%,80%);stroke-opacity:1;stroke-miterlimit:10;" d="M 547.003906 212.101562 L 456.253906 268.960938 "/>
<path style=" stroke:none;fill-rule:nonzero;fill:rgb(80%,80%,80%);fill-opacity:1;" d="M 444.164062 276.535156 L 453.792969 265.03125 L 458.714844 272.886719 L 444.164062 276.535156 "/>
<path style="fill:none;stroke-width:1;stroke-linecap:butt;stroke-linejoin:miter;stroke:rgb(80%,80%,80%);stroke-opacity:1;stroke-miterlimit:10;" d="M 570.046875 275.128906 L 459.925781 280.632812 "/>
<path style=" stroke:none;fill-rule:nonzero;fill:rgb(80%,80%,80%);fill-opacity:1;" d="M 445.679688 281.34375 L 459.695312 276.003906 L 460.15625 285.261719 L 445.679688 281.34375 "/>
<path style="fill:none;stroke-width:1;stroke-linecap:butt;stroke-linejoin:miter;stroke:rgb(80%,80%,80%);stroke-opacity:1;stroke-miterlimit:10;" d="M 580 505.164062 L 555.222656 481.234375 "/>
<path style=" stroke:none;fill-rule:nonzero;fill:rgb(80%,80%,80%);fill-opacity:1;" d="M 544.960938 471.324219 L 558.445312 477.898438 L 552.003906 484.566406 L 544.960938 471.324219 "/>
<path style="fill:none;stroke-width:1;stroke-linecap:butt;stroke-linejoin:miter;stroke:rgb(80%,80%,80%);stroke-opacity:1;stroke-miterlimit:10;" d="M 580 505.164062 L 464.1875 434.339844 "/>
<path style=" stroke:none;fill-rule:nonzero;fill:rgb(80%,80%,80%);fill-opacity:1;" d="M 452.019531 426.894531 L 466.605469 430.382812 L 461.769531 438.292969 L 452.019531 426.894531 "/>
<path style="fill:none;stroke-width:1;stroke-linecap:butt;stroke-linejoin:miter;stroke:rgb(20%,20%,20%);stroke-opacity:1;stroke-miterlimit:10;" d="M 504.5625 308.527344 L 455.011719 400.324219 "/>
<path style=" stroke:none;fill-rule:nonzero;fill:rgb(20%,20%,20%);fill-opacity:1;" d="M 448.238281 412.878906 L 450.933594 398.125 L 459.09375 402.527344 L 448.238281 412.878906 "/>
<path style="fill:none;stroke-width:1;stroke-linecap:butt;stroke-linejoin:miter;stroke:rgb(20%,20%,20%);stroke-opacity:1;stroke-miterlimit:10;" d="M 443.871094 338.742188 L 439.144531 305.863281 "/>
<path style=" stroke:none;fill-rule:nonzero;fill:rgb(20%,20%,20%);fill-opacity:1;" d="M 437.113281 291.742188 L 443.730469 305.203125 L 434.554688 306.519531 L 437.113281 291.742188 "/>
<path style="fill:none;stroke-width:1;stroke-linecap:butt;stroke-linejoin:miter;stroke:rgb(20%,20%,20%);stroke-opacity:1;stroke-miterlimit:10;" d="M 443.871094 338.742188 L 443.597656 397.414062 "/>
<path style=" stroke:none;fill-rule:nonzero;fill:rgb(20%,20%,20%);fill-opacity:1;" d="M 443.53125 411.679688 L 438.964844 397.390625 L 448.234375 397.433594 L 443.53125 411.679688 "/>
<path style="fill:none;stroke-width:1;stroke-linecap:butt;stroke-linejoin:miter;stroke:rgb(80%,80%,80%);stroke-opacity:1;stroke-miterlimit:10;" d="M 537.769531 464.375 L 463.074219 454.160156 "/>
<path style=" stroke:none;fill-rule:nonzero;fill:rgb(80%,80%,80%);fill-opacity:1;" d="M 448.941406 452.226562 L 463.703125 449.570312 L 462.449219 458.753906 L 448.941406 452.226562 "/>
<path style="fill:none;stroke-width:1;stroke-linecap:butt;stroke-linejoin:miter;stroke:rgb(80%,80%,80%);stroke-opacity:1;stroke-miterlimit:10;" d="M 537.769531 464.375 L 465.59375 431.6875 "/>
<path style=" stroke:none;fill-rule:nonzero;fill:rgb(80%,80%,80%);fill-opacity:1;" d="M 452.597656 425.804688 L 467.503906 427.46875 L 463.679688 435.910156 L 452.597656 425.804688 "/>
<path style="fill:none;stroke-width:1;stroke-linecap:butt;stroke-linejoin:miter;stroke:rgb(20%,20%,20%);stroke-opacity:1;stroke-miterlimit:10;" d="M 345.292969 421.269531 L 415.894531 443.566406 "/>
<path style=" stroke:none;fill-rule:nonzero;fill:rgb(20%,20%,20%);fill-opacity:1;" d="M 429.496094 447.863281 L 414.496094 447.984375 L 417.289062 439.144531 L 429.496094 447.863281 "/>
<path style="fill:none;stroke-width:1;stroke-linecap:butt;stroke-linejoin:miter;stroke:rgb(20%,20%,20%);stroke-opacity:1;stroke-miterlimit:10;" d="M 345.292969 421.269531 L 419.222656 421.578125 "/>
<path style=" stroke:none;fill-rule:nonzero;fill:rgb(20%,20%,20%);fill-opacity:1;" d="M 433.488281 421.636719 L 419.203125 426.214844 L 419.242188 416.941406 L 433.488281 421.636719 "/>
<path style="fill:none;stroke-width:1;stroke-linecap:butt;stroke-linejoin:miter;stroke:rgb(20%,20%,20%);stroke-opacity:1;stroke-miterlimit:10;" d="M 435.691406 281.84375 L 438.554688 426.613281 "/>
<path style=" stroke:none;fill-rule:nonzero;fill:rgb(20%,20%,20%);fill-opacity:1;" d="M 438.835938 440.875 L 433.917969 426.703125 L 443.1875 426.519531 L 438.835938 440.875 "/>
<path style="fill:none;stroke-width:1;stroke-linecap:butt;stroke-linejoin:miter;stroke:rgb(20%,20%,20%);stroke-opacity:1;stroke-miterlimit:10;" d="M 435.691406 281.84375 L 442.136719 397.449219 "/>
<path style=" stroke:none;fill-rule:nonzero;fill:rgb(20%,20%,20%);fill-opacity:1;" d="M 442.929688 411.695312 L 437.507812 397.707031 L 446.765625 397.191406 L 442.929688 411.695312 "/>
<path style="fill:none;stroke-width:1;stroke-linecap:butt;stroke-linejoin:miter;stroke:rgb(20%,20%,20%);stroke-opacity:1;stroke-miterlimit:10;" d="M 439.035156 450.875 L 439.828125 445.667969 "/>
<path style=" stroke:none;fill-rule:nonzero;fill:rgb(20%,20%,20%);fill-opacity:1;" d="M 441.980469 431.5625 L 444.410156 446.367188 L 435.246094 444.96875 L 441.980469 431.5625 "/>
<path style="fill-rule:nonzero;fill:rgb(100%,0%,0%);fill-opacity:1;stroke-width:1;stroke-linecap:butt;stroke-linejoin:miter;stroke:rgb(0%,0%,0%);stroke-opacity:1;stroke-miterlimit:10;" d="M 257.941406 197.871094 C 257.941406 203.394531 253.460938 207.871094 247.941406 207.871094 C 242.417969 207.871094 237.941406 203.394531 237.941406 197.871094 C 237.941406 192.347656 242.417969 187.871094 247.941406 187.871094 C 253.460938 187.871094 257.941406 192.347656 257.941406 197.871094 "/>
<path style="fill-rule:nonzero;fill:rgb(100%,0%,0%);fill-opacity:1;stroke-width:1;stroke-linecap:butt;stroke-linejoin:miter;stroke:rgb(0%,0%,0%);stroke-opacity:1;stroke-miterlimit:10;" d="M 280.3125 281.730469 C 280.3125 287.253906 275.835938 291.730469 270.3125 291.730469 C 264.789062 291.730469 260.3125 287.253906 260.3125 281.730469 C 260.3125 276.207031 264.789062 271.730469 270.3125 271.730469 C 275.835938 271.730469 280.3125 276.207031 280.3125 281.730469 "/>
<path style="fill-rule:nonzero;fill:rgb(0%,0%,100%);fill-opacity:1;stroke-width:1;stroke-linecap:butt;stroke-linejoin:miter;stroke:rgb(0%,0%,0%);stroke-opacity:1;stroke-miterlimit:10;" d="M 385.003906 277.359375 C 385.003906 282.882812 380.527344 287.359375 375.003906 287.359375 C 369.480469 287.359375 365.003906 282.882812 365.003906 277.359375 C 365.003906 271.839844 369.480469 267.359375 375.003906 267.359375 C 380.527344 267.359375 385.003906 271.839844 385.003906 277.359375 "/>
<path style="fill-rule:nonzero;fill:rgb(0%,0%,100%);fill-opacity:1;stroke-width:1;stroke-linecap:butt;stroke-linejoin:miter;stroke:rgb(0%,0%,0%);stroke-opacity:1;stroke-miterlimit:10;" d="M 306.707031 187.171875 C 306.707031 192.695312 302.230469 197.171875 296.707031 197.171875 C 291.183594 197.171875 286.707031 192.695312 286.707031 187.171875 C 286.707031 181.648438 291.183594 177.171875 296.707031 177.171875 C 302.230469 177.171875 306.707031 181.648438 306.707031 187.171875 "/>
<path style="fill-rule:nonzero;fill:rgb(0%,0%,100%);fill-opacity:1;stroke-width:1;stroke-linecap:butt;stroke-linejoin:miter;stroke:rgb(0%,0%,0%);stroke-opacity:1;stroke-miterlimit:10;" d="M 146.28125 146.921875 C 146.28125 152.441406 141.804688 156.921875 136.28125 156.921875 C 130.757812 156.921875 126.28125 152.441406 126.28125 146.921875 C 126.28125 141.398438 130.757812 136.921875 136.28125 136.921875 C 141.804688 136.921875 146.28125 141.398438 146.28125 146.921875 "/>
<path style="fill-rule:nonzero;fill:rgb(100%,0%,0%);fill-opacity:1;stroke-width:1;stroke-linecap:butt;stroke-linejoin:miter;stroke:rgb(0%,0%,0%);stroke-opacity:1;stroke-miterlimit:10;" d="M 124.207031 71.785156 C 124.207031 77.308594 119.730469 81.785156 114.207031 81.785156 C 108.683594 81.785156 104.207031 77.308594 104.207031 71.785156 C 104.207031 66.261719 108.683594 61.785156 114.207031 61.785156 C 119.730469 61.785156 124.207031 66.261719 124.207031 71.785156 "/>
<path style="fill-rule:nonzero;fill:rgb(100%,0%,0%);fill-opacity:1;stroke-width:1;stroke-linecap:butt;stroke-linejoin:miter;stroke:rgb(0%,0%,0%);stroke-opacity:1;stroke-miterlimit:10;" d="M 103.699219 119.417969 C 103.699219 124.941406 99.222656 129.417969 93.699219 129.417969 C 88.175781 129.417969 83.699219 124.941406 83.699219 119.417969 C 83.699219 113.894531 88.175781 109.417969 93.699219 109.417969 C 99.222656 109.417969 103.699219 113.894531 103.699219 119.417969 "/>
<path style="fill-rule:nonzero;fill:rgb(100%,0%,0%);fill-opacity:1;stroke-width:1;stroke-linecap:butt;stroke-linejoin:miter;stroke:rgb(0%,0%,0%);stroke-opacity:1;stroke-miterlimit:10;" d="M 334.996094 179.792969 C 334.996094 185.316406 330.519531 189.792969 324.996094 189.792969 C 319.472656 189.792969 314.996094 185.316406 314.996094 179.792969 C 314.996094 174.269531 319.472656 169.792969 324.996094 169.792969 C 330.519531 169.792969 334.996094 174.269531 334.996094 179.792969 "/>
<path style="fill-rule:nonzero;fill:rgb(100%,0%,0%);fill-opacity:1;stroke-width:1;stroke-linecap:butt;stroke-linejoin:miter;stroke:rgb(0%,0%,0%);stroke-opacity:1;stroke-miterlimit:10;" d="M 363.332031 353.675781 C 363.332031 359.199219 358.855469 363.675781 353.332031 363.675781 C 347.808594 363.675781 343.332031 359.199219 343.332031 353.675781 C 343.332031 348.152344 347.808594 343.675781 353.332031 343.675781 C 358.855469 343.675781 363.332031 348.152344 363.332031 353.675781 "/>
<path style="fill-rule:nonzero;fill:rgb(100%,0%,0%);fill-opacity:1;stroke-width:1;stroke-linecap:butt;stroke-linejoin:miter;stroke:rgb(0%,0%,0%);stroke-opacity:1;stroke-miterlimit:10;" d="M 481.828125 270.914062 C 481.828125 276.4375 477.351562 280.914062 471.828125 280.914062 C 466.304688 280.914062 461.828125 276.4375 461.828125 270.914062 C 461.828125 265.394531 466.304688 260.914062 471.828125 260.914062 C 477.351562 260.914062 481.828125 265.394531 481.828125 270.914062 "/>
<path style="fill-rule:nonzero;fill:rgb(100%,0%,0%);fill-opacity:1;stroke-width:1;stroke-linecap:butt;stroke-linejoin:miter;stroke:rgb(0%,0%,0%);stroke-opacity:1;stroke-miterlimit:10;" d="M 173.6875 83.371094 C 173.6875 88.894531 169.207031 93.371094 163.6875 93.371094 C 158.164062 93.371094 153.6875 88.894531 153.6875 83.371094 C 153.6875 77.847656 158.164062 73.371094 163.6875 73.371094 C 169.207031 73.371094 173.6875 77.847656 173.6875 83.371094 "/>
<path style="fill-rule:nonzero;fill:rgb(0%,0%,100%);fill-opacity:1;stroke-width:1;stroke-linecap:butt;stroke-linejoin:miter;stroke:rgb(0%,0%,0%);stroke-opacity:1;stroke-miterlimit:10;" d="M 233.226562 20 C 233.226562 25.523438 228.746094 30 223.226562 30 C 217.703125 30 213.226562 25.523438 213.226562 20 C 213.226562 14.476562 217.703125 10 223.226562 10 C 228.746094 10 233.226562 14.476562 233.226562 20 "/>
<path style="fill-rule:nonzero;fill:rgb(0%,0%,100%);fill-opacity:1;stroke-width:1;stroke-linecap:butt;stroke-linejoin:miter;stroke:rgb(0%,0%,0%);stroke-opacity:1;stroke-miterlimit:10;" d="M 286.09375 74.617188 C 286.09375 80.136719 281.617188 84.617188 276.09375 84.617188 C 270.570312 84.617188 266.09375 80.136719 266.09375 74.617188 C 266.09375 69.09375 270.570312 64.617188 276.09375 64.617188 C 281.617188 64.617188 286.09375 69.09375 286.09375 74.617188 "/>
<path style="fill-rule:nonzero;fill:rgb(0%,0%,100%);fill-opacity:1;stroke-width:1;stroke-linecap:butt;stroke-linejoin:miter;stroke:rgb(0%,0%,0%);stroke-opacity:1;stroke-miterlimit:10;" d="M 340.238281 282.453125 C 340.238281 287.976562 335.761719 292.453125 330.238281 292.453125 C 324.714844 292.453125 320.238281 287.976562 320.238281 282.453125 C 320.238281 276.929688 324.714844 272.453125 330.238281 272.453125 C 335.761719 272.453125 340.238281 276.929688 340.238281 282.453125 "/>
<path style="fill-rule:nonzero;fill:rgb(0%,100%,0%);fill-opacity:1;stroke-width:1;stroke-linecap:butt;stroke-linejoin:miter;stroke:rgb(0%,0%,0%);stroke-opacity:1;stroke-miterlimit:10;" d="M 492.59375 544.28125 C 492.59375 549.804688 488.117188 554.28125 482.59375 554.28125 C 477.070312 554.28125 472.59375 549.804688 472.59375 544.28125 C 472.59375 538.761719 477.070312 534.28125 482.59375 534.28125 C 488.117188 534.28125 492.59375 538.761719 492.59375 544.28125 "/>
<path style="fill-rule:nonzero;fill:rgb(0%,0%,100%);fill-opacity:1;stroke-width:1;stroke-linecap:butt;stroke-linejoin:miter;stroke:rgb(0%,0%,0%);stroke-opacity:1;stroke-miterlimit:10;" d="M 395.328125 542.449219 C 395.328125 547.972656 390.847656 552.449219 385.328125 552.449219 C 379.804688 552.449219 375.328125 547.972656 375.328125 542.449219 C 375.328125 536.925781 379.804688 532.449219 385.328125 532.449219 C 390.847656 532.449219 395.328125 536.925781 395.328125 542.449219 "/>
<path style="fill-rule:nonzero;fill:rgb(100%,0%,0%);fill-opacity:1;stroke-width:1;stroke-linecap:butt;stroke-linejoin:miter;stroke:rgb(0%,0%,0%);stroke-opacity:1;stroke-miterlimit:10;" d="M 30 35.742188 C 30 41.261719 25.523438 45.742188 20 45.742188 C 14.476562 45.742188 10 41.261719 10 35.742188 C 10 30.21875 14.476562 25.742188 20 25.742188 C 25.523438 25.742188 30 30.21875 30 35.742188 "/>
<path style="fill-rule:nonzero;fill:rgb(100%,0%,0%);fill-opacity:1;stroke-width:1;stroke-linecap:butt;stroke-linejoin:miter;stroke:rgb(0%,0%,0%);stroke-opacity:1;stroke-miterlimit:10;" d="M 185.773438 301.375 C 185.773438 306.898438 181.296875 311.375 175.773438 311.375 C 170.25 311.375 165.773438 306.898438 165.773438 301.375 C 165.773438 295.851562 170.25 291.375 175.773438 291.375 C 181.296875 291.375 185.773438 295.851562 185.773438 301.375 "/>
<path style="fill-rule:nonzero;fill:rgb(100%,100%,0%);fill-opacity:1;stroke-width:1;stroke-linecap:butt;stroke-linejoin:miter;stroke:rgb(0%,0%,0%);stroke-opacity:1;stroke-miterlimit:10;" d="M 527.882812 530.78125 C 527.882812 536.300781 523.40625 540.78125 517.882812 540.78125 C 512.359375 540.78125 507.882812 536.300781 507.882812 530.78125 C 507.882812 525.257812 512.359375 520.78125 517.882812 520.78125 C 523.40625 520.78125 527.882812 525.257812 527.882812 530.78125 "/>
<path style="fill-rule:nonzero;fill:rgb(0%,0%,100%);fill-opacity:1;stroke-width:1;stroke-linecap:butt;stroke-linejoin:miter;stroke:rgb(0%,0%,0%);stroke-opacity:1;stroke-miterlimit:10;" d="M 309.324219 350.191406 C 309.324219 355.714844 304.847656 360.191406 299.324219 360.191406 C 293.800781 360.191406 289.324219 355.714844 289.324219 350.191406 C 289.324219 344.667969 293.800781 340.191406 299.324219 340.191406 C 304.847656 340.191406 309.324219 344.667969 309.324219 350.191406 "/>
<path style="fill-rule:nonzero;fill:rgb(100%,0%,100%);fill-opacity:1;stroke-width:1;stroke-linecap:butt;stroke-linejoin:miter;stroke:rgb(0%,0%,0%);stroke-opacity:1;stroke-miterlimit:10;" d="M 431.152344 566.273438 C 431.152344 571.792969 426.675781 576.273438 421.152344 576.273438 C 415.628906 576.273438 411.152344 571.792969 411.152344 566.273438 C 411.152344 560.75 415.628906 556.273438 421.152344 556.273438 C 426.675781 556.273438 431.152344 560.75 431.152344 566.273438 "/>
<path style="fill-rule:nonzero;fill:rgb(100%,0%,0%);fill-opacity:1;stroke-width:1;stroke-linecap:butt;stroke-linejoin:miter;stroke:rgb(0%,0%,0%);stroke-opacity:1;stroke-miterlimit:10;" d="M 181.84375 245.636719 C 181.84375 251.160156 177.367188 255.636719 171.84375 255.636719 C 166.320312 255.636719 161.84375 251.160156 161.84375 245.636719 C 161.84375 240.113281 166.320312 235.636719 171.84375 235.636719 C 177.367188 235.636719 181.84375 240.113281 181.84375 245.636719 "/>
<path style="fill-rule:nonzero;fill:rgb(0%,100%,100%);fill-opacity:1;stroke-width:1;stroke-linecap:butt;stroke-linejoin:miter;stroke:rgb(0%,0%,0%);stroke-opacity:1;stroke-miterlimit:10;" d="M 469.710938 580 C 469.710938 585.523438 465.234375 590 459.710938 590 C 454.1875 590 449.710938 585.523438 449.710938 580 C 449.710938 574.476562 454.1875 570 459.710938 570 C 465.234375 570 469.710938 574.476562 469.710938 580 "/>
<path style="fill-rule:nonzero;fill:rgb(50.196078%,50.196078%,50.196078%);fill-opacity:1;stroke-width:1;stroke-linecap:butt;stroke-linejoin:miter;stroke:rgb(0%,0%,0%);stroke-opacity:1;stroke-miterlimit:10;" d="M 547.660156 387.945312 C 547.660156 393.46875 543.179688 397.945312 537.660156 397.945312 C 532.136719 397.945312 527.660156 393.46875 527.660156 387.945312 C 527.660156 382.421875 532.136719 377.945312 537.660156 377.945312 C 543.179688 377.945312 547.660156 382.421875 547.660156 387.945312 "/>
<path style="fill-rule:nonzero;fill:rgb(50%,0%,0%);fill-opacity:1;stroke-width:1;stroke-linecap:butt;stroke-linejoin:miter;stroke:rgb(0%,0%,0%);stroke-opacity:1;stroke-miterlimit:10;" d="M 557.003906 212.101562 C 557.003906 217.625 552.527344 222.101562 547.003906 222.101562 C 541.484375 222.101562 537.003906 217.625 537.003906 212.101562 C 537.003906 206.578125 541.484375 202.101562 547.003906 202.101562 C 552.527344 202.101562 557.003906 206.578125 557.003906 212.101562 "/>
<path style="fill-rule:nonzero;fill:rgb(50%,0%,0%);fill-opacity:1;stroke-width:1;stroke-linecap:butt;stroke-linejoin:miter;stroke:rgb(0%,0%,0%);stroke-opacity:1;stroke-miterlimit:10;" d="M 580.046875 275.128906 C 580.046875 280.652344 575.570312 285.128906 570.046875 285.128906 C 564.527344 285.128906 560.046875 280.652344 560.046875 275.128906 C 560.046875 269.605469 564.527344 265.128906 570.046875 265.128906 C 575.570312 265.128906 580.046875 269.605469 580.046875 275.128906 "/>
<path style="fill-rule:nonzero;fill:rgb(0%,50%,0%);fill-opacity:1;stroke-width:1;stroke-linecap:butt;stroke-linejoin:miter;stroke:rgb(0%,0%,0%);stroke-opacity:1;stroke-miterlimit:10;" d="M 590 505.164062 C 590 510.683594 585.523438 515.164062 580 515.164062 C 574.476562 515.164062 570 510.683594 570 505.164062 C 570 499.640625 574.476562 495.164062 580 495.164062 C 585.523438 495.164062 590 499.640625 590 505.164062 "/>
<path style="fill-rule:nonzero;fill:rgb(100%,0%,0%);fill-opacity:1;stroke-width:1;stroke-linecap:butt;stroke-linejoin:miter;stroke:rgb(0%,0%,0%);stroke-opacity:1;stroke-miterlimit:10;" d="M 514.5625 308.527344 C 514.5625 314.046875 510.085938 318.527344 504.5625 318.527344 C 499.039062 318.527344 494.5625 314.046875 494.5625 308.527344 C 494.5625 303.003906 499.039062 298.527344 504.5625 298.527344 C 510.085938 298.527344 514.5625 303.003906 514.5625 308.527344 "/>
<path style="fill-rule:nonzero;fill:rgb(100%,0%,0%);fill-opacity:1;stroke-width:1;stroke-linecap:butt;stroke-linejoin:miter;stroke:rgb(0%,0%,0%);stroke-opacity:1;stroke-miterlimit:10;" d="M 453.871094 338.742188 C 453.871094 344.265625 449.390625 348.742188 443.871094 348.742188 C 438.347656 348.742188 433.871094 344.265625 433.871094 338.742188 C 433.871094 333.222656 438.347656 328.742188 443.871094 328.742188 C 449.390625 328.742188 453.871094 333.222656 453.871094 338.742188 "/>
<path style="fill-rule:nonzero;fill:rgb(50.196078%,50.196078%,50.196078%);fill-opacity:1;stroke-width:1;stroke-linecap:butt;stroke-linejoin:miter;stroke:rgb(0%,0%,0%);stroke-opacity:1;stroke-miterlimit:10;" d="M 547.769531 464.375 C 547.769531 469.898438 543.292969 474.375 537.769531 474.375 C 532.246094 474.375 527.769531 469.898438 527.769531 464.375 C 527.769531 458.851562 532.246094 454.375 537.769531 454.375 C 543.292969 454.375 547.769531 458.851562 547.769531 464.375 "/>
<path style="fill-rule:nonzero;fill:rgb(100%,0%,0%);fill-opacity:1;stroke-width:1;stroke-linecap:butt;stroke-linejoin:miter;stroke:rgb(0%,0%,0%);stroke-opacity:1;stroke-miterlimit:10;" d="M 355.292969 421.269531 C 355.292969 426.792969 350.816406 431.269531 345.292969 431.269531 C 339.769531 431.269531 335.292969 426.792969 335.292969 421.269531 C 335.292969 415.75 339.769531 411.269531 345.292969 411.269531 C 350.816406 411.269531 355.292969 415.75 355.292969 421.269531 "/>
<path style="fill-rule:nonzero;fill:rgb(100%,0%,0%);fill-opacity:1;stroke-width:1;stroke-linecap:butt;stroke-linejoin:miter;stroke:rgb(0%,0%,0%);stroke-opacity:1;stroke-miterlimit:10;" d="M 445.691406 281.84375 C 445.691406 287.367188 441.214844 291.84375 435.691406 291.84375 C 430.167969 291.84375 425.691406 287.367188 425.691406 281.84375 C 425.691406 276.320312 430.167969 271.84375 435.691406 271.84375 C 441.214844 271.84375 445.691406 276.320312 445.691406 281.84375 "/>
<path style="fill-rule:nonzero;fill:rgb(100%,0%,0%);fill-opacity:1;stroke-width:1;stroke-linecap:butt;stroke-linejoin:miter;stroke:rgb(0%,0%,0%);stroke-opacity:1;stroke-miterlimit:10;" d="M 449.035156 450.875 C 449.035156 456.394531 444.554688 460.875 439.035156 460.875 C 433.511719 460.875 429.035156 456.394531 429.035156 450.875 C 429.035156 445.351562 433.511719 440.875 439.035156 440.875 C 444.554688 440.875 449.035156 445.351562 449.035156 450.875 "/>
<path style="fill-rule:nonzero;fill:rgb(100%,0%,0%);fill-opacity:1;stroke-width:1;stroke-linecap:butt;stroke-linejoin:miter;stroke:rgb(0%,0%,0%);stroke-opacity:1;stroke-miterlimit:10;" d="M 453.488281 421.679688 C 453.488281 427.203125 449.011719 431.679688 443.488281 431.679688 C 437.964844 431.679688 433.488281 427.203125 433.488281 421.679688 C 433.488281 416.15625 437.964844 411.679688 443.488281 411.679688 C 449.011719 411.679688 453.488281 416.15625 453.488281 421.679688 "/>
</g>
</svg>
