<?xml version="1.0" encoding="UTF-8"?>
<svg xmlns="http://www.w3.org/2000/svg" xmlns:xlink="http://www.w3.org/1999/xlink" width="600pt" height="600pt" viewBox="0 0 600 600" version="1.1">
<g id="surface86">
<rect x="0" y="0" width="600" height="600" style="fill:rgb(100%,100%,100%);fill-opacity:1;stroke:none;"/>
<path style="fill-rule:nonzero;fill:rgb(100%,0%,0%);fill-opacity:0.25;stroke-width:2;stroke-linecap:butt;stroke-linejoin:miter;stroke:rgb(100%,0%,0%);stroke-opacity:1;stroke-miterlimit:10;" d="M 357.832031 158.644531 L 309.953125 117.789062 C 300.441406 109.675781 278.78125 104.488281 266.628906 107.417969 L 148.519531 135.882812 C 136.367188 138.808594 117.652344 152.375 111.089844 163.015625 L 8.546875 329.203125 C 1.984375 339.839844 -3.238281 362.90625 -1.898438 375.332031 L 3.691406 427.21875 C 5.03125 439.648438 15.519531 460.59375 24.671875 469.109375 L 152 587.644531 C 161.148438 596.164062 179.496094 596.21875 188.695312 587.753906 L 353.839844 435.785156 C 363.039062 427.320312 374.863281 406.636719 377.492188 394.417969 L 410.96875 238.699219 C 413.597656 226.476562 407.386719 205.417969 398.546875 196.578125 L 394.523438 192.550781 C 385.6875 183.710938 367.339844 166.757812 357.832031 158.644531 "/>
<path style="fill-rule:nonzero;fill:rgb(50.196078%,50.196078%,50.196078%);fill-opacity:0.25;stroke-width:2;stroke-linecap:butt;stroke-linejoin:miter;stroke:rgb(50.196078%,50.196078%,50.196078%);stroke-opacity:1;stroke-miterlimit:10;" d="M 575.300781 165.792969 L 370.71875 63.972656 C 359.53125 58.402344 354.507812 63.707031 360.675781 74.578125 L 423.257812 184.890625 C 429.425781 195.761719 447.890625 204.378906 460.183594 202.128906 L 573.09375 181.4375 C 585.386719 179.1875 586.492188 171.363281 575.300781 165.792969 "/>
<path style="fill:none;stroke-width:1;stroke-linecap:butt;stroke-linejoin:miter;stroke:rgb(20%,20%,20%);stroke-opacity:1;stroke-miterlimit:10;" d="M 203.636719 360.902344 L 165.445312 320.179688 "/>
<path style=" stroke:none;fill-rule:nonzero;fill:rgb(20%,20%,20%);fill-opacity:1;" d="M 155.683594 309.777344 L 168.824219 317.011719 L 162.0625 323.351562 L 155.683594 309.777344 "/>
<path style="fill:none;stroke-width:1;stroke-linecap:butt;stroke-linejoin:miter;stroke:rgb(20%,20%,20%);stroke-opacity:1;stroke-miterlimit:10;" d="M 203.636719 360.902344 L 257.171875 267.019531 "/>
<path style=" stroke:none;fill-rule:nonzero;fill:rgb(20%,20%,20%);fill-opacity:1;" d="M 264.238281 254.628906 L 261.199219 269.316406 L 253.144531 264.722656 L 264.238281 254.628906 "/>
<path style="fill:none;stroke-width:1;stroke-linecap:butt;stroke-linejoin:miter;stroke:rgb(20%,20%,20%);stroke-opacity:1;stroke-miterlimit:10;" d="M 203.636719 360.902344 L 267.527344 341.84375 "/>
<path style=" stroke:none;fill-rule:nonzero;fill:rgb(20%,20%,20%);fill-opacity:1;" d="M 281.199219 337.765625 L 268.855469 346.285156 L 266.203125 337.402344 L 281.199219 337.765625 "/>
<path style="fill:none;stroke-width:1;stroke-linecap:butt;stroke-linejoin:miter;stroke:rgb(20%,20%,20%);stroke-opacity:1;stroke-miterlimit:10;" d="M 203.636719 360.902344 L 248.695312 441.214844 "/>
<path style=" stroke:none;fill-rule:nonzero;fill:rgb(20%,20%,20%);fill-opacity:1;" d="M 255.675781 453.65625 L 244.652344 443.484375 L 252.738281 438.949219 L 255.675781 453.65625 "/>
<path style="fill:none;stroke-width:1;stroke-linecap:butt;stroke-linejoin:miter;stroke:rgb(20%,20%,20%);stroke-opacity:1;stroke-miterlimit:10;" d="M 203.636719 360.902344 L 160.285156 474.941406 "/>
<path style=" stroke:none;fill-rule:nonzero;fill:rgb(20%,20%,20%);fill-opacity:1;" d="M 155.214844 488.277344 L 155.953125 473.292969 L 164.617188 476.589844 L 155.214844 488.277344 "/>
<path style="fill:none;stroke-width:1;stroke-linecap:butt;stroke-linejoin:miter;stroke:rgb(20%,20%,20%);stroke-opacity:1;stroke-miterlimit:10;" d="M 203.636719 360.902344 L 218.046875 476.414062 "/>
<path style=" stroke:none;fill-rule:nonzero;fill:rgb(20%,20%,20%);fill-opacity:1;" d="M 219.8125 490.570312 L 213.449219 476.988281 L 222.648438 475.839844 L 219.8125 490.570312 "/>
<path style="fill:none;stroke-width:1;stroke-linecap:butt;stroke-linejoin:miter;stroke:rgb(20%,20%,20%);stroke-opacity:1;stroke-miterlimit:10;" d="M 203.636719 360.902344 L 213.476562 345.441406 "/>
<path style=" stroke:none;fill-rule:nonzero;fill:rgb(20%,20%,20%);fill-opacity:1;" d="M 221.136719 333.402344 L 217.386719 347.929688 L 209.566406 342.949219 L 221.136719 333.402344 "/>
<path style="fill:none;stroke-width:1;stroke-linecap:butt;stroke-linejoin:miter;stroke:rgb(20%,20%,20%);stroke-opacity:1;stroke-miterlimit:10;" d="M 203.636719 360.902344 L 221.273438 245.589844 "/>
<path style=" stroke:none;fill-rule:nonzero;fill:rgb(20%,20%,20%);fill-opacity:1;" d="M 223.433594 231.488281 L 225.855469 246.292969 L 216.695312 244.890625 L 223.433594 231.488281 "/>
<path style="fill:none;stroke-width:1;stroke-linecap:butt;stroke-linejoin:miter;stroke:rgb(20%,20%,20%);stroke-opacity:1;stroke-miterlimit:10;" d="M 203.636719 360.902344 L 176.347656 434.457031 "/>
<path style=" stroke:none;fill-rule:nonzero;fill:rgb(20%,20%,20%);fill-opacity:1;" d="M 171.386719 447.832031 L 172.003906 432.84375 L 180.695312 436.070312 L 171.386719 447.832031 "/>
<path style="fill:none;stroke-width:1;stroke-linecap:butt;stroke-linejoin:miter;stroke:rgb(20%,20%,20%);stroke-opacity:1;stroke-miterlimit:10;" d="M 203.636719 360.902344 L 49.324219 428.359375 "/>
<path style=" stroke:none;fill-rule:nonzero;fill:rgb(20%,20%,20%);fill-opacity:1;" d="M 36.25 434.074219 L 47.464844 424.113281 L 51.179688 432.609375 L 36.25 434.074219 "/>
<path style="fill:none;stroke-width:1;stroke-linecap:butt;stroke-linejoin:miter;stroke:rgb(20%,20%,20%);stroke-opacity:1;stroke-miterlimit:10;" d="M 203.636719 360.902344 L 328.578125 397.539062 "/>
<path style=" stroke:none;fill-rule:nonzero;fill:rgb(20%,20%,20%);fill-opacity:1;" d="M 342.265625 401.554688 L 327.273438 401.988281 L 329.882812 393.09375 L 342.265625 401.554688 "/>
<path style="fill:none;stroke-width:1;stroke-linecap:butt;stroke-linejoin:miter;stroke:rgb(20%,20%,20%);stroke-opacity:1;stroke-miterlimit:10;" d="M 203.636719 360.902344 L 240.632812 296.15625 "/>
<path style=" stroke:none;fill-rule:nonzero;fill:rgb(20%,20%,20%);fill-opacity:1;" d="M 247.710938 283.769531 L 244.65625 298.453125 L 236.609375 293.855469 L 247.710938 283.769531 "/>
<path style="fill:none;stroke-width:1;stroke-linecap:butt;stroke-linejoin:miter;stroke:rgb(20%,20%,20%);stroke-opacity:1;stroke-miterlimit:10;" d="M 203.636719 360.902344 L 86.96875 373.761719 "/>
<path style=" stroke:none;fill-rule:nonzero;fill:rgb(20%,20%,20%);fill-opacity:1;" d="M 72.789062 375.324219 L 86.460938 369.15625 L 87.476562 378.371094 L 72.789062 375.324219 "/>
<path style="fill:none;stroke-width:1;stroke-linecap:butt;stroke-linejoin:miter;stroke:rgb(20%,20%,20%);stroke-opacity:1;stroke-miterlimit:10;" d="M 203.636719 360.902344 L 160.753906 274.902344 "/>
<path style=" stroke:none;fill-rule:nonzero;fill:rgb(20%,20%,20%);fill-opacity:1;" d="M 154.390625 262.136719 L 164.902344 272.835938 L 156.605469 276.972656 L 154.390625 262.136719 "/>
<path style="fill:none;stroke-width:1;stroke-linecap:butt;stroke-linejoin:miter;stroke:rgb(20%,20%,20%);stroke-opacity:1;stroke-miterlimit:10;" d="M 203.636719 360.902344 L 44.183594 347.886719 "/>
<path style=" stroke:none;fill-rule:nonzero;fill:rgb(20%,20%,20%);fill-opacity:1;" d="M 29.96875 346.726562 L 44.5625 343.265625 L 43.808594 352.503906 L 29.96875 346.726562 "/>
<path style="fill:none;stroke-width:1;stroke-linecap:butt;stroke-linejoin:miter;stroke:rgb(20%,20%,20%);stroke-opacity:1;stroke-miterlimit:10;" d="M 203.636719 360.902344 L 373.933594 239.160156 "/>
<path style=" stroke:none;fill-rule:nonzero;fill:rgb(20%,20%,20%);fill-opacity:1;" d="M 385.539062 230.863281 L 376.628906 242.933594 L 371.238281 235.390625 L 385.539062 230.863281 "/>
<path style="fill:none;stroke-width:1;stroke-linecap:butt;stroke-linejoin:miter;stroke:rgb(20%,20%,20%);stroke-opacity:1;stroke-miterlimit:10;" d="M 148.84375 302.480469 L 247.230469 256.257812 "/>
<path style=" stroke:none;fill-rule:nonzero;fill:rgb(20%,20%,20%);fill-opacity:1;" d="M 260.140625 250.191406 L 249.203125 260.453125 L 245.257812 252.0625 L 260.140625 250.191406 "/>
<path style="fill:none;stroke-width:1;stroke-linecap:butt;stroke-linejoin:miter;stroke:rgb(20%,20%,20%);stroke-opacity:1;stroke-miterlimit:10;" d="M 148.84375 302.480469 L 267.125 329.5 "/>
<path style=" stroke:none;fill-rule:nonzero;fill:rgb(20%,20%,20%);fill-opacity:1;" d="M 281.035156 332.679688 L 266.09375 334.019531 L 268.160156 324.984375 L 281.035156 332.679688 "/>
<path style="fill:none;stroke-width:1;stroke-linecap:butt;stroke-linejoin:miter;stroke:rgb(20%,20%,20%);stroke-opacity:1;stroke-miterlimit:10;" d="M 148.84375 302.480469 L 203.195312 318.21875 "/>
<path style=" stroke:none;fill-rule:nonzero;fill:rgb(20%,20%,20%);fill-opacity:1;" d="M 216.898438 322.1875 L 201.90625 322.671875 L 204.484375 313.765625 L 216.898438 322.1875 "/>
<path style="fill:none;stroke-width:1;stroke-linecap:butt;stroke-linejoin:miter;stroke:rgb(20%,20%,20%);stroke-opacity:1;stroke-miterlimit:10;" d="M 148.84375 302.480469 L 229.207031 281.277344 "/>
<path style=" stroke:none;fill-rule:nonzero;fill:rgb(20%,20%,20%);fill-opacity:1;" d="M 243.003906 277.636719 L 230.390625 285.757812 L 228.027344 276.792969 L 243.003906 277.636719 "/>
<path style="fill:none;stroke-width:1;stroke-linecap:butt;stroke-linejoin:miter;stroke:rgb(20%,20%,20%);stroke-opacity:1;stroke-miterlimit:10;" d="M 148.84375 302.480469 L 81.246094 360.601562 "/>
<path style=" stroke:none;fill-rule:nonzero;fill:rgb(20%,20%,20%);fill-opacity:1;" d="M 70.429688 369.902344 L 78.226562 357.085938 L 84.269531 364.117188 L 70.429688 369.902344 "/>
<path style="fill:none;stroke-width:1;stroke-linecap:butt;stroke-linejoin:miter;stroke:rgb(20%,20%,20%);stroke-opacity:1;stroke-miterlimit:10;" d="M 148.84375 302.480469 L 149.394531 277.445312 "/>
<path style=" stroke:none;fill-rule:nonzero;fill:rgb(20%,20%,20%);fill-opacity:1;" d="M 149.707031 263.183594 L 154.027344 277.550781 L 144.757812 277.34375 L 149.707031 263.183594 "/>
<path style="fill:none;stroke-width:1;stroke-linecap:butt;stroke-linejoin:miter;stroke:rgb(20%,20%,20%);stroke-opacity:1;stroke-miterlimit:10;" d="M 148.84375 302.480469 L 42.996094 338.160156 "/>
<path style=" stroke:none;fill-rule:nonzero;fill:rgb(20%,20%,20%);fill-opacity:1;" d="M 29.476562 342.71875 L 41.515625 333.769531 L 44.476562 342.554688 L 29.476562 342.71875 "/>
<path style="fill:none;stroke-width:1;stroke-linecap:butt;stroke-linejoin:miter;stroke:rgb(20%,20%,20%);stroke-opacity:1;stroke-miterlimit:10;" d="M 148.84375 302.480469 L 165.832031 216.550781 "/>
<path style=" stroke:none;fill-rule:nonzero;fill:rgb(20%,20%,20%);fill-opacity:1;" d="M 168.597656 202.554688 L 170.378906 217.449219 L 161.285156 215.652344 L 168.597656 202.554688 "/>
<path style="fill:none;stroke-width:1;stroke-linecap:butt;stroke-linejoin:miter;stroke:rgb(20%,20%,20%);stroke-opacity:1;stroke-miterlimit:10;" d="M 269.195312 245.941406 L 285.058594 311.324219 "/>
<path style=" stroke:none;fill-rule:nonzero;fill:rgb(20%,20%,20%);fill-opacity:1;" d="M 288.425781 325.1875 L 280.554688 312.417969 L 289.566406 310.230469 L 288.425781 325.1875 "/>
<path style="fill:none;stroke-width:1;stroke-linecap:butt;stroke-linejoin:miter;stroke:rgb(20%,20%,20%);stroke-opacity:1;stroke-miterlimit:10;" d="M 269.195312 245.941406 L 238.035156 303.617188 "/>
<path style=" stroke:none;fill-rule:nonzero;fill:rgb(20%,20%,20%);fill-opacity:1;" d="M 231.257812 316.167969 L 233.957031 301.414062 L 242.113281 305.820312 L 231.257812 316.167969 "/>
<path style="fill:none;stroke-width:1;stroke-linecap:butt;stroke-linejoin:miter;stroke:rgb(20%,20%,20%);stroke-opacity:1;stroke-miterlimit:10;" d="M 269.195312 245.941406 L 246.207031 233.296875 "/>
<path style=" stroke:none;fill-rule:nonzero;fill:rgb(20%,20%,20%);fill-opacity:1;" d="M 233.707031 226.421875 L 248.441406 229.238281 L 243.972656 237.359375 L 233.707031 226.421875 "/>
<path style="fill:none;stroke-width:1;stroke-linecap:butt;stroke-linejoin:miter;stroke:rgb(20%,20%,20%);stroke-opacity:1;stroke-miterlimit:10;" d="M 269.195312 245.941406 L 157.050781 176.347656 "/>
<path style=" stroke:none;fill-rule:nonzero;fill:rgb(20%,20%,20%);fill-opacity:1;" d="M 144.929688 168.824219 L 159.496094 172.40625 L 154.605469 180.285156 L 144.929688 168.824219 "/>
<path style="fill:none;stroke-width:1;stroke-linecap:butt;stroke-linejoin:miter;stroke:rgb(20%,20%,20%);stroke-opacity:1;stroke-miterlimit:10;" d="M 269.195312 245.941406 L 264.636719 253.976562 "/>
<path style=" stroke:none;fill-rule:nonzero;fill:rgb(20%,20%,20%);fill-opacity:1;" d="M 257.601562 266.386719 L 260.605469 251.691406 L 268.671875 256.261719 L 257.601562 266.386719 "/>
<path style="fill:none;stroke-width:1;stroke-linecap:butt;stroke-linejoin:miter;stroke:rgb(80%,80%,80%);stroke-opacity:1;stroke-miterlimit:10;" d="M 269.195312 245.941406 L 422.085938 191.578125 "/>
<path style=" stroke:none;fill-rule:nonzero;fill:rgb(80%,80%,80%);fill-opacity:1;" d="M 435.527344 186.800781 L 423.636719 195.945312 L 420.53125 187.210938 L 435.527344 186.800781 "/>
<path style="fill:none;stroke-width:1;stroke-linecap:butt;stroke-linejoin:miter;stroke:rgb(20%,20%,20%);stroke-opacity:1;stroke-miterlimit:10;" d="M 269.195312 245.941406 L 337.132812 203.800781 "/>
<path style=" stroke:none;fill-rule:nonzero;fill:rgb(20%,20%,20%);fill-opacity:1;" d="M 349.257812 196.277344 L 339.578125 207.738281 L 334.691406 199.859375 L 349.257812 196.277344 "/>
<path style="fill:none;stroke-width:1;stroke-linecap:butt;stroke-linejoin:miter;stroke:rgb(20%,20%,20%);stroke-opacity:1;stroke-miterlimit:10;" d="M 269.195312 245.941406 L 279.957031 149.261719 "/>
<path style=" stroke:none;fill-rule:nonzero;fill:rgb(20%,20%,20%);fill-opacity:1;" d="M 281.535156 135.085938 L 284.566406 149.777344 L 275.351562 148.75 L 281.535156 135.085938 "/>
<path style="fill:none;stroke-width:1;stroke-linecap:butt;stroke-linejoin:miter;stroke:rgb(20%,20%,20%);stroke-opacity:1;stroke-miterlimit:10;" d="M 290.78125 334.90625 L 250.484375 328.675781 "/>
<path style=" stroke:none;fill-rule:nonzero;fill:rgb(20%,20%,20%);fill-opacity:1;" d="M 236.386719 326.496094 L 251.191406 324.09375 L 249.777344 333.257812 L 236.386719 326.496094 "/>
<path style="fill:none;stroke-width:1;stroke-linecap:butt;stroke-linejoin:miter;stroke:rgb(20%,20%,20%);stroke-opacity:1;stroke-miterlimit:10;" d="M 290.78125 334.90625 L 335.839844 386.144531 "/>
<path style=" stroke:none;fill-rule:nonzero;fill:rgb(20%,20%,20%);fill-opacity:1;" d="M 345.261719 396.859375 L 332.359375 389.207031 L 339.320312 383.085938 L 345.261719 396.859375 "/>
<path style="fill:none;stroke-width:1;stroke-linecap:butt;stroke-linejoin:miter;stroke:rgb(20%,20%,20%);stroke-opacity:1;stroke-miterlimit:10;" d="M 290.78125 334.90625 L 265.710938 295.550781 "/>
<path style=" stroke:none;fill-rule:nonzero;fill:rgb(20%,20%,20%);fill-opacity:1;" d="M 258.042969 283.519531 L 269.617188 293.058594 L 261.800781 298.042969 L 258.042969 283.519531 "/>
<path style="fill:none;stroke-width:1;stroke-linecap:butt;stroke-linejoin:miter;stroke:rgb(20%,20%,20%);stroke-opacity:1;stroke-miterlimit:10;" d="M 260.570312 462.378906 L 238.519531 483.648438 "/>
<path style=" stroke:none;fill-rule:nonzero;fill:rgb(20%,20%,20%);fill-opacity:1;" d="M 228.25 493.550781 L 235.300781 480.308594 L 241.734375 486.984375 L 228.25 493.550781 "/>
<path style="fill:none;stroke-width:1;stroke-linecap:butt;stroke-linejoin:miter;stroke:rgb(20%,20%,20%);stroke-opacity:1;stroke-miterlimit:10;" d="M 260.570312 462.378906 L 192.136719 458.558594 "/>
<path style=" stroke:none;fill-rule:nonzero;fill:rgb(20%,20%,20%);fill-opacity:1;" d="M 177.894531 457.765625 L 192.394531 453.929688 L 191.878906 463.1875 L 177.894531 457.765625 "/>
<path style="fill:none;stroke-width:1;stroke-linecap:butt;stroke-linejoin:miter;stroke:rgb(20%,20%,20%);stroke-opacity:1;stroke-miterlimit:10;" d="M 151.664062 497.625 L 196.808594 499.488281 "/>
<path style=" stroke:none;fill-rule:nonzero;fill:rgb(20%,20%,20%);fill-opacity:1;" d="M 211.0625 500.078125 L 196.617188 504.121094 L 197 494.859375 L 211.0625 500.078125 "/>
<path style="fill:none;stroke-width:1;stroke-linecap:butt;stroke-linejoin:miter;stroke:rgb(20%,20%,20%);stroke-opacity:1;stroke-miterlimit:10;" d="M 151.664062 497.625 L 158.859375 479.722656 "/>
<path style=" stroke:none;fill-rule:nonzero;fill:rgb(20%,20%,20%);fill-opacity:1;" d="M 164.179688 466.484375 L 163.160156 481.449219 L 154.558594 477.992188 L 164.179688 466.484375 "/>
<path style="fill:none;stroke-width:1;stroke-linecap:butt;stroke-linejoin:miter;stroke:rgb(20%,20%,20%);stroke-opacity:1;stroke-miterlimit:10;" d="M 151.664062 497.625 L 167.855469 556.601562 "/>
<path style=" stroke:none;fill-rule:nonzero;fill:rgb(20%,20%,20%);fill-opacity:1;" d="M 171.628906 570.355469 L 163.382812 557.828125 L 172.324219 555.371094 L 171.628906 570.355469 "/>
<path style="fill:none;stroke-width:1;stroke-linecap:butt;stroke-linejoin:miter;stroke:rgb(20%,20%,20%);stroke-opacity:1;stroke-miterlimit:10;" d="M 221.050781 500.492188 L 186.582031 559.085938 "/>
<path style=" stroke:none;fill-rule:nonzero;fill:rgb(20%,20%,20%);fill-opacity:1;" d="M 179.347656 571.382812 L 182.585938 556.734375 L 190.578125 561.433594 L 179.347656 571.382812 "/>
<path style="fill:none;stroke-width:1;stroke-linecap:butt;stroke-linejoin:miter;stroke:rgb(20%,20%,20%);stroke-opacity:1;stroke-miterlimit:10;" d="M 224.945312 221.605469 L 191.976562 204.117188 "/>
<path style=" stroke:none;fill-rule:nonzero;fill:rgb(20%,20%,20%);fill-opacity:1;" d="M 179.371094 197.433594 L 194.148438 200.023438 L 189.804688 208.210938 L 179.371094 197.433594 "/>
<path style="fill:none;stroke-width:1;stroke-linecap:butt;stroke-linejoin:miter;stroke:rgb(20%,20%,20%);stroke-opacity:1;stroke-miterlimit:10;" d="M 224.945312 221.605469 L 270.1875 145.96875 "/>
<path style=" stroke:none;fill-rule:nonzero;fill:rgb(20%,20%,20%);fill-opacity:1;" d="M 277.511719 133.726562 L 274.164062 148.351562 L 266.207031 143.589844 L 277.511719 133.726562 "/>
<path style="fill:none;stroke-width:1;stroke-linecap:butt;stroke-linejoin:miter;stroke:rgb(20%,20%,20%);stroke-opacity:1;stroke-miterlimit:10;" d="M 224.945312 221.605469 L 268.941406 161.097656 "/>
<path style=" stroke:none;fill-rule:nonzero;fill:rgb(20%,20%,20%);fill-opacity:1;" d="M 277.332031 149.5625 L 272.691406 163.824219 L 265.191406 158.371094 L 277.332031 149.5625 "/>
<path style="fill:none;stroke-width:1;stroke-linecap:butt;stroke-linejoin:miter;stroke:rgb(20%,20%,20%);stroke-opacity:1;stroke-miterlimit:10;" d="M 136.433594 163.550781 L 259.21875 145.082031 "/>
<path style=" stroke:none;fill-rule:nonzero;fill:rgb(20%,20%,20%);fill-opacity:1;" d="M 273.324219 142.960938 L 259.90625 149.664062 L 258.527344 140.5 L 273.324219 142.960938 "/>
<path style="fill:none;stroke-width:1;stroke-linecap:butt;stroke-linejoin:miter;stroke:rgb(20%,20%,20%);stroke-opacity:1;stroke-miterlimit:10;" d="M 252.671875 275.085938 L 277.804688 165.128906 "/>
<path style=" stroke:none;fill-rule:nonzero;fill:rgb(20%,20%,20%);fill-opacity:1;" d="M 280.984375 151.222656 L 282.324219 166.160156 L 273.285156 164.097656 L 280.984375 151.222656 "/>
<path style="fill:none;stroke-width:1;stroke-linecap:butt;stroke-linejoin:miter;stroke:rgb(80%,80%,80%);stroke-opacity:1;stroke-miterlimit:10;" d="M 419.5 76.019531 L 305.480469 116.949219 "/>
<path style=" stroke:none;fill-rule:nonzero;fill:rgb(80%,80%,80%);fill-opacity:1;" d="M 292.054688 121.765625 L 303.917969 112.585938 L 307.046875 121.308594 L 292.054688 121.765625 "/>
<path style="fill:none;stroke-width:1;stroke-linecap:butt;stroke-linejoin:miter;stroke:rgb(80%,80%,80%);stroke-opacity:1;stroke-miterlimit:10;" d="M 419.5 76.019531 L 305.085938 130.96875 "/>
<path style=" stroke:none;fill-rule:nonzero;fill:rgb(80%,80%,80%);fill-opacity:1;" d="M 292.226562 137.144531 L 303.082031 126.789062 L 307.09375 135.144531 L 292.226562 137.144531 "/>
<path style="fill:none;stroke-width:1;stroke-linecap:butt;stroke-linejoin:miter;stroke:rgb(80%,80%,80%);stroke-opacity:1;stroke-miterlimit:10;" d="M 288.191406 48.832031 L 284.402344 100.945312 "/>
<path style=" stroke:none;fill-rule:nonzero;fill:rgb(80%,80%,80%);fill-opacity:1;" d="M 283.367188 115.171875 L 279.78125 100.609375 L 289.027344 101.28125 L 283.367188 115.171875 "/>
<path style="fill:none;stroke-width:1;stroke-linecap:butt;stroke-linejoin:miter;stroke:rgb(80%,80%,80%);stroke-opacity:1;stroke-miterlimit:10;" d="M 288.191406 48.832031 L 284.515625 117.242188 "/>
<path style=" stroke:none;fill-rule:nonzero;fill:rgb(80%,80%,80%);fill-opacity:1;" d="M 283.75 131.488281 L 279.886719 116.992188 L 289.144531 117.492188 L 283.75 131.488281 "/>
<path style="fill:none;stroke-width:1;stroke-linecap:butt;stroke-linejoin:miter;stroke:rgb(80%,80%,80%);stroke-opacity:1;stroke-miterlimit:10;" d="M 136.9375 90.195312 L 259.046875 119.484375 "/>
<path style=" stroke:none;fill-rule:nonzero;fill:rgb(80%,80%,80%);fill-opacity:1;" d="M 272.917969 122.8125 L 257.964844 123.992188 L 260.128906 114.976562 L 272.917969 122.8125 "/>
<path style="fill:none;stroke-width:1;stroke-linecap:butt;stroke-linejoin:miter;stroke:rgb(80%,80%,80%);stroke-opacity:1;stroke-miterlimit:10;" d="M 136.9375 90.195312 L 260.3125 133.445312 "/>
<path style=" stroke:none;fill-rule:nonzero;fill:rgb(80%,80%,80%);fill-opacity:1;" d="M 273.777344 138.164062 L 258.78125 137.820312 L 261.847656 129.070312 L 273.777344 138.164062 "/>
<path style="fill:none;stroke-width:1;stroke-linecap:butt;stroke-linejoin:miter;stroke:rgb(20%,20%,20%);stroke-opacity:1;stroke-miterlimit:10;" d="M 149.925781 253.1875 L 264.617188 157.058594 "/>
<path style=" stroke:none;fill-rule:nonzero;fill:rgb(20%,20%,20%);fill-opacity:1;" d="M 275.550781 147.898438 L 267.59375 160.613281 L 261.636719 153.507812 L 275.550781 147.898438 "/>
<path style="fill:none;stroke-width:1;stroke-linecap:butt;stroke-linejoin:miter;stroke:rgb(80%,80%,80%);stroke-opacity:1;stroke-miterlimit:10;" d="M 226.226562 45.003906 L 268.675781 105.304688 "/>
<path style=" stroke:none;fill-rule:nonzero;fill:rgb(80%,80%,80%);fill-opacity:1;" d="M 276.886719 116.96875 L 264.886719 107.972656 L 272.464844 102.636719 L 276.886719 116.96875 "/>
<path style="fill:none;stroke-width:1;stroke-linecap:butt;stroke-linejoin:miter;stroke:rgb(80%,80%,80%);stroke-opacity:1;stroke-miterlimit:10;" d="M 226.226562 45.003906 L 270.871094 120.582031 "/>
<path style=" stroke:none;fill-rule:nonzero;fill:rgb(80%,80%,80%);fill-opacity:1;" d="M 278.125 132.863281 L 266.878906 122.9375 L 274.863281 118.222656 L 278.125 132.863281 "/>
<path style="fill:none;stroke-width:1;stroke-linecap:butt;stroke-linejoin:miter;stroke:rgb(80%,80%,80%);stroke-opacity:1;stroke-miterlimit:10;" d="M 175.253906 63.304688 L 261.613281 113.035156 "/>
<path style=" stroke:none;fill-rule:nonzero;fill:rgb(80%,80%,80%);fill-opacity:1;" d="M 273.976562 120.15625 L 259.300781 117.054688 L 263.929688 109.019531 L 273.976562 120.15625 "/>
<path style="fill:none;stroke-width:1;stroke-linecap:butt;stroke-linejoin:miter;stroke:rgb(80%,80%,80%);stroke-opacity:1;stroke-miterlimit:10;" d="M 175.253906 63.304688 L 263.558594 127.242188 "/>
<path style=" stroke:none;fill-rule:nonzero;fill:rgb(80%,80%,80%);fill-opacity:1;" d="M 275.113281 135.609375 L 260.839844 130.996094 L 266.277344 123.488281 L 275.113281 135.609375 "/>
<path style="fill:none;stroke-width:1;stroke-linecap:butt;stroke-linejoin:miter;stroke:rgb(20%,20%,20%);stroke-opacity:1;stroke-miterlimit:10;" d="M 446.578125 121.5625 L 550.890625 161.746094 "/>
<path style=" stroke:none;fill-rule:nonzero;fill:rgb(20%,20%,20%);fill-opacity:1;" d="M 564.203125 166.875 L 549.222656 166.070312 L 552.554688 157.421875 L 564.203125 166.875 "/>
<path style="fill:none;stroke-width:1;stroke-linecap:butt;stroke-linejoin:miter;stroke:rgb(20%,20%,20%);stroke-opacity:1;stroke-miterlimit:10;" d="M 446.578125 121.5625 L 445.585938 159.191406 "/>
<path style=" stroke:none;fill-rule:nonzero;fill:rgb(20%,20%,20%);fill-opacity:1;" d="M 445.210938 173.453125 L 440.953125 159.070312 L 450.21875 159.3125 L 445.210938 173.453125 "/>
<path style="fill:none;stroke-width:1;stroke-linecap:butt;stroke-linejoin:miter;stroke:rgb(20%,20%,20%);stroke-opacity:1;stroke-miterlimit:10;" d="M 446.578125 121.5625 L 388.1875 81.769531 "/>
<path style=" stroke:none;fill-rule:nonzero;fill:rgb(20%,20%,20%);fill-opacity:1;" d="M 376.398438 73.734375 L 390.796875 77.9375 L 385.574219 85.601562 L 376.398438 73.734375 "/>
<path style="fill:none;stroke-width:1;stroke-linecap:butt;stroke-linejoin:miter;stroke:rgb(80%,80%,80%);stroke-opacity:1;stroke-miterlimit:10;" d="M 446.578125 121.5625 L 306.902344 124.617188 "/>
<path style=" stroke:none;fill-rule:nonzero;fill:rgb(80%,80%,80%);fill-opacity:1;" d="M 292.640625 124.925781 L 306.800781 119.980469 L 307.003906 129.25 L 292.640625 124.925781 "/>
<path style="fill:none;stroke-width:1;stroke-linecap:butt;stroke-linejoin:miter;stroke:rgb(80%,80%,80%);stroke-opacity:1;stroke-miterlimit:10;" d="M 446.578125 121.5625 L 307.300781 138.539062 "/>
<path style=" stroke:none;fill-rule:nonzero;fill:rgb(80%,80%,80%);fill-opacity:1;" d="M 293.140625 140.261719 L 306.738281 133.9375 L 307.863281 143.136719 L 293.140625 140.261719 "/>
<path style="fill:none;stroke-width:1;stroke-linecap:butt;stroke-linejoin:miter;stroke:rgb(80%,80%,80%);stroke-opacity:1;stroke-miterlimit:10;" d="M 580 215.535156 L 576.980469 194.488281 "/>
<path style=" stroke:none;fill-rule:nonzero;fill:rgb(80%,80%,80%);fill-opacity:1;" d="M 574.953125 180.367188 L 581.566406 193.832031 L 572.390625 195.148438 L 574.953125 180.367188 "/>
<path style="fill:none;stroke-width:1;stroke-linecap:butt;stroke-linejoin:miter;stroke:rgb(80%,80%,80%);stroke-opacity:1;stroke-miterlimit:10;" d="M 580 215.535156 L 468.554688 189.058594 "/>
<path style=" stroke:none;fill-rule:nonzero;fill:rgb(80%,80%,80%);fill-opacity:1;" d="M 454.675781 185.761719 L 469.628906 184.546875 L 467.484375 193.566406 L 454.675781 185.761719 "/>
<path style="fill:none;stroke-width:1;stroke-linecap:butt;stroke-linejoin:miter;stroke:rgb(80%,80%,80%);stroke-opacity:1;stroke-miterlimit:10;" d="M 580 215.535156 L 417.90625 223.8125 "/>
<path style=" stroke:none;fill-rule:nonzero;fill:rgb(80%,80%,80%);fill-opacity:1;" d="M 403.660156 224.539062 L 417.671875 219.183594 L 418.144531 228.441406 L 403.660156 224.539062 "/>
<path style="fill:none;stroke-width:1;stroke-linecap:butt;stroke-linejoin:miter;stroke:rgb(80%,80%,80%);stroke-opacity:1;stroke-miterlimit:10;" d="M 573.53125 170.46875 L 416.894531 218.003906 "/>
<path style=" stroke:none;fill-rule:nonzero;fill:rgb(80%,80%,80%);fill-opacity:1;" d="M 403.242188 222.144531 L 415.546875 213.566406 L 418.238281 222.4375 L 403.242188 222.144531 "/>
<path style="fill:none;stroke-width:1;stroke-linecap:butt;stroke-linejoin:miter;stroke:rgb(80%,80%,80%);stroke-opacity:1;stroke-miterlimit:10;" d="M 369.742188 20 L 368.945312 43.851562 "/>
<path style=" stroke:none;fill-rule:nonzero;fill:rgb(80%,80%,80%);fill-opacity:1;" d="M 368.46875 58.109375 L 364.3125 43.695312 L 373.578125 44.007812 L 368.46875 58.109375 "/>
<path style="fill:none;stroke-width:1;stroke-linecap:butt;stroke-linejoin:miter;stroke:rgb(80%,80%,80%);stroke-opacity:1;stroke-miterlimit:10;" d="M 369.742188 20 L 297.292969 121.707031 "/>
<path style=" stroke:none;fill-rule:nonzero;fill:rgb(80%,80%,80%);fill-opacity:1;" d="M 289.015625 133.328125 L 293.515625 119.019531 L 301.066406 124.398438 L 289.015625 133.328125 "/>
<path style="fill:none;stroke-width:1;stroke-linecap:butt;stroke-linejoin:miter;stroke:rgb(80%,80%,80%);stroke-opacity:1;stroke-miterlimit:10;" d="M 444.949219 183.449219 L 306.699219 147.570312 "/>
<path style=" stroke:none;fill-rule:nonzero;fill:rgb(80%,80%,80%);fill-opacity:1;" d="M 292.890625 143.984375 L 307.863281 143.082031 L 305.535156 152.054688 L 292.890625 143.984375 "/>
<path style="fill:none;stroke-width:1;stroke-linecap:butt;stroke-linejoin:miter;stroke:rgb(20%,20%,20%);stroke-opacity:1;stroke-miterlimit:10;" d="M 357.753906 191.007812 L 376.058594 208.355469 "/>
<path style=" stroke:none;fill-rule:nonzero;fill:rgb(20%,20%,20%);fill-opacity:1;" d="M 386.414062 218.171875 L 372.871094 211.722656 L 379.25 204.992188 L 386.414062 218.171875 "/>
<path style="fill:none;stroke-width:1;stroke-linecap:butt;stroke-linejoin:miter;stroke:rgb(20%,20%,20%);stroke-opacity:1;stroke-miterlimit:10;" d="M 357.753906 191.007812 L 303.421875 154.902344 "/>
<path style=" stroke:none;fill-rule:nonzero;fill:rgb(20%,20%,20%);fill-opacity:1;" d="M 291.542969 147.007812 L 305.988281 151.042969 L 300.859375 158.765625 L 291.542969 147.007812 "/>
<path style="fill:none;stroke-width:1;stroke-linecap:butt;stroke-linejoin:miter;stroke:rgb(80%,80%,80%);stroke-opacity:1;stroke-miterlimit:10;" d="M 368.132812 68.105469 L 302.828125 111.675781 "/>
<path style=" stroke:none;fill-rule:nonzero;fill:rgb(80%,80%,80%);fill-opacity:1;" d="M 290.960938 119.59375 L 300.253906 107.820312 L 305.402344 115.535156 L 290.960938 119.59375 "/>
<path style="fill:none;stroke-width:1;stroke-linecap:butt;stroke-linejoin:miter;stroke:rgb(80%,80%,80%);stroke-opacity:1;stroke-miterlimit:10;" d="M 368.132812 68.105469 L 301.574219 125.609375 "/>
<path style=" stroke:none;fill-rule:nonzero;fill:rgb(80%,80%,80%);fill-opacity:1;" d="M 290.78125 134.933594 L 298.542969 122.101562 L 304.605469 129.117188 L 290.78125 134.933594 "/>
<path style="fill:none;stroke-width:1;stroke-linecap:butt;stroke-linejoin:miter;stroke:rgb(20%,20%,20%);stroke-opacity:1;stroke-miterlimit:10;" d="M 170.539062 192.746094 L 261.863281 137.675781 "/>
<path style=" stroke:none;fill-rule:nonzero;fill:rgb(20%,20%,20%);fill-opacity:1;" d="M 274.078125 130.308594 L 264.257812 141.644531 L 259.46875 133.707031 L 274.078125 130.308594 "/>
<path style="fill:none;stroke-width:1;stroke-linecap:butt;stroke-linejoin:miter;stroke:rgb(20%,20%,20%);stroke-opacity:1;stroke-miterlimit:10;" d="M 170.539062 192.746094 L 261.125 151.523438 "/>
<path style=" stroke:none;fill-rule:nonzero;fill:rgb(20%,20%,20%);fill-opacity:1;" d="M 274.109375 145.613281 L 263.046875 155.742188 L 259.207031 147.304688 L 274.109375 145.613281 "/>
<path style="fill:none;stroke-width:1;stroke-linecap:butt;stroke-linejoin:miter;stroke:rgb(20%,20%,20%);stroke-opacity:1;stroke-miterlimit:10;" d="M 393.671875 225.050781 L 300.683594 141.375 "/>
<path style=" stroke:none;fill-rule:nonzero;fill:rgb(20%,20%,20%);fill-opacity:1;" d="M 290.078125 131.835938 L 303.78125 137.929688 L 297.582031 144.824219 L 290.078125 131.835938 "/>
<path style="fill:none;stroke-width:1;stroke-linecap:butt;stroke-linejoin:miter;stroke:rgb(20%,20%,20%);stroke-opacity:1;stroke-miterlimit:10;" d="M 393.671875 225.050781 L 302.5625 156.113281 "/>
<path style=" stroke:none;fill-rule:nonzero;fill:rgb(20%,20%,20%);fill-opacity:1;" d="M 291.1875 147.507812 L 305.359375 152.417969 L 299.765625 159.8125 L 291.1875 147.507812 "/>
<path style="fill:none;stroke-width:1;stroke-linecap:butt;stroke-linejoin:miter;stroke:rgb(20%,20%,20%);stroke-opacity:1;stroke-miterlimit:10;" d="M 282.644531 125.144531 L 282.367188 117.222656 "/>
<path style=" stroke:none;fill-rule:nonzero;fill:rgb(20%,20%,20%);fill-opacity:1;" d="M 282.863281 131.480469 L 277.734375 117.382812 L 287 117.058594 L 282.863281 131.480469 "/>
<path style="fill-rule:nonzero;fill:rgb(100%,0%,0%);fill-opacity:1;stroke-width:1;stroke-linecap:butt;stroke-linejoin:miter;stroke:rgb(0%,0%,0%);stroke-opacity:1;stroke-miterlimit:10;" d="M 213.636719 360.902344 C 213.636719 366.425781 209.160156 370.902344 203.636719 370.902344 C 198.113281 370.902344 193.636719 366.425781 193.636719 360.902344 C 193.636719 355.378906 198.113281 350.902344 203.636719 350.902344 C 209.160156 350.902344 213.636719 355.378906 213.636719 360.902344 "/>
<path style="fill-rule:nonzero;fill:rgb(100%,0%,0%);fill-opacity:1;stroke-width:1;stroke-linecap:butt;stroke-linejoin:miter;stroke:rgb(0%,0%,0%);stroke-opacity:1;stroke-miterlimit:10;" d="M 158.84375 302.480469 C 158.84375 308.003906 154.367188 312.480469 148.84375 312.480469 C 143.320312 312.480469 138.84375 308.003906 138.84375 302.480469 C 138.84375 296.957031 143.320312 292.480469 148.84375 292.480469 C 154.367188 292.480469 158.84375 296.957031 158.84375 302.480469 "/>
<path style="fill-rule:nonzero;fill:rgb(0%,0%,100%);fill-opacity:1;stroke-width:1;stroke-linecap:butt;stroke-linejoin:miter;stroke:rgb(0%,0%,0%);stroke-opacity:1;stroke-miterlimit:10;" d="M 279.195312 245.941406 C 279.195312 251.464844 274.714844 255.941406 269.195312 255.941406 C 263.671875 255.941406 259.195312 251.464844 259.195312 245.941406 C 259.195312 240.417969 263.671875 235.941406 269.195312 235.941406 C 274.714844 235.941406 279.195312 240.417969 279.195312 245.941406 "/>
<path style="fill-rule:nonzero;fill:rgb(0%,0%,100%);fill-opacity:1;stroke-width:1;stroke-linecap:butt;stroke-linejoin:miter;stroke:rgb(0%,0%,0%);stroke-opacity:1;stroke-miterlimit:10;" d="M 300.78125 334.90625 C 300.78125 340.429688 296.304688 344.90625 290.78125 344.90625 C 285.257812 344.90625 280.78125 340.429688 280.78125 334.90625 C 280.78125 329.382812 285.257812 324.90625 290.78125 324.90625 C 296.304688 324.90625 300.78125 329.382812 300.78125 334.90625 "/>
<path style="fill-rule:nonzero;fill:rgb(0%,0%,100%);fill-opacity:1;stroke-width:1;stroke-linecap:butt;stroke-linejoin:miter;stroke:rgb(0%,0%,0%);stroke-opacity:1;stroke-miterlimit:10;" d="M 270.570312 462.378906 C 270.570312 467.902344 266.09375 472.378906 260.570312 472.378906 C 255.046875 472.378906 250.570312 467.902344 250.570312 462.378906 C 250.570312 456.855469 255.046875 452.378906 260.570312 452.378906 C 266.09375 452.378906 270.570312 456.855469 270.570312 462.378906 "/>
<path style="fill-rule:nonzero;fill:rgb(100%,0%,0%);fill-opacity:1;stroke-width:1;stroke-linecap:butt;stroke-linejoin:miter;stroke:rgb(0%,0%,0%);stroke-opacity:1;stroke-miterlimit:10;" d="M 161.664062 497.625 C 161.664062 503.144531 157.183594 507.625 151.664062 507.625 C 146.140625 507.625 141.664062 503.144531 141.664062 497.625 C 141.664062 492.101562 146.140625 487.625 151.664062 487.625 C 157.183594 487.625 161.664062 492.101562 161.664062 497.625 "/>
<path style="fill-rule:nonzero;fill:rgb(100%,0%,0%);fill-opacity:1;stroke-width:1;stroke-linecap:butt;stroke-linejoin:miter;stroke:rgb(0%,0%,0%);stroke-opacity:1;stroke-miterlimit:10;" d="M 231.050781 500.492188 C 231.050781 506.015625 226.574219 510.492188 221.050781 510.492188 C 215.53125 510.492188 211.050781 506.015625 211.050781 500.492188 C 211.050781 494.96875 215.53125 490.492188 221.050781 490.492188 C 226.574219 490.492188 231.050781 494.96875 231.050781 500.492188 "/>
<path style="fill-rule:nonzero;fill:rgb(100%,0%,0%);fill-opacity:1;stroke-width:1;stroke-linecap:butt;stroke-linejoin:miter;stroke:rgb(0%,0%,0%);stroke-opacity:1;stroke-miterlimit:10;" d="M 236.503906 324.96875 C 236.503906 330.492188 232.027344 334.96875 226.503906 334.96875 C 220.980469 334.96875 216.503906 330.492188 216.503906 324.96875 C 216.503906 319.445312 220.980469 314.96875 226.503906 314.96875 C 232.027344 314.96875 236.503906 319.445312 236.503906 324.96875 "/>
<path style="fill-rule:nonzero;fill:rgb(100%,0%,0%);fill-opacity:1;stroke-width:1;stroke-linecap:butt;stroke-linejoin:miter;stroke:rgb(0%,0%,0%);stroke-opacity:1;stroke-miterlimit:10;" d="M 234.945312 221.605469 C 234.945312 227.128906 230.46875 231.605469 224.945312 231.605469 C 219.421875 231.605469 214.945312 227.128906 214.945312 221.605469 C 214.945312 216.082031 219.421875 211.605469 224.945312 211.605469 C 230.46875 211.605469 234.945312 216.082031 234.945312 221.605469 "/>
<path style="fill-rule:nonzero;fill:rgb(100%,0%,0%);fill-opacity:1;stroke-width:1;stroke-linecap:butt;stroke-linejoin:miter;stroke:rgb(0%,0%,0%);stroke-opacity:1;stroke-miterlimit:10;" d="M 146.433594 163.550781 C 146.433594 169.074219 141.953125 173.550781 136.433594 173.550781 C 130.910156 173.550781 126.433594 169.074219 126.433594 163.550781 C 126.433594 158.027344 130.910156 153.550781 136.433594 153.550781 C 141.953125 153.550781 146.433594 158.027344 146.433594 163.550781 "/>
<path style="fill-rule:nonzero;fill:rgb(100%,0%,0%);fill-opacity:1;stroke-width:1;stroke-linecap:butt;stroke-linejoin:miter;stroke:rgb(0%,0%,0%);stroke-opacity:1;stroke-miterlimit:10;" d="M 177.910156 457.207031 C 177.910156 462.730469 173.433594 467.207031 167.910156 467.207031 C 162.386719 467.207031 157.910156 462.730469 157.910156 457.207031 C 157.910156 451.683594 162.386719 447.207031 167.910156 447.207031 C 173.433594 447.207031 177.910156 451.683594 177.910156 457.207031 "/>
<path style="fill-rule:nonzero;fill:rgb(0%,0%,100%);fill-opacity:1;stroke-width:1;stroke-linecap:butt;stroke-linejoin:miter;stroke:rgb(0%,0%,0%);stroke-opacity:1;stroke-miterlimit:10;" d="M 37.089844 438.082031 C 37.089844 443.601562 32.609375 448.082031 27.089844 448.082031 C 21.566406 448.082031 17.089844 443.601562 17.089844 438.082031 C 17.089844 432.558594 21.566406 428.082031 27.089844 428.082031 C 32.609375 428.082031 37.089844 432.558594 37.089844 438.082031 "/>
<path style="fill-rule:nonzero;fill:rgb(0%,0%,100%);fill-opacity:1;stroke-width:1;stroke-linecap:butt;stroke-linejoin:miter;stroke:rgb(0%,0%,0%);stroke-opacity:1;stroke-miterlimit:10;" d="M 361.863281 404.367188 C 361.863281 409.890625 357.386719 414.367188 351.863281 414.367188 C 346.339844 414.367188 341.863281 409.890625 341.863281 404.367188 C 341.863281 398.84375 346.339844 394.367188 351.863281 394.367188 C 357.386719 394.367188 361.863281 398.84375 361.863281 404.367188 "/>
<path style="fill-rule:nonzero;fill:rgb(0%,0%,100%);fill-opacity:1;stroke-width:1;stroke-linecap:butt;stroke-linejoin:miter;stroke:rgb(0%,0%,0%);stroke-opacity:1;stroke-miterlimit:10;" d="M 262.671875 275.085938 C 262.671875 280.609375 258.195312 285.085938 252.671875 285.085938 C 247.148438 285.085938 242.671875 280.609375 242.671875 275.085938 C 242.671875 269.5625 247.148438 265.085938 252.671875 265.085938 C 258.195312 265.085938 262.671875 269.5625 262.671875 275.085938 "/>
<path style="fill-rule:nonzero;fill:rgb(0%,100%,0%);fill-opacity:1;stroke-width:1;stroke-linecap:butt;stroke-linejoin:miter;stroke:rgb(0%,0%,0%);stroke-opacity:1;stroke-miterlimit:10;" d="M 429.5 76.019531 C 429.5 81.542969 425.019531 86.019531 419.5 86.019531 C 413.976562 86.019531 409.5 81.542969 409.5 76.019531 C 409.5 70.496094 413.976562 66.019531 419.5 66.019531 C 425.019531 66.019531 429.5 70.496094 429.5 76.019531 "/>
<path style="fill-rule:nonzero;fill:rgb(0%,0%,100%);fill-opacity:1;stroke-width:1;stroke-linecap:butt;stroke-linejoin:miter;stroke:rgb(0%,0%,0%);stroke-opacity:1;stroke-miterlimit:10;" d="M 298.191406 48.832031 C 298.191406 54.355469 293.714844 58.832031 288.191406 58.832031 C 282.667969 58.832031 278.191406 54.355469 278.191406 48.832031 C 278.191406 43.308594 282.667969 38.832031 288.191406 38.832031 C 293.714844 38.832031 298.191406 43.308594 298.191406 48.832031 "/>
<path style="fill-rule:nonzero;fill:rgb(100%,0%,0%);fill-opacity:1;stroke-width:1;stroke-linecap:butt;stroke-linejoin:miter;stroke:rgb(0%,0%,0%);stroke-opacity:1;stroke-miterlimit:10;" d="M 184.277344 580 C 184.277344 585.523438 179.800781 590 174.277344 590 C 168.753906 590 164.277344 585.523438 164.277344 580 C 164.277344 574.476562 168.753906 570 174.277344 570 C 179.800781 570 184.277344 574.476562 184.277344 580 "/>
<path style="fill-rule:nonzero;fill:rgb(100%,0%,0%);fill-opacity:1;stroke-width:1;stroke-linecap:butt;stroke-linejoin:miter;stroke:rgb(0%,0%,0%);stroke-opacity:1;stroke-miterlimit:10;" d="M 72.847656 376.421875 C 72.847656 381.945312 68.371094 386.421875 62.847656 386.421875 C 57.324219 386.421875 52.847656 381.945312 52.847656 376.421875 C 52.847656 370.898438 57.324219 366.421875 62.847656 366.421875 C 68.371094 366.421875 72.847656 370.898438 72.847656 376.421875 "/>
<path style="fill-rule:nonzero;fill:rgb(100%,100%,0%);fill-opacity:1;stroke-width:1;stroke-linecap:butt;stroke-linejoin:miter;stroke:rgb(0%,0%,0%);stroke-opacity:1;stroke-miterlimit:10;" d="M 146.9375 90.195312 C 146.9375 95.71875 142.460938 100.195312 136.9375 100.195312 C 131.414062 100.195312 126.9375 95.71875 126.9375 90.195312 C 126.9375 84.671875 131.414062 80.195312 136.9375 80.195312 C 142.460938 80.195312 146.9375 84.671875 146.9375 90.195312 "/>
<path style="fill-rule:nonzero;fill:rgb(0%,0%,100%);fill-opacity:1;stroke-width:1;stroke-linecap:butt;stroke-linejoin:miter;stroke:rgb(0%,0%,0%);stroke-opacity:1;stroke-miterlimit:10;" d="M 159.925781 253.1875 C 159.925781 258.710938 155.449219 263.1875 149.925781 263.1875 C 144.402344 263.1875 139.925781 258.710938 139.925781 253.1875 C 139.925781 247.664062 144.402344 243.1875 149.925781 243.1875 C 155.449219 243.1875 159.925781 247.664062 159.925781 253.1875 "/>
<path style="fill-rule:nonzero;fill:rgb(100%,0%,100%);fill-opacity:1;stroke-width:1;stroke-linecap:butt;stroke-linejoin:miter;stroke:rgb(0%,0%,0%);stroke-opacity:1;stroke-miterlimit:10;" d="M 236.226562 45.003906 C 236.226562 50.527344 231.75 55.003906 226.226562 55.003906 C 220.703125 55.003906 216.226562 50.527344 216.226562 45.003906 C 216.226562 39.480469 220.703125 35.003906 226.226562 35.003906 C 231.75 35.003906 236.226562 39.480469 236.226562 45.003906 "/>
<path style="fill-rule:nonzero;fill:rgb(100%,0%,0%);fill-opacity:1;stroke-width:1;stroke-linecap:butt;stroke-linejoin:miter;stroke:rgb(0%,0%,0%);stroke-opacity:1;stroke-miterlimit:10;" d="M 30 345.910156 C 30 351.433594 25.523438 355.910156 20 355.910156 C 14.476562 355.910156 10 351.433594 10 345.910156 C 10 340.390625 14.476562 335.910156 20 335.910156 C 25.523438 335.910156 30 340.390625 30 345.910156 "/>
<path style="fill-rule:nonzero;fill:rgb(0%,100%,100%);fill-opacity:1;stroke-width:1;stroke-linecap:butt;stroke-linejoin:miter;stroke:rgb(0%,0%,0%);stroke-opacity:1;stroke-miterlimit:10;" d="M 185.253906 63.304688 C 185.253906 68.824219 180.777344 73.304688 175.253906 73.304688 C 169.730469 73.304688 165.253906 68.824219 165.253906 63.304688 C 165.253906 57.78125 169.730469 53.304688 175.253906 53.304688 C 180.777344 53.304688 185.253906 57.78125 185.253906 63.304688 "/>
<path style="fill-rule:nonzero;fill:rgb(50.196078%,50.196078%,50.196078%);fill-opacity:1;stroke-width:1;stroke-linecap:butt;stroke-linejoin:miter;stroke:rgb(0%,0%,0%);stroke-opacity:1;stroke-miterlimit:10;" d="M 456.578125 121.5625 C 456.578125 127.085938 452.101562 131.5625 446.578125 131.5625 C 441.054688 131.5625 436.578125 127.085938 436.578125 121.5625 C 436.578125 116.039062 441.054688 111.5625 446.578125 111.5625 C 452.101562 111.5625 456.578125 116.039062 456.578125 121.5625 "/>
<path style="fill-rule:nonzero;fill:rgb(50%,0%,0%);fill-opacity:1;stroke-width:1;stroke-linecap:butt;stroke-linejoin:miter;stroke:rgb(0%,0%,0%);stroke-opacity:1;stroke-miterlimit:10;" d="M 590 215.535156 C 590 221.058594 585.523438 225.535156 580 225.535156 C 574.476562 225.535156 570 221.058594 570 215.535156 C 570 210.011719 574.476562 205.535156 580 205.535156 C 585.523438 205.535156 590 210.011719 590 215.535156 "/>
<path style="fill-rule:nonzero;fill:rgb(50.196078%,50.196078%,50.196078%);fill-opacity:1;stroke-width:1;stroke-linecap:butt;stroke-linejoin:miter;stroke:rgb(0%,0%,0%);stroke-opacity:1;stroke-miterlimit:10;" d="M 583.53125 170.46875 C 583.53125 175.992188 579.054688 180.46875 573.53125 180.46875 C 568.011719 180.46875 563.53125 175.992188 563.53125 170.46875 C 563.53125 164.945312 568.011719 160.46875 573.53125 160.46875 C 579.054688 160.46875 583.53125 164.945312 583.53125 170.46875 "/>
<path style="fill-rule:nonzero;fill:rgb(0%,50%,0%);fill-opacity:1;stroke-width:1;stroke-linecap:butt;stroke-linejoin:miter;stroke:rgb(0%,0%,0%);stroke-opacity:1;stroke-miterlimit:10;" d="M 379.742188 20 C 379.742188 25.523438 375.265625 30 369.742188 30 C 364.21875 30 359.742188 25.523438 359.742188 20 C 359.742188 14.476562 364.21875 10 369.742188 10 C 375.265625 10 379.742188 14.476562 379.742188 20 "/>
<path style="fill-rule:nonzero;fill:rgb(50.196078%,50.196078%,50.196078%);fill-opacity:1;stroke-width:1;stroke-linecap:butt;stroke-linejoin:miter;stroke:rgb(0%,0%,0%);stroke-opacity:1;stroke-miterlimit:10;" d="M 454.949219 183.449219 C 454.949219 188.972656 450.46875 193.449219 444.949219 193.449219 C 439.425781 193.449219 434.949219 188.972656 434.949219 183.449219 C 434.949219 177.925781 439.425781 173.449219 444.949219 173.449219 C 450.46875 173.449219 454.949219 177.925781 454.949219 183.449219 "/>
<path style="fill-rule:nonzero;fill:rgb(100%,0%,0%);fill-opacity:1;stroke-width:1;stroke-linecap:butt;stroke-linejoin:miter;stroke:rgb(0%,0%,0%);stroke-opacity:1;stroke-miterlimit:10;" d="M 367.753906 191.007812 C 367.753906 196.53125 363.277344 201.007812 357.753906 201.007812 C 352.230469 201.007812 347.753906 196.53125 347.753906 191.007812 C 347.753906 185.484375 352.230469 181.007812 357.753906 181.007812 C 363.277344 181.007812 367.753906 185.484375 367.753906 191.007812 "/>
<path style="fill-rule:nonzero;fill:rgb(50.196078%,50.196078%,50.196078%);fill-opacity:1;stroke-width:1;stroke-linecap:butt;stroke-linejoin:miter;stroke:rgb(0%,0%,0%);stroke-opacity:1;stroke-miterlimit:10;" d="M 378.132812 68.105469 C 378.132812 73.625 373.65625 78.105469 368.132812 78.105469 C 362.609375 78.105469 358.132812 73.625 358.132812 68.105469 C 358.132812 62.582031 362.609375 58.105469 368.132812 58.105469 C 373.65625 58.105469 378.132812 62.582031 378.132812 68.105469 "/>
<path style="fill-rule:nonzero;fill:rgb(100%,0%,0%);fill-opacity:1;stroke-width:1;stroke-linecap:butt;stroke-linejoin:miter;stroke:rgb(0%,0%,0%);stroke-opacity:1;stroke-miterlimit:10;" d="M 180.539062 192.746094 C 180.539062 198.269531 176.0625 202.746094 170.539062 202.746094 C 165.015625 202.746094 160.539062 198.269531 160.539062 192.746094 C 160.539062 187.222656 165.015625 182.746094 170.539062 182.746094 C 176.0625 182.746094 180.539062 187.222656 180.539062 192.746094 "/>
<path style="fill-rule:nonzero;fill:rgb(100%,0%,0%);fill-opacity:1;stroke-width:1;stroke-linecap:butt;stroke-linejoin:miter;stroke:rgb(0%,0%,0%);stroke-opacity:1;stroke-miterlimit:10;" d="M 403.671875 225.050781 C 403.671875 230.570312 399.195312 235.050781 393.671875 235.050781 C 388.148438 235.050781 383.671875 230.570312 383.671875 225.050781 C 383.671875 219.527344 388.148438 215.050781 393.671875 215.050781 C 399.195312 215.050781 403.671875 219.527344 403.671875 225.050781 "/>
<path style="fill-rule:nonzero;fill:rgb(100%,0%,0%);fill-opacity:1;stroke-width:1;stroke-linecap:butt;stroke-linejoin:miter;stroke:rgb(0%,0%,0%);stroke-opacity:1;stroke-miterlimit:10;" d="M 292.644531 125.144531 C 292.644531 130.667969 288.167969 135.144531 282.644531 135.144531 C 277.121094 135.144531 272.644531 130.667969 272.644531 125.144531 C 272.644531 119.621094 277.121094 115.144531 282.644531 115.144531 C 288.167969 115.144531 292.644531 119.621094 292.644531 125.144531 "/>
<path style="fill-rule:nonzero;fill:rgb(100%,0%,0%);fill-opacity:1;stroke-width:1;stroke-linecap:butt;stroke-linejoin:miter;stroke:rgb(0%,0%,0%);stroke-opacity:1;stroke-miterlimit:10;" d="M 293.214844 141.472656 C 293.214844 146.996094 288.734375 151.472656 283.214844 151.472656 C 277.691406 151.472656 273.214844 146.996094 273.214844 141.472656 C 273.214844 135.949219 277.691406 131.472656 283.214844 131.472656 C 288.734375 131.472656 293.214844 135.949219 293.214844 141.472656 "/>
</g>
</svg>
