<?xml version="1.0" encoding="UTF-8"?>
<svg xmlns="http://www.w3.org/2000/svg" xmlns:xlink="http://www.w3.org/1999/xlink" width="600pt" height="600pt" viewBox="0 0 600 600" version="1.1">
<g id="surface86">
<rect x="0" y="0" width="600" height="600" style="fill:rgb(100%,100%,100%);fill-opacity:1;stroke:none;"/>
<path style="fill-rule:nonzero;fill:rgb(100%,0%,0%);fill-opacity:0.25;stroke-width:2;stroke-linecap:butt;stroke-linejoin:miter;stroke:rgb(100%,0%,0%);stroke-opacity:1;stroke-miterlimit:10;" d="M 392.558594 70.109375 L 254.1875 6.210938 C 242.835938 0.96875 221.070312 2.632812 210.648438 9.535156 L 16.347656 138.25 C 5.925781 145.152344 1.472656 163.039062 7.4375 174.023438 L 115.785156 373.511719 C 121.753906 384.496094 140.0625 397.4375 152.410156 399.398438 L 429.351562 443.324219 C 441.699219 445.28125 455.9375 434.882812 457.832031 422.527344 L 490.523438 209.222656 C 492.417969 196.867188 486.742188 174.5625 479.175781 164.613281 L 430.390625 100.488281 C 422.824219 90.539062 403.90625 75.351562 392.558594 70.109375 "/>
<path style="fill-rule:nonzero;fill:rgb(50.196078%,50.196078%,50.196078%);fill-opacity:0.25;stroke-width:2;stroke-linecap:butt;stroke-linejoin:miter;stroke:rgb(50.196078%,50.196078%,50.196078%);stroke-opacity:1;stroke-miterlimit:10;" d="M 551.40625 295.644531 C 554.472656 303.933594 553.839844 320.253906 550.144531 328.28125 L 528.046875 376.300781 C 524.351562 384.332031 512.363281 395.425781 504.074219 398.488281 C 495.78125 401.554688 484.425781 396.328125 481.363281 388.039062 C 478.296875 379.746094 478.929688 363.425781 482.625 355.398438 L 504.726562 307.378906 C 508.421875 299.347656 520.40625 288.253906 528.695312 285.191406 C 536.988281 282.125 548.34375 287.351562 551.40625 295.644531 "/>
<path style="fill-rule:nonzero;fill:rgb(50%,0%,0%);fill-opacity:0.25;stroke-width:2;stroke-linecap:butt;stroke-linejoin:miter;stroke:rgb(50%,0%,0%);stroke-opacity:1;stroke-miterlimit:10;" d="M 482.734375 546.011719 C 481.886719 554.808594 474.21875 569.230469 467.398438 574.851562 L 451.390625 588.046875 C 444.570312 593.667969 428.949219 598.445312 420.152344 597.597656 C 411.355469 596.75 403.402344 587.101562 404.25 578.304688 C 405.097656 569.507812 412.765625 555.085938 419.585938 549.464844 L 435.597656 536.269531 C 442.417969 530.648438 458.035156 525.871094 466.835938 526.71875 C 475.632812 527.566406 483.582031 537.214844 482.734375 546.011719 "/>
<path style="fill:none;stroke-width:1;stroke-linecap:butt;stroke-linejoin:miter;stroke:rgb(20%,20%,20%);stroke-opacity:1;stroke-miterlimit:10;" d="M 236.984375 219.730469 L 273.308594 173.671875 "/>
<path style=" stroke:none;fill-rule:nonzero;fill:rgb(20%,20%,20%);fill-opacity:1;" d="M 282.144531 162.46875 L 276.949219 176.542969 L 269.671875 170.800781 L 282.144531 162.46875 "/>
<path style="fill:none;stroke-width:1;stroke-linecap:butt;stroke-linejoin:miter;stroke:rgb(20%,20%,20%);stroke-opacity:1;stroke-miterlimit:10;" d="M 236.984375 219.730469 L 330.492188 271.597656 "/>
<path style=" stroke:none;fill-rule:nonzero;fill:rgb(20%,20%,20%);fill-opacity:1;" d="M 342.96875 278.515625 L 328.246094 275.648438 L 332.742188 267.542969 L 342.96875 278.515625 "/>
<path style="fill:none;stroke-width:1;stroke-linecap:butt;stroke-linejoin:miter;stroke:rgb(20%,20%,20%);stroke-opacity:1;stroke-miterlimit:10;" d="M 236.984375 219.730469 L 254.578125 264.417969 "/>
<path style=" stroke:none;fill-rule:nonzero;fill:rgb(20%,20%,20%);fill-opacity:1;" d="M 259.804688 277.691406 L 250.265625 266.113281 L 258.890625 262.71875 L 259.804688 277.691406 "/>
<path style="fill:none;stroke-width:1;stroke-linecap:butt;stroke-linejoin:miter;stroke:rgb(20%,20%,20%);stroke-opacity:1;stroke-miterlimit:10;" d="M 236.984375 219.730469 L 158.371094 128.726562 "/>
<path style=" stroke:none;fill-rule:nonzero;fill:rgb(20%,20%,20%);fill-opacity:1;" d="M 149.042969 117.929688 L 161.878906 125.695312 L 154.863281 131.757812 L 149.042969 117.929688 "/>
<path style="fill:none;stroke-width:1;stroke-linecap:butt;stroke-linejoin:miter;stroke:rgb(20%,20%,20%);stroke-opacity:1;stroke-miterlimit:10;" d="M 236.984375 219.730469 L 122.601562 217.8125 "/>
<path style=" stroke:none;fill-rule:nonzero;fill:rgb(20%,20%,20%);fill-opacity:1;" d="M 108.339844 217.574219 L 122.679688 213.179688 L 122.523438 222.449219 L 108.339844 217.574219 "/>
<path style="fill:none;stroke-width:1;stroke-linecap:butt;stroke-linejoin:miter;stroke:rgb(20%,20%,20%);stroke-opacity:1;stroke-miterlimit:10;" d="M 236.984375 219.730469 L 122.972656 152.636719 "/>
<path style=" stroke:none;fill-rule:nonzero;fill:rgb(20%,20%,20%);fill-opacity:1;" d="M 110.675781 145.402344 L 125.324219 148.640625 L 120.621094 156.632812 L 110.675781 145.402344 "/>
<path style="fill:none;stroke-width:1;stroke-linecap:butt;stroke-linejoin:miter;stroke:rgb(20%,20%,20%);stroke-opacity:1;stroke-miterlimit:10;" d="M 236.984375 219.730469 L 269.152344 307.40625 "/>
<path style=" stroke:none;fill-rule:nonzero;fill:rgb(20%,20%,20%);fill-opacity:1;" d="M 274.0625 320.800781 L 264.800781 309.003906 L 273.503906 305.8125 L 274.0625 320.800781 "/>
<path style="fill:none;stroke-width:1;stroke-linecap:butt;stroke-linejoin:miter;stroke:rgb(20%,20%,20%);stroke-opacity:1;stroke-miterlimit:10;" d="M 236.984375 219.730469 L 348.640625 186.679688 "/>
<path style=" stroke:none;fill-rule:nonzero;fill:rgb(20%,20%,20%);fill-opacity:1;" d="M 362.320312 182.632812 L 349.957031 191.125 L 347.324219 182.238281 L 362.320312 182.632812 "/>
<path style="fill:none;stroke-width:1;stroke-linecap:butt;stroke-linejoin:miter;stroke:rgb(20%,20%,20%);stroke-opacity:1;stroke-miterlimit:10;" d="M 236.984375 219.730469 L 163.632812 215.769531 "/>
<path style=" stroke:none;fill-rule:nonzero;fill:rgb(20%,20%,20%);fill-opacity:1;" d="M 149.386719 215 L 163.882812 211.140625 L 163.382812 220.394531 L 149.386719 215 "/>
<path style="fill:none;stroke-width:1;stroke-linecap:butt;stroke-linejoin:miter;stroke:rgb(20%,20%,20%);stroke-opacity:1;stroke-miterlimit:10;" d="M 236.984375 219.730469 L 156.3125 355.578125 "/>
<path style=" stroke:none;fill-rule:nonzero;fill:rgb(20%,20%,20%);fill-opacity:1;" d="M 149.027344 367.84375 L 152.324219 353.210938 L 160.296875 357.945312 L 149.027344 367.84375 "/>
<path style="fill:none;stroke-width:1;stroke-linecap:butt;stroke-linejoin:miter;stroke:rgb(20%,20%,20%);stroke-opacity:1;stroke-miterlimit:10;" d="M 236.984375 219.730469 L 206.214844 359.589844 "/>
<path style=" stroke:none;fill-rule:nonzero;fill:rgb(20%,20%,20%);fill-opacity:1;" d="M 203.148438 373.523438 L 201.6875 358.59375 L 210.742188 360.585938 L 203.148438 373.523438 "/>
<path style="fill:none;stroke-width:1;stroke-linecap:butt;stroke-linejoin:miter;stroke:rgb(20%,20%,20%);stroke-opacity:1;stroke-miterlimit:10;" d="M 236.984375 219.730469 L 301.851562 225.230469 "/>
<path style=" stroke:none;fill-rule:nonzero;fill:rgb(20%,20%,20%);fill-opacity:1;" d="M 316.066406 226.433594 L 301.460938 229.847656 L 302.242188 220.609375 L 316.066406 226.433594 "/>
<path style="fill:none;stroke-width:1;stroke-linecap:butt;stroke-linejoin:miter;stroke:rgb(20%,20%,20%);stroke-opacity:1;stroke-miterlimit:10;" d="M 236.984375 219.730469 L 215.144531 98.808594 "/>
<path style=" stroke:none;fill-rule:nonzero;fill:rgb(20%,20%,20%);fill-opacity:1;" d="M 212.609375 84.769531 L 219.707031 97.984375 L 210.582031 99.632812 L 212.609375 84.769531 "/>
<path style="fill:none;stroke-width:1;stroke-linecap:butt;stroke-linejoin:miter;stroke:rgb(20%,20%,20%);stroke-opacity:1;stroke-miterlimit:10;" d="M 236.984375 219.730469 L 319.742188 135.773438 "/>
<path style=" stroke:none;fill-rule:nonzero;fill:rgb(20%,20%,20%);fill-opacity:1;" d="M 329.757812 125.613281 L 323.042969 139.027344 L 316.441406 132.519531 L 329.757812 125.613281 "/>
<path style="fill:none;stroke-width:1;stroke-linecap:butt;stroke-linejoin:miter;stroke:rgb(20%,20%,20%);stroke-opacity:1;stroke-miterlimit:10;" d="M 236.984375 219.730469 L 237.421875 44.265625 "/>
<path style=" stroke:none;fill-rule:nonzero;fill:rgb(20%,20%,20%);fill-opacity:1;" d="M 237.457031 30 L 242.058594 44.277344 L 232.785156 44.253906 L 237.457031 30 "/>
<path style="fill:none;stroke-width:1;stroke-linecap:butt;stroke-linejoin:miter;stroke:rgb(20%,20%,20%);stroke-opacity:1;stroke-miterlimit:10;" d="M 236.984375 219.730469 L 371.757812 355.582031 "/>
<path style=" stroke:none;fill-rule:nonzero;fill:rgb(20%,20%,20%);fill-opacity:1;" d="M 381.804688 365.710938 L 368.464844 358.847656 L 375.046875 352.320312 L 381.804688 365.710938 "/>
<path style="fill:none;stroke-width:1;stroke-linecap:butt;stroke-linejoin:miter;stroke:rgb(20%,20%,20%);stroke-opacity:1;stroke-miterlimit:10;" d="M 288.335938 154.617188 L 340.996094 261.59375 "/>
<path style=" stroke:none;fill-rule:nonzero;fill:rgb(20%,20%,20%);fill-opacity:1;" d="M 347.296875 274.394531 L 336.835938 263.640625 L 345.15625 259.546875 L 347.296875 274.394531 "/>
<path style="fill:none;stroke-width:1;stroke-linecap:butt;stroke-linejoin:miter;stroke:rgb(20%,20%,20%);stroke-opacity:1;stroke-miterlimit:10;" d="M 288.335938 154.617188 L 267.949219 263.148438 "/>
<path style=" stroke:none;fill-rule:nonzero;fill:rgb(20%,20%,20%);fill-opacity:1;" d="M 265.3125 277.167969 L 263.390625 262.289062 L 272.503906 264.003906 L 265.3125 277.167969 "/>
<path style="fill:none;stroke-width:1;stroke-linecap:butt;stroke-linejoin:miter;stroke:rgb(20%,20%,20%);stroke-opacity:1;stroke-miterlimit:10;" d="M 288.335938 154.617188 L 279.003906 305.96875 "/>
<path style=" stroke:none;fill-rule:nonzero;fill:rgb(20%,20%,20%);fill-opacity:1;" d="M 278.125 320.207031 L 274.375 305.683594 L 283.628906 306.253906 L 278.125 320.207031 "/>
<path style="fill:none;stroke-width:1;stroke-linecap:butt;stroke-linejoin:miter;stroke:rgb(20%,20%,20%);stroke-opacity:1;stroke-miterlimit:10;" d="M 288.335938 154.617188 L 314.855469 205.738281 "/>
<path style=" stroke:none;fill-rule:nonzero;fill:rgb(20%,20%,20%);fill-opacity:1;" d="M 321.425781 218.402344 L 310.742188 207.875 L 318.96875 203.605469 L 321.425781 218.402344 "/>
<path style="fill:none;stroke-width:1;stroke-linecap:butt;stroke-linejoin:miter;stroke:rgb(20%,20%,20%);stroke-opacity:1;stroke-miterlimit:10;" d="M 288.335938 154.617188 L 227.75 92.324219 "/>
<path style=" stroke:none;fill-rule:nonzero;fill:rgb(20%,20%,20%);fill-opacity:1;" d="M 217.804688 82.097656 L 231.070312 89.09375 L 224.425781 95.558594 L 217.804688 82.097656 "/>
<path style="fill:none;stroke-width:1;stroke-linecap:butt;stroke-linejoin:miter;stroke:rgb(20%,20%,20%);stroke-opacity:1;stroke-miterlimit:10;" d="M 288.335938 154.617188 L 317.324219 133 "/>
<path style=" stroke:none;fill-rule:nonzero;fill:rgb(20%,20%,20%);fill-opacity:1;" d="M 328.761719 124.46875 L 320.097656 136.714844 L 314.554688 129.28125 L 328.761719 124.46875 "/>
<path style="fill:none;stroke-width:1;stroke-linecap:butt;stroke-linejoin:miter;stroke:rgb(20%,20%,20%);stroke-opacity:1;stroke-miterlimit:10;" d="M 288.335938 154.617188 L 246.058594 42.699219 "/>
<path style=" stroke:none;fill-rule:nonzero;fill:rgb(20%,20%,20%);fill-opacity:1;" d="M 241.015625 29.355469 L 250.394531 41.0625 L 241.722656 44.339844 L 241.015625 29.355469 "/>
<path style="fill:none;stroke-width:1;stroke-linecap:butt;stroke-linejoin:miter;stroke:rgb(20%,20%,20%);stroke-opacity:1;stroke-miterlimit:10;" d="M 288.335938 154.617188 L 376.003906 109.386719 "/>
<path style=" stroke:none;fill-rule:nonzero;fill:rgb(20%,20%,20%);fill-opacity:1;" d="M 388.683594 102.84375 L 378.128906 113.503906 L 373.878906 105.265625 L 388.683594 102.84375 "/>
<path style="fill:none;stroke-width:1;stroke-linecap:butt;stroke-linejoin:miter;stroke:rgb(20%,20%,20%);stroke-opacity:1;stroke-miterlimit:10;" d="M 351.714844 283.367188 L 287.714844 286 "/>
<path style=" stroke:none;fill-rule:nonzero;fill:rgb(20%,20%,20%);fill-opacity:1;" d="M 273.460938 286.585938 L 287.523438 281.367188 L 287.902344 290.628906 L 273.460938 286.585938 "/>
<path style="fill:none;stroke-width:1;stroke-linecap:butt;stroke-linejoin:miter;stroke:rgb(20%,20%,20%);stroke-opacity:1;stroke-miterlimit:10;" d="M 351.714844 283.367188 L 298.03125 317.238281 "/>
<path style=" stroke:none;fill-rule:nonzero;fill:rgb(20%,20%,20%);fill-opacity:1;" d="M 285.964844 324.851562 L 295.558594 313.320312 L 300.503906 321.160156 L 285.964844 324.851562 "/>
<path style="fill:none;stroke-width:1;stroke-linecap:butt;stroke-linejoin:miter;stroke:rgb(20%,20%,20%);stroke-opacity:1;stroke-miterlimit:10;" d="M 351.714844 283.367188 L 367.265625 203.609375 "/>
<path style=" stroke:none;fill-rule:nonzero;fill:rgb(20%,20%,20%);fill-opacity:1;" d="M 369.996094 189.609375 L 371.8125 204.496094 L 362.714844 202.722656 L 369.996094 189.609375 "/>
<path style="fill:none;stroke-width:1;stroke-linecap:butt;stroke-linejoin:miter;stroke:rgb(20%,20%,20%);stroke-opacity:1;stroke-miterlimit:10;" d="M 351.714844 283.367188 L 395.214844 274.558594 "/>
<path style=" stroke:none;fill-rule:nonzero;fill:rgb(20%,20%,20%);fill-opacity:1;" d="M 409.195312 271.726562 L 396.132812 279.101562 L 394.292969 270.015625 L 409.195312 271.726562 "/>
<path style="fill:none;stroke-width:1;stroke-linecap:butt;stroke-linejoin:miter;stroke:rgb(20%,20%,20%);stroke-opacity:1;stroke-miterlimit:10;" d="M 351.714844 283.367188 L 336.132812 249.339844 "/>
<path style=" stroke:none;fill-rule:nonzero;fill:rgb(20%,20%,20%);fill-opacity:1;" d="M 330.195312 236.371094 L 340.347656 247.410156 L 331.917969 251.273438 L 330.195312 236.371094 "/>
<path style="fill:none;stroke-width:1;stroke-linecap:butt;stroke-linejoin:miter;stroke:rgb(20%,20%,20%);stroke-opacity:1;stroke-miterlimit:10;" d="M 351.714844 283.367188 L 426.816406 406.222656 "/>
<path style=" stroke:none;fill-rule:nonzero;fill:rgb(20%,20%,20%);fill-opacity:1;" d="M 434.257812 418.390625 L 422.863281 408.636719 L 430.773438 403.804688 L 434.257812 418.390625 "/>
<path style="fill:none;stroke-width:1;stroke-linecap:butt;stroke-linejoin:miter;stroke:rgb(20%,20%,20%);stroke-opacity:1;stroke-miterlimit:10;" d="M 351.714844 283.367188 L 405.347656 342.976562 "/>
<path style=" stroke:none;fill-rule:nonzero;fill:rgb(20%,20%,20%);fill-opacity:1;" d="M 414.886719 353.582031 L 401.902344 346.074219 L 408.792969 339.875 L 414.886719 353.582031 "/>
<path style="fill:none;stroke-width:1;stroke-linecap:butt;stroke-linejoin:miter;stroke:rgb(20%,20%,20%);stroke-opacity:1;stroke-miterlimit:10;" d="M 351.714844 283.367188 L 450.675781 202.953125 "/>
<path style=" stroke:none;fill-rule:nonzero;fill:rgb(20%,20%,20%);fill-opacity:1;" d="M 461.746094 193.957031 L 453.597656 206.550781 L 447.753906 199.359375 L 461.746094 193.957031 "/>
<path style="fill:none;stroke-width:1;stroke-linecap:butt;stroke-linejoin:miter;stroke:rgb(20%,20%,20%);stroke-opacity:1;stroke-miterlimit:10;" d="M 263.46875 286.996094 L 270.007812 307.109375 "/>
<path style=" stroke:none;fill-rule:nonzero;fill:rgb(20%,20%,20%);fill-opacity:1;" d="M 274.417969 320.679688 L 265.597656 308.542969 L 274.414062 305.679688 L 274.417969 320.679688 "/>
<path style="fill:none;stroke-width:1;stroke-linecap:butt;stroke-linejoin:miter;stroke:rgb(20%,20%,20%);stroke-opacity:1;stroke-miterlimit:10;" d="M 263.46875 286.996094 L 214.207031 362.929688 "/>
<path style=" stroke:none;fill-rule:nonzero;fill:rgb(20%,20%,20%);fill-opacity:1;" d="M 206.441406 374.898438 L 210.316406 360.40625 L 218.09375 365.453125 L 206.441406 374.898438 "/>
<path style="fill:none;stroke-width:1;stroke-linecap:butt;stroke-linejoin:miter;stroke:rgb(20%,20%,20%);stroke-opacity:1;stroke-miterlimit:10;" d="M 263.46875 286.996094 L 308.476562 244.035156 "/>
<path style=" stroke:none;fill-rule:nonzero;fill:rgb(20%,20%,20%);fill-opacity:1;" d="M 318.796875 234.183594 L 311.675781 247.386719 L 305.277344 240.679688 L 318.796875 234.183594 "/>
<path style="fill:none;stroke-width:1;stroke-linecap:butt;stroke-linejoin:miter;stroke:rgb(20%,20%,20%);stroke-opacity:1;stroke-miterlimit:10;" d="M 142.507812 110.363281 L 121.554688 125.886719 "/>
<path style=" stroke:none;fill-rule:nonzero;fill:rgb(20%,20%,20%);fill-opacity:1;" d="M 110.09375 134.378906 L 118.796875 122.160156 L 124.316406 129.609375 L 110.09375 134.378906 "/>
<path style="fill:none;stroke-width:1;stroke-linecap:butt;stroke-linejoin:miter;stroke:rgb(20%,20%,20%);stroke-opacity:1;stroke-miterlimit:10;" d="M 142.507812 110.363281 L 140.125 190.203125 "/>
<path style=" stroke:none;fill-rule:nonzero;fill:rgb(20%,20%,20%);fill-opacity:1;" d="M 139.699219 204.464844 L 135.492188 190.066406 L 144.757812 190.339844 L 139.699219 204.464844 "/>
<path style="fill:none;stroke-width:1;stroke-linecap:butt;stroke-linejoin:miter;stroke:rgb(20%,20%,20%);stroke-opacity:1;stroke-miterlimit:10;" d="M 98.339844 217.40625 L 100.890625 164.566406 "/>
<path style=" stroke:none;fill-rule:nonzero;fill:rgb(20%,20%,20%);fill-opacity:1;" d="M 101.578125 150.320312 L 105.519531 164.792969 L 96.257812 164.34375 L 101.578125 150.320312 "/>
<path style="fill:none;stroke-width:1;stroke-linecap:butt;stroke-linejoin:miter;stroke:rgb(20%,20%,20%);stroke-opacity:1;stroke-miterlimit:10;" d="M 98.339844 217.40625 L 115.199219 216.195312 "/>
<path style=" stroke:none;fill-rule:nonzero;fill:rgb(20%,20%,20%);fill-opacity:1;" d="M 129.429688 215.175781 L 115.53125 220.820312 L 114.867188 211.574219 L 129.429688 215.175781 "/>
<path style="fill:none;stroke-width:1;stroke-linecap:butt;stroke-linejoin:miter;stroke:rgb(20%,20%,20%);stroke-opacity:1;stroke-miterlimit:10;" d="M 98.339844 217.40625 L 39.222656 171.863281 "/>
<path style=" stroke:none;fill-rule:nonzero;fill:rgb(20%,20%,20%);fill-opacity:1;" d="M 27.921875 163.15625 L 42.050781 168.191406 L 36.394531 175.535156 L 27.921875 163.15625 "/>
<path style="fill:none;stroke-width:1;stroke-linecap:butt;stroke-linejoin:miter;stroke:rgb(20%,20%,20%);stroke-opacity:1;stroke-miterlimit:10;" d="M 102.058594 140.328125 L 43.777344 152.207031 "/>
<path style=" stroke:none;fill-rule:nonzero;fill:rgb(20%,20%,20%);fill-opacity:1;" d="M 29.796875 155.058594 L 42.851562 147.667969 L 44.703125 156.75 L 29.796875 155.058594 "/>
<path style="fill:none;stroke-width:1;stroke-linecap:butt;stroke-linejoin:miter;stroke:rgb(20%,20%,20%);stroke-opacity:1;stroke-miterlimit:10;" d="M 371.910156 179.792969 L 390.285156 121.40625 "/>
<path style=" stroke:none;fill-rule:nonzero;fill:rgb(20%,20%,20%);fill-opacity:1;" d="M 394.566406 107.796875 L 394.707031 122.796875 L 385.863281 120.015625 L 394.566406 107.796875 "/>
<path style="fill:none;stroke-width:1;stroke-linecap:butt;stroke-linejoin:miter;stroke:rgb(20%,20%,20%);stroke-opacity:1;stroke-miterlimit:10;" d="M 371.910156 179.792969 L 445.320312 185.703125 "/>
<path style=" stroke:none;fill-rule:nonzero;fill:rgb(20%,20%,20%);fill-opacity:1;" d="M 459.539062 186.851562 L 444.949219 190.324219 L 445.691406 181.085938 L 459.539062 186.851562 "/>
<path style="fill:none;stroke-width:1;stroke-linecap:butt;stroke-linejoin:miter;stroke:rgb(20%,20%,20%);stroke-opacity:1;stroke-miterlimit:10;" d="M 371.910156 179.792969 L 436.921875 208.949219 "/>
<path style=" stroke:none;fill-rule:nonzero;fill:rgb(20%,20%,20%);fill-opacity:1;" d="M 449.941406 214.785156 L 435.027344 213.175781 L 438.820312 204.71875 L 449.941406 214.785156 "/>
<path style="fill:none;stroke-width:1;stroke-linecap:butt;stroke-linejoin:miter;stroke:rgb(20%,20%,20%);stroke-opacity:1;stroke-miterlimit:10;" d="M 418.996094 269.742188 L 444.046875 237.9375 "/>
<path style=" stroke:none;fill-rule:nonzero;fill:rgb(20%,20%,20%);fill-opacity:1;" d="M 452.875 226.734375 L 447.691406 240.808594 L 440.40625 235.070312 L 452.875 226.734375 "/>
<path style="fill:none;stroke-width:1;stroke-linecap:butt;stroke-linejoin:miter;stroke:rgb(20%,20%,20%);stroke-opacity:1;stroke-miterlimit:10;" d="M 326.03125 227.277344 L 434.847656 220.40625 "/>
<path style=" stroke:none;fill-rule:nonzero;fill:rgb(20%,20%,20%);fill-opacity:1;" d="M 449.085938 219.507812 L 435.140625 225.03125 L 434.554688 215.78125 L 449.085938 219.507812 "/>
<path style="fill:none;stroke-width:1;stroke-linecap:butt;stroke-linejoin:miter;stroke:rgb(80%,80%,80%);stroke-opacity:1;stroke-miterlimit:10;" d="M 510.6875 40.289062 L 476.039062 164.28125 "/>
<path style=" stroke:none;fill-rule:nonzero;fill:rgb(80%,80%,80%);fill-opacity:1;" d="M 472.199219 178.019531 L 471.574219 163.035156 L 480.503906 165.53125 L 472.199219 178.019531 "/>
<path style="fill:none;stroke-width:1;stroke-linecap:butt;stroke-linejoin:miter;stroke:rgb(80%,80%,80%);stroke-opacity:1;stroke-miterlimit:10;" d="M 510.6875 40.289062 L 465.800781 195.566406 "/>
<path style=" stroke:none;fill-rule:nonzero;fill:rgb(80%,80%,80%);fill-opacity:1;" d="M 461.839844 209.269531 L 461.351562 194.277344 L 470.253906 196.851562 L 461.839844 209.269531 "/>
<path style="fill:none;stroke-width:1;stroke-linecap:butt;stroke-linejoin:miter;stroke:rgb(80%,80%,80%);stroke-opacity:1;stroke-miterlimit:10;" d="M 547.152344 207.726562 L 493 193.726562 "/>
<path style=" stroke:none;fill-rule:nonzero;fill:rgb(80%,80%,80%);fill-opacity:1;" d="M 479.191406 190.15625 L 494.160156 189.238281 L 491.839844 198.214844 L 479.191406 190.15625 "/>
<path style="fill:none;stroke-width:1;stroke-linecap:butt;stroke-linejoin:miter;stroke:rgb(80%,80%,80%);stroke-opacity:1;stroke-miterlimit:10;" d="M 547.152344 207.726562 L 483.136719 215.828125 "/>
<path style=" stroke:none;fill-rule:nonzero;fill:rgb(80%,80%,80%);fill-opacity:1;" d="M 468.984375 217.621094 L 482.554688 211.230469 L 483.71875 220.429688 L 468.984375 217.621094 "/>
<path style="fill:none;stroke-width:1;stroke-linecap:butt;stroke-linejoin:miter;stroke:rgb(80%,80%,80%);stroke-opacity:1;stroke-miterlimit:10;" d="M 535.628906 80.503906 L 482.25 167.003906 "/>
<path style=" stroke:none;fill-rule:nonzero;fill:rgb(80%,80%,80%);fill-opacity:1;" d="M 474.757812 179.140625 L 478.308594 164.566406 L 486.195312 169.4375 L 474.757812 179.140625 "/>
<path style="fill:none;stroke-width:1;stroke-linecap:butt;stroke-linejoin:miter;stroke:rgb(80%,80%,80%);stroke-opacity:1;stroke-miterlimit:10;" d="M 535.628906 80.503906 L 470.8125 197.644531 "/>
<path style=" stroke:none;fill-rule:nonzero;fill:rgb(80%,80%,80%);fill-opacity:1;" d="M 463.90625 210.128906 L 466.757812 195.402344 L 474.867188 199.890625 L 463.90625 210.128906 "/>
<path style="fill:none;stroke-width:1;stroke-linecap:butt;stroke-linejoin:miter;stroke:rgb(20%,20%,20%);stroke-opacity:1;stroke-miterlimit:10;" d="M 336.777344 118.492188 L 440.308594 203.480469 "/>
<path style=" stroke:none;fill-rule:nonzero;fill:rgb(20%,20%,20%);fill-opacity:1;" d="M 451.335938 212.53125 L 437.367188 207.0625 L 443.25 199.898438 L 451.335938 212.53125 "/>
<path style="fill:none;stroke-width:1;stroke-linecap:butt;stroke-linejoin:miter;stroke:rgb(80%,80%,80%);stroke-opacity:1;stroke-miterlimit:10;" d="M 478.1875 22.273438 L 470.78125 163.421875 "/>
<path style=" stroke:none;fill-rule:nonzero;fill:rgb(80%,80%,80%);fill-opacity:1;" d="M 470.03125 177.667969 L 466.152344 163.175781 L 475.410156 163.664062 L 470.03125 177.667969 "/>
<path style="fill:none;stroke-width:1;stroke-linecap:butt;stroke-linejoin:miter;stroke:rgb(80%,80%,80%);stroke-opacity:1;stroke-miterlimit:10;" d="M 478.1875 22.273438 L 461.414062 194.726562 "/>
<path style=" stroke:none;fill-rule:nonzero;fill:rgb(80%,80%,80%);fill-opacity:1;" d="M 460.03125 208.925781 L 456.800781 194.277344 L 466.027344 195.175781 L 460.03125 208.925781 "/>
<path style="fill:none;stroke-width:1;stroke-linecap:butt;stroke-linejoin:miter;stroke:rgb(80%,80%,80%);stroke-opacity:1;stroke-miterlimit:10;" d="M 550.457031 139.460938 L 490.359375 175.238281 "/>
<path style=" stroke:none;fill-rule:nonzero;fill:rgb(80%,80%,80%);fill-opacity:1;" d="M 478.101562 182.535156 L 487.988281 171.257812 L 492.730469 179.222656 L 478.101562 182.535156 "/>
<path style="fill:none;stroke-width:1;stroke-linecap:butt;stroke-linejoin:miter;stroke:rgb(80%,80%,80%);stroke-opacity:1;stroke-miterlimit:10;" d="M 550.457031 139.460938 L 477.378906 202.960938 "/>
<path style=" stroke:none;fill-rule:nonzero;fill:rgb(80%,80%,80%);fill-opacity:1;" d="M 466.613281 212.316406 L 474.339844 199.460938 L 480.421875 206.460938 L 466.613281 212.316406 "/>
<path style="fill:none;stroke-width:1;stroke-linecap:butt;stroke-linejoin:miter;stroke:rgb(80%,80%,80%);stroke-opacity:1;stroke-miterlimit:10;" d="M 497.945312 381.910156 L 469.945312 520.53125 "/>
<path style=" stroke:none;fill-rule:nonzero;fill:rgb(80%,80%,80%);fill-opacity:1;" d="M 467.121094 534.515625 L 465.402344 519.613281 L 474.488281 521.449219 L 467.121094 534.515625 "/>
<path style="fill:none;stroke-width:1;stroke-linecap:butt;stroke-linejoin:miter;stroke:rgb(80%,80%,80%);stroke-opacity:1;stroke-miterlimit:10;" d="M 497.945312 381.910156 L 458.703125 412.121094 "/>
<path style=" stroke:none;fill-rule:nonzero;fill:rgb(80%,80%,80%);fill-opacity:1;" d="M 447.398438 420.824219 L 455.875 408.449219 L 461.53125 415.792969 L 447.398438 420.824219 "/>
<path style="fill:none;stroke-width:1;stroke-linecap:butt;stroke-linejoin:miter;stroke:rgb(20%,20%,20%);stroke-opacity:1;stroke-miterlimit:10;" d="M 497.945312 381.910156 L 524.679688 323.816406 "/>
<path style=" stroke:none;fill-rule:nonzero;fill:rgb(20%,20%,20%);fill-opacity:1;" d="M 530.644531 310.855469 L 528.890625 325.753906 L 520.46875 321.878906 L 530.644531 310.855469 "/>
<path style="fill:none;stroke-width:1;stroke-linecap:butt;stroke-linejoin:miter;stroke:rgb(80%,80%,80%);stroke-opacity:1;stroke-miterlimit:10;" d="M 497.945312 381.910156 L 473.023438 211.664062 "/>
<path style=" stroke:none;fill-rule:nonzero;fill:rgb(80%,80%,80%);fill-opacity:1;" d="M 470.957031 197.546875 L 477.609375 210.992188 L 468.4375 212.332031 L 470.957031 197.546875 "/>
<path style="fill:none;stroke-width:1;stroke-linecap:butt;stroke-linejoin:miter;stroke:rgb(80%,80%,80%);stroke-opacity:1;stroke-miterlimit:10;" d="M 497.945312 381.910156 L 464.695312 242.480469 "/>
<path style=" stroke:none;fill-rule:nonzero;fill:rgb(80%,80%,80%);fill-opacity:1;" d="M 461.382812 228.605469 L 469.203125 241.40625 L 460.183594 243.554688 L 461.382812 228.605469 "/>
<path style="fill:none;stroke-width:1;stroke-linecap:butt;stroke-linejoin:miter;stroke:rgb(20%,20%,20%);stroke-opacity:1;stroke-miterlimit:10;" d="M 421.847656 580 L 446.414062 559.75 "/>
<path style=" stroke:none;fill-rule:nonzero;fill:rgb(20%,20%,20%);fill-opacity:1;" d="M 457.421875 550.675781 L 449.363281 563.328125 L 443.464844 556.171875 L 457.421875 550.675781 "/>
<path style="fill:none;stroke-width:1;stroke-linecap:butt;stroke-linejoin:miter;stroke:rgb(80%,80%,80%);stroke-opacity:1;stroke-miterlimit:10;" d="M 421.847656 580 L 436.699219 451.03125 "/>
<path style=" stroke:none;fill-rule:nonzero;fill:rgb(80%,80%,80%);fill-opacity:1;" d="M 438.332031 436.859375 L 441.304688 451.5625 L 432.09375 450.5 L 438.332031 436.859375 "/>
<path style="fill:none;stroke-width:1;stroke-linecap:butt;stroke-linejoin:miter;stroke:rgb(80%,80%,80%);stroke-opacity:1;stroke-miterlimit:10;" d="M 421.847656 580 L 392.664062 396.773438 "/>
<path style=" stroke:none;fill-rule:nonzero;fill:rgb(80%,80%,80%);fill-opacity:1;" d="M 390.417969 382.6875 L 397.242188 396.046875 L 388.085938 397.503906 L 390.417969 382.6875 "/>
<path style="fill:none;stroke-width:1;stroke-linecap:butt;stroke-linejoin:miter;stroke:rgb(80%,80%,80%);stroke-opacity:1;stroke-miterlimit:10;" d="M 465.140625 544.316406 L 398.710938 394.980469 "/>
<path style=" stroke:none;fill-rule:nonzero;fill:rgb(80%,80%,80%);fill-opacity:1;" d="M 392.910156 381.949219 L 402.945312 393.097656 L 394.472656 396.867188 L 392.910156 381.949219 "/>
<path style="fill:none;stroke-width:1;stroke-linecap:butt;stroke-linejoin:miter;stroke:rgb(80%,80%,80%);stroke-opacity:1;stroke-miterlimit:10;" d="M 580 302.375 L 559.089844 302.09375 "/>
<path style=" stroke:none;fill-rule:nonzero;fill:rgb(80%,80%,80%);fill-opacity:1;" d="M 544.824219 301.90625 L 559.152344 297.460938 L 559.027344 306.730469 L 544.824219 301.90625 "/>
<path style="fill:none;stroke-width:1;stroke-linecap:butt;stroke-linejoin:miter;stroke:rgb(80%,80%,80%);stroke-opacity:1;stroke-miterlimit:10;" d="M 580 302.375 L 479.035156 232.664062 "/>
<path style=" stroke:none;fill-rule:nonzero;fill:rgb(80%,80%,80%);fill-opacity:1;" d="M 467.292969 224.558594 L 481.667969 228.847656 L 476.398438 236.476562 L 467.292969 224.558594 "/>
<path style="fill:none;stroke-width:1;stroke-linecap:butt;stroke-linejoin:miter;stroke:rgb(20%,20%,20%);stroke-opacity:1;stroke-miterlimit:10;" d="M 439.472656 426.925781 L 456.789062 243.035156 "/>
<path style=" stroke:none;fill-rule:nonzero;fill:rgb(20%,20%,20%);fill-opacity:1;" d="M 458.125 228.832031 L 461.40625 243.472656 L 452.175781 242.601562 L 458.125 228.832031 "/>
<path style="fill:none;stroke-width:1;stroke-linecap:butt;stroke-linejoin:miter;stroke:rgb(20%,20%,20%);stroke-opacity:1;stroke-miterlimit:10;" d="M 421.578125 361.015625 L 411.675781 364.582031 "/>
<path style=" stroke:none;fill-rule:nonzero;fill:rgb(20%,20%,20%);fill-opacity:1;" d="M 398.253906 369.421875 L 410.101562 360.222656 L 413.246094 368.945312 L 398.253906 369.421875 "/>
<path style="fill:none;stroke-width:1;stroke-linecap:butt;stroke-linejoin:miter;stroke:rgb(20%,20%,20%);stroke-opacity:1;stroke-miterlimit:10;" d="M 421.578125 361.015625 L 452.875 242.339844 "/>
<path style=" stroke:none;fill-rule:nonzero;fill:rgb(20%,20%,20%);fill-opacity:1;" d="M 456.515625 228.546875 L 457.359375 243.523438 L 448.394531 241.160156 L 456.515625 228.546875 "/>
<path style="fill:none;stroke-width:1;stroke-linecap:butt;stroke-linejoin:miter;stroke:rgb(80%,80%,80%);stroke-opacity:1;stroke-miterlimit:10;" d="M 534.824219 301.773438 L 481.5625 208.710938 "/>
<path style=" stroke:none;fill-rule:nonzero;fill:rgb(80%,80%,80%);fill-opacity:1;" d="M 474.476562 196.332031 L 485.585938 206.410156 L 477.539062 211.015625 L 474.476562 196.332031 "/>
<path style="fill:none;stroke-width:1;stroke-linecap:butt;stroke-linejoin:miter;stroke:rgb(80%,80%,80%);stroke-opacity:1;stroke-miterlimit:10;" d="M 534.824219 301.773438 L 475.433594 236.789062 "/>
<path style=" stroke:none;fill-rule:nonzero;fill:rgb(80%,80%,80%);fill-opacity:1;" d="M 465.8125 226.257812 L 478.855469 233.660156 L 472.011719 239.917969 L 465.8125 226.257812 "/>
<path style="fill:none;stroke-width:1;stroke-linecap:butt;stroke-linejoin:miter;stroke:rgb(20%,20%,20%);stroke-opacity:1;stroke-miterlimit:10;" d="M 397.570312 98.257812 L 454.296875 168.746094 "/>
<path style=" stroke:none;fill-rule:nonzero;fill:rgb(20%,20%,20%);fill-opacity:1;" d="M 463.238281 179.863281 L 450.683594 171.652344 L 457.90625 165.84375 L 463.238281 179.863281 "/>
<path style="fill:none;stroke-width:1;stroke-linecap:butt;stroke-linejoin:miter;stroke:rgb(20%,20%,20%);stroke-opacity:1;stroke-miterlimit:10;" d="M 397.570312 98.257812 L 448.042969 197.257812 "/>
<path style=" stroke:none;fill-rule:nonzero;fill:rgb(20%,20%,20%);fill-opacity:1;" d="M 454.523438 209.96875 L 443.914062 199.363281 L 452.171875 195.152344 L 454.523438 209.96875 "/>
<path style="fill:none;stroke-width:1;stroke-linecap:butt;stroke-linejoin:miter;stroke:rgb(20%,20%,20%);stroke-opacity:1;stroke-miterlimit:10;" d="M 388.847656 372.808594 L 459.816406 209.898438 "/>
<path style=" stroke:none;fill-rule:nonzero;fill:rgb(20%,20%,20%);fill-opacity:1;" d="M 465.515625 196.820312 L 464.066406 211.75 L 455.566406 208.046875 L 465.515625 196.820312 "/>
<path style="fill:none;stroke-width:1;stroke-linecap:butt;stroke-linejoin:miter;stroke:rgb(20%,20%,20%);stroke-opacity:1;stroke-miterlimit:10;" d="M 388.847656 372.808594 L 448.992188 240.953125 "/>
<path style=" stroke:none;fill-rule:nonzero;fill:rgb(20%,20%,20%);fill-opacity:1;" d="M 454.914062 227.976562 L 453.210938 242.878906 L 444.777344 239.03125 L 454.914062 227.976562 "/>
<path style="fill:none;stroke-width:1;stroke-linecap:butt;stroke-linejoin:miter;stroke:rgb(20%,20%,20%);stroke-opacity:1;stroke-miterlimit:10;" d="M 469.507812 187.652344 L 466.761719 195.863281 "/>
<path style=" stroke:none;fill-rule:nonzero;fill:rgb(20%,20%,20%);fill-opacity:1;" d="M 462.238281 209.394531 L 462.367188 194.394531 L 471.15625 197.335938 L 462.238281 209.394531 "/>
<path style="fill-rule:nonzero;fill:rgb(100%,0%,0%);fill-opacity:1;stroke-width:1;stroke-linecap:butt;stroke-linejoin:miter;stroke:rgb(0%,0%,0%);stroke-opacity:1;stroke-miterlimit:10;" d="M 246.984375 219.730469 C 246.984375 225.253906 242.507812 229.730469 236.984375 229.730469 C 231.464844 229.730469 226.984375 225.253906 226.984375 219.730469 C 226.984375 214.210938 231.464844 209.730469 236.984375 209.730469 C 242.507812 209.730469 246.984375 214.210938 246.984375 219.730469 "/>
<path style="fill-rule:nonzero;fill:rgb(100%,0%,0%);fill-opacity:1;stroke-width:1;stroke-linecap:butt;stroke-linejoin:miter;stroke:rgb(0%,0%,0%);stroke-opacity:1;stroke-miterlimit:10;" d="M 298.335938 154.617188 C 298.335938 160.140625 293.859375 164.617188 288.335938 164.617188 C 282.8125 164.617188 278.335938 160.140625 278.335938 154.617188 C 278.335938 149.09375 282.8125 144.617188 288.335938 144.617188 C 293.859375 144.617188 298.335938 149.09375 298.335938 154.617188 "/>
<path style="fill-rule:nonzero;fill:rgb(0%,0%,100%);fill-opacity:1;stroke-width:1;stroke-linecap:butt;stroke-linejoin:miter;stroke:rgb(0%,0%,0%);stroke-opacity:1;stroke-miterlimit:10;" d="M 361.714844 283.367188 C 361.714844 288.890625 357.234375 293.367188 351.714844 293.367188 C 346.191406 293.367188 341.714844 288.890625 341.714844 283.367188 C 341.714844 277.84375 346.191406 273.367188 351.714844 273.367188 C 357.234375 273.367188 361.714844 277.84375 361.714844 283.367188 "/>
<path style="fill-rule:nonzero;fill:rgb(0%,0%,100%);fill-opacity:1;stroke-width:1;stroke-linecap:butt;stroke-linejoin:miter;stroke:rgb(0%,0%,0%);stroke-opacity:1;stroke-miterlimit:10;" d="M 273.46875 286.996094 C 273.46875 292.519531 268.992188 296.996094 263.46875 296.996094 C 257.945312 296.996094 253.46875 292.519531 253.46875 286.996094 C 253.46875 281.472656 257.945312 276.996094 263.46875 276.996094 C 268.992188 276.996094 273.46875 281.472656 273.46875 286.996094 "/>
<path style="fill-rule:nonzero;fill:rgb(0%,0%,100%);fill-opacity:1;stroke-width:1;stroke-linecap:butt;stroke-linejoin:miter;stroke:rgb(0%,0%,0%);stroke-opacity:1;stroke-miterlimit:10;" d="M 152.507812 110.363281 C 152.507812 115.886719 148.03125 120.363281 142.507812 120.363281 C 136.984375 120.363281 132.507812 115.886719 132.507812 110.363281 C 132.507812 104.839844 136.984375 100.363281 142.507812 100.363281 C 148.03125 100.363281 152.507812 104.839844 152.507812 110.363281 "/>
<path style="fill-rule:nonzero;fill:rgb(100%,0%,0%);fill-opacity:1;stroke-width:1;stroke-linecap:butt;stroke-linejoin:miter;stroke:rgb(0%,0%,0%);stroke-opacity:1;stroke-miterlimit:10;" d="M 108.339844 217.40625 C 108.339844 222.929688 103.863281 227.40625 98.339844 227.40625 C 92.816406 227.40625 88.339844 222.929688 88.339844 217.40625 C 88.339844 211.882812 92.816406 207.40625 98.339844 207.40625 C 103.863281 207.40625 108.339844 211.882812 108.339844 217.40625 "/>
<path style="fill-rule:nonzero;fill:rgb(100%,0%,0%);fill-opacity:1;stroke-width:1;stroke-linecap:butt;stroke-linejoin:miter;stroke:rgb(0%,0%,0%);stroke-opacity:1;stroke-miterlimit:10;" d="M 112.058594 140.328125 C 112.058594 145.851562 107.582031 150.328125 102.058594 150.328125 C 96.535156 150.328125 92.058594 145.851562 92.058594 140.328125 C 92.058594 134.808594 96.535156 130.328125 102.058594 130.328125 C 107.582031 130.328125 112.058594 134.808594 112.058594 140.328125 "/>
<path style="fill-rule:nonzero;fill:rgb(100%,0%,0%);fill-opacity:1;stroke-width:1;stroke-linecap:butt;stroke-linejoin:miter;stroke:rgb(0%,0%,0%);stroke-opacity:1;stroke-miterlimit:10;" d="M 287.507812 330.1875 C 287.507812 335.710938 283.03125 340.1875 277.507812 340.1875 C 271.984375 340.1875 267.507812 335.710938 267.507812 330.1875 C 267.507812 324.664062 271.984375 320.1875 277.507812 320.1875 C 283.03125 320.1875 287.507812 324.664062 287.507812 330.1875 "/>
<path style="fill-rule:nonzero;fill:rgb(100%,0%,0%);fill-opacity:1;stroke-width:1;stroke-linecap:butt;stroke-linejoin:miter;stroke:rgb(0%,0%,0%);stroke-opacity:1;stroke-miterlimit:10;" d="M 381.910156 179.792969 C 381.910156 185.316406 377.429688 189.792969 371.910156 189.792969 C 366.386719 189.792969 361.910156 185.316406 361.910156 179.792969 C 361.910156 174.269531 366.386719 169.792969 371.910156 169.792969 C 377.429688 169.792969 381.910156 174.269531 381.910156 179.792969 "/>
<path style="fill-rule:nonzero;fill:rgb(100%,0%,0%);fill-opacity:1;stroke-width:1;stroke-linecap:butt;stroke-linejoin:miter;stroke:rgb(0%,0%,0%);stroke-opacity:1;stroke-miterlimit:10;" d="M 428.996094 269.742188 C 428.996094 275.261719 424.519531 279.742188 418.996094 279.742188 C 413.472656 279.742188 408.996094 275.261719 408.996094 269.742188 C 408.996094 264.21875 413.472656 259.742188 418.996094 259.742188 C 424.519531 259.742188 428.996094 264.21875 428.996094 269.742188 "/>
<path style="fill-rule:nonzero;fill:rgb(100%,0%,0%);fill-opacity:1;stroke-width:1;stroke-linecap:butt;stroke-linejoin:miter;stroke:rgb(0%,0%,0%);stroke-opacity:1;stroke-miterlimit:10;" d="M 149.402344 214.457031 C 149.402344 219.980469 144.925781 224.457031 139.402344 224.457031 C 133.878906 224.457031 129.402344 219.980469 129.402344 214.457031 C 129.402344 208.9375 133.878906 204.457031 139.402344 204.457031 C 144.925781 204.457031 149.402344 208.9375 149.402344 214.457031 "/>
<path style="fill-rule:nonzero;fill:rgb(0%,0%,100%);fill-opacity:1;stroke-width:1;stroke-linecap:butt;stroke-linejoin:miter;stroke:rgb(0%,0%,0%);stroke-opacity:1;stroke-miterlimit:10;" d="M 153.921875 376.441406 C 153.921875 381.964844 149.441406 386.441406 143.921875 386.441406 C 138.398438 386.441406 133.921875 381.964844 133.921875 376.441406 C 133.921875 370.917969 138.398438 366.441406 143.921875 366.441406 C 149.441406 366.441406 153.921875 370.917969 153.921875 376.441406 "/>
<path style="fill-rule:nonzero;fill:rgb(0%,0%,100%);fill-opacity:1;stroke-width:1;stroke-linecap:butt;stroke-linejoin:miter;stroke:rgb(0%,0%,0%);stroke-opacity:1;stroke-miterlimit:10;" d="M 211 383.289062 C 211 388.8125 206.523438 393.289062 201 393.289062 C 195.476562 393.289062 191 388.8125 191 383.289062 C 191 377.765625 195.476562 373.289062 201 373.289062 C 206.523438 373.289062 211 377.765625 211 383.289062 "/>
<path style="fill-rule:nonzero;fill:rgb(0%,0%,100%);fill-opacity:1;stroke-width:1;stroke-linecap:butt;stroke-linejoin:miter;stroke:rgb(0%,0%,0%);stroke-opacity:1;stroke-miterlimit:10;" d="M 336.03125 227.277344 C 336.03125 232.800781 331.554688 237.277344 326.03125 237.277344 C 320.507812 237.277344 316.03125 232.800781 316.03125 227.277344 C 316.03125 221.757812 320.507812 217.277344 326.03125 217.277344 C 331.554688 217.277344 336.03125 221.757812 336.03125 227.277344 "/>
<path style="fill-rule:nonzero;fill:rgb(0%,100%,0%);fill-opacity:1;stroke-width:1;stroke-linecap:butt;stroke-linejoin:miter;stroke:rgb(0%,0%,0%);stroke-opacity:1;stroke-miterlimit:10;" d="M 520.6875 40.289062 C 520.6875 45.8125 516.207031 50.289062 510.6875 50.289062 C 505.164062 50.289062 500.6875 45.8125 500.6875 40.289062 C 500.6875 34.765625 505.164062 30.289062 510.6875 30.289062 C 516.207031 30.289062 520.6875 34.765625 520.6875 40.289062 "/>
<path style="fill-rule:nonzero;fill:rgb(0%,0%,100%);fill-opacity:1;stroke-width:1;stroke-linecap:butt;stroke-linejoin:miter;stroke:rgb(0%,0%,0%);stroke-opacity:1;stroke-miterlimit:10;" d="M 557.152344 207.726562 C 557.152344 213.25 552.675781 217.726562 547.152344 217.726562 C 541.628906 217.726562 537.152344 213.25 537.152344 207.726562 C 537.152344 202.203125 541.628906 197.726562 547.152344 197.726562 C 552.675781 197.726562 557.152344 202.203125 557.152344 207.726562 "/>
<path style="fill-rule:nonzero;fill:rgb(100%,0%,0%);fill-opacity:1;stroke-width:1;stroke-linecap:butt;stroke-linejoin:miter;stroke:rgb(0%,0%,0%);stroke-opacity:1;stroke-miterlimit:10;" d="M 30 157.054688 C 30 162.578125 25.523438 167.054688 20 167.054688 C 14.476562 167.054688 10 162.578125 10 157.054688 C 10 151.53125 14.476562 147.054688 20 147.054688 C 25.523438 147.054688 30 151.53125 30 157.054688 "/>
<path style="fill-rule:nonzero;fill:rgb(100%,0%,0%);fill-opacity:1;stroke-width:1;stroke-linecap:butt;stroke-linejoin:miter;stroke:rgb(0%,0%,0%);stroke-opacity:1;stroke-miterlimit:10;" d="M 220.832031 74.929688 C 220.832031 80.453125 216.355469 84.929688 210.832031 84.929688 C 205.308594 84.929688 200.832031 80.453125 200.832031 74.929688 C 200.832031 69.40625 205.308594 64.929688 210.832031 64.929688 C 216.355469 64.929688 220.832031 69.40625 220.832031 74.929688 "/>
<path style="fill-rule:nonzero;fill:rgb(100%,100%,0%);fill-opacity:1;stroke-width:1;stroke-linecap:butt;stroke-linejoin:miter;stroke:rgb(0%,0%,0%);stroke-opacity:1;stroke-miterlimit:10;" d="M 545.628906 80.503906 C 545.628906 86.023438 541.152344 90.503906 535.628906 90.503906 C 530.105469 90.503906 525.628906 86.023438 525.628906 80.503906 C 525.628906 74.980469 530.105469 70.503906 535.628906 70.503906 C 541.152344 70.503906 545.628906 74.980469 545.628906 80.503906 "/>
<path style="fill-rule:nonzero;fill:rgb(0%,0%,100%);fill-opacity:1;stroke-width:1;stroke-linecap:butt;stroke-linejoin:miter;stroke:rgb(0%,0%,0%);stroke-opacity:1;stroke-miterlimit:10;" d="M 346.777344 118.492188 C 346.777344 124.015625 342.300781 128.492188 336.777344 128.492188 C 331.253906 128.492188 326.777344 124.015625 326.777344 118.492188 C 326.777344 112.96875 331.253906 108.492188 336.777344 108.492188 C 342.300781 108.492188 346.777344 112.96875 346.777344 118.492188 "/>
<path style="fill-rule:nonzero;fill:rgb(100%,0%,100%);fill-opacity:1;stroke-width:1;stroke-linecap:butt;stroke-linejoin:miter;stroke:rgb(0%,0%,0%);stroke-opacity:1;stroke-miterlimit:10;" d="M 488.1875 22.273438 C 488.1875 27.796875 483.710938 32.273438 478.1875 32.273438 C 472.664062 32.273438 468.1875 27.796875 468.1875 22.273438 C 468.1875 16.75 472.664062 12.273438 478.1875 12.273438 C 483.710938 12.273438 488.1875 16.75 488.1875 22.273438 "/>
<path style="fill-rule:nonzero;fill:rgb(100%,0%,0%);fill-opacity:1;stroke-width:1;stroke-linecap:butt;stroke-linejoin:miter;stroke:rgb(0%,0%,0%);stroke-opacity:1;stroke-miterlimit:10;" d="M 247.484375 20 C 247.484375 25.523438 243.003906 30 237.484375 30 C 231.960938 30 227.484375 25.523438 227.484375 20 C 227.484375 14.476562 231.960938 10 237.484375 10 C 243.003906 10 247.484375 14.476562 247.484375 20 "/>
<path style="fill-rule:nonzero;fill:rgb(0%,100%,100%);fill-opacity:1;stroke-width:1;stroke-linecap:butt;stroke-linejoin:miter;stroke:rgb(0%,0%,0%);stroke-opacity:1;stroke-miterlimit:10;" d="M 560.457031 139.460938 C 560.457031 144.980469 555.976562 149.460938 550.457031 149.460938 C 544.933594 149.460938 540.457031 144.980469 540.457031 139.460938 C 540.457031 133.9375 544.933594 129.460938 550.457031 129.460938 C 555.976562 129.460938 560.457031 133.9375 560.457031 139.460938 "/>
<path style="fill-rule:nonzero;fill:rgb(50.196078%,50.196078%,50.196078%);fill-opacity:1;stroke-width:1;stroke-linecap:butt;stroke-linejoin:miter;stroke:rgb(0%,0%,0%);stroke-opacity:1;stroke-miterlimit:10;" d="M 507.945312 381.910156 C 507.945312 387.429688 503.46875 391.910156 497.945312 391.910156 C 492.421875 391.910156 487.945312 387.429688 487.945312 381.910156 C 487.945312 376.386719 492.421875 371.910156 497.945312 371.910156 C 503.46875 371.910156 507.945312 376.386719 507.945312 381.910156 "/>
<path style="fill-rule:nonzero;fill:rgb(50%,0%,0%);fill-opacity:1;stroke-width:1;stroke-linecap:butt;stroke-linejoin:miter;stroke:rgb(0%,0%,0%);stroke-opacity:1;stroke-miterlimit:10;" d="M 431.847656 580 C 431.847656 585.523438 427.371094 590 421.847656 590 C 416.324219 590 411.847656 585.523438 411.847656 580 C 411.847656 574.476562 416.324219 570 421.847656 570 C 427.371094 570 431.847656 574.476562 431.847656 580 "/>
<path style="fill-rule:nonzero;fill:rgb(50%,0%,0%);fill-opacity:1;stroke-width:1;stroke-linecap:butt;stroke-linejoin:miter;stroke:rgb(0%,0%,0%);stroke-opacity:1;stroke-miterlimit:10;" d="M 475.140625 544.316406 C 475.140625 549.839844 470.664062 554.316406 465.140625 554.316406 C 459.617188 554.316406 455.140625 549.839844 455.140625 544.316406 C 455.140625 538.792969 459.617188 534.316406 465.140625 534.316406 C 470.664062 534.316406 475.140625 538.792969 475.140625 544.316406 "/>
<path style="fill-rule:nonzero;fill:rgb(0%,50%,0%);fill-opacity:1;stroke-width:1;stroke-linecap:butt;stroke-linejoin:miter;stroke:rgb(0%,0%,0%);stroke-opacity:1;stroke-miterlimit:10;" d="M 590 302.375 C 590 307.894531 585.523438 312.375 580 312.375 C 574.476562 312.375 570 307.894531 570 302.375 C 570 296.851562 574.476562 292.375 580 292.375 C 585.523438 292.375 590 296.851562 590 302.375 "/>
<path style="fill-rule:nonzero;fill:rgb(100%,0%,0%);fill-opacity:1;stroke-width:1;stroke-linecap:butt;stroke-linejoin:miter;stroke:rgb(0%,0%,0%);stroke-opacity:1;stroke-miterlimit:10;" d="M 449.472656 426.925781 C 449.472656 432.449219 444.996094 436.925781 439.472656 436.925781 C 433.953125 436.925781 429.472656 432.449219 429.472656 426.925781 C 429.472656 421.402344 433.953125 416.925781 439.472656 416.925781 C 444.996094 416.925781 449.472656 421.402344 449.472656 426.925781 "/>
<path style="fill-rule:nonzero;fill:rgb(100%,0%,0%);fill-opacity:1;stroke-width:1;stroke-linecap:butt;stroke-linejoin:miter;stroke:rgb(0%,0%,0%);stroke-opacity:1;stroke-miterlimit:10;" d="M 431.578125 361.015625 C 431.578125 366.539062 427.101562 371.015625 421.578125 371.015625 C 416.054688 371.015625 411.578125 366.539062 411.578125 361.015625 C 411.578125 355.492188 416.054688 351.015625 421.578125 351.015625 C 427.101562 351.015625 431.578125 355.492188 431.578125 361.015625 "/>
<path style="fill-rule:nonzero;fill:rgb(50.196078%,50.196078%,50.196078%);fill-opacity:1;stroke-width:1;stroke-linecap:butt;stroke-linejoin:miter;stroke:rgb(0%,0%,0%);stroke-opacity:1;stroke-miterlimit:10;" d="M 544.824219 301.773438 C 544.824219 307.292969 540.347656 311.773438 534.824219 311.773438 C 529.304688 311.773438 524.824219 307.292969 524.824219 301.773438 C 524.824219 296.25 529.304688 291.773438 534.824219 291.773438 C 540.347656 291.773438 544.824219 296.25 544.824219 301.773438 "/>
<path style="fill-rule:nonzero;fill:rgb(100%,0%,0%);fill-opacity:1;stroke-width:1;stroke-linecap:butt;stroke-linejoin:miter;stroke:rgb(0%,0%,0%);stroke-opacity:1;stroke-miterlimit:10;" d="M 407.570312 98.257812 C 407.570312 103.78125 403.09375 108.257812 397.570312 108.257812 C 392.046875 108.257812 387.570312 103.78125 387.570312 98.257812 C 387.570312 92.738281 392.046875 88.257812 397.570312 88.257812 C 403.09375 88.257812 407.570312 92.738281 407.570312 98.257812 "/>
<path style="fill-rule:nonzero;fill:rgb(100%,0%,0%);fill-opacity:1;stroke-width:1;stroke-linecap:butt;stroke-linejoin:miter;stroke:rgb(0%,0%,0%);stroke-opacity:1;stroke-miterlimit:10;" d="M 398.847656 372.808594 C 398.847656 378.332031 394.371094 382.808594 388.847656 382.808594 C 383.324219 382.808594 378.847656 378.332031 378.847656 372.808594 C 378.847656 367.289062 383.324219 362.808594 388.847656 362.808594 C 394.371094 362.808594 398.847656 367.289062 398.847656 372.808594 "/>
<path style="fill-rule:nonzero;fill:rgb(100%,0%,0%);fill-opacity:1;stroke-width:1;stroke-linecap:butt;stroke-linejoin:miter;stroke:rgb(0%,0%,0%);stroke-opacity:1;stroke-miterlimit:10;" d="M 479.507812 187.652344 C 479.507812 193.175781 475.03125 197.652344 469.507812 197.652344 C 463.984375 197.652344 459.507812 193.175781 459.507812 187.652344 C 459.507812 182.128906 463.984375 177.652344 469.507812 177.652344 C 475.03125 177.652344 479.507812 182.128906 479.507812 187.652344 "/>
<path style="fill-rule:nonzero;fill:rgb(100%,0%,0%);fill-opacity:1;stroke-width:1;stroke-linecap:butt;stroke-linejoin:miter;stroke:rgb(0%,0%,0%);stroke-opacity:1;stroke-miterlimit:10;" d="M 469.0625 218.878906 C 469.0625 224.398438 464.585938 228.878906 459.0625 228.878906 C 453.542969 228.878906 449.0625 224.398438 449.0625 218.878906 C 449.0625 213.355469 453.542969 208.878906 459.0625 208.878906 C 464.585938 208.878906 469.0625 213.355469 469.0625 218.878906 "/>
</g>
</svg>
