<?xml version="1.0" encoding="UTF-8"?>
<svg xmlns="http://www.w3.org/2000/svg" xmlns:xlink="http://www.w3.org/1999/xlink" width="600pt" height="600pt" viewBox="0 0 600 600" version="1.1">
<g id="surface86">
<rect x="0" y="0" width="600" height="600" style="fill:rgb(100%,100%,100%);fill-opacity:1;stroke:none;"/>
<path style="fill-rule:nonzero;fill:rgb(100%,0%,0%);fill-opacity:0.25;stroke-width:2;stroke-linecap:butt;stroke-linejoin:miter;stroke:rgb(100%,0%,0%);stroke-opacity:1;stroke-miterlimit:10;" d="M 598.363281 221.074219 L 546.105469 22.96875 C 542.917969 10.882812 528.171875 3.5625 516.617188 8.324219 L 307.710938 94.460938 C 296.152344 99.226562 278.511719 114.910156 272.425781 125.828125 L 262.785156 143.125 C 256.699219 154.042969 247.550781 177.082031 244.488281 189.199219 L 201.027344 361.136719 C 197.964844 373.253906 196.824219 397.722656 198.75 410.074219 L 199.398438 414.21875 C 201.324219 426.570312 214.980469 443.230469 226.714844 447.542969 L 324.003906 483.273438 C 335.738281 487.582031 358.363281 485.753906 369.253906 479.621094 L 449.265625 434.539062 C 460.15625 428.40625 478.578125 412.292969 486.113281 402.320312 L 589.675781 265.195312 C 597.207031 255.222656 601.554688 233.160156 598.363281 221.074219 "/>
<path style="fill-rule:nonzero;fill:rgb(50%,0%,0%);fill-opacity:0.25;stroke-width:2;stroke-linecap:butt;stroke-linejoin:miter;stroke:rgb(50%,0%,0%);stroke-opacity:1;stroke-miterlimit:10;" d="M 150.558594 411.246094 L 22.042969 382.601562 C 9.839844 379.882812 1.226562 389.136719 4.816406 401.113281 L 12.453125 426.601562 C 16.039062 438.574219 31.839844 447.886719 44.054688 445.222656 L 150.53125 422.007812 C 162.746094 419.347656 162.757812 413.964844 150.558594 411.246094 "/>
<path style="fill-rule:nonzero;fill:rgb(0%,50%,0%);fill-opacity:0.25;stroke-width:2;stroke-linecap:butt;stroke-linejoin:miter;stroke:rgb(0%,50%,0%);stroke-opacity:1;stroke-miterlimit:10;" d="M 285.136719 517.933594 C 291.726562 523.828125 298.804688 538.546875 299.292969 547.371094 L 300.050781 560.960938 C 300.539062 569.789062 295.136719 585.199219 289.242188 591.785156 C 283.351562 598.375 270.867188 599.066406 264.28125 593.175781 C 257.695312 587.28125 250.617188 572.5625 250.125 563.738281 L 249.371094 550.148438 C 248.878906 541.320312 254.285156 525.910156 260.175781 519.324219 C 266.070312 512.734375 278.550781 512.042969 285.136719 517.933594 "/>
<path style="fill:none;stroke-width:1;stroke-linecap:butt;stroke-linejoin:miter;stroke:rgb(20%,20%,20%);stroke-opacity:1;stroke-miterlimit:10;" d="M 402.417969 232.261719 L 428.800781 269.078125 "/>
<path style=" stroke:none;fill-rule:nonzero;fill:rgb(20%,20%,20%);fill-opacity:1;" d="M 437.109375 280.671875 L 425.03125 271.777344 L 432.566406 266.375 L 437.109375 280.671875 "/>
<path style="fill:none;stroke-width:1;stroke-linecap:butt;stroke-linejoin:miter;stroke:rgb(20%,20%,20%);stroke-opacity:1;stroke-miterlimit:10;" d="M 402.417969 232.261719 L 321.933594 323.609375 "/>
<path style=" stroke:none;fill-rule:nonzero;fill:rgb(20%,20%,20%);fill-opacity:1;" d="M 312.503906 334.3125 L 318.457031 320.546875 L 325.410156 326.671875 L 312.503906 334.3125 "/>
<path style="fill:none;stroke-width:1;stroke-linecap:butt;stroke-linejoin:miter;stroke:rgb(20%,20%,20%);stroke-opacity:1;stroke-miterlimit:10;" d="M 402.417969 232.261719 L 355.59375 245.757812 "/>
<path style=" stroke:none;fill-rule:nonzero;fill:rgb(20%,20%,20%);fill-opacity:1;" d="M 341.886719 249.710938 L 354.3125 241.304688 L 356.878906 250.210938 L 341.886719 249.710938 "/>
<path style="fill:none;stroke-width:1;stroke-linecap:butt;stroke-linejoin:miter;stroke:rgb(20%,20%,20%);stroke-opacity:1;stroke-miterlimit:10;" d="M 402.417969 232.261719 L 433.367188 158.328125 "/>
<path style=" stroke:none;fill-rule:nonzero;fill:rgb(20%,20%,20%);fill-opacity:1;" d="M 438.875 145.167969 L 437.640625 160.117188 L 429.089844 156.539062 L 438.875 145.167969 "/>
<path style="fill:none;stroke-width:1;stroke-linecap:butt;stroke-linejoin:miter;stroke:rgb(20%,20%,20%);stroke-opacity:1;stroke-miterlimit:10;" d="M 402.417969 232.261719 L 499.914062 121.535156 "/>
<path style=" stroke:none;fill-rule:nonzero;fill:rgb(20%,20%,20%);fill-opacity:1;" d="M 509.34375 110.828125 L 503.394531 124.597656 L 496.4375 118.472656 L 509.34375 110.828125 "/>
<path style="fill:none;stroke-width:1;stroke-linecap:butt;stroke-linejoin:miter;stroke:rgb(20%,20%,20%);stroke-opacity:1;stroke-miterlimit:10;" d="M 402.417969 232.261719 L 440.679688 117.015625 "/>
<path style=" stroke:none;fill-rule:nonzero;fill:rgb(20%,20%,20%);fill-opacity:1;" d="M 445.171875 103.476562 L 445.078125 118.476562 L 436.28125 115.554688 L 445.171875 103.476562 "/>
<path style="fill:none;stroke-width:1;stroke-linecap:butt;stroke-linejoin:miter;stroke:rgb(20%,20%,20%);stroke-opacity:1;stroke-miterlimit:10;" d="M 402.417969 232.261719 L 314.613281 258 "/>
<path style=" stroke:none;fill-rule:nonzero;fill:rgb(20%,20%,20%);fill-opacity:1;" d="M 300.921875 262.011719 L 313.308594 253.550781 L 315.914062 262.445312 L 300.921875 262.011719 "/>
<path style="fill:none;stroke-width:1;stroke-linecap:butt;stroke-linejoin:miter;stroke:rgb(20%,20%,20%);stroke-opacity:1;stroke-miterlimit:10;" d="M 402.417969 232.261719 L 394.292969 346.085938 "/>
<path style=" stroke:none;fill-rule:nonzero;fill:rgb(20%,20%,20%);fill-opacity:1;" d="M 393.277344 360.316406 L 389.671875 345.753906 L 398.917969 346.414062 L 393.277344 360.316406 "/>
<path style="fill:none;stroke-width:1;stroke-linecap:butt;stroke-linejoin:miter;stroke:rgb(20%,20%,20%);stroke-opacity:1;stroke-miterlimit:10;" d="M 402.417969 232.261719 L 513.492188 159.65625 "/>
<path style=" stroke:none;fill-rule:nonzero;fill:rgb(20%,20%,20%);fill-opacity:1;" d="M 525.429688 151.851562 L 516.027344 163.535156 L 510.953125 155.777344 L 525.429688 151.851562 "/>
<path style="fill:none;stroke-width:1;stroke-linecap:butt;stroke-linejoin:miter;stroke:rgb(20%,20%,20%);stroke-opacity:1;stroke-miterlimit:10;" d="M 402.417969 232.261719 L 312.195312 143.773438 "/>
<path style=" stroke:none;fill-rule:nonzero;fill:rgb(20%,20%,20%);fill-opacity:1;" d="M 302.011719 133.785156 L 315.441406 140.464844 L 308.949219 147.082031 L 302.011719 133.785156 "/>
<path style="fill:none;stroke-width:1;stroke-linecap:butt;stroke-linejoin:miter;stroke:rgb(20%,20%,20%);stroke-opacity:1;stroke-miterlimit:10;" d="M 402.417969 232.261719 L 290.921875 191.167969 "/>
<path style=" stroke:none;fill-rule:nonzero;fill:rgb(20%,20%,20%);fill-opacity:1;" d="M 277.535156 186.234375 L 292.523438 186.820312 L 289.316406 195.519531 L 277.535156 186.234375 "/>
<path style="fill:none;stroke-width:1;stroke-linecap:butt;stroke-linejoin:miter;stroke:rgb(20%,20%,20%);stroke-opacity:1;stroke-miterlimit:10;" d="M 402.417969 232.261719 L 375.589844 297.777344 "/>
<path style=" stroke:none;fill-rule:nonzero;fill:rgb(20%,20%,20%);fill-opacity:1;" d="M 370.183594 310.980469 L 371.300781 296.023438 L 379.878906 299.535156 L 370.183594 310.980469 "/>
<path style="fill:none;stroke-width:1;stroke-linecap:butt;stroke-linejoin:miter;stroke:rgb(20%,20%,20%);stroke-opacity:1;stroke-miterlimit:10;" d="M 402.417969 232.261719 L 516.03125 220.320312 "/>
<path style=" stroke:none;fill-rule:nonzero;fill:rgb(20%,20%,20%);fill-opacity:1;" d="M 530.21875 218.828125 L 516.515625 224.929688 L 515.542969 215.710938 L 530.21875 218.828125 "/>
<path style="fill:none;stroke-width:1;stroke-linecap:butt;stroke-linejoin:miter;stroke:rgb(20%,20%,20%);stroke-opacity:1;stroke-miterlimit:10;" d="M 402.417969 232.261719 L 449.34375 318.527344 "/>
<path style=" stroke:none;fill-rule:nonzero;fill:rgb(20%,20%,20%);fill-opacity:1;" d="M 456.160156 331.058594 L 445.273438 320.742188 L 453.414062 316.3125 L 456.160156 331.058594 "/>
<path style="fill:none;stroke-width:1;stroke-linecap:butt;stroke-linejoin:miter;stroke:rgb(20%,20%,20%);stroke-opacity:1;stroke-miterlimit:10;" d="M 402.417969 232.261719 L 555.839844 246.578125 "/>
<path style=" stroke:none;fill-rule:nonzero;fill:rgb(20%,20%,20%);fill-opacity:1;" d="M 570.042969 247.90625 L 555.410156 251.195312 L 556.269531 241.964844 L 570.042969 247.90625 "/>
<path style="fill:none;stroke-width:1;stroke-linecap:butt;stroke-linejoin:miter;stroke:rgb(20%,20%,20%);stroke-opacity:1;stroke-miterlimit:10;" d="M 402.417969 232.261719 L 235.53125 357.59375 "/>
<path style=" stroke:none;fill-rule:nonzero;fill:rgb(20%,20%,20%);fill-opacity:1;" d="M 224.125 366.160156 L 232.746094 353.886719 L 238.3125 361.300781 L 224.125 366.160156 "/>
<path style="fill:none;stroke-width:1;stroke-linecap:butt;stroke-linejoin:miter;stroke:rgb(20%,20%,20%);stroke-opacity:1;stroke-miterlimit:10;" d="M 442.933594 288.800781 L 328.523438 333.0625 "/>
<path style=" stroke:none;fill-rule:nonzero;fill:rgb(20%,20%,20%);fill-opacity:1;" d="M 315.21875 338.207031 L 326.851562 328.738281 L 330.195312 337.382812 L 315.21875 338.207031 "/>
<path style="fill:none;stroke-width:1;stroke-linecap:butt;stroke-linejoin:miter;stroke:rgb(20%,20%,20%);stroke-opacity:1;stroke-miterlimit:10;" d="M 442.933594 288.800781 L 355.332031 260.046875 "/>
<path style=" stroke:none;fill-rule:nonzero;fill:rgb(20%,20%,20%);fill-opacity:1;" d="M 341.78125 255.597656 L 356.78125 255.644531 L 353.886719 264.449219 L 341.78125 255.597656 "/>
<path style="fill:none;stroke-width:1;stroke-linecap:butt;stroke-linejoin:miter;stroke:rgb(20%,20%,20%);stroke-opacity:1;stroke-miterlimit:10;" d="M 442.933594 288.800781 L 315.292969 268.613281 "/>
<path style=" stroke:none;fill-rule:nonzero;fill:rgb(20%,20%,20%);fill-opacity:1;" d="M 301.203125 266.386719 L 316.015625 264.035156 L 314.570312 273.191406 L 301.203125 266.386719 "/>
<path style="fill:none;stroke-width:1;stroke-linecap:butt;stroke-linejoin:miter;stroke:rgb(20%,20%,20%);stroke-opacity:1;stroke-miterlimit:10;" d="M 442.933594 288.800781 L 388.839844 311.015625 "/>
<path style=" stroke:none;fill-rule:nonzero;fill:rgb(20%,20%,20%);fill-opacity:1;" d="M 375.644531 316.4375 L 387.082031 306.730469 L 390.601562 315.304688 L 375.644531 316.4375 "/>
<path style="fill:none;stroke-width:1;stroke-linecap:butt;stroke-linejoin:miter;stroke:rgb(20%,20%,20%);stroke-opacity:1;stroke-miterlimit:10;" d="M 442.933594 288.800781 L 520.566406 232.097656 "/>
<path style=" stroke:none;fill-rule:nonzero;fill:rgb(20%,20%,20%);fill-opacity:1;" d="M 532.085938 223.683594 L 523.300781 235.839844 L 517.832031 228.355469 L 532.085938 223.683594 "/>
<path style="fill:none;stroke-width:1;stroke-linecap:butt;stroke-linejoin:miter;stroke:rgb(20%,20%,20%);stroke-opacity:1;stroke-miterlimit:10;" d="M 442.933594 288.800781 L 452.867188 316.960938 "/>
<path style=" stroke:none;fill-rule:nonzero;fill:rgb(20%,20%,20%);fill-opacity:1;" d="M 457.613281 330.414062 L 448.496094 318.503906 L 457.238281 315.417969 L 457.613281 330.414062 "/>
<path style="fill:none;stroke-width:1;stroke-linecap:butt;stroke-linejoin:miter;stroke:rgb(20%,20%,20%);stroke-opacity:1;stroke-miterlimit:10;" d="M 442.933594 288.800781 L 556.703125 255.625 "/>
<path style=" stroke:none;fill-rule:nonzero;fill:rgb(20%,20%,20%);fill-opacity:1;" d="M 570.398438 251.632812 L 558 260.078125 L 555.40625 251.175781 L 570.398438 251.632812 "/>
<path style="fill:none;stroke-width:1;stroke-linecap:butt;stroke-linejoin:miter;stroke:rgb(20%,20%,20%);stroke-opacity:1;stroke-miterlimit:10;" d="M 442.933594 288.800781 L 453.230469 378.191406 "/>
<path style=" stroke:none;fill-rule:nonzero;fill:rgb(20%,20%,20%);fill-opacity:1;" d="M 454.863281 392.363281 L 448.625 378.722656 L 457.835938 377.664062 L 454.863281 392.363281 "/>
<path style="fill:none;stroke-width:1;stroke-linecap:butt;stroke-linejoin:miter;stroke:rgb(20%,20%,20%);stroke-opacity:1;stroke-miterlimit:10;" d="M 305.890625 341.816406 L 325.40625 275.75 "/>
<path style=" stroke:none;fill-rule:nonzero;fill:rgb(20%,20%,20%);fill-opacity:1;" d="M 329.445312 262.070312 L 329.851562 277.0625 L 320.960938 274.4375 L 329.445312 262.070312 "/>
<path style="fill:none;stroke-width:1;stroke-linecap:butt;stroke-linejoin:miter;stroke:rgb(20%,20%,20%);stroke-opacity:1;stroke-miterlimit:10;" d="M 305.890625 341.816406 L 295.835938 288.664062 "/>
<path style=" stroke:none;fill-rule:nonzero;fill:rgb(20%,20%,20%);fill-opacity:1;" d="M 293.183594 274.648438 L 300.390625 287.804688 L 291.28125 289.527344 L 293.183594 274.648438 "/>
<path style="fill:none;stroke-width:1;stroke-linecap:butt;stroke-linejoin:miter;stroke:rgb(20%,20%,20%);stroke-opacity:1;stroke-miterlimit:10;" d="M 305.890625 341.816406 L 369.511719 362.714844 "/>
<path style=" stroke:none;fill-rule:nonzero;fill:rgb(20%,20%,20%);fill-opacity:1;" d="M 383.066406 367.167969 L 368.066406 367.121094 L 370.960938 358.3125 L 383.066406 367.167969 "/>
<path style="fill:none;stroke-width:1;stroke-linecap:butt;stroke-linejoin:miter;stroke:rgb(20%,20%,20%);stroke-opacity:1;stroke-miterlimit:10;" d="M 305.890625 341.816406 L 238.738281 404.761719 "/>
<path style=" stroke:none;fill-rule:nonzero;fill:rgb(20%,20%,20%);fill-opacity:1;" d="M 228.332031 414.515625 L 235.570312 401.378906 L 241.910156 408.140625 L 228.332031 414.515625 "/>
<path style="fill:none;stroke-width:1;stroke-linecap:butt;stroke-linejoin:miter;stroke:rgb(20%,20%,20%);stroke-opacity:1;stroke-miterlimit:10;" d="M 305.890625 341.816406 L 343.539062 328.386719 "/>
<path style=" stroke:none;fill-rule:nonzero;fill:rgb(20%,20%,20%);fill-opacity:1;" d="M 356.976562 323.59375 L 345.097656 332.753906 L 341.980469 324.023438 L 356.976562 323.59375 "/>
<path style="fill:none;stroke-width:1;stroke-linecap:butt;stroke-linejoin:miter;stroke:rgb(80%,80%,80%);stroke-opacity:1;stroke-miterlimit:10;" d="M 305.890625 341.816406 L 171.890625 405.464844 "/>
<path style=" stroke:none;fill-rule:nonzero;fill:rgb(80%,80%,80%);fill-opacity:1;" d="M 159.003906 411.585938 L 169.902344 401.28125 L 173.878906 409.652344 L 159.003906 411.585938 "/>
<path style="fill:none;stroke-width:1;stroke-linecap:butt;stroke-linejoin:miter;stroke:rgb(20%,20%,20%);stroke-opacity:1;stroke-miterlimit:10;" d="M 305.890625 341.816406 L 286.425781 377.167969 "/>
<path style=" stroke:none;fill-rule:nonzero;fill:rgb(20%,20%,20%);fill-opacity:1;" d="M 279.546875 389.664062 L 282.367188 374.933594 L 290.488281 379.40625 L 279.546875 389.664062 "/>
<path style="fill:none;stroke-width:1;stroke-linecap:butt;stroke-linejoin:miter;stroke:rgb(20%,20%,20%);stroke-opacity:1;stroke-miterlimit:10;" d="M 305.890625 341.816406 L 341.449219 444.046875 "/>
<path style=" stroke:none;fill-rule:nonzero;fill:rgb(20%,20%,20%);fill-opacity:1;" d="M 346.132812 457.523438 L 337.070312 445.570312 L 345.824219 442.523438 L 346.132812 457.523438 "/>
<path style="fill:none;stroke-width:1;stroke-linecap:butt;stroke-linejoin:miter;stroke:rgb(20%,20%,20%);stroke-opacity:1;stroke-miterlimit:10;" d="M 332.277344 252.480469 L 314.558594 257.820312 "/>
<path style=" stroke:none;fill-rule:nonzero;fill:rgb(20%,20%,20%);fill-opacity:1;" d="M 300.898438 261.9375 L 313.222656 253.382812 L 315.898438 262.257812 L 300.898438 261.9375 "/>
<path style="fill:none;stroke-width:1;stroke-linecap:butt;stroke-linejoin:miter;stroke:rgb(20%,20%,20%);stroke-opacity:1;stroke-miterlimit:10;" d="M 332.277344 252.480469 L 284.582031 200.636719 "/>
<path style=" stroke:none;fill-rule:nonzero;fill:rgb(20%,20%,20%);fill-opacity:1;" d="M 274.921875 190.136719 L 287.992188 197.496094 L 281.171875 203.773438 L 274.921875 190.136719 "/>
<path style="fill:none;stroke-width:1;stroke-linecap:butt;stroke-linejoin:miter;stroke:rgb(20%,20%,20%);stroke-opacity:1;stroke-miterlimit:10;" d="M 332.277344 252.480469 L 355.480469 298.5625 "/>
<path style=" stroke:none;fill-rule:nonzero;fill:rgb(20%,20%,20%);fill-opacity:1;" d="M 361.898438 311.304688 L 351.34375 300.644531 L 359.621094 296.476562 L 361.898438 311.304688 "/>
<path style="fill:none;stroke-width:1;stroke-linecap:butt;stroke-linejoin:miter;stroke:rgb(20%,20%,20%);stroke-opacity:1;stroke-miterlimit:10;" d="M 442.734375 135.945312 L 445.121094 118.039062 "/>
<path style=" stroke:none;fill-rule:nonzero;fill:rgb(20%,20%,20%);fill-opacity:1;" d="M 447.003906 103.898438 L 449.714844 118.648438 L 440.523438 117.425781 L 447.003906 103.898438 "/>
<path style="fill:none;stroke-width:1;stroke-linecap:butt;stroke-linejoin:miter;stroke:rgb(20%,20%,20%);stroke-opacity:1;stroke-miterlimit:10;" d="M 442.734375 135.945312 L 509.695312 143.617188 "/>
<path style=" stroke:none;fill-rule:nonzero;fill:rgb(20%,20%,20%);fill-opacity:1;" d="M 523.867188 145.242188 L 509.164062 148.222656 L 510.222656 139.011719 L 523.867188 145.242188 "/>
<path style="fill:none;stroke-width:1;stroke-linecap:butt;stroke-linejoin:miter;stroke:rgb(20%,20%,20%);stroke-opacity:1;stroke-miterlimit:10;" d="M 515.949219 103.324219 L 472.363281 97.304688 "/>
<path style=" stroke:none;fill-rule:nonzero;fill:rgb(20%,20%,20%);fill-opacity:1;" d="M 458.230469 95.351562 L 472.996094 92.710938 L 471.726562 101.894531 L 458.230469 95.351562 "/>
<path style="fill:none;stroke-width:1;stroke-linecap:butt;stroke-linejoin:miter;stroke:rgb(20%,20%,20%);stroke-opacity:1;stroke-miterlimit:10;" d="M 515.949219 103.324219 L 524.507812 123.964844 "/>
<path style=" stroke:none;fill-rule:nonzero;fill:rgb(20%,20%,20%);fill-opacity:1;" d="M 529.972656 137.140625 L 520.226562 125.738281 L 528.789062 122.1875 L 529.972656 137.140625 "/>
<path style="fill:none;stroke-width:1;stroke-linecap:butt;stroke-linejoin:miter;stroke:rgb(20%,20%,20%);stroke-opacity:1;stroke-miterlimit:10;" d="M 515.949219 103.324219 L 523.441406 44.074219 "/>
<path style=" stroke:none;fill-rule:nonzero;fill:rgb(20%,20%,20%);fill-opacity:1;" d="M 525.230469 29.921875 L 528.042969 44.65625 L 518.84375 43.492188 L 525.230469 29.921875 "/>
<path style="fill:none;stroke-width:1;stroke-linecap:butt;stroke-linejoin:miter;stroke:rgb(20%,20%,20%);stroke-opacity:1;stroke-miterlimit:10;" d="M 448.324219 93.984375 L 508.863281 36.679688 "/>
<path style=" stroke:none;fill-rule:nonzero;fill:rgb(20%,20%,20%);fill-opacity:1;" d="M 519.222656 26.875 L 512.050781 40.046875 L 505.675781 33.316406 L 519.222656 26.875 "/>
<path style="fill:none;stroke-width:1;stroke-linecap:butt;stroke-linejoin:miter;stroke:rgb(20%,20%,20%);stroke-opacity:1;stroke-miterlimit:10;" d="M 392.566406 370.289062 L 434.339844 391.367188 "/>
<path style=" stroke:none;fill-rule:nonzero;fill:rgb(20%,20%,20%);fill-opacity:1;" d="M 447.078125 397.792969 L 432.253906 395.507812 L 436.429688 387.230469 L 447.078125 397.792969 "/>
<path style="fill:none;stroke-width:1;stroke-linecap:butt;stroke-linejoin:miter;stroke:rgb(20%,20%,20%);stroke-opacity:1;stroke-miterlimit:10;" d="M 392.566406 370.289062 L 359.308594 444.808594 "/>
<path style=" stroke:none;fill-rule:nonzero;fill:rgb(20%,20%,20%);fill-opacity:1;" d="M 353.496094 457.835938 L 355.074219 442.917969 L 363.542969 446.695312 L 353.496094 457.835938 "/>
<path style="fill:none;stroke-width:1;stroke-linecap:butt;stroke-linejoin:miter;stroke:rgb(20%,20%,20%);stroke-opacity:1;stroke-miterlimit:10;" d="M 392.566406 370.289062 L 345.5 433.785156 "/>
<path style=" stroke:none;fill-rule:nonzero;fill:rgb(20%,20%,20%);fill-opacity:1;" d="M 337.003906 445.246094 L 341.777344 431.023438 L 349.222656 436.542969 L 337.003906 445.246094 "/>
<path style="fill:none;stroke-width:1;stroke-linecap:butt;stroke-linejoin:miter;stroke:rgb(20%,20%,20%);stroke-opacity:1;stroke-miterlimit:10;" d="M 221.035156 421.355469 L 307.746094 446.515625 "/>
<path style=" stroke:none;fill-rule:nonzero;fill:rgb(20%,20%,20%);fill-opacity:1;" d="M 321.445312 450.492188 L 306.453125 450.96875 L 309.039062 442.0625 L 321.445312 450.492188 "/>
<path style="fill:none;stroke-width:1;stroke-linecap:butt;stroke-linejoin:miter;stroke:rgb(20%,20%,20%);stroke-opacity:1;stroke-miterlimit:10;" d="M 366.394531 320.234375 L 337.28125 429.824219 "/>
<path style=" stroke:none;fill-rule:nonzero;fill:rgb(20%,20%,20%);fill-opacity:1;" d="M 333.617188 443.613281 L 332.800781 428.636719 L 341.761719 431.015625 L 333.617188 443.613281 "/>
<path style="fill:none;stroke-width:1;stroke-linecap:butt;stroke-linejoin:miter;stroke:rgb(80%,80%,80%);stroke-opacity:1;stroke-miterlimit:10;" d="M 469.082031 520.609375 L 371.5625 476.894531 "/>
<path style=" stroke:none;fill-rule:nonzero;fill:rgb(80%,80%,80%);fill-opacity:1;" d="M 358.542969 471.058594 L 373.457031 472.664062 L 369.664062 481.121094 L 358.542969 471.058594 "/>
<path style="fill:none;stroke-width:1;stroke-linecap:butt;stroke-linejoin:miter;stroke:rgb(80%,80%,80%);stroke-opacity:1;stroke-miterlimit:10;" d="M 469.082031 520.609375 L 352.859375 463.917969 "/>
<path style=" stroke:none;fill-rule:nonzero;fill:rgb(80%,80%,80%);fill-opacity:1;" d="M 340.039062 457.660156 L 354.890625 459.75 L 350.828125 468.082031 L 340.039062 457.660156 "/>
<path style="fill:none;stroke-width:1;stroke-linecap:butt;stroke-linejoin:miter;stroke:rgb(80%,80%,80%);stroke-opacity:1;stroke-miterlimit:10;" d="M 220.566406 528.039062 L 327.492188 477.359375 "/>
<path style=" stroke:none;fill-rule:nonzero;fill:rgb(80%,80%,80%);fill-opacity:1;" d="M 340.382812 471.25 L 329.476562 481.546875 L 325.507812 473.171875 L 340.382812 471.25 "/>
<path style="fill:none;stroke-width:1;stroke-linecap:butt;stroke-linejoin:miter;stroke:rgb(80%,80%,80%);stroke-opacity:1;stroke-miterlimit:10;" d="M 220.566406 528.039062 L 310.953125 466.878906 "/>
<path style=" stroke:none;fill-rule:nonzero;fill:rgb(80%,80%,80%);fill-opacity:1;" d="M 322.769531 458.882812 L 313.550781 470.714844 L 308.355469 463.039062 L 322.769531 458.882812 "/>
<path style="fill:none;stroke-width:1;stroke-linecap:butt;stroke-linejoin:miter;stroke:rgb(80%,80%,80%);stroke-opacity:1;stroke-miterlimit:10;" d="M 359.507812 546.515625 L 352.472656 491.039062 "/>
<path style=" stroke:none;fill-rule:nonzero;fill:rgb(80%,80%,80%);fill-opacity:1;" d="M 350.675781 476.886719 L 357.070312 490.457031 L 347.875 491.625 L 350.675781 476.886719 "/>
<path style="fill:none;stroke-width:1;stroke-linecap:butt;stroke-linejoin:miter;stroke:rgb(80%,80%,80%);stroke-opacity:1;stroke-miterlimit:10;" d="M 359.507812 546.515625 L 338.132812 476.488281 "/>
<path style=" stroke:none;fill-rule:nonzero;fill:rgb(80%,80%,80%);fill-opacity:1;" d="M 333.96875 462.84375 L 342.566406 475.132812 L 333.699219 477.839844 L 333.96875 462.84375 "/>
<path style="fill:none;stroke-width:1;stroke-linecap:butt;stroke-linejoin:miter;stroke:rgb(20%,20%,20%);stroke-opacity:1;stroke-miterlimit:10;" d="M 460.9375 339.84375 L 349.328125 437.316406 "/>
<path style=" stroke:none;fill-rule:nonzero;fill:rgb(20%,20%,20%);fill-opacity:1;" d="M 338.582031 446.699219 L 346.277344 433.824219 L 352.375 440.808594 L 338.582031 446.699219 "/>
<path style="fill:none;stroke-width:1;stroke-linecap:butt;stroke-linejoin:miter;stroke:rgb(80%,80%,80%);stroke-opacity:1;stroke-miterlimit:10;" d="M 422.316406 542.554688 L 366.261719 484.433594 "/>
<path style=" stroke:none;fill-rule:nonzero;fill:rgb(80%,80%,80%);fill-opacity:1;" d="M 356.359375 474.164062 L 369.601562 481.214844 L 362.925781 487.652344 L 356.359375 474.164062 "/>
<path style="fill:none;stroke-width:1;stroke-linecap:butt;stroke-linejoin:miter;stroke:rgb(80%,80%,80%);stroke-opacity:1;stroke-miterlimit:10;" d="M 422.316406 542.554688 L 348.398438 470.246094 "/>
<path style=" stroke:none;fill-rule:nonzero;fill:rgb(80%,80%,80%);fill-opacity:1;" d="M 338.199219 460.269531 L 351.636719 466.933594 L 345.15625 473.558594 L 338.199219 460.269531 "/>
<path style="fill:none;stroke-width:1;stroke-linecap:butt;stroke-linejoin:miter;stroke:rgb(80%,80%,80%);stroke-opacity:1;stroke-miterlimit:10;" d="M 496.207031 489.058594 L 373.414062 470.578125 "/>
<path style=" stroke:none;fill-rule:nonzero;fill:rgb(80%,80%,80%);fill-opacity:1;" d="M 359.308594 468.457031 L 374.105469 465.996094 L 372.722656 475.160156 L 359.308594 468.457031 "/>
<path style="fill:none;stroke-width:1;stroke-linecap:butt;stroke-linejoin:miter;stroke:rgb(80%,80%,80%);stroke-opacity:1;stroke-miterlimit:10;" d="M 496.207031 489.058594 L 354.765625 458.414062 "/>
<path style=" stroke:none;fill-rule:nonzero;fill:rgb(80%,80%,80%);fill-opacity:1;" d="M 340.824219 455.394531 L 355.746094 453.886719 L 353.785156 462.945312 L 340.824219 455.394531 "/>
<path style="fill:none;stroke-width:1;stroke-linecap:butt;stroke-linejoin:miter;stroke:rgb(80%,80%,80%);stroke-opacity:1;stroke-miterlimit:10;" d="M 176.582031 482.171875 L 62.6875 443.472656 "/>
<path style=" stroke:none;fill-rule:nonzero;fill:rgb(80%,80%,80%);fill-opacity:1;" d="M 49.183594 438.882812 L 64.179688 439.082031 L 61.199219 447.859375 L 49.183594 438.882812 "/>
<path style="fill:none;stroke-width:1;stroke-linecap:butt;stroke-linejoin:miter;stroke:rgb(80%,80%,80%);stroke-opacity:1;stroke-miterlimit:10;" d="M 176.582031 482.171875 L 159.011719 438.398438 "/>
<path style=" stroke:none;fill-rule:nonzero;fill:rgb(80%,80%,80%);fill-opacity:1;" d="M 153.695312 425.160156 L 163.3125 436.671875 L 154.707031 440.125 L 153.695312 425.160156 "/>
<path style="fill:none;stroke-width:1;stroke-linecap:butt;stroke-linejoin:miter;stroke:rgb(80%,80%,80%);stroke-opacity:1;stroke-miterlimit:10;" d="M 176.582031 482.171875 L 251.695312 520.160156 "/>
<path style=" stroke:none;fill-rule:nonzero;fill:rgb(80%,80%,80%);fill-opacity:1;" d="M 264.425781 526.597656 L 249.605469 524.296875 L 253.789062 516.023438 L 264.425781 526.597656 "/>
<path style="fill:none;stroke-width:1;stroke-linecap:butt;stroke-linejoin:miter;stroke:rgb(80%,80%,80%);stroke-opacity:1;stroke-miterlimit:10;" d="M 176.582031 482.171875 L 325.246094 469.09375 "/>
<path style=" stroke:none;fill-rule:nonzero;fill:rgb(80%,80%,80%);fill-opacity:1;" d="M 339.457031 467.84375 L 325.652344 473.710938 L 324.839844 464.476562 L 339.457031 467.84375 "/>
<path style="fill:none;stroke-width:1;stroke-linecap:butt;stroke-linejoin:miter;stroke:rgb(80%,80%,80%);stroke-opacity:1;stroke-miterlimit:10;" d="M 176.582031 482.171875 L 307.199219 457.738281 "/>
<path style=" stroke:none;fill-rule:nonzero;fill:rgb(80%,80%,80%);fill-opacity:1;" d="M 321.21875 455.117188 L 308.050781 462.296875 L 306.347656 453.183594 L 321.21875 455.117188 "/>
<path style="fill:none;stroke-width:1;stroke-linecap:butt;stroke-linejoin:miter;stroke:rgb(20%,20%,20%);stroke-opacity:1;stroke-miterlimit:10;" d="M 20 388.34375 L 30.382812 413.265625 "/>
<path style=" stroke:none;fill-rule:nonzero;fill:rgb(20%,20%,20%);fill-opacity:1;" d="M 35.867188 426.433594 L 26.101562 415.046875 L 34.660156 411.480469 L 35.867188 426.433594 "/>
<path style="fill:none;stroke-width:1;stroke-linecap:butt;stroke-linejoin:miter;stroke:rgb(20%,20%,20%);stroke-opacity:1;stroke-miterlimit:10;" d="M 20 388.34375 L 126.234375 410.847656 "/>
<path style=" stroke:none;fill-rule:nonzero;fill:rgb(20%,20%,20%);fill-opacity:1;" d="M 140.1875 413.804688 L 125.273438 415.382812 L 127.191406 406.316406 L 140.1875 413.804688 "/>
<path style="fill:none;stroke-width:1;stroke-linecap:butt;stroke-linejoin:miter;stroke:rgb(80%,80%,80%);stroke-opacity:1;stroke-miterlimit:10;" d="M 20 388.34375 L 191.945312 374.160156 "/>
<path style=" stroke:none;fill-rule:nonzero;fill:rgb(80%,80%,80%);fill-opacity:1;" d="M 206.160156 372.988281 L 192.324219 378.78125 L 191.5625 369.542969 L 206.160156 372.988281 "/>
<path style="fill:none;stroke-width:1;stroke-linecap:butt;stroke-linejoin:miter;stroke:rgb(80%,80%,80%);stroke-opacity:1;stroke-miterlimit:10;" d="M 39.714844 435.664062 L 193.296875 380.382812 "/>
<path style=" stroke:none;fill-rule:nonzero;fill:rgb(80%,80%,80%);fill-opacity:1;" d="M 206.71875 375.550781 L 194.863281 384.746094 L 191.726562 376.023438 L 206.71875 375.550781 "/>
<path style="fill:none;stroke-width:1;stroke-linecap:butt;stroke-linejoin:miter;stroke:rgb(20%,20%,20%);stroke-opacity:1;stroke-miterlimit:10;" d="M 276.070312 580 L 274.699219 555.335938 "/>
<path style=" stroke:none;fill-rule:nonzero;fill:rgb(20%,20%,20%);fill-opacity:1;" d="M 273.90625 541.09375 L 279.328125 555.082031 L 270.070312 555.59375 L 273.90625 541.09375 "/>
<path style="fill:none;stroke-width:1;stroke-linecap:butt;stroke-linejoin:miter;stroke:rgb(80%,80%,80%);stroke-opacity:1;stroke-miterlimit:10;" d="M 276.070312 580 L 321.390625 475.539062 "/>
<path style=" stroke:none;fill-rule:nonzero;fill:rgb(80%,80%,80%);fill-opacity:1;" d="M 327.070312 462.453125 L 325.644531 477.382812 L 317.140625 473.695312 L 327.070312 462.453125 "/>
<path style="fill:none;stroke-width:1;stroke-linecap:butt;stroke-linejoin:miter;stroke:rgb(80%,80%,80%);stroke-opacity:1;stroke-miterlimit:10;" d="M 149.972656 415.878906 L 307.285156 448.371094 "/>
<path style=" stroke:none;fill-rule:nonzero;fill:rgb(80%,80%,80%);fill-opacity:1;" d="M 321.257812 451.253906 L 306.347656 452.910156 L 308.222656 443.828125 L 321.257812 451.253906 "/>
<path style="fill:none;stroke-width:1;stroke-linecap:butt;stroke-linejoin:miter;stroke:rgb(20%,20%,20%);stroke-opacity:1;stroke-miterlimit:10;" d="M 274.722656 398.425781 L 238.269531 382.089844 "/>
<path style=" stroke:none;fill-rule:nonzero;fill:rgb(20%,20%,20%);fill-opacity:1;" d="M 225.253906 376.253906 L 240.167969 377.859375 L 236.375 386.320312 L 225.253906 376.253906 "/>
<path style="fill:none;stroke-width:1;stroke-linecap:butt;stroke-linejoin:miter;stroke:rgb(20%,20%,20%);stroke-opacity:1;stroke-miterlimit:10;" d="M 274.722656 398.425781 L 313.664062 436.347656 "/>
<path style=" stroke:none;fill-rule:nonzero;fill:rgb(20%,20%,20%);fill-opacity:1;" d="M 323.886719 446.300781 L 310.433594 439.667969 L 316.898438 433.027344 L 323.886719 446.300781 "/>
<path style="fill:none;stroke-width:1;stroke-linecap:butt;stroke-linejoin:miter;stroke:rgb(80%,80%,80%);stroke-opacity:1;stroke-miterlimit:10;" d="M 273.351562 531.109375 L 330.867188 482.609375 "/>
<path style=" stroke:none;fill-rule:nonzero;fill:rgb(80%,80%,80%);fill-opacity:1;" d="M 341.773438 473.414062 L 333.855469 486.152344 L 327.878906 479.066406 L 341.773438 473.414062 "/>
<path style="fill:none;stroke-width:1;stroke-linecap:butt;stroke-linejoin:miter;stroke:rgb(80%,80%,80%);stroke-opacity:1;stroke-miterlimit:10;" d="M 273.351562 531.109375 L 316.597656 472.769531 "/>
<path style=" stroke:none;fill-rule:nonzero;fill:rgb(80%,80%,80%);fill-opacity:1;" d="M 325.09375 461.3125 L 320.324219 475.53125 L 312.875 470.011719 L 325.09375 461.3125 "/>
<path style="fill:none;stroke-width:1;stroke-linecap:butt;stroke-linejoin:miter;stroke:rgb(20%,20%,20%);stroke-opacity:1;stroke-miterlimit:10;" d="M 456.003906 402.300781 L 370.164062 454.378906 "/>
<path style=" stroke:none;fill-rule:nonzero;fill:rgb(20%,20%,20%);fill-opacity:1;" d="M 357.96875 461.78125 L 367.761719 450.417969 L 372.570312 458.34375 L 357.96875 461.78125 "/>
<path style="fill:none;stroke-width:1;stroke-linecap:butt;stroke-linejoin:miter;stroke:rgb(20%,20%,20%);stroke-opacity:1;stroke-miterlimit:10;" d="M 456.003906 402.300781 L 353.519531 444.113281 "/>
<path style=" stroke:none;fill-rule:nonzero;fill:rgb(20%,20%,20%);fill-opacity:1;" d="M 340.308594 449.5 L 351.765625 439.820312 L 355.269531 448.402344 L 340.308594 449.5 "/>
<path style="fill:none;stroke-width:1;stroke-linecap:butt;stroke-linejoin:miter;stroke:rgb(20%,20%,20%);stroke-opacity:1;stroke-miterlimit:10;" d="M 216.128906 372.164062 L 329.644531 452.902344 "/>
<path style=" stroke:none;fill-rule:nonzero;fill:rgb(20%,20%,20%);fill-opacity:1;" d="M 341.269531 461.171875 L 326.957031 456.679688 L 332.332031 449.125 L 341.269531 461.171875 "/>
<path style="fill:none;stroke-width:1;stroke-linecap:butt;stroke-linejoin:miter;stroke:rgb(20%,20%,20%);stroke-opacity:1;stroke-miterlimit:10;" d="M 216.128906 372.164062 L 311.226562 439.285156 "/>
<path style=" stroke:none;fill-rule:nonzero;fill:rgb(20%,20%,20%);fill-opacity:1;" d="M 322.878906 447.511719 L 308.550781 443.070312 L 313.898438 435.5 L 322.878906 447.511719 "/>
<path style="fill:none;stroke-width:1;stroke-linecap:butt;stroke-linejoin:miter;stroke:rgb(20%,20%,20%);stroke-opacity:1;stroke-miterlimit:10;" d="M 349.417969 466.96875 L 350.507812 467.777344 "/>
<path style=" stroke:none;fill-rule:nonzero;fill:rgb(20%,20%,20%);fill-opacity:1;" d="M 339.070312 459.253906 L 353.277344 464.0625 L 347.738281 471.496094 L 339.070312 459.253906 "/>
<path style="fill-rule:nonzero;fill:rgb(100%,0%,0%);fill-opacity:1;stroke-width:1;stroke-linecap:butt;stroke-linejoin:miter;stroke:rgb(0%,0%,0%);stroke-opacity:1;stroke-miterlimit:10;" d="M 412.417969 232.261719 C 412.417969 237.785156 407.941406 242.261719 402.417969 242.261719 C 396.898438 242.261719 392.417969 237.785156 392.417969 232.261719 C 392.417969 226.742188 396.898438 222.261719 402.417969 222.261719 C 407.941406 222.261719 412.417969 226.742188 412.417969 232.261719 "/>
<path style="fill-rule:nonzero;fill:rgb(100%,0%,0%);fill-opacity:1;stroke-width:1;stroke-linecap:butt;stroke-linejoin:miter;stroke:rgb(0%,0%,0%);stroke-opacity:1;stroke-miterlimit:10;" d="M 452.933594 288.800781 C 452.933594 294.324219 448.457031 298.800781 442.933594 298.800781 C 437.410156 298.800781 432.933594 294.324219 432.933594 288.800781 C 432.933594 283.277344 437.410156 278.800781 442.933594 278.800781 C 448.457031 278.800781 452.933594 283.277344 452.933594 288.800781 "/>
<path style="fill-rule:nonzero;fill:rgb(0%,0%,100%);fill-opacity:1;stroke-width:1;stroke-linecap:butt;stroke-linejoin:miter;stroke:rgb(0%,0%,0%);stroke-opacity:1;stroke-miterlimit:10;" d="M 315.890625 341.816406 C 315.890625 347.339844 311.414062 351.816406 305.890625 351.816406 C 300.367188 351.816406 295.890625 347.339844 295.890625 341.816406 C 295.890625 336.292969 300.367188 331.816406 305.890625 331.816406 C 311.414062 331.816406 315.890625 336.292969 315.890625 341.816406 "/>
<path style="fill-rule:nonzero;fill:rgb(0%,0%,100%);fill-opacity:1;stroke-width:1;stroke-linecap:butt;stroke-linejoin:miter;stroke:rgb(0%,0%,0%);stroke-opacity:1;stroke-miterlimit:10;" d="M 342.277344 252.480469 C 342.277344 258 337.800781 262.480469 332.277344 262.480469 C 326.753906 262.480469 322.277344 258 322.277344 252.480469 C 322.277344 246.957031 326.753906 242.480469 332.277344 242.480469 C 337.800781 242.480469 342.277344 246.957031 342.277344 252.480469 "/>
<path style="fill-rule:nonzero;fill:rgb(0%,0%,100%);fill-opacity:1;stroke-width:1;stroke-linecap:butt;stroke-linejoin:miter;stroke:rgb(0%,0%,0%);stroke-opacity:1;stroke-miterlimit:10;" d="M 452.734375 135.945312 C 452.734375 141.464844 448.257812 145.945312 442.734375 145.945312 C 437.210938 145.945312 432.734375 141.464844 432.734375 135.945312 C 432.734375 130.421875 437.210938 125.945312 442.734375 125.945312 C 448.257812 125.945312 452.734375 130.421875 452.734375 135.945312 "/>
<path style="fill-rule:nonzero;fill:rgb(100%,0%,0%);fill-opacity:1;stroke-width:1;stroke-linecap:butt;stroke-linejoin:miter;stroke:rgb(0%,0%,0%);stroke-opacity:1;stroke-miterlimit:10;" d="M 525.949219 103.324219 C 525.949219 108.84375 521.472656 113.324219 515.949219 113.324219 C 510.429688 113.324219 505.949219 108.84375 505.949219 103.324219 C 505.949219 97.800781 510.429688 93.324219 515.949219 93.324219 C 521.472656 93.324219 525.949219 97.800781 525.949219 103.324219 "/>
<path style="fill-rule:nonzero;fill:rgb(100%,0%,0%);fill-opacity:1;stroke-width:1;stroke-linecap:butt;stroke-linejoin:miter;stroke:rgb(0%,0%,0%);stroke-opacity:1;stroke-miterlimit:10;" d="M 458.324219 93.984375 C 458.324219 99.507812 453.847656 103.984375 448.324219 103.984375 C 442.800781 103.984375 438.324219 99.507812 438.324219 93.984375 C 438.324219 88.460938 442.800781 83.984375 448.324219 83.984375 C 453.847656 83.984375 458.324219 88.460938 458.324219 93.984375 "/>
<path style="fill-rule:nonzero;fill:rgb(100%,0%,0%);fill-opacity:1;stroke-width:1;stroke-linecap:butt;stroke-linejoin:miter;stroke:rgb(0%,0%,0%);stroke-opacity:1;stroke-miterlimit:10;" d="M 301.324219 264.824219 C 301.324219 270.347656 296.847656 274.824219 291.324219 274.824219 C 285.800781 274.824219 281.324219 270.347656 281.324219 264.824219 C 281.324219 259.300781 285.800781 254.824219 291.324219 254.824219 C 296.847656 254.824219 301.324219 259.300781 301.324219 264.824219 "/>
<path style="fill-rule:nonzero;fill:rgb(100%,0%,0%);fill-opacity:1;stroke-width:1;stroke-linecap:butt;stroke-linejoin:miter;stroke:rgb(0%,0%,0%);stroke-opacity:1;stroke-miterlimit:10;" d="M 402.566406 370.289062 C 402.566406 375.8125 398.089844 380.289062 392.566406 380.289062 C 387.042969 380.289062 382.566406 375.8125 382.566406 370.289062 C 382.566406 364.765625 387.042969 360.289062 392.566406 360.289062 C 398.089844 360.289062 402.566406 364.765625 402.566406 370.289062 "/>
<path style="fill-rule:nonzero;fill:rgb(100%,0%,0%);fill-opacity:1;stroke-width:1;stroke-linecap:butt;stroke-linejoin:miter;stroke:rgb(0%,0%,0%);stroke-opacity:1;stroke-miterlimit:10;" d="M 231.035156 421.355469 C 231.035156 426.878906 226.558594 431.355469 221.035156 431.355469 C 215.511719 431.355469 211.035156 426.878906 211.035156 421.355469 C 211.035156 415.832031 215.511719 411.355469 221.035156 411.355469 C 226.558594 411.355469 231.035156 415.832031 231.035156 421.355469 "/>
<path style="fill-rule:nonzero;fill:rgb(100%,0%,0%);fill-opacity:1;stroke-width:1;stroke-linecap:butt;stroke-linejoin:miter;stroke:rgb(0%,0%,0%);stroke-opacity:1;stroke-miterlimit:10;" d="M 543.800781 146.378906 C 543.800781 151.902344 539.324219 156.378906 533.800781 156.378906 C 528.277344 156.378906 523.800781 151.902344 523.800781 146.378906 C 523.800781 140.855469 528.277344 136.378906 533.800781 136.378906 C 539.324219 136.378906 543.800781 140.855469 543.800781 146.378906 "/>
<path style="fill-rule:nonzero;fill:rgb(0%,0%,100%);fill-opacity:1;stroke-width:1;stroke-linecap:butt;stroke-linejoin:miter;stroke:rgb(0%,0%,0%);stroke-opacity:1;stroke-miterlimit:10;" d="M 304.871094 126.785156 C 304.871094 132.304688 300.394531 136.785156 294.871094 136.785156 C 289.351562 136.785156 284.871094 132.304688 284.871094 126.785156 C 284.871094 121.261719 289.351562 116.785156 294.871094 116.785156 C 300.394531 116.785156 304.871094 121.261719 304.871094 126.785156 "/>
<path style="fill-rule:nonzero;fill:rgb(0%,0%,100%);fill-opacity:1;stroke-width:1;stroke-linecap:butt;stroke-linejoin:miter;stroke:rgb(0%,0%,0%);stroke-opacity:1;stroke-miterlimit:10;" d="M 278.152344 182.777344 C 278.152344 188.300781 273.675781 192.777344 268.152344 192.777344 C 262.628906 192.777344 258.152344 188.300781 258.152344 182.777344 C 258.152344 177.253906 262.628906 172.777344 268.152344 172.777344 C 273.675781 172.777344 278.152344 177.253906 278.152344 182.777344 "/>
<path style="fill-rule:nonzero;fill:rgb(0%,0%,100%);fill-opacity:1;stroke-width:1;stroke-linecap:butt;stroke-linejoin:miter;stroke:rgb(0%,0%,0%);stroke-opacity:1;stroke-miterlimit:10;" d="M 376.394531 320.234375 C 376.394531 325.757812 371.917969 330.234375 366.394531 330.234375 C 360.871094 330.234375 356.394531 325.757812 356.394531 320.234375 C 356.394531 314.710938 360.871094 310.234375 366.394531 310.234375 C 371.917969 310.234375 376.394531 314.710938 376.394531 320.234375 "/>
<path style="fill-rule:nonzero;fill:rgb(0%,100%,0%);fill-opacity:1;stroke-width:1;stroke-linecap:butt;stroke-linejoin:miter;stroke:rgb(0%,0%,0%);stroke-opacity:1;stroke-miterlimit:10;" d="M 479.082031 520.609375 C 479.082031 526.132812 474.605469 530.609375 469.082031 530.609375 C 463.558594 530.609375 459.082031 526.132812 459.082031 520.609375 C 459.082031 515.085938 463.558594 510.609375 469.082031 510.609375 C 474.605469 510.609375 479.082031 515.085938 479.082031 520.609375 "/>
<path style="fill-rule:nonzero;fill:rgb(0%,0%,100%);fill-opacity:1;stroke-width:1;stroke-linecap:butt;stroke-linejoin:miter;stroke:rgb(0%,0%,0%);stroke-opacity:1;stroke-miterlimit:10;" d="M 230.566406 528.039062 C 230.566406 533.5625 226.089844 538.039062 220.566406 538.039062 C 215.042969 538.039062 210.566406 533.5625 210.566406 528.039062 C 210.566406 522.519531 215.042969 518.039062 220.566406 518.039062 C 226.089844 518.039062 230.566406 522.519531 230.566406 528.039062 "/>
<path style="fill-rule:nonzero;fill:rgb(100%,0%,0%);fill-opacity:1;stroke-width:1;stroke-linecap:butt;stroke-linejoin:miter;stroke:rgb(0%,0%,0%);stroke-opacity:1;stroke-miterlimit:10;" d="M 536.488281 20 C 536.488281 25.523438 532.007812 30 526.488281 30 C 520.964844 30 516.488281 25.523438 516.488281 20 C 516.488281 14.476562 520.964844 10 526.488281 10 C 532.007812 10 536.488281 14.476562 536.488281 20 "/>
<path style="fill-rule:nonzero;fill:rgb(100%,0%,0%);fill-opacity:1;stroke-width:1;stroke-linecap:butt;stroke-linejoin:miter;stroke:rgb(0%,0%,0%);stroke-opacity:1;stroke-miterlimit:10;" d="M 550.164062 217.785156 C 550.164062 223.308594 545.683594 227.785156 540.164062 227.785156 C 534.640625 227.785156 530.164062 223.308594 530.164062 217.785156 C 530.164062 212.261719 534.640625 207.785156 540.164062 207.785156 C 545.683594 207.785156 550.164062 212.261719 550.164062 217.785156 "/>
<path style="fill-rule:nonzero;fill:rgb(100%,100%,0%);fill-opacity:1;stroke-width:1;stroke-linecap:butt;stroke-linejoin:miter;stroke:rgb(0%,0%,0%);stroke-opacity:1;stroke-miterlimit:10;" d="M 369.507812 546.515625 C 369.507812 552.039062 365.03125 556.515625 359.507812 556.515625 C 353.984375 556.515625 349.507812 552.039062 349.507812 546.515625 C 349.507812 540.996094 353.984375 536.515625 359.507812 536.515625 C 365.03125 536.515625 369.507812 540.996094 369.507812 546.515625 "/>
<path style="fill-rule:nonzero;fill:rgb(0%,0%,100%);fill-opacity:1;stroke-width:1;stroke-linecap:butt;stroke-linejoin:miter;stroke:rgb(0%,0%,0%);stroke-opacity:1;stroke-miterlimit:10;" d="M 470.9375 339.84375 C 470.9375 345.367188 466.460938 349.84375 460.9375 349.84375 C 455.417969 349.84375 450.9375 345.367188 450.9375 339.84375 C 450.9375 334.320312 455.417969 329.84375 460.9375 329.84375 C 466.460938 329.84375 470.9375 334.320312 470.9375 339.84375 "/>
<path style="fill-rule:nonzero;fill:rgb(100%,0%,100%);fill-opacity:1;stroke-width:1;stroke-linecap:butt;stroke-linejoin:miter;stroke:rgb(0%,0%,0%);stroke-opacity:1;stroke-miterlimit:10;" d="M 432.316406 542.554688 C 432.316406 548.078125 427.835938 552.554688 422.316406 552.554688 C 416.792969 552.554688 412.316406 548.078125 412.316406 542.554688 C 412.316406 537.03125 416.792969 532.554688 422.316406 532.554688 C 427.835938 532.554688 432.316406 537.03125 432.316406 542.554688 "/>
<path style="fill-rule:nonzero;fill:rgb(100%,0%,0%);fill-opacity:1;stroke-width:1;stroke-linecap:butt;stroke-linejoin:miter;stroke:rgb(0%,0%,0%);stroke-opacity:1;stroke-miterlimit:10;" d="M 590 248.835938 C 590 254.355469 585.523438 258.835938 580 258.835938 C 574.476562 258.835938 570 254.355469 570 248.835938 C 570 243.3125 574.476562 238.835938 580 238.835938 C 585.523438 238.835938 590 243.3125 590 248.835938 "/>
<path style="fill-rule:nonzero;fill:rgb(0%,100%,100%);fill-opacity:1;stroke-width:1;stroke-linecap:butt;stroke-linejoin:miter;stroke:rgb(0%,0%,0%);stroke-opacity:1;stroke-miterlimit:10;" d="M 506.207031 489.058594 C 506.207031 494.582031 501.730469 499.058594 496.207031 499.058594 C 490.683594 499.058594 486.207031 494.582031 486.207031 489.058594 C 486.207031 483.535156 490.683594 479.058594 496.207031 479.058594 C 501.730469 479.058594 506.207031 483.535156 506.207031 489.058594 "/>
<path style="fill-rule:nonzero;fill:rgb(50.196078%,50.196078%,50.196078%);fill-opacity:1;stroke-width:1;stroke-linecap:butt;stroke-linejoin:miter;stroke:rgb(0%,0%,0%);stroke-opacity:1;stroke-miterlimit:10;" d="M 186.582031 482.171875 C 186.582031 487.695312 182.105469 492.171875 176.582031 492.171875 C 171.058594 492.171875 166.582031 487.695312 166.582031 482.171875 C 166.582031 476.648438 171.058594 472.171875 176.582031 472.171875 C 182.105469 472.171875 186.582031 476.648438 186.582031 482.171875 "/>
<path style="fill-rule:nonzero;fill:rgb(50%,0%,0%);fill-opacity:1;stroke-width:1;stroke-linecap:butt;stroke-linejoin:miter;stroke:rgb(0%,0%,0%);stroke-opacity:1;stroke-miterlimit:10;" d="M 30 388.34375 C 30 393.867188 25.523438 398.34375 20 398.34375 C 14.476562 398.34375 10 393.867188 10 388.34375 C 10 382.824219 14.476562 378.34375 20 378.34375 C 25.523438 378.34375 30 382.824219 30 388.34375 "/>
<path style="fill-rule:nonzero;fill:rgb(50%,0%,0%);fill-opacity:1;stroke-width:1;stroke-linecap:butt;stroke-linejoin:miter;stroke:rgb(0%,0%,0%);stroke-opacity:1;stroke-miterlimit:10;" d="M 49.714844 435.664062 C 49.714844 441.1875 45.238281 445.664062 39.714844 445.664062 C 34.191406 445.664062 29.714844 441.1875 29.714844 435.664062 C 29.714844 430.140625 34.191406 425.664062 39.714844 425.664062 C 45.238281 425.664062 49.714844 430.140625 49.714844 435.664062 "/>
<path style="fill-rule:nonzero;fill:rgb(0%,50%,0%);fill-opacity:1;stroke-width:1;stroke-linecap:butt;stroke-linejoin:miter;stroke:rgb(0%,0%,0%);stroke-opacity:1;stroke-miterlimit:10;" d="M 286.070312 580 C 286.070312 585.523438 281.589844 590 276.070312 590 C 270.546875 590 266.070312 585.523438 266.070312 580 C 266.070312 574.476562 270.546875 570 276.070312 570 C 281.589844 570 286.070312 574.476562 286.070312 580 "/>
<path style="fill-rule:nonzero;fill:rgb(50%,0%,0%);fill-opacity:1;stroke-width:1;stroke-linecap:butt;stroke-linejoin:miter;stroke:rgb(0%,0%,0%);stroke-opacity:1;stroke-miterlimit:10;" d="M 159.972656 415.878906 C 159.972656 421.402344 155.496094 425.878906 149.972656 425.878906 C 144.449219 425.878906 139.972656 421.402344 139.972656 415.878906 C 139.972656 410.355469 144.449219 405.878906 149.972656 405.878906 C 155.496094 405.878906 159.972656 410.355469 159.972656 415.878906 "/>
<path style="fill-rule:nonzero;fill:rgb(100%,0%,0%);fill-opacity:1;stroke-width:1;stroke-linecap:butt;stroke-linejoin:miter;stroke:rgb(0%,0%,0%);stroke-opacity:1;stroke-miterlimit:10;" d="M 284.722656 398.425781 C 284.722656 403.949219 280.246094 408.425781 274.722656 408.425781 C 269.199219 408.425781 264.722656 403.949219 264.722656 398.425781 C 264.722656 392.902344 269.199219 388.425781 274.722656 388.425781 C 280.246094 388.425781 284.722656 392.902344 284.722656 398.425781 "/>
<path style="fill-rule:nonzero;fill:rgb(0%,50%,0%);fill-opacity:1;stroke-width:1;stroke-linecap:butt;stroke-linejoin:miter;stroke:rgb(0%,0%,0%);stroke-opacity:1;stroke-miterlimit:10;" d="M 283.351562 531.109375 C 283.351562 536.632812 278.875 541.109375 273.351562 541.109375 C 267.828125 541.109375 263.351562 536.632812 263.351562 531.109375 C 263.351562 525.585938 267.828125 521.109375 273.351562 521.109375 C 278.875 521.109375 283.351562 525.585938 283.351562 531.109375 "/>
<path style="fill-rule:nonzero;fill:rgb(100%,0%,0%);fill-opacity:1;stroke-width:1;stroke-linecap:butt;stroke-linejoin:miter;stroke:rgb(0%,0%,0%);stroke-opacity:1;stroke-miterlimit:10;" d="M 466.003906 402.300781 C 466.003906 407.820312 461.527344 412.300781 456.003906 412.300781 C 450.484375 412.300781 446.003906 407.820312 446.003906 402.300781 C 446.003906 396.777344 450.484375 392.300781 456.003906 392.300781 C 461.527344 392.300781 466.003906 396.777344 466.003906 402.300781 "/>
<path style="fill-rule:nonzero;fill:rgb(100%,0%,0%);fill-opacity:1;stroke-width:1;stroke-linecap:butt;stroke-linejoin:miter;stroke:rgb(0%,0%,0%);stroke-opacity:1;stroke-miterlimit:10;" d="M 226.128906 372.164062 C 226.128906 377.6875 221.648438 382.164062 216.128906 382.164062 C 210.605469 382.164062 206.128906 377.6875 206.128906 372.164062 C 206.128906 366.644531 210.605469 362.164062 216.128906 362.164062 C 221.648438 362.164062 226.128906 366.644531 226.128906 372.164062 "/>
<path style="fill-rule:nonzero;fill:rgb(100%,0%,0%);fill-opacity:1;stroke-width:1;stroke-linecap:butt;stroke-linejoin:miter;stroke:rgb(0%,0%,0%);stroke-opacity:1;stroke-miterlimit:10;" d="M 359.417969 466.96875 C 359.417969 472.488281 354.941406 476.96875 349.417969 476.96875 C 343.894531 476.96875 339.417969 472.488281 339.417969 466.96875 C 339.417969 461.445312 343.894531 456.96875 349.417969 456.96875 C 354.941406 456.96875 359.417969 461.445312 359.417969 466.96875 "/>
<path style="fill-rule:nonzero;fill:rgb(100%,0%,0%);fill-opacity:1;stroke-width:1;stroke-linecap:butt;stroke-linejoin:miter;stroke:rgb(0%,0%,0%);stroke-opacity:1;stroke-miterlimit:10;" d="M 341.050781 453.277344 C 341.050781 458.800781 336.574219 463.277344 331.050781 463.277344 C 325.527344 463.277344 321.050781 458.800781 321.050781 453.277344 C 321.050781 447.753906 325.527344 443.277344 331.050781 443.277344 C 336.574219 443.277344 341.050781 447.753906 341.050781 453.277344 "/>
</g>
</svg>
