<?xml version="1.0" encoding="UTF-8"?>
<svg xmlns="http://www.w3.org/2000/svg" xmlns:xlink="http://www.w3.org/1999/xlink" width="600pt" height="600pt" viewBox="0 0 600 600" version="1.1">
<g id="surface86">
<rect x="0" y="0" width="600" height="600" style="fill:rgb(100%,100%,100%);fill-opacity:1;stroke:none;"/>
<path style="fill-rule:nonzero;fill:rgb(100%,0%,0%);fill-opacity:0.25;stroke-width:2;stroke-linecap:butt;stroke-linejoin:miter;stroke:rgb(100%,0%,0%);stroke-opacity:1;stroke-miterlimit:10;" d="M 534.460938 261.105469 L 311.9375 86.261719 C 302.109375 78.539062 280.5625 75.160156 268.839844 79.507812 L 154.894531 121.777344 C 143.171875 126.125 131.972656 142.960938 132.492188 155.453125 L 134.800781 210.855469 C 135.320312 223.347656 144.484375 244.867188 153.125 253.898438 L 360.015625 470.148438 C 368.65625 479.179688 386.957031 496.144531 396.617188 504.082031 L 496.910156 586.453125 C 506.566406 594.386719 521.398438 590.941406 526.566406 579.558594 L 592.78125 433.757812 C 597.953125 422.375 598.839844 399.25 594.558594 387.507812 L 562.679688 300.039062 C 558.398438 288.296875 544.289062 268.828125 534.460938 261.105469 "/>
<path style="fill-rule:nonzero;fill:rgb(50.196078%,50.196078%,50.196078%);fill-opacity:0.25;stroke-width:2;stroke-linecap:butt;stroke-linejoin:miter;stroke:rgb(50.196078%,50.196078%,50.196078%);stroke-opacity:1;stroke-miterlimit:10;" d="M 348.300781 32.699219 C 344.019531 40.429688 331.238281 50.601562 322.742188 53.039062 L 242.859375 75.96875 C 234.363281 78.410156 218.136719 76.5625 210.40625 72.28125 C 202.675781 68 199.226562 55.984375 203.507812 48.25 C 207.789062 40.519531 220.570312 30.347656 229.066406 27.910156 L 308.949219 4.980469 C 317.445312 2.542969 333.671875 4.386719 341.402344 8.667969 C 349.136719 12.949219 352.585938 24.964844 348.300781 32.699219 "/>
<path style="fill-rule:nonzero;fill:rgb(0%,50%,0%);fill-opacity:0.25;stroke-width:2;stroke-linecap:butt;stroke-linejoin:miter;stroke:rgb(0%,50%,0%);stroke-opacity:1;stroke-miterlimit:10;" d="M 84.132812 2.714844 C 92.773438 0.859375 108.839844 3.800781 116.261719 8.601562 L 138.882812 23.222656 C 146.304688 28.019531 155.585938 41.460938 157.441406 50.101562 C 159.296875 58.746094 152.511719 69.242188 143.871094 71.097656 C 135.226562 72.953125 119.164062 70.011719 111.738281 65.214844 L 89.121094 50.59375 C 81.695312 45.792969 72.417969 32.355469 70.5625 23.710938 C 68.707031 15.070312 75.492188 4.574219 84.132812 2.714844 "/>
<path style="fill:none;stroke-width:1;stroke-linecap:butt;stroke-linejoin:miter;stroke:rgb(20%,20%,20%);stroke-opacity:1;stroke-miterlimit:10;" d="M 407.425781 338.695312 L 397.082031 294.507812 "/>
<path style=" stroke:none;fill-rule:nonzero;fill:rgb(20%,20%,20%);fill-opacity:1;" d="M 393.832031 280.617188 L 401.597656 293.449219 L 392.570312 295.5625 L 393.832031 280.617188 "/>
<path style="fill:none;stroke-width:1;stroke-linecap:butt;stroke-linejoin:miter;stroke:rgb(20%,20%,20%);stroke-opacity:1;stroke-miterlimit:10;" d="M 407.425781 338.695312 L 330.269531 239.921875 "/>
<path style=" stroke:none;fill-rule:nonzero;fill:rgb(20%,20%,20%);fill-opacity:1;" d="M 321.484375 228.679688 L 333.921875 237.070312 L 326.617188 242.777344 L 321.484375 228.679688 "/>
<path style="fill:none;stroke-width:1;stroke-linecap:butt;stroke-linejoin:miter;stroke:rgb(20%,20%,20%);stroke-opacity:1;stroke-miterlimit:10;" d="M 407.425781 338.695312 L 413.042969 322.453125 "/>
<path style=" stroke:none;fill-rule:nonzero;fill:rgb(20%,20%,20%);fill-opacity:1;" d="M 417.703125 308.96875 L 417.421875 323.964844 L 408.660156 320.9375 L 417.703125 308.96875 "/>
<path style="fill:none;stroke-width:1;stroke-linecap:butt;stroke-linejoin:miter;stroke:rgb(20%,20%,20%);stroke-opacity:1;stroke-miterlimit:10;" d="M 407.425781 338.695312 L 433.359375 425.421875 "/>
<path style=" stroke:none;fill-rule:nonzero;fill:rgb(20%,20%,20%);fill-opacity:1;" d="M 437.445312 439.089844 L 428.917969 426.75 L 437.800781 424.097656 L 437.445312 439.089844 "/>
<path style="fill:none;stroke-width:1;stroke-linecap:butt;stroke-linejoin:miter;stroke:rgb(20%,20%,20%);stroke-opacity:1;stroke-miterlimit:10;" d="M 407.425781 338.695312 L 433.496094 474.089844 "/>
<path style=" stroke:none;fill-rule:nonzero;fill:rgb(20%,20%,20%);fill-opacity:1;" d="M 436.195312 488.097656 L 428.945312 474.964844 L 438.050781 473.210938 L 436.195312 488.097656 "/>
<path style="fill:none;stroke-width:1;stroke-linecap:butt;stroke-linejoin:miter;stroke:rgb(20%,20%,20%);stroke-opacity:1;stroke-miterlimit:10;" d="M 407.425781 338.695312 L 478.730469 463.417969 "/>
<path style=" stroke:none;fill-rule:nonzero;fill:rgb(20%,20%,20%);fill-opacity:1;" d="M 485.808594 475.800781 L 474.707031 465.71875 L 482.753906 461.117188 L 485.808594 475.800781 "/>
<path style="fill:none;stroke-width:1;stroke-linecap:butt;stroke-linejoin:miter;stroke:rgb(20%,20%,20%);stroke-opacity:1;stroke-miterlimit:10;" d="M 407.425781 338.695312 L 437.625 274.695312 "/>
<path style=" stroke:none;fill-rule:nonzero;fill:rgb(20%,20%,20%);fill-opacity:1;" d="M 443.714844 261.796875 L 441.820312 276.675781 L 433.433594 272.71875 L 443.714844 261.796875 "/>
<path style="fill:none;stroke-width:1;stroke-linecap:butt;stroke-linejoin:miter;stroke:rgb(20%,20%,20%);stroke-opacity:1;stroke-miterlimit:10;" d="M 407.425781 338.695312 L 264.445312 255.488281 "/>
<path style=" stroke:none;fill-rule:nonzero;fill:rgb(20%,20%,20%);fill-opacity:1;" d="M 252.117188 248.3125 L 266.777344 251.480469 L 262.113281 259.496094 L 252.117188 248.3125 "/>
<path style="fill:none;stroke-width:1;stroke-linecap:butt;stroke-linejoin:miter;stroke:rgb(20%,20%,20%);stroke-opacity:1;stroke-miterlimit:10;" d="M 407.425781 338.695312 L 382.339844 439.675781 "/>
<path style=" stroke:none;fill-rule:nonzero;fill:rgb(20%,20%,20%);fill-opacity:1;" d="M 378.898438 453.519531 L 377.839844 438.558594 L 386.835938 440.792969 L 378.898438 453.519531 "/>
<path style="fill:none;stroke-width:1;stroke-linecap:butt;stroke-linejoin:miter;stroke:rgb(20%,20%,20%);stroke-opacity:1;stroke-miterlimit:10;" d="M 407.425781 338.695312 L 557.195312 393.191406 "/>
<path style=" stroke:none;fill-rule:nonzero;fill:rgb(20%,20%,20%);fill-opacity:1;" d="M 570.601562 398.066406 L 555.613281 397.546875 L 558.78125 388.832031 L 570.601562 398.066406 "/>
<path style="fill:none;stroke-width:1;stroke-linecap:butt;stroke-linejoin:miter;stroke:rgb(20%,20%,20%);stroke-opacity:1;stroke-miterlimit:10;" d="M 407.425781 338.695312 L 478.65625 366.421875 "/>
<path style=" stroke:none;fill-rule:nonzero;fill:rgb(20%,20%,20%);fill-opacity:1;" d="M 491.949219 371.597656 L 476.972656 370.742188 L 480.335938 362.105469 L 491.949219 371.597656 "/>
<path style="fill:none;stroke-width:1;stroke-linecap:butt;stroke-linejoin:miter;stroke:rgb(20%,20%,20%);stroke-opacity:1;stroke-miterlimit:10;" d="M 407.425781 338.695312 L 340.800781 277.730469 "/>
<path style=" stroke:none;fill-rule:nonzero;fill:rgb(20%,20%,20%);fill-opacity:1;" d="M 330.277344 268.101562 L 343.929688 274.3125 L 337.671875 281.152344 L 330.277344 268.101562 "/>
<path style="fill:none;stroke-width:1;stroke-linecap:butt;stroke-linejoin:miter;stroke:rgb(20%,20%,20%);stroke-opacity:1;stroke-miterlimit:10;" d="M 407.425781 338.695312 L 494.355469 326.636719 "/>
<path style=" stroke:none;fill-rule:nonzero;fill:rgb(20%,20%,20%);fill-opacity:1;" d="M 508.488281 324.675781 L 494.992188 331.226562 L 493.71875 322.042969 L 508.488281 324.675781 "/>
<path style="fill:none;stroke-width:1;stroke-linecap:butt;stroke-linejoin:miter;stroke:rgb(20%,20%,20%);stroke-opacity:1;stroke-miterlimit:10;" d="M 407.425781 338.695312 L 296.726562 296.53125 "/>
<path style=" stroke:none;fill-rule:nonzero;fill:rgb(20%,20%,20%);fill-opacity:1;" d="M 283.394531 291.453125 L 298.375 292.199219 L 295.074219 300.863281 L 283.394531 291.453125 "/>
<path style="fill:none;stroke-width:1;stroke-linecap:butt;stroke-linejoin:miter;stroke:rgb(20%,20%,20%);stroke-opacity:1;stroke-miterlimit:10;" d="M 407.425781 338.695312 L 507.675781 292.050781 "/>
<path style=" stroke:none;fill-rule:nonzero;fill:rgb(20%,20%,20%);fill-opacity:1;" d="M 520.613281 286.03125 L 509.632812 296.253906 L 505.722656 287.847656 L 520.613281 286.03125 "/>
<path style="fill:none;stroke-width:1;stroke-linecap:butt;stroke-linejoin:miter;stroke:rgb(20%,20%,20%);stroke-opacity:1;stroke-miterlimit:10;" d="M 407.425781 338.695312 L 335.128906 173.46875 "/>
<path style=" stroke:none;fill-rule:nonzero;fill:rgb(20%,20%,20%);fill-opacity:1;" d="M 329.410156 160.398438 L 339.375 171.609375 L 330.882812 175.328125 L 329.410156 160.398438 "/>
<path style="fill:none;stroke-width:1;stroke-linecap:butt;stroke-linejoin:miter;stroke:rgb(20%,20%,20%);stroke-opacity:1;stroke-miterlimit:10;" d="M 391.550781 270.878906 L 335.609375 234.125 "/>
<path style=" stroke:none;fill-rule:nonzero;fill:rgb(20%,20%,20%);fill-opacity:1;" d="M 323.6875 226.289062 L 338.15625 230.25 L 333.066406 237.996094 L 323.6875 226.289062 "/>
<path style="fill:none;stroke-width:1;stroke-linecap:butt;stroke-linejoin:miter;stroke:rgb(20%,20%,20%);stroke-opacity:1;stroke-miterlimit:10;" d="M 391.550781 270.878906 L 403.582031 282.589844 "/>
<path style=" stroke:none;fill-rule:nonzero;fill:rgb(20%,20%,20%);fill-opacity:1;" d="M 413.804688 292.542969 L 400.347656 285.910156 L 406.816406 279.269531 L 413.804688 292.542969 "/>
<path style="fill:none;stroke-width:1;stroke-linecap:butt;stroke-linejoin:miter;stroke:rgb(20%,20%,20%);stroke-opacity:1;stroke-miterlimit:10;" d="M 391.550781 270.878906 L 424.878906 260.171875 "/>
<path style=" stroke:none;fill-rule:nonzero;fill:rgb(20%,20%,20%);fill-opacity:1;" d="M 438.460938 255.808594 L 426.296875 264.585938 L 423.460938 255.761719 L 438.460938 255.808594 "/>
<path style="fill:none;stroke-width:1;stroke-linecap:butt;stroke-linejoin:miter;stroke:rgb(20%,20%,20%);stroke-opacity:1;stroke-miterlimit:10;" d="M 391.550781 270.878906 L 346.9375 264.6875 "/>
<path style=" stroke:none;fill-rule:nonzero;fill:rgb(20%,20%,20%);fill-opacity:1;" d="M 332.804688 262.722656 L 347.574219 260.09375 L 346.296875 269.277344 L 332.804688 262.722656 "/>
<path style="fill:none;stroke-width:1;stroke-linecap:butt;stroke-linejoin:miter;stroke:rgb(20%,20%,20%);stroke-opacity:1;stroke-miterlimit:10;" d="M 391.550781 270.878906 L 495.964844 314.03125 "/>
<path style=" stroke:none;fill-rule:nonzero;fill:rgb(20%,20%,20%);fill-opacity:1;" d="M 509.148438 319.480469 L 494.195312 318.316406 L 497.734375 309.746094 L 509.148438 319.480469 "/>
<path style="fill:none;stroke-width:1;stroke-linecap:butt;stroke-linejoin:miter;stroke:rgb(20%,20%,20%);stroke-opacity:1;stroke-miterlimit:10;" d="M 391.550781 270.878906 L 298.0625 284.414062 "/>
<path style=" stroke:none;fill-rule:nonzero;fill:rgb(20%,20%,20%);fill-opacity:1;" d="M 283.945312 286.460938 L 297.398438 279.828125 L 298.730469 289.003906 L 283.945312 286.460938 "/>
<path style="fill:none;stroke-width:1;stroke-linecap:butt;stroke-linejoin:miter;stroke:rgb(20%,20%,20%);stroke-opacity:1;stroke-miterlimit:10;" d="M 391.550781 270.878906 L 505.488281 279.898438 "/>
<path style=" stroke:none;fill-rule:nonzero;fill:rgb(20%,20%,20%);fill-opacity:1;" d="M 519.710938 281.023438 L 505.121094 284.519531 L 505.855469 275.277344 L 519.710938 281.023438 "/>
<path style="fill:none;stroke-width:1;stroke-linecap:butt;stroke-linejoin:miter;stroke:rgb(20%,20%,20%);stroke-opacity:1;stroke-miterlimit:10;" d="M 391.550781 270.878906 L 263.796875 213.664062 "/>
<path style=" stroke:none;fill-rule:nonzero;fill:rgb(20%,20%,20%);fill-opacity:1;" d="M 250.777344 207.835938 L 265.691406 209.433594 L 261.902344 217.894531 L 250.777344 207.835938 "/>
<path style="fill:none;stroke-width:1;stroke-linecap:butt;stroke-linejoin:miter;stroke:rgb(20%,20%,20%);stroke-opacity:1;stroke-miterlimit:10;" d="M 315.332031 220.800781 L 401.511719 285.019531 "/>
<path style=" stroke:none;fill-rule:nonzero;fill:rgb(20%,20%,20%);fill-opacity:1;" d="M 412.949219 293.542969 L 398.742188 288.734375 L 404.28125 281.300781 L 412.949219 293.542969 "/>
<path style="fill:none;stroke-width:1;stroke-linecap:butt;stroke-linejoin:miter;stroke:rgb(20%,20%,20%);stroke-opacity:1;stroke-miterlimit:10;" d="M 315.332031 220.800781 L 424.390625 247.070312 "/>
<path style=" stroke:none;fill-rule:nonzero;fill:rgb(20%,20%,20%);fill-opacity:1;" d="M 438.261719 250.410156 L 423.304688 251.574219 L 425.476562 242.5625 L 438.261719 250.410156 "/>
<path style="fill:none;stroke-width:1;stroke-linecap:butt;stroke-linejoin:miter;stroke:rgb(20%,20%,20%);stroke-opacity:1;stroke-miterlimit:10;" d="M 315.332031 220.800781 L 266.632812 236.035156 "/>
<path style=" stroke:none;fill-rule:nonzero;fill:rgb(20%,20%,20%);fill-opacity:1;" d="M 253.015625 240.296875 L 265.246094 231.613281 L 268.015625 240.460938 L 253.015625 240.296875 "/>
<path style="fill:none;stroke-width:1;stroke-linecap:butt;stroke-linejoin:miter;stroke:rgb(20%,20%,20%);stroke-opacity:1;stroke-miterlimit:10;" d="M 315.332031 220.800781 L 183.523438 240.3125 "/>
<path style=" stroke:none;fill-rule:nonzero;fill:rgb(20%,20%,20%);fill-opacity:1;" d="M 169.410156 242.398438 L 182.84375 235.726562 L 184.199219 244.894531 L 169.410156 242.398438 "/>
<path style="fill:none;stroke-width:1;stroke-linecap:butt;stroke-linejoin:miter;stroke:rgb(20%,20%,20%);stroke-opacity:1;stroke-miterlimit:10;" d="M 315.332031 220.800781 L 318.445312 237.496094 "/>
<path style=" stroke:none;fill-rule:nonzero;fill:rgb(20%,20%,20%);fill-opacity:1;" d="M 321.066406 251.519531 L 313.890625 238.347656 L 323.003906 236.644531 L 321.066406 251.519531 "/>
<path style="fill:none;stroke-width:1;stroke-linecap:butt;stroke-linejoin:miter;stroke:rgb(20%,20%,20%);stroke-opacity:1;stroke-miterlimit:10;" d="M 315.332031 220.800781 L 302.917969 118.683594 "/>
<path style=" stroke:none;fill-rule:nonzero;fill:rgb(20%,20%,20%);fill-opacity:1;" d="M 301.195312 104.523438 L 307.519531 118.125 L 298.316406 119.246094 L 301.195312 104.523438 "/>
<path style="fill:none;stroke-width:1;stroke-linecap:butt;stroke-linejoin:miter;stroke:rgb(20%,20%,20%);stroke-opacity:1;stroke-miterlimit:10;" d="M 315.332031 220.800781 L 282.75 159.472656 "/>
<path style=" stroke:none;fill-rule:nonzero;fill:rgb(20%,20%,20%);fill-opacity:1;" d="M 276.058594 146.875 L 286.84375 157.300781 L 278.65625 161.648438 L 276.058594 146.875 "/>
<path style="fill:none;stroke-width:1;stroke-linecap:butt;stroke-linejoin:miter;stroke:rgb(20%,20%,20%);stroke-opacity:1;stroke-miterlimit:10;" d="M 315.332031 220.800781 L 173.316406 155.835938 "/>
<path style=" stroke:none;fill-rule:nonzero;fill:rgb(20%,20%,20%);fill-opacity:1;" d="M 160.339844 149.902344 L 175.242188 151.621094 L 171.386719 160.054688 L 160.339844 149.902344 "/>
<path style="fill:none;stroke-width:1;stroke-linecap:butt;stroke-linejoin:miter;stroke:rgb(20%,20%,20%);stroke-opacity:1;stroke-miterlimit:10;" d="M 420.96875 299.519531 L 435.84375 273.761719 "/>
<path style=" stroke:none;fill-rule:nonzero;fill:rgb(20%,20%,20%);fill-opacity:1;" d="M 442.980469 261.410156 L 439.859375 276.082031 L 431.832031 271.445312 L 442.980469 261.410156 "/>
<path style="fill:none;stroke-width:1;stroke-linecap:butt;stroke-linejoin:miter;stroke:rgb(20%,20%,20%);stroke-opacity:1;stroke-miterlimit:10;" d="M 420.96875 299.519531 L 483.613281 358.582031 "/>
<path style=" stroke:none;fill-rule:nonzero;fill:rgb(20%,20%,20%);fill-opacity:1;" d="M 493.992188 368.367188 L 480.433594 361.953125 L 486.792969 355.207031 L 493.992188 368.367188 "/>
<path style="fill:none;stroke-width:1;stroke-linecap:butt;stroke-linejoin:miter;stroke:rgb(20%,20%,20%);stroke-opacity:1;stroke-miterlimit:10;" d="M 420.96875 299.519531 L 345.511719 270.152344 "/>
<path style=" stroke:none;fill-rule:nonzero;fill:rgb(20%,20%,20%);fill-opacity:1;" d="M 332.21875 264.976562 L 347.195312 265.832031 L 343.832031 274.46875 L 332.21875 264.976562 "/>
<path style="fill:none;stroke-width:1;stroke-linecap:butt;stroke-linejoin:miter;stroke:rgb(20%,20%,20%);stroke-opacity:1;stroke-miterlimit:10;" d="M 440.3125 448.671875 L 470.984375 470.441406 "/>
<path style=" stroke:none;fill-rule:nonzero;fill:rgb(20%,20%,20%);fill-opacity:1;" d="M 482.617188 478.695312 L 468.300781 474.21875 L 473.667969 466.660156 L 482.617188 478.695312 "/>
<path style="fill:none;stroke-width:1;stroke-linecap:butt;stroke-linejoin:miter;stroke:rgb(20%,20%,20%);stroke-opacity:1;stroke-miterlimit:10;" d="M 440.3125 448.671875 L 400.144531 457.832031 "/>
<path style=" stroke:none;fill-rule:nonzero;fill:rgb(20%,20%,20%);fill-opacity:1;" d="M 386.238281 461.003906 L 399.113281 453.3125 L 401.175781 462.351562 L 386.238281 461.003906 "/>
<path style="fill:none;stroke-width:1;stroke-linecap:butt;stroke-linejoin:miter;stroke:rgb(20%,20%,20%);stroke-opacity:1;stroke-miterlimit:10;" d="M 438.085938 497.917969 L 467.261719 490.476562 "/>
<path style=" stroke:none;fill-rule:nonzero;fill:rgb(20%,20%,20%);fill-opacity:1;" d="M 481.082031 486.953125 L 468.40625 494.96875 L 466.113281 485.988281 L 481.082031 486.953125 "/>
<path style="fill:none;stroke-width:1;stroke-linecap:butt;stroke-linejoin:miter;stroke:rgb(20%,20%,20%);stroke-opacity:1;stroke-miterlimit:10;" d="M 438.085938 497.917969 L 397.628906 475.132812 "/>
<path style=" stroke:none;fill-rule:nonzero;fill:rgb(20%,20%,20%);fill-opacity:1;" d="M 385.199219 468.132812 L 399.90625 471.09375 L 395.355469 479.171875 L 385.199219 468.132812 "/>
<path style="fill:none;stroke-width:1;stroke-linecap:butt;stroke-linejoin:miter;stroke:rgb(20%,20%,20%);stroke-opacity:1;stroke-miterlimit:10;" d="M 438.085938 497.917969 L 489.640625 561.1875 "/>
<path style=" stroke:none;fill-rule:nonzero;fill:rgb(20%,20%,20%);fill-opacity:1;" d="M 498.652344 572.246094 L 486.046875 564.117188 L 493.234375 558.261719 L 498.652344 572.246094 "/>
<path style="fill:none;stroke-width:1;stroke-linecap:butt;stroke-linejoin:miter;stroke:rgb(20%,20%,20%);stroke-opacity:1;stroke-miterlimit:10;" d="M 490.773438 484.484375 L 501.402344 555.996094 "/>
<path style=" stroke:none;fill-rule:nonzero;fill:rgb(20%,20%,20%);fill-opacity:1;" d="M 503.496094 570.109375 L 496.816406 556.679688 L 505.984375 555.316406 L 503.496094 570.109375 "/>
<path style="fill:none;stroke-width:1;stroke-linecap:butt;stroke-linejoin:miter;stroke:rgb(20%,20%,20%);stroke-opacity:1;stroke-miterlimit:10;" d="M 243.472656 243.285156 L 242.765625 227.988281 "/>
<path style=" stroke:none;fill-rule:nonzero;fill:rgb(20%,20%,20%);fill-opacity:1;" d="M 242.109375 213.738281 L 247.398438 227.773438 L 238.136719 228.199219 L 242.109375 213.738281 "/>
<path style="fill:none;stroke-width:1;stroke-linecap:butt;stroke-linejoin:miter;stroke:rgb(20%,20%,20%);stroke-opacity:1;stroke-miterlimit:10;" d="M 243.472656 243.285156 L 167.917969 163.375 "/>
<path style=" stroke:none;fill-rule:nonzero;fill:rgb(20%,20%,20%);fill-opacity:1;" d="M 158.117188 153.011719 L 171.289062 160.191406 L 164.550781 166.5625 L 158.117188 153.011719 "/>
<path style="fill:none;stroke-width:1;stroke-linecap:butt;stroke-linejoin:miter;stroke:rgb(20%,20%,20%);stroke-opacity:1;stroke-miterlimit:10;" d="M 243.472656 243.285156 L 189.6875 172.785156 "/>
<path style=" stroke:none;fill-rule:nonzero;fill:rgb(20%,20%,20%);fill-opacity:1;" d="M 181.03125 161.441406 L 193.371094 169.972656 L 186 175.597656 L 181.03125 161.441406 "/>
<path style="fill:none;stroke-width:1;stroke-linecap:butt;stroke-linejoin:miter;stroke:rgb(20%,20%,20%);stroke-opacity:1;stroke-miterlimit:10;" d="M 159.519531 243.863281 L 170.878906 177.410156 "/>
<path style=" stroke:none;fill-rule:nonzero;fill:rgb(20%,20%,20%);fill-opacity:1;" d="M 173.28125 163.351562 L 175.445312 178.191406 L 166.308594 176.628906 L 173.28125 163.351562 "/>
<path style="fill:none;stroke-width:1;stroke-linecap:butt;stroke-linejoin:miter;stroke:rgb(20%,20%,20%);stroke-opacity:1;stroke-miterlimit:10;" d="M 322.898438 261.347656 L 194.574219 167.789062 "/>
<path style=" stroke:none;fill-rule:nonzero;fill:rgb(20%,20%,20%);fill-opacity:1;" d="M 183.046875 159.382812 L 197.304688 164.042969 L 191.84375 171.535156 L 183.046875 159.382812 "/>
<path style="fill:none;stroke-width:1;stroke-linecap:butt;stroke-linejoin:miter;stroke:rgb(80%,80%,80%);stroke-opacity:1;stroke-miterlimit:10;" d="M 52.058594 201.820312 L 130.125 157.6875 "/>
<path style=" stroke:none;fill-rule:nonzero;fill:rgb(80%,80%,80%);fill-opacity:1;" d="M 142.542969 150.664062 L 132.40625 161.722656 L 127.84375 153.652344 L 142.542969 150.664062 "/>
<path style="fill:none;stroke-width:1;stroke-linecap:butt;stroke-linejoin:miter;stroke:rgb(80%,80%,80%);stroke-opacity:1;stroke-miterlimit:10;" d="M 52.058594 201.820312 L 152.382812 162.371094 "/>
<path style=" stroke:none;fill-rule:nonzero;fill:rgb(80%,80%,80%);fill-opacity:1;" d="M 165.660156 157.152344 L 154.078125 166.6875 L 150.6875 158.058594 L 165.660156 157.152344 "/>
<path style="fill:none;stroke-width:1;stroke-linecap:butt;stroke-linejoin:miter;stroke:rgb(80%,80%,80%);stroke-opacity:1;stroke-miterlimit:10;" d="M 39.710938 134.910156 L 127.09375 143.398438 "/>
<path style=" stroke:none;fill-rule:nonzero;fill:rgb(80%,80%,80%);fill-opacity:1;" d="M 141.292969 144.777344 L 126.648438 148.011719 L 127.542969 138.785156 L 141.292969 144.777344 "/>
<path style="fill:none;stroke-width:1;stroke-linecap:butt;stroke-linejoin:miter;stroke:rgb(80%,80%,80%);stroke-opacity:1;stroke-miterlimit:10;" d="M 39.710938 134.910156 L 150.925781 150.191406 "/>
<path style=" stroke:none;fill-rule:nonzero;fill:rgb(80%,80%,80%);fill-opacity:1;" d="M 165.058594 152.132812 L 150.296875 154.78125 L 151.558594 145.597656 L 165.058594 152.132812 "/>
<path style="fill:none;stroke-width:1;stroke-linecap:butt;stroke-linejoin:miter;stroke:rgb(80%,80%,80%);stroke-opacity:1;stroke-miterlimit:10;" d="M 30.554688 98.992188 L 128.621094 136.980469 "/>
<path style=" stroke:none;fill-rule:nonzero;fill:rgb(80%,80%,80%);fill-opacity:1;" d="M 141.921875 142.132812 L 126.945312 141.300781 L 130.292969 132.65625 L 141.921875 142.132812 "/>
<path style="fill:none;stroke-width:1;stroke-linecap:butt;stroke-linejoin:miter;stroke:rgb(80%,80%,80%);stroke-opacity:1;stroke-miterlimit:10;" d="M 30.554688 98.992188 L 152.265625 144.925781 "/>
<path style=" stroke:none;fill-rule:nonzero;fill:rgb(80%,80%,80%);fill-opacity:1;" d="M 165.609375 149.960938 L 150.628906 149.261719 L 153.902344 140.589844 L 165.609375 149.960938 "/>
<path style="fill:none;stroke-width:1;stroke-linecap:butt;stroke-linejoin:miter;stroke:rgb(20%,20%,20%);stroke-opacity:1;stroke-miterlimit:10;" d="M 274.050781 287.894531 L 189.367188 173.023438 "/>
<path style=" stroke:none;fill-rule:nonzero;fill:rgb(20%,20%,20%);fill-opacity:1;" d="M 180.902344 161.542969 L 193.097656 170.273438 L 185.636719 175.777344 L 180.902344 161.542969 "/>
<path style="fill:none;stroke-width:1;stroke-linecap:butt;stroke-linejoin:miter;stroke:rgb(80%,80%,80%);stroke-opacity:1;stroke-miterlimit:10;" d="M 77.097656 79.425781 L 133.160156 129.566406 "/>
<path style=" stroke:none;fill-rule:nonzero;fill:rgb(80%,80%,80%);fill-opacity:1;" d="M 143.792969 139.078125 L 130.070312 133.023438 L 136.25 126.113281 L 143.792969 139.078125 "/>
<path style="fill:none;stroke-width:1;stroke-linecap:butt;stroke-linejoin:miter;stroke:rgb(80%,80%,80%);stroke-opacity:1;stroke-miterlimit:10;" d="M 77.097656 79.425781 L 155.617188 138.847656 "/>
<path style=" stroke:none;fill-rule:nonzero;fill:rgb(80%,80%,80%);fill-opacity:1;" d="M 166.992188 147.457031 L 152.820312 142.546875 L 158.414062 135.152344 L 166.992188 147.457031 "/>
<path style="fill:none;stroke-width:1;stroke-linecap:butt;stroke-linejoin:miter;stroke:rgb(80%,80%,80%);stroke-opacity:1;stroke-miterlimit:10;" d="M 20 168.277344 L 127.332031 149.851562 "/>
<path style=" stroke:none;fill-rule:nonzero;fill:rgb(80%,80%,80%);fill-opacity:1;" d="M 141.390625 147.4375 L 128.117188 154.417969 L 126.546875 145.28125 L 141.390625 147.4375 "/>
<path style="fill:none;stroke-width:1;stroke-linecap:butt;stroke-linejoin:miter;stroke:rgb(80%,80%,80%);stroke-opacity:1;stroke-miterlimit:10;" d="M 20 168.277344 L 150.808594 155.796875 "/>
<path style=" stroke:none;fill-rule:nonzero;fill:rgb(80%,80%,80%);fill-opacity:1;" d="M 165.011719 154.441406 L 151.25 160.410156 L 150.371094 151.183594 L 165.011719 154.441406 "/>
<path style="fill:none;stroke-width:1;stroke-linecap:butt;stroke-linejoin:miter;stroke:rgb(20%,20%,20%);stroke-opacity:1;stroke-miterlimit:10;" d="M 218.972656 56.816406 L 309.515625 30.828125 "/>
<path style=" stroke:none;fill-rule:nonzero;fill:rgb(20%,20%,20%);fill-opacity:1;" d="M 323.226562 26.890625 L 310.792969 35.28125 L 308.234375 26.371094 L 323.226562 26.890625 "/>
<path style="fill:none;stroke-width:1;stroke-linecap:butt;stroke-linejoin:miter;stroke:rgb(80%,80%,80%);stroke-opacity:1;stroke-miterlimit:10;" d="M 218.972656 56.816406 L 277.996094 84.339844 "/>
<path style=" stroke:none;fill-rule:nonzero;fill:rgb(80%,80%,80%);fill-opacity:1;" d="M 290.925781 90.371094 L 276.039062 88.542969 L 279.957031 80.140625 L 290.925781 90.371094 "/>
<path style="fill:none;stroke-width:1;stroke-linecap:butt;stroke-linejoin:miter;stroke:rgb(80%,80%,80%);stroke-opacity:1;stroke-miterlimit:10;" d="M 218.972656 56.816406 L 164.40625 54.738281 "/>
<path style=" stroke:none;fill-rule:nonzero;fill:rgb(80%,80%,80%);fill-opacity:1;" d="M 150.152344 54.195312 L 164.582031 50.105469 L 164.230469 59.371094 L 150.152344 54.195312 "/>
<path style="fill:none;stroke-width:1;stroke-linecap:butt;stroke-linejoin:miter;stroke:rgb(80%,80%,80%);stroke-opacity:1;stroke-miterlimit:10;" d="M 218.972656 56.816406 L 165.949219 126.4375 "/>
<path style=" stroke:none;fill-rule:nonzero;fill:rgb(80%,80%,80%);fill-opacity:1;" d="M 157.304688 137.789062 L 162.261719 123.628906 L 169.636719 129.246094 L 157.304688 137.789062 "/>
<path style="fill:none;stroke-width:1;stroke-linecap:butt;stroke-linejoin:miter;stroke:rgb(80%,80%,80%);stroke-opacity:1;stroke-miterlimit:10;" d="M 218.972656 56.816406 L 185.019531 131.40625 "/>
<path style=" stroke:none;fill-rule:nonzero;fill:rgb(80%,80%,80%);fill-opacity:1;" d="M 179.109375 144.390625 L 180.800781 129.488281 L 189.238281 133.328125 L 179.109375 144.390625 "/>
<path style="fill:none;stroke-width:1;stroke-linecap:butt;stroke-linejoin:miter;stroke:rgb(80%,80%,80%);stroke-opacity:1;stroke-miterlimit:10;" d="M 394.976562 47.949219 L 355.496094 32.816406 "/>
<path style=" stroke:none;fill-rule:nonzero;fill:rgb(80%,80%,80%);fill-opacity:1;" d="M 342.175781 27.710938 L 357.15625 28.488281 L 353.835938 37.144531 L 342.175781 27.710938 "/>
<path style="fill:none;stroke-width:1;stroke-linecap:butt;stroke-linejoin:miter;stroke:rgb(80%,80%,80%);stroke-opacity:1;stroke-miterlimit:10;" d="M 394.976562 47.949219 L 321.769531 83.898438 "/>
<path style=" stroke:none;fill-rule:nonzero;fill:rgb(80%,80%,80%);fill-opacity:1;" d="M 308.964844 90.1875 L 319.726562 79.738281 L 323.8125 88.058594 L 308.964844 90.1875 "/>
<path style="fill:none;stroke-width:1;stroke-linecap:butt;stroke-linejoin:miter;stroke:rgb(80%,80%,80%);stroke-opacity:1;stroke-miterlimit:10;" d="M 394.976562 47.949219 L 338.960938 131.113281 "/>
<path style=" stroke:none;fill-rule:nonzero;fill:rgb(80%,80%,80%);fill-opacity:1;" d="M 330.988281 142.945312 L 335.113281 128.523438 L 342.804688 133.703125 L 330.988281 142.945312 "/>
<path style="fill:none;stroke-width:1;stroke-linecap:butt;stroke-linejoin:miter;stroke:rgb(80%,80%,80%);stroke-opacity:1;stroke-miterlimit:10;" d="M 332.835938 24.132812 L 326.820312 127.011719 "/>
<path style=" stroke:none;fill-rule:nonzero;fill:rgb(80%,80%,80%);fill-opacity:1;" d="M 325.984375 141.253906 L 322.191406 126.742188 L 331.445312 127.285156 L 325.984375 141.253906 "/>
<path style="fill:none;stroke-width:1;stroke-linecap:butt;stroke-linejoin:miter;stroke:rgb(20%,20%,20%);stroke-opacity:1;stroke-miterlimit:10;" d="M 87.84375 20 L 119.777344 40.640625 "/>
<path style=" stroke:none;fill-rule:nonzero;fill:rgb(20%,20%,20%);fill-opacity:1;" d="M 131.757812 48.386719 L 117.261719 44.535156 L 122.292969 36.75 L 131.757812 48.386719 "/>
<path style="fill:none;stroke-width:1;stroke-linecap:butt;stroke-linejoin:miter;stroke:rgb(80%,80%,80%);stroke-opacity:1;stroke-miterlimit:10;" d="M 87.84375 20 L 161.703125 133.171875 "/>
<path style=" stroke:none;fill-rule:nonzero;fill:rgb(80%,80%,80%);fill-opacity:1;" d="M 169.5 145.117188 L 157.824219 135.707031 L 165.585938 130.636719 L 169.5 145.117188 "/>
<path style="fill:none;stroke-width:1;stroke-linecap:butt;stroke-linejoin:miter;stroke:rgb(20%,20%,20%);stroke-opacity:1;stroke-miterlimit:10;" d="M 299.988281 94.597656 L 196.917969 143.152344 "/>
<path style=" stroke:none;fill-rule:nonzero;fill:rgb(20%,20%,20%);fill-opacity:1;" d="M 184.011719 149.230469 L 194.941406 138.957031 L 198.894531 147.34375 L 184.011719 149.230469 "/>
<path style="fill:none;stroke-width:1;stroke-linecap:butt;stroke-linejoin:miter;stroke:rgb(20%,20%,20%);stroke-opacity:1;stroke-miterlimit:10;" d="M 271.367188 138.042969 L 301.828125 145.480469 "/>
<path style=" stroke:none;fill-rule:nonzero;fill:rgb(20%,20%,20%);fill-opacity:1;" d="M 315.6875 148.867188 L 300.730469 149.984375 L 302.929688 140.980469 L 315.6875 148.867188 "/>
<path style="fill:none;stroke-width:1;stroke-linecap:butt;stroke-linejoin:miter;stroke:rgb(20%,20%,20%);stroke-opacity:1;stroke-miterlimit:10;" d="M 271.367188 138.042969 L 198.925781 149.652344 "/>
<path style=" stroke:none;fill-rule:nonzero;fill:rgb(20%,20%,20%);fill-opacity:1;" d="M 184.839844 151.910156 L 198.191406 145.078125 L 199.660156 154.230469 L 184.839844 151.910156 "/>
<path style="fill:none;stroke-width:1;stroke-linecap:butt;stroke-linejoin:miter;stroke:rgb(80%,80%,80%);stroke-opacity:1;stroke-miterlimit:10;" d="M 140.15625 53.816406 L 148.339844 121.652344 "/>
<path style=" stroke:none;fill-rule:nonzero;fill:rgb(80%,80%,80%);fill-opacity:1;" d="M 150.050781 135.816406 L 143.738281 122.207031 L 152.941406 121.097656 L 150.050781 135.816406 "/>
<path style="fill:none;stroke-width:1;stroke-linecap:butt;stroke-linejoin:miter;stroke:rgb(80%,80%,80%);stroke-opacity:1;stroke-miterlimit:10;" d="M 140.15625 53.816406 L 166.964844 130.582031 "/>
<path style=" stroke:none;fill-rule:nonzero;fill:rgb(80%,80%,80%);fill-opacity:1;" d="M 171.667969 144.050781 L 162.589844 132.113281 L 171.34375 129.054688 L 171.667969 144.050781 "/>
<path style="fill:none;stroke-width:1;stroke-linecap:butt;stroke-linejoin:miter;stroke:rgb(20%,20%,20%);stroke-opacity:1;stroke-miterlimit:10;" d="M 241.648438 203.746094 L 171.671875 158.847656 "/>
<path style=" stroke:none;fill-rule:nonzero;fill:rgb(20%,20%,20%);fill-opacity:1;" d="M 159.664062 151.144531 L 174.175781 154.945312 L 169.167969 162.75 L 159.664062 151.144531 "/>
<path style="fill:none;stroke-width:1;stroke-linecap:butt;stroke-linejoin:miter;stroke:rgb(20%,20%,20%);stroke-opacity:1;stroke-miterlimit:10;" d="M 241.648438 203.746094 L 194.34375 168.097656 "/>
<path style=" stroke:none;fill-rule:nonzero;fill:rgb(20%,20%,20%);fill-opacity:1;" d="M 182.953125 159.511719 L 197.136719 164.394531 L 191.554688 171.800781 L 182.953125 159.511719 "/>
<path style="fill:none;stroke-width:1;stroke-linecap:butt;stroke-linejoin:miter;stroke:rgb(20%,20%,20%);stroke-opacity:1;stroke-miterlimit:10;" d="M 325.402344 151.238281 L 175.5 146.507812 "/>
<path style=" stroke:none;fill-rule:nonzero;fill:rgb(20%,20%,20%);fill-opacity:1;" d="M 161.242188 146.058594 L 175.648438 141.875 L 175.355469 151.140625 L 161.242188 146.058594 "/>
<path style="fill:none;stroke-width:1;stroke-linecap:butt;stroke-linejoin:miter;stroke:rgb(20%,20%,20%);stroke-opacity:1;stroke-miterlimit:10;" d="M 325.402344 151.238281 L 199.230469 153.128906 "/>
<path style=" stroke:none;fill-rule:nonzero;fill:rgb(20%,20%,20%);fill-opacity:1;" d="M 184.964844 153.34375 L 199.160156 148.496094 L 199.300781 157.765625 L 184.964844 153.34375 "/>
<path style="fill:none;stroke-width:1;stroke-linecap:butt;stroke-linejoin:miter;stroke:rgb(20%,20%,20%);stroke-opacity:1;stroke-miterlimit:10;" d="M 151.246094 145.742188 L 151.902344 145.957031 "/>
<path style=" stroke:none;fill-rule:nonzero;fill:rgb(20%,20%,20%);fill-opacity:1;" d="M 165.460938 150.386719 L 150.460938 150.363281 L 153.339844 141.550781 L 165.460938 150.386719 "/>
<path style="fill-rule:nonzero;fill:rgb(100%,0%,0%);fill-opacity:1;stroke-width:1;stroke-linecap:butt;stroke-linejoin:miter;stroke:rgb(0%,0%,0%);stroke-opacity:1;stroke-miterlimit:10;" d="M 417.425781 338.695312 C 417.425781 344.21875 412.949219 348.695312 407.425781 348.695312 C 401.90625 348.695312 397.425781 344.21875 397.425781 338.695312 C 397.425781 333.171875 401.90625 328.695312 407.425781 328.695312 C 412.949219 328.695312 417.425781 333.171875 417.425781 338.695312 "/>
<path style="fill-rule:nonzero;fill:rgb(100%,0%,0%);fill-opacity:1;stroke-width:1;stroke-linecap:butt;stroke-linejoin:miter;stroke:rgb(0%,0%,0%);stroke-opacity:1;stroke-miterlimit:10;" d="M 401.550781 270.878906 C 401.550781 276.402344 397.074219 280.878906 391.550781 280.878906 C 386.027344 280.878906 381.550781 276.402344 381.550781 270.878906 C 381.550781 265.355469 386.027344 260.878906 391.550781 260.878906 C 397.074219 260.878906 401.550781 265.355469 401.550781 270.878906 "/>
<path style="fill-rule:nonzero;fill:rgb(0%,0%,100%);fill-opacity:1;stroke-width:1;stroke-linecap:butt;stroke-linejoin:miter;stroke:rgb(0%,0%,0%);stroke-opacity:1;stroke-miterlimit:10;" d="M 325.332031 220.800781 C 325.332031 226.324219 320.851562 230.800781 315.332031 230.800781 C 309.808594 230.800781 305.332031 226.324219 305.332031 220.800781 C 305.332031 215.277344 309.808594 210.800781 315.332031 210.800781 C 320.851562 210.800781 325.332031 215.277344 325.332031 220.800781 "/>
<path style="fill-rule:nonzero;fill:rgb(0%,0%,100%);fill-opacity:1;stroke-width:1;stroke-linecap:butt;stroke-linejoin:miter;stroke:rgb(0%,0%,0%);stroke-opacity:1;stroke-miterlimit:10;" d="M 430.96875 299.519531 C 430.96875 305.039062 426.492188 309.519531 420.96875 309.519531 C 415.445312 309.519531 410.96875 305.039062 410.96875 299.519531 C 410.96875 293.996094 415.445312 289.519531 420.96875 289.519531 C 426.492188 289.519531 430.96875 293.996094 430.96875 299.519531 "/>
<path style="fill-rule:nonzero;fill:rgb(0%,0%,100%);fill-opacity:1;stroke-width:1;stroke-linecap:butt;stroke-linejoin:miter;stroke:rgb(0%,0%,0%);stroke-opacity:1;stroke-miterlimit:10;" d="M 450.3125 448.671875 C 450.3125 454.195312 445.832031 458.671875 440.3125 458.671875 C 434.789062 458.671875 430.3125 454.195312 430.3125 448.671875 C 430.3125 443.148438 434.789062 438.671875 440.3125 438.671875 C 445.832031 438.671875 450.3125 443.148438 450.3125 448.671875 "/>
<path style="fill-rule:nonzero;fill:rgb(100%,0%,0%);fill-opacity:1;stroke-width:1;stroke-linecap:butt;stroke-linejoin:miter;stroke:rgb(0%,0%,0%);stroke-opacity:1;stroke-miterlimit:10;" d="M 448.085938 497.917969 C 448.085938 503.4375 443.609375 507.917969 438.085938 507.917969 C 432.5625 507.917969 428.085938 503.4375 428.085938 497.917969 C 428.085938 492.394531 432.5625 487.917969 438.085938 487.917969 C 443.609375 487.917969 448.085938 492.394531 448.085938 497.917969 "/>
<path style="fill-rule:nonzero;fill:rgb(100%,0%,0%);fill-opacity:1;stroke-width:1;stroke-linecap:butt;stroke-linejoin:miter;stroke:rgb(0%,0%,0%);stroke-opacity:1;stroke-miterlimit:10;" d="M 500.773438 484.484375 C 500.773438 490.007812 496.296875 494.484375 490.773438 494.484375 C 485.25 494.484375 480.773438 490.007812 480.773438 484.484375 C 480.773438 478.960938 485.25 474.484375 490.773438 474.484375 C 496.296875 474.484375 500.773438 478.960938 500.773438 484.484375 "/>
<path style="fill-rule:nonzero;fill:rgb(100%,0%,0%);fill-opacity:1;stroke-width:1;stroke-linecap:butt;stroke-linejoin:miter;stroke:rgb(0%,0%,0%);stroke-opacity:1;stroke-miterlimit:10;" d="M 457.980469 252.75 C 457.980469 258.273438 453.503906 262.75 447.980469 262.75 C 442.460938 262.75 437.980469 258.273438 437.980469 252.75 C 437.980469 247.230469 442.460938 242.75 447.980469 242.75 C 453.503906 242.75 457.980469 247.230469 457.980469 252.75 "/>
<path style="fill-rule:nonzero;fill:rgb(100%,0%,0%);fill-opacity:1;stroke-width:1;stroke-linecap:butt;stroke-linejoin:miter;stroke:rgb(0%,0%,0%);stroke-opacity:1;stroke-miterlimit:10;" d="M 253.472656 243.285156 C 253.472656 248.804688 248.996094 253.285156 243.472656 253.285156 C 237.949219 253.285156 233.472656 248.804688 233.472656 243.285156 C 233.472656 237.761719 237.949219 233.285156 243.472656 233.285156 C 248.996094 233.285156 253.472656 237.761719 253.472656 243.285156 "/>
<path style="fill-rule:nonzero;fill:rgb(100%,0%,0%);fill-opacity:1;stroke-width:1;stroke-linecap:butt;stroke-linejoin:miter;stroke:rgb(0%,0%,0%);stroke-opacity:1;stroke-miterlimit:10;" d="M 169.519531 243.863281 C 169.519531 249.386719 165.039062 253.863281 159.519531 253.863281 C 153.996094 253.863281 149.519531 249.386719 149.519531 243.863281 C 149.519531 238.339844 153.996094 233.863281 159.519531 233.863281 C 165.039062 233.863281 169.519531 238.339844 169.519531 243.863281 "/>
<path style="fill-rule:nonzero;fill:rgb(100%,0%,0%);fill-opacity:1;stroke-width:1;stroke-linecap:butt;stroke-linejoin:miter;stroke:rgb(0%,0%,0%);stroke-opacity:1;stroke-miterlimit:10;" d="M 386.488281 463.226562 C 386.488281 468.75 382.007812 473.226562 376.488281 473.226562 C 370.964844 473.226562 366.488281 468.75 366.488281 463.226562 C 366.488281 457.703125 370.964844 453.226562 376.488281 453.226562 C 382.007812 453.226562 386.488281 457.703125 386.488281 463.226562 "/>
<path style="fill-rule:nonzero;fill:rgb(0%,0%,100%);fill-opacity:1;stroke-width:1;stroke-linecap:butt;stroke-linejoin:miter;stroke:rgb(0%,0%,0%);stroke-opacity:1;stroke-miterlimit:10;" d="M 590 401.488281 C 590 407.007812 585.523438 411.488281 580 411.488281 C 574.476562 411.488281 570 407.007812 570 401.488281 C 570 395.964844 574.476562 391.488281 580 391.488281 C 585.523438 391.488281 590 395.964844 590 401.488281 "/>
<path style="fill-rule:nonzero;fill:rgb(0%,0%,100%);fill-opacity:1;stroke-width:1;stroke-linecap:butt;stroke-linejoin:miter;stroke:rgb(0%,0%,0%);stroke-opacity:1;stroke-miterlimit:10;" d="M 511.269531 375.226562 C 511.269531 380.75 506.792969 385.226562 501.269531 385.226562 C 495.746094 385.226562 491.269531 380.75 491.269531 375.226562 C 491.269531 369.703125 495.746094 365.226562 501.269531 365.226562 C 506.792969 365.226562 511.269531 369.703125 511.269531 375.226562 "/>
<path style="fill-rule:nonzero;fill:rgb(0%,0%,100%);fill-opacity:1;stroke-width:1;stroke-linecap:butt;stroke-linejoin:miter;stroke:rgb(0%,0%,0%);stroke-opacity:1;stroke-miterlimit:10;" d="M 332.898438 261.347656 C 332.898438 266.871094 328.421875 271.347656 322.898438 271.347656 C 317.378906 271.347656 312.898438 266.871094 312.898438 261.347656 C 312.898438 255.828125 317.378906 251.347656 322.898438 251.347656 C 328.421875 251.347656 332.898438 255.828125 332.898438 261.347656 "/>
<path style="fill-rule:nonzero;fill:rgb(0%,100%,0%);fill-opacity:1;stroke-width:1;stroke-linecap:butt;stroke-linejoin:miter;stroke:rgb(0%,0%,0%);stroke-opacity:1;stroke-miterlimit:10;" d="M 62.058594 201.820312 C 62.058594 207.34375 57.582031 211.820312 52.058594 211.820312 C 46.535156 211.820312 42.058594 207.34375 42.058594 201.820312 C 42.058594 196.296875 46.535156 191.820312 52.058594 191.820312 C 57.582031 191.820312 62.058594 196.296875 62.058594 201.820312 "/>
<path style="fill-rule:nonzero;fill:rgb(0%,0%,100%);fill-opacity:1;stroke-width:1;stroke-linecap:butt;stroke-linejoin:miter;stroke:rgb(0%,0%,0%);stroke-opacity:1;stroke-miterlimit:10;" d="M 49.710938 134.910156 C 49.710938 140.433594 45.234375 144.910156 39.710938 144.910156 C 34.1875 144.910156 29.710938 140.433594 29.710938 134.910156 C 29.710938 129.386719 34.1875 124.910156 39.710938 124.910156 C 45.234375 124.910156 49.710938 129.386719 49.710938 134.910156 "/>
<path style="fill-rule:nonzero;fill:rgb(100%,0%,0%);fill-opacity:1;stroke-width:1;stroke-linecap:butt;stroke-linejoin:miter;stroke:rgb(0%,0%,0%);stroke-opacity:1;stroke-miterlimit:10;" d="M 514.96875 580 C 514.96875 585.523438 510.492188 590 504.96875 590 C 499.445312 590 494.96875 585.523438 494.96875 580 C 494.96875 574.476562 499.445312 570 504.96875 570 C 510.492188 570 514.96875 574.476562 514.96875 580 "/>
<path style="fill-rule:nonzero;fill:rgb(100%,0%,0%);fill-opacity:1;stroke-width:1;stroke-linecap:butt;stroke-linejoin:miter;stroke:rgb(0%,0%,0%);stroke-opacity:1;stroke-miterlimit:10;" d="M 528.390625 323.300781 C 528.390625 328.824219 523.914062 333.300781 518.390625 333.300781 C 512.867188 333.300781 508.390625 328.824219 508.390625 323.300781 C 508.390625 317.777344 512.867188 313.300781 518.390625 313.300781 C 523.914062 313.300781 528.390625 317.777344 528.390625 323.300781 "/>
<path style="fill-rule:nonzero;fill:rgb(100%,100%,0%);fill-opacity:1;stroke-width:1;stroke-linecap:butt;stroke-linejoin:miter;stroke:rgb(0%,0%,0%);stroke-opacity:1;stroke-miterlimit:10;" d="M 40.554688 98.992188 C 40.554688 104.515625 36.078125 108.992188 30.554688 108.992188 C 25.03125 108.992188 20.554688 104.515625 20.554688 98.992188 C 20.554688 93.46875 25.03125 88.992188 30.554688 88.992188 C 36.078125 88.992188 40.554688 93.46875 40.554688 98.992188 "/>
<path style="fill-rule:nonzero;fill:rgb(0%,0%,100%);fill-opacity:1;stroke-width:1;stroke-linecap:butt;stroke-linejoin:miter;stroke:rgb(0%,0%,0%);stroke-opacity:1;stroke-miterlimit:10;" d="M 284.050781 287.894531 C 284.050781 293.417969 279.570312 297.894531 274.050781 297.894531 C 268.527344 297.894531 264.050781 293.417969 264.050781 287.894531 C 264.050781 282.371094 268.527344 277.894531 274.050781 277.894531 C 279.570312 277.894531 284.050781 282.371094 284.050781 287.894531 "/>
<path style="fill-rule:nonzero;fill:rgb(100%,0%,100%);fill-opacity:1;stroke-width:1;stroke-linecap:butt;stroke-linejoin:miter;stroke:rgb(0%,0%,0%);stroke-opacity:1;stroke-miterlimit:10;" d="M 87.097656 79.425781 C 87.097656 84.949219 82.621094 89.425781 77.097656 89.425781 C 71.574219 89.425781 67.097656 84.949219 67.097656 79.425781 C 67.097656 73.902344 71.574219 69.425781 77.097656 69.425781 C 82.621094 69.425781 87.097656 73.902344 87.097656 79.425781 "/>
<path style="fill-rule:nonzero;fill:rgb(100%,0%,0%);fill-opacity:1;stroke-width:1;stroke-linecap:butt;stroke-linejoin:miter;stroke:rgb(0%,0%,0%);stroke-opacity:1;stroke-miterlimit:10;" d="M 539.679688 281.8125 C 539.679688 287.335938 535.199219 291.8125 529.679688 291.8125 C 524.15625 291.8125 519.679688 287.335938 519.679688 281.8125 C 519.679688 276.289062 524.15625 271.8125 529.679688 271.8125 C 535.199219 271.8125 539.679688 276.289062 539.679688 281.8125 "/>
<path style="fill-rule:nonzero;fill:rgb(0%,100%,100%);fill-opacity:1;stroke-width:1;stroke-linecap:butt;stroke-linejoin:miter;stroke:rgb(0%,0%,0%);stroke-opacity:1;stroke-miterlimit:10;" d="M 30 168.277344 C 30 173.800781 25.523438 178.277344 20 178.277344 C 14.476562 178.277344 10 173.800781 10 168.277344 C 10 162.753906 14.476562 158.277344 20 158.277344 C 25.523438 158.277344 30 162.753906 30 168.277344 "/>
<path style="fill-rule:nonzero;fill:rgb(50.196078%,50.196078%,50.196078%);fill-opacity:1;stroke-width:1;stroke-linecap:butt;stroke-linejoin:miter;stroke:rgb(0%,0%,0%);stroke-opacity:1;stroke-miterlimit:10;" d="M 228.972656 56.816406 C 228.972656 62.339844 224.496094 66.816406 218.972656 66.816406 C 213.449219 66.816406 208.972656 62.339844 208.972656 56.816406 C 208.972656 51.292969 213.449219 46.816406 218.972656 46.816406 C 224.496094 46.816406 228.972656 51.292969 228.972656 56.816406 "/>
<path style="fill-rule:nonzero;fill:rgb(50%,0%,0%);fill-opacity:1;stroke-width:1;stroke-linecap:butt;stroke-linejoin:miter;stroke:rgb(0%,0%,0%);stroke-opacity:1;stroke-miterlimit:10;" d="M 404.976562 47.949219 C 404.976562 53.472656 400.5 57.949219 394.976562 57.949219 C 389.453125 57.949219 384.976562 53.472656 384.976562 47.949219 C 384.976562 42.425781 389.453125 37.949219 394.976562 37.949219 C 400.5 37.949219 404.976562 42.425781 404.976562 47.949219 "/>
<path style="fill-rule:nonzero;fill:rgb(50.196078%,50.196078%,50.196078%);fill-opacity:1;stroke-width:1;stroke-linecap:butt;stroke-linejoin:miter;stroke:rgb(0%,0%,0%);stroke-opacity:1;stroke-miterlimit:10;" d="M 342.835938 24.132812 C 342.835938 29.65625 338.359375 34.132812 332.835938 34.132812 C 327.316406 34.132812 322.835938 29.65625 322.835938 24.132812 C 322.835938 18.609375 327.316406 14.132812 332.835938 14.132812 C 338.359375 14.132812 342.835938 18.609375 342.835938 24.132812 "/>
<path style="fill-rule:nonzero;fill:rgb(0%,50%,0%);fill-opacity:1;stroke-width:1;stroke-linecap:butt;stroke-linejoin:miter;stroke:rgb(0%,0%,0%);stroke-opacity:1;stroke-miterlimit:10;" d="M 97.84375 20 C 97.84375 25.523438 93.367188 30 87.84375 30 C 82.320312 30 77.84375 25.523438 77.84375 20 C 77.84375 14.476562 82.320312 10 87.84375 10 C 93.367188 10 97.84375 14.476562 97.84375 20 "/>
<path style="fill-rule:nonzero;fill:rgb(100%,0%,0%);fill-opacity:1;stroke-width:1;stroke-linecap:butt;stroke-linejoin:miter;stroke:rgb(0%,0%,0%);stroke-opacity:1;stroke-miterlimit:10;" d="M 309.988281 94.597656 C 309.988281 100.121094 305.511719 104.597656 299.988281 104.597656 C 294.464844 104.597656 289.988281 100.121094 289.988281 94.597656 C 289.988281 89.074219 294.464844 84.597656 299.988281 84.597656 C 305.511719 84.597656 309.988281 89.074219 309.988281 94.597656 "/>
<path style="fill-rule:nonzero;fill:rgb(100%,0%,0%);fill-opacity:1;stroke-width:1;stroke-linecap:butt;stroke-linejoin:miter;stroke:rgb(0%,0%,0%);stroke-opacity:1;stroke-miterlimit:10;" d="M 281.367188 138.042969 C 281.367188 143.566406 276.890625 148.042969 271.367188 148.042969 C 265.84375 148.042969 261.367188 143.566406 261.367188 138.042969 C 261.367188 132.523438 265.84375 128.042969 271.367188 128.042969 C 276.890625 128.042969 281.367188 132.523438 281.367188 138.042969 "/>
<path style="fill-rule:nonzero;fill:rgb(0%,50%,0%);fill-opacity:1;stroke-width:1;stroke-linecap:butt;stroke-linejoin:miter;stroke:rgb(0%,0%,0%);stroke-opacity:1;stroke-miterlimit:10;" d="M 150.15625 53.816406 C 150.15625 59.335938 145.679688 63.816406 140.15625 63.816406 C 134.636719 63.816406 130.15625 59.335938 130.15625 53.816406 C 130.15625 48.292969 134.636719 43.816406 140.15625 43.816406 C 145.679688 43.816406 150.15625 48.292969 150.15625 53.816406 "/>
<path style="fill-rule:nonzero;fill:rgb(100%,0%,0%);fill-opacity:1;stroke-width:1;stroke-linecap:butt;stroke-linejoin:miter;stroke:rgb(0%,0%,0%);stroke-opacity:1;stroke-miterlimit:10;" d="M 251.648438 203.746094 C 251.648438 209.269531 247.171875 213.746094 241.648438 213.746094 C 236.125 213.746094 231.648438 209.269531 231.648438 203.746094 C 231.648438 198.222656 236.125 193.746094 241.648438 193.746094 C 247.171875 193.746094 251.648438 198.222656 251.648438 203.746094 "/>
<path style="fill-rule:nonzero;fill:rgb(100%,0%,0%);fill-opacity:1;stroke-width:1;stroke-linecap:butt;stroke-linejoin:miter;stroke:rgb(0%,0%,0%);stroke-opacity:1;stroke-miterlimit:10;" d="M 335.402344 151.238281 C 335.402344 156.761719 330.925781 161.238281 325.402344 161.238281 C 319.878906 161.238281 315.402344 156.761719 315.402344 151.238281 C 315.402344 145.714844 319.878906 141.238281 325.402344 141.238281 C 330.925781 141.238281 335.402344 145.714844 335.402344 151.238281 "/>
<path style="fill-rule:nonzero;fill:rgb(100%,0%,0%);fill-opacity:1;stroke-width:1;stroke-linecap:butt;stroke-linejoin:miter;stroke:rgb(0%,0%,0%);stroke-opacity:1;stroke-miterlimit:10;" d="M 161.246094 145.742188 C 161.246094 151.265625 156.769531 155.742188 151.246094 155.742188 C 145.726562 155.742188 141.246094 151.265625 141.246094 145.742188 C 141.246094 140.222656 145.726562 135.742188 151.246094 135.742188 C 156.769531 135.742188 161.246094 140.222656 161.246094 145.742188 "/>
<path style="fill-rule:nonzero;fill:rgb(100%,0%,0%);fill-opacity:1;stroke-width:1;stroke-linecap:butt;stroke-linejoin:miter;stroke:rgb(0%,0%,0%);stroke-opacity:1;stroke-miterlimit:10;" d="M 184.964844 153.492188 C 184.964844 159.015625 180.488281 163.492188 174.964844 163.492188 C 169.445312 163.492188 164.964844 159.015625 164.964844 153.492188 C 164.964844 147.96875 169.445312 143.492188 174.964844 143.492188 C 180.488281 143.492188 184.964844 147.96875 184.964844 153.492188 "/>
</g>
</svg>
