<?xml version="1.0" encoding="UTF-8"?>
<svg xmlns="http://www.w3.org/2000/svg" xmlns:xlink="http://www.w3.org/1999/xlink" width="600pt" height="600pt" viewBox="0 0 600 600" version="1.1">
<g id="surface2">
<rect x="0" y="0" width="600" height="600" style="fill:rgb(100%,100%,100%);fill-opacity:1;stroke:none;"/>
<path style="fill:none;stroke-width:1;stroke-linecap:butt;stroke-linejoin:miter;stroke:rgb(26.666667%,26.666667%,26.666667%);stroke-opacity:1;stroke-miterlimit:10;" d="M 413.800781 345.929688 L 434.140625 286.75 "/>
<path style=" stroke:none;fill-rule:nonzero;fill:rgb(26.666667%,26.666667%,26.666667%);fill-opacity:1;" d="M 438.777344 273.257812 L 438.523438 288.257812 L 429.753906 285.242188 L 438.777344 273.257812 "/>
<path style="fill:none;stroke-width:1;stroke-linecap:butt;stroke-linejoin:miter;stroke:rgb(26.666667%,26.666667%,26.666667%);stroke-opacity:1;stroke-miterlimit:10;" d="M 413.800781 345.929688 L 342.96875 250.144531 "/>
<path style=" stroke:none;fill-rule:nonzero;fill:rgb(26.666667%,26.666667%,26.666667%);fill-opacity:1;" d="M 334.484375 238.675781 L 346.695312 247.390625 L 339.242188 252.902344 L 334.484375 238.675781 "/>
<path style="fill:none;stroke-width:1;stroke-linecap:butt;stroke-linejoin:miter;stroke:rgb(26.666667%,26.666667%,26.666667%);stroke-opacity:1;stroke-miterlimit:10;" d="M 413.800781 345.929688 L 378.699219 346.542969 "/>
<path style=" stroke:none;fill-rule:nonzero;fill:rgb(26.666667%,26.666667%,26.666667%);fill-opacity:1;" d="M 364.4375 346.792969 L 378.621094 341.90625 L 378.78125 351.175781 L 364.4375 346.792969 "/>
<path style="fill:none;stroke-width:1;stroke-linecap:butt;stroke-linejoin:miter;stroke:rgb(26.666667%,26.666667%,26.666667%);stroke-opacity:1;stroke-miterlimit:10;" d="M 413.800781 345.929688 L 483.738281 406.710938 "/>
<path style=" stroke:none;fill-rule:nonzero;fill:rgb(26.666667%,26.666667%,26.666667%);fill-opacity:1;" d="M 494.507812 416.066406 L 480.699219 410.207031 L 486.78125 403.210938 L 494.507812 416.066406 "/>
<path style="fill:none;stroke-width:1;stroke-linecap:butt;stroke-linejoin:miter;stroke:rgb(26.666667%,26.666667%,26.666667%);stroke-opacity:1;stroke-miterlimit:10;" d="M 413.800781 345.929688 L 488.539062 441.992188 "/>
<path style=" stroke:none;fill-rule:nonzero;fill:rgb(26.666667%,26.666667%,26.666667%);fill-opacity:1;" d="M 497.300781 453.25 L 484.882812 444.835938 L 492.199219 439.144531 L 497.300781 453.25 "/>
<path style="fill:none;stroke-width:1;stroke-linecap:butt;stroke-linejoin:miter;stroke:rgb(26.666667%,26.666667%,26.666667%);stroke-opacity:1;stroke-miterlimit:10;" d="M 413.800781 345.929688 L 421.59375 460.375 "/>
<path style=" stroke:none;fill-rule:nonzero;fill:rgb(26.666667%,26.666667%,26.666667%);fill-opacity:1;" d="M 422.5625 474.609375 L 416.96875 460.691406 L 426.21875 460.0625 L 422.5625 474.609375 "/>
<path style="fill:none;stroke-width:1;stroke-linecap:butt;stroke-linejoin:miter;stroke:rgb(26.666667%,26.666667%,26.666667%);stroke-opacity:1;stroke-miterlimit:10;" d="M 413.800781 345.929688 L 476.308594 268.6875 "/>
<path style=" stroke:none;fill-rule:nonzero;fill:rgb(26.666667%,26.666667%,26.666667%);fill-opacity:1;" d="M 485.28125 257.597656 L 479.910156 271.605469 L 472.703125 265.773438 L 485.28125 257.597656 "/>
<path style="fill:none;stroke-width:1;stroke-linecap:butt;stroke-linejoin:miter;stroke:rgb(26.666667%,26.666667%,26.666667%);stroke-opacity:1;stroke-miterlimit:10;" d="M 413.800781 345.929688 L 384.667969 219.53125 "/>
<path style=" stroke:none;fill-rule:nonzero;fill:rgb(26.666667%,26.666667%,26.666667%);fill-opacity:1;" d="M 381.464844 205.632812 L 389.183594 218.492188 L 380.152344 220.574219 L 381.464844 205.632812 "/>
<path style="fill:none;stroke-width:1;stroke-linecap:butt;stroke-linejoin:miter;stroke:rgb(26.666667%,26.666667%,26.666667%);stroke-opacity:1;stroke-miterlimit:10;" d="M 413.800781 345.929688 L 549.234375 381.855469 "/>
<path style=" stroke:none;fill-rule:nonzero;fill:rgb(26.666667%,26.666667%,26.666667%);fill-opacity:1;" d="M 563.023438 385.511719 L 548.046875 386.335938 L 550.421875 377.375 L 563.023438 385.511719 "/>
<path style="fill:none;stroke-width:1;stroke-linecap:butt;stroke-linejoin:miter;stroke:rgb(26.666667%,26.666667%,26.666667%);stroke-opacity:1;stroke-miterlimit:10;" d="M 413.800781 345.929688 L 311.492188 453.046875 "/>
<path style=" stroke:none;fill-rule:nonzero;fill:rgb(26.666667%,26.666667%,26.666667%);fill-opacity:1;" d="M 301.640625 463.363281 L 308.140625 449.847656 L 314.84375 456.25 L 301.640625 463.363281 "/>
<path style="fill:none;stroke-width:1;stroke-linecap:butt;stroke-linejoin:miter;stroke:rgb(26.666667%,26.666667%,26.666667%);stroke-opacity:1;stroke-miterlimit:10;" d="M 413.800781 345.929688 L 361.164062 436.109375 "/>
<path style=" stroke:none;fill-rule:nonzero;fill:rgb(26.666667%,26.666667%,26.666667%);fill-opacity:1;" d="M 353.972656 448.429688 L 357.160156 433.773438 L 365.167969 438.445312 L 353.972656 448.429688 "/>
<path style="fill:none;stroke-width:1;stroke-linecap:butt;stroke-linejoin:miter;stroke:rgb(26.666667%,26.666667%,26.666667%);stroke-opacity:1;stroke-miterlimit:10;" d="M 413.800781 345.929688 L 347.421875 285.710938 "/>
<path style=" stroke:none;fill-rule:nonzero;fill:rgb(26.666667%,26.666667%,26.666667%);fill-opacity:1;" d="M 336.855469 276.128906 L 350.535156 282.28125 L 344.304688 289.144531 L 336.855469 276.128906 "/>
<path style="fill:none;stroke-width:1;stroke-linecap:butt;stroke-linejoin:miter;stroke:rgb(26.666667%,26.666667%,26.666667%);stroke-opacity:1;stroke-miterlimit:10;" d="M 413.800781 345.929688 L 557.882812 280.886719 "/>
<path style=" stroke:none;fill-rule:nonzero;fill:rgb(26.666667%,26.666667%,26.666667%);fill-opacity:1;" d="M 570.886719 275.015625 L 559.789062 285.109375 L 555.976562 276.660156 L 570.886719 275.015625 "/>
<path style="fill:none;stroke-width:1;stroke-linecap:butt;stroke-linejoin:miter;stroke:rgb(26.666667%,26.666667%,26.666667%);stroke-opacity:1;stroke-miterlimit:10;" d="M 413.800781 345.929688 L 312.980469 292.648438 "/>
<path style=" stroke:none;fill-rule:nonzero;fill:rgb(26.666667%,26.666667%,26.666667%);fill-opacity:1;" d="M 300.367188 285.980469 L 315.144531 288.550781 L 310.816406 296.746094 L 300.367188 285.980469 "/>
<path style="fill:none;stroke-width:1;stroke-linecap:butt;stroke-linejoin:miter;stroke:rgb(26.666667%,26.666667%,26.666667%);stroke-opacity:1;stroke-miterlimit:10;" d="M 413.800781 345.929688 L 546.949219 323.175781 "/>
<path style=" stroke:none;fill-rule:nonzero;fill:rgb(26.666667%,26.666667%,26.666667%);fill-opacity:1;" d="M 561.011719 320.773438 L 547.730469 327.746094 L 546.167969 318.605469 L 561.011719 320.773438 "/>
<path style="fill:none;stroke-width:1;stroke-linecap:butt;stroke-linejoin:miter;stroke:rgb(26.666667%,26.666667%,26.666667%);stroke-opacity:1;stroke-miterlimit:10;" d="M 413.800781 345.929688 L 245.941406 304.414062 "/>
<path style=" stroke:none;fill-rule:nonzero;fill:rgb(26.666667%,26.666667%,26.666667%);fill-opacity:1;" d="M 232.089844 300.988281 L 247.050781 299.914062 L 244.828125 308.914062 L 232.089844 300.988281 "/>
<path style="fill:none;stroke-width:1;stroke-linecap:butt;stroke-linejoin:miter;stroke:rgb(26.666667%,26.666667%,26.666667%);stroke-opacity:1;stroke-miterlimit:10;" d="M 442.027344 263.800781 L 351.832031 237.441406 "/>
<path style=" stroke:none;fill-rule:nonzero;fill:rgb(26.666667%,26.666667%,26.666667%);fill-opacity:1;" d="M 338.136719 233.441406 L 353.132812 232.992188 L 350.53125 241.890625 L 338.136719 233.441406 "/>
<path style="fill:none;stroke-width:1;stroke-linecap:butt;stroke-linejoin:miter;stroke:rgb(26.666667%,26.666667%,26.666667%);stroke-opacity:1;stroke-miterlimit:10;" d="M 442.027344 263.800781 L 372.035156 330.257812 "/>
<path style=" stroke:none;fill-rule:nonzero;fill:rgb(26.666667%,26.666667%,26.666667%);fill-opacity:1;" d="M 361.691406 340.078125 L 368.84375 326.894531 L 375.226562 333.617188 L 361.691406 340.078125 "/>
<path style="fill:none;stroke-width:1;stroke-linecap:butt;stroke-linejoin:miter;stroke:rgb(26.666667%,26.666667%,26.666667%);stroke-opacity:1;stroke-miterlimit:10;" d="M 442.027344 263.800781 L 468.21875 256.414062 "/>
<path style=" stroke:none;fill-rule:nonzero;fill:rgb(26.666667%,26.666667%,26.666667%);fill-opacity:1;" d="M 481.945312 252.539062 L 469.476562 260.875 L 466.957031 251.953125 L 481.945312 252.539062 "/>
<path style="fill:none;stroke-width:1;stroke-linecap:butt;stroke-linejoin:miter;stroke:rgb(26.666667%,26.666667%,26.666667%);stroke-opacity:1;stroke-miterlimit:10;" d="M 442.027344 263.800781 L 353.683594 268.203125 "/>
<path style=" stroke:none;fill-rule:nonzero;fill:rgb(26.666667%,26.666667%,26.666667%);fill-opacity:1;" d="M 339.4375 268.910156 L 353.453125 263.570312 L 353.914062 272.832031 L 339.4375 268.910156 "/>
<path style="fill:none;stroke-width:1;stroke-linecap:butt;stroke-linejoin:miter;stroke:rgb(26.666667%,26.666667%,26.666667%);stroke-opacity:1;stroke-miterlimit:10;" d="M 442.027344 263.800781 L 555.765625 269.652344 "/>
<path style=" stroke:none;fill-rule:nonzero;fill:rgb(26.666667%,26.666667%,26.666667%);fill-opacity:1;" d="M 570.011719 270.386719 L 555.527344 274.28125 L 556.003906 265.023438 L 570.011719 270.386719 "/>
<path style="fill:none;stroke-width:1;stroke-linecap:butt;stroke-linejoin:miter;stroke:rgb(26.666667%,26.666667%,26.666667%);stroke-opacity:1;stroke-miterlimit:10;" d="M 442.027344 263.800781 L 315.628906 278.503906 "/>
<path style=" stroke:none;fill-rule:nonzero;fill:rgb(26.666667%,26.666667%,26.666667%);fill-opacity:1;" d="M 301.460938 280.152344 L 315.09375 273.902344 L 316.164062 283.109375 L 301.460938 280.152344 "/>
<path style="fill:none;stroke-width:1;stroke-linecap:butt;stroke-linejoin:miter;stroke:rgb(26.666667%,26.666667%,26.666667%);stroke-opacity:1;stroke-miterlimit:10;" d="M 442.027344 263.800781 L 548.570312 309.519531 "/>
<path style=" stroke:none;fill-rule:nonzero;fill:rgb(26.666667%,26.666667%,26.666667%);fill-opacity:1;" d="M 561.679688 315.144531 L 546.742188 313.777344 L 550.398438 305.257812 L 561.679688 315.144531 "/>
<path style="fill:none;stroke-width:1;stroke-linecap:butt;stroke-linejoin:miter;stroke:rgb(26.666667%,26.666667%,26.666667%);stroke-opacity:1;stroke-miterlimit:10;" d="M 442.027344 263.800781 L 405.324219 150.765625 "/>
<path style=" stroke:none;fill-rule:nonzero;fill:rgb(26.666667%,26.666667%,26.666667%);fill-opacity:1;" d="M 400.917969 137.199219 L 409.730469 149.335938 L 400.914062 152.199219 L 400.917969 137.199219 "/>
<path style="fill:none;stroke-width:1;stroke-linecap:butt;stroke-linejoin:miter;stroke:rgb(26.666667%,26.666667%,26.666667%);stroke-opacity:1;stroke-miterlimit:10;" d="M 328.539062 230.632812 L 349.164062 323.28125 "/>
<path style=" stroke:none;fill-rule:nonzero;fill:rgb(26.666667%,26.666667%,26.666667%);fill-opacity:1;" d="M 352.265625 337.203125 L 344.640625 324.285156 L 353.6875 322.273438 L 352.265625 337.203125 "/>
<path style="fill:none;stroke-width:1;stroke-linecap:butt;stroke-linejoin:miter;stroke:rgb(26.666667%,26.666667%,26.666667%);stroke-opacity:1;stroke-miterlimit:10;" d="M 328.539062 230.632812 L 467.472656 246.988281 "/>
<path style=" stroke:none;fill-rule:nonzero;fill:rgb(26.666667%,26.666667%,26.666667%);fill-opacity:1;" d="M 481.640625 248.65625 L 466.929688 251.59375 L 468.015625 242.386719 L 481.640625 248.65625 "/>
<path style="fill:none;stroke-width:1;stroke-linecap:butt;stroke-linejoin:miter;stroke:rgb(26.666667%,26.666667%,26.666667%);stroke-opacity:1;stroke-miterlimit:10;" d="M 328.539062 230.632812 L 359.203125 209.609375 "/>
<path style=" stroke:none;fill-rule:nonzero;fill:rgb(26.666667%,26.666667%,26.666667%);fill-opacity:1;" d="M 370.96875 201.542969 L 361.824219 213.433594 L 356.582031 205.785156 L 370.96875 201.542969 "/>
<path style="fill:none;stroke-width:1;stroke-linecap:butt;stroke-linejoin:miter;stroke:rgb(26.666667%,26.666667%,26.666667%);stroke-opacity:1;stroke-miterlimit:10;" d="M 328.539062 230.632812 L 353.296875 128.128906 "/>
<path style=" stroke:none;fill-rule:nonzero;fill:rgb(26.666667%,26.666667%,26.666667%);fill-opacity:1;" d="M 356.648438 114.261719 L 357.804688 129.21875 L 348.792969 127.042969 L 356.648438 114.261719 "/>
<path style="fill:none;stroke-width:1;stroke-linecap:butt;stroke-linejoin:miter;stroke:rgb(26.666667%,26.666667%,26.666667%);stroke-opacity:1;stroke-miterlimit:10;" d="M 328.539062 230.632812 L 328.878906 245.148438 "/>
<path style=" stroke:none;fill-rule:nonzero;fill:rgb(26.666667%,26.666667%,26.666667%);fill-opacity:1;" d="M 329.214844 259.410156 L 324.246094 245.257812 L 333.511719 245.039062 L 329.214844 259.410156 "/>
<path style="fill:none;stroke-width:1;stroke-linecap:butt;stroke-linejoin:miter;stroke:rgb(26.666667%,26.666667%,26.666667%);stroke-opacity:1;stroke-miterlimit:10;" d="M 328.539062 230.632812 L 172.523438 262.996094 "/>
<path style=" stroke:none;fill-rule:nonzero;fill:rgb(26.666667%,26.666667%,26.666667%);fill-opacity:1;" d="M 158.554688 265.890625 L 171.582031 258.457031 L 173.464844 267.535156 L 158.554688 265.890625 "/>
<path style="fill:none;stroke-width:1;stroke-linecap:butt;stroke-linejoin:miter;stroke:rgb(26.666667%,26.666667%,26.666667%);stroke-opacity:1;stroke-miterlimit:10;" d="M 328.539062 230.632812 L 201.132812 227.941406 "/>
<path style=" stroke:none;fill-rule:nonzero;fill:rgb(26.666667%,26.666667%,26.666667%);fill-opacity:1;" d="M 186.871094 227.636719 L 201.230469 223.304688 L 201.035156 232.574219 L 186.871094 227.636719 "/>
<path style="fill:none;stroke-width:1;stroke-linecap:butt;stroke-linejoin:miter;stroke:rgb(26.666667%,26.666667%,26.666667%);stroke-opacity:1;stroke-miterlimit:10;" d="M 328.539062 230.632812 L 260.0625 149.304688 "/>
<path style=" stroke:none;fill-rule:nonzero;fill:rgb(26.666667%,26.666667%,26.666667%);fill-opacity:1;" d="M 250.871094 138.394531 L 263.605469 146.320312 L 256.515625 152.292969 L 250.871094 138.394531 "/>
<path style="fill:none;stroke-width:1;stroke-linecap:butt;stroke-linejoin:miter;stroke:rgb(26.666667%,26.666667%,26.666667%);stroke-opacity:1;stroke-miterlimit:10;" d="M 354.4375 346.964844 L 471.769531 263.851562 "/>
<path style=" stroke:none;fill-rule:nonzero;fill:rgb(26.666667%,26.666667%,26.666667%);fill-opacity:1;" d="M 483.410156 255.605469 L 474.449219 267.632812 L 469.089844 260.070312 L 483.410156 255.605469 "/>
<path style="fill:none;stroke-width:1;stroke-linecap:butt;stroke-linejoin:miter;stroke:rgb(26.666667%,26.666667%,26.666667%);stroke-opacity:1;stroke-miterlimit:10;" d="M 354.4375 346.964844 L 350.144531 432.832031 "/>
<path style=" stroke:none;fill-rule:nonzero;fill:rgb(26.666667%,26.666667%,26.666667%);fill-opacity:1;" d="M 349.429688 447.078125 L 345.511719 432.601562 L 354.773438 433.0625 L 349.429688 447.078125 "/>
<path style="fill:none;stroke-width:1;stroke-linecap:butt;stroke-linejoin:miter;stroke:rgb(26.666667%,26.666667%,26.666667%);stroke-opacity:1;stroke-miterlimit:10;" d="M 354.4375 346.964844 L 336.890625 292.503906 "/>
<path style=" stroke:none;fill-rule:nonzero;fill:rgb(26.666667%,26.666667%,26.666667%);fill-opacity:1;" d="M 332.515625 278.925781 L 341.300781 291.082031 L 332.476562 293.925781 L 332.515625 278.925781 "/>
<path style="fill:none;stroke-width:1;stroke-linecap:butt;stroke-linejoin:miter;stroke:rgb(26.666667%,26.666667%,26.666667%);stroke-opacity:1;stroke-miterlimit:10;" d="M 502.054688 422.628906 L 442.316406 469.589844 "/>
<path style=" stroke:none;fill-rule:nonzero;fill:rgb(26.666667%,26.666667%,26.666667%);fill-opacity:1;" d="M 431.101562 478.40625 L 439.453125 465.945312 L 445.183594 473.234375 L 431.101562 478.40625 "/>
<path style="fill:none;stroke-width:1;stroke-linecap:butt;stroke-linejoin:miter;stroke:rgb(26.666667%,26.666667%,26.666667%);stroke-opacity:1;stroke-miterlimit:10;" d="M 502.054688 422.628906 L 550.890625 398.738281 "/>
<path style=" stroke:none;fill-rule:nonzero;fill:rgb(26.666667%,26.666667%,26.666667%);fill-opacity:1;" d="M 563.707031 392.472656 L 552.925781 402.902344 L 548.855469 394.574219 L 563.707031 392.472656 "/>
<path style="fill:none;stroke-width:1;stroke-linecap:butt;stroke-linejoin:miter;stroke:rgb(26.666667%,26.666667%,26.666667%);stroke-opacity:1;stroke-miterlimit:10;" d="M 503.441406 461.144531 L 446.53125 477.777344 "/>
<path style=" stroke:none;fill-rule:nonzero;fill:rgb(26.666667%,26.666667%,26.666667%);fill-opacity:1;" d="M 432.839844 481.78125 L 445.230469 473.328125 L 447.832031 482.226562 L 432.839844 481.78125 "/>
<path style="fill:none;stroke-width:1;stroke-linecap:butt;stroke-linejoin:miter;stroke:rgb(26.666667%,26.666667%,26.666667%);stroke-opacity:1;stroke-miterlimit:10;" d="M 503.441406 461.144531 L 555.996094 405.6875 "/>
<path style=" stroke:none;fill-rule:nonzero;fill:rgb(26.666667%,26.666667%,26.666667%);fill-opacity:1;" d="M 565.808594 395.335938 L 559.359375 408.878906 L 552.632812 402.5 L 565.808594 395.335938 "/>
<path style="fill:none;stroke-width:1;stroke-linecap:butt;stroke-linejoin:miter;stroke:rgb(26.666667%,26.666667%,26.666667%);stroke-opacity:1;stroke-miterlimit:10;" d="M 503.441406 461.144531 L 518.449219 556.03125 "/>
<path style=" stroke:none;fill-rule:nonzero;fill:rgb(26.666667%,26.666667%,26.666667%);fill-opacity:1;" d="M 520.679688 570.121094 L 513.871094 556.757812 L 523.027344 555.308594 L 520.679688 570.121094 "/>
<path style="fill:none;stroke-width:1;stroke-linecap:butt;stroke-linejoin:miter;stroke:rgb(26.666667%,26.666667%,26.666667%);stroke-opacity:1;stroke-miterlimit:10;" d="M 423.242188 484.585938 L 504.769531 563.160156 "/>
<path style=" stroke:none;fill-rule:nonzero;fill:rgb(26.666667%,26.666667%,26.666667%);fill-opacity:1;" d="M 515.042969 573.058594 L 501.554688 566.5 L 507.984375 559.824219 L 515.042969 573.058594 "/>
<path style="fill:none;stroke-width:1;stroke-linecap:butt;stroke-linejoin:miter;stroke:rgb(26.666667%,26.666667%,26.666667%);stroke-opacity:1;stroke-miterlimit:10;" d="M 379.21875 195.886719 L 391.441406 151.097656 "/>
<path style=" stroke:none;fill-rule:nonzero;fill:rgb(26.666667%,26.666667%,26.666667%);fill-opacity:1;" d="M 395.195312 137.332031 L 395.914062 152.316406 L 386.96875 149.875 L 395.195312 137.332031 "/>
<path style="fill:none;stroke-width:1;stroke-linecap:butt;stroke-linejoin:miter;stroke:rgb(26.666667%,26.666667%,26.666667%);stroke-opacity:1;stroke-miterlimit:10;" d="M 379.21875 195.886719 L 266.28125 141.304688 "/>
<path style=" stroke:none;fill-rule:nonzero;fill:rgb(26.666667%,26.666667%,26.666667%);fill-opacity:1;" d="M 253.433594 135.09375 L 268.296875 137.128906 L 264.261719 145.476562 L 253.433594 135.09375 "/>
<path style="fill:none;stroke-width:1;stroke-linecap:butt;stroke-linejoin:miter;stroke:rgb(26.666667%,26.666667%,26.666667%);stroke-opacity:1;stroke-miterlimit:10;" d="M 379.21875 195.886719 L 240.375 162.707031 "/>
<path style=" stroke:none;fill-rule:nonzero;fill:rgb(26.666667%,26.666667%,26.666667%);fill-opacity:1;" d="M 226.5 159.390625 L 241.449219 158.199219 L 239.296875 167.214844 L 226.5 159.390625 "/>
<path style="fill:none;stroke-width:1;stroke-linecap:butt;stroke-linejoin:miter;stroke:rgb(26.666667%,26.666667%,26.666667%);stroke-opacity:1;stroke-miterlimit:10;" d="M 358.996094 104.542969 L 239.535156 148.660156 "/>
<path style=" stroke:none;fill-rule:nonzero;fill:rgb(26.666667%,26.666667%,26.666667%);fill-opacity:1;" d="M 226.152344 153.605469 L 237.929688 144.3125 L 241.140625 153.007812 L 226.152344 153.605469 "/>
<path style="fill:none;stroke-width:1;stroke-linecap:butt;stroke-linejoin:miter;stroke:rgb(26.666667%,26.666667%,26.666667%);stroke-opacity:1;stroke-miterlimit:10;" d="M 329.449219 269.410156 L 233.957031 174.199219 "/>
<path style=" stroke:none;fill-rule:nonzero;fill:rgb(26.666667%,26.666667%,26.666667%);fill-opacity:1;" d="M 223.855469 164.128906 L 237.230469 170.917969 L 230.683594 177.484375 L 223.855469 164.128906 "/>
<path style="fill:none;stroke-width:1;stroke-linecap:butt;stroke-linejoin:miter;stroke:rgb(26.666667%,26.666667%,26.666667%);stroke-opacity:1;stroke-miterlimit:10;" d="M 264.777344 20 L 248.816406 106.878906 "/>
<path style=" stroke:none;fill-rule:nonzero;fill:rgb(26.666667%,26.666667%,26.666667%);fill-opacity:1;" d="M 246.238281 120.910156 L 244.257812 106.039062 L 253.375 107.714844 L 246.238281 120.910156 "/>
<path style="fill:none;stroke-width:1;stroke-linecap:butt;stroke-linejoin:miter;stroke:rgb(26.666667%,26.666667%,26.666667%);stroke-opacity:1;stroke-miterlimit:10;" d="M 264.777344 20 L 224.792969 134.167969 "/>
<path style=" stroke:none;fill-rule:nonzero;fill:rgb(26.666667%,26.666667%,26.666667%);fill-opacity:1;" d="M 220.078125 147.628906 L 220.417969 132.632812 L 229.167969 135.699219 L 220.078125 147.628906 "/>
<path style="fill:none;stroke-width:1;stroke-linecap:butt;stroke-linejoin:miter;stroke:rgb(26.666667%,26.666667%,26.666667%);stroke-opacity:1;stroke-miterlimit:10;" d="M 108.617188 69.410156 L 222.316406 120.757812 "/>
<path style=" stroke:none;fill-rule:nonzero;fill:rgb(26.666667%,26.666667%,26.666667%);fill-opacity:1;" d="M 235.316406 126.628906 L 220.410156 124.980469 L 224.222656 116.53125 L 235.316406 126.628906 "/>
<path style="fill:none;stroke-width:1;stroke-linecap:butt;stroke-linejoin:miter;stroke:rgb(26.666667%,26.666667%,26.666667%);stroke-opacity:1;stroke-miterlimit:10;" d="M 108.617188 69.410156 L 197.921875 141.789062 "/>
<path style=" stroke:none;fill-rule:nonzero;fill:rgb(26.666667%,26.666667%,26.666667%);fill-opacity:1;" d="M 209.003906 150.773438 L 195 145.390625 L 200.839844 138.1875 L 209.003906 150.773438 "/>
<path style="fill:none;stroke-width:1;stroke-linecap:butt;stroke-linejoin:miter;stroke:rgb(26.666667%,26.666667%,26.666667%);stroke-opacity:1;stroke-miterlimit:10;" d="M 207.582031 23.066406 L 236.574219 107.785156 "/>
<path style=" stroke:none;fill-rule:nonzero;fill:rgb(26.666667%,26.666667%,26.666667%);fill-opacity:1;" d="M 241.195312 121.28125 L 232.1875 109.285156 L 240.960938 106.285156 L 241.195312 121.28125 "/>
<path style="fill:none;stroke-width:1;stroke-linecap:butt;stroke-linejoin:miter;stroke:rgb(26.666667%,26.666667%,26.666667%);stroke-opacity:1;stroke-miterlimit:10;" d="M 207.582031 23.066406 L 215.113281 132.859375 "/>
<path style=" stroke:none;fill-rule:nonzero;fill:rgb(26.666667%,26.666667%,26.666667%);fill-opacity:1;" d="M 216.085938 147.089844 L 210.488281 133.175781 L 219.734375 132.542969 L 216.085938 147.089844 "/>
<path style="fill:none;stroke-width:1;stroke-linecap:butt;stroke-linejoin:miter;stroke:rgb(26.666667%,26.666667%,26.666667%);stroke-opacity:1;stroke-miterlimit:10;" d="M 291.527344 281.308594 L 229.28125 177.859375 "/>
<path style=" stroke:none;fill-rule:nonzero;fill:rgb(26.666667%,26.666667%,26.666667%);fill-opacity:1;" d="M 221.925781 165.636719 L 233.253906 175.472656 L 225.3125 180.25 L 221.925781 165.636719 "/>
<path style="fill:none;stroke-width:1;stroke-linecap:butt;stroke-linejoin:miter;stroke:rgb(26.666667%,26.666667%,26.666667%);stroke-opacity:1;stroke-miterlimit:10;" d="M 320.355469 29.617188 L 259 111.339844 "/>
<path style=" stroke:none;fill-rule:nonzero;fill:rgb(26.666667%,26.666667%,26.666667%);fill-opacity:1;" d="M 250.433594 122.746094 L 255.292969 108.554688 L 262.707031 114.121094 L 250.433594 122.746094 "/>
<path style="fill:none;stroke-width:1;stroke-linecap:butt;stroke-linejoin:miter;stroke:rgb(26.666667%,26.666667%,26.666667%);stroke-opacity:1;stroke-miterlimit:10;" d="M 320.355469 29.617188 L 232.078125 138.238281 "/>
<path style=" stroke:none;fill-rule:nonzero;fill:rgb(26.666667%,26.666667%,26.666667%);fill-opacity:1;" d="M 223.078125 149.308594 L 228.480469 135.3125 L 235.671875 141.160156 L 223.078125 149.308594 "/>
<path style="fill:none;stroke-width:1;stroke-linecap:butt;stroke-linejoin:miter;stroke:rgb(26.666667%,26.666667%,26.666667%);stroke-opacity:1;stroke-miterlimit:10;" d="M 154.035156 40.25 L 227.28125 113.574219 "/>
<path style=" stroke:none;fill-rule:nonzero;fill:rgb(26.666667%,26.666667%,26.666667%);fill-opacity:1;" d="M 237.363281 123.667969 L 224.003906 116.851562 L 230.5625 110.300781 L 237.363281 123.667969 "/>
<path style="fill:none;stroke-width:1;stroke-linecap:butt;stroke-linejoin:miter;stroke:rgb(26.666667%,26.666667%,26.666667%);stroke-opacity:1;stroke-miterlimit:10;" d="M 154.035156 40.25 L 205.292969 135.691406 "/>
<path style=" stroke:none;fill-rule:nonzero;fill:rgb(26.666667%,26.666667%,26.666667%);fill-opacity:1;" d="M 212.039062 148.257812 L 201.207031 137.882812 L 209.375 133.496094 L 212.039062 148.257812 "/>
<path style="fill:none;stroke-width:1;stroke-linecap:butt;stroke-linejoin:miter;stroke:rgb(26.666667%,26.666667%,26.666667%);stroke-opacity:1;stroke-miterlimit:10;" d="M 70.226562 202.511719 L 49.199219 306.742188 "/>
<path style=" stroke:none;fill-rule:nonzero;fill:rgb(26.666667%,26.666667%,26.666667%);fill-opacity:1;" d="M 46.375 320.726562 L 44.65625 305.824219 L 53.742188 307.660156 L 46.375 320.726562 "/>
<path style="fill:none;stroke-width:1;stroke-linecap:butt;stroke-linejoin:miter;stroke:rgb(26.666667%,26.666667%,26.666667%);stroke-opacity:1;stroke-miterlimit:10;" d="M 70.226562 202.511719 L 130.117188 252.394531 "/>
<path style=" stroke:none;fill-rule:nonzero;fill:rgb(26.666667%,26.666667%,26.666667%);fill-opacity:1;" d="M 141.078125 261.523438 L 127.152344 255.957031 L 133.085938 248.832031 L 141.078125 261.523438 "/>
<path style="fill:none;stroke-width:1;stroke-linecap:butt;stroke-linejoin:miter;stroke:rgb(26.666667%,26.666667%,26.666667%);stroke-opacity:1;stroke-miterlimit:10;" d="M 70.226562 202.511719 L 85.507812 144.839844 "/>
<path style=" stroke:none;fill-rule:nonzero;fill:rgb(26.666667%,26.666667%,26.666667%);fill-opacity:1;" d="M 89.160156 131.050781 L 89.988281 146.027344 L 81.027344 143.652344 L 89.160156 131.050781 "/>
<path style="fill:none;stroke-width:1;stroke-linecap:butt;stroke-linejoin:miter;stroke:rgb(26.666667%,26.666667%,26.666667%);stroke-opacity:1;stroke-miterlimit:10;" d="M 70.226562 202.511719 L 221.996094 139.988281 "/>
<path style=" stroke:none;fill-rule:nonzero;fill:rgb(26.666667%,26.666667%,26.666667%);fill-opacity:1;" d="M 235.183594 134.554688 L 223.761719 144.273438 L 220.230469 135.703125 L 235.183594 134.554688 "/>
<path style="fill:none;stroke-width:1;stroke-linecap:butt;stroke-linejoin:miter;stroke:rgb(26.666667%,26.666667%,26.666667%);stroke-opacity:1;stroke-miterlimit:10;" d="M 70.226562 202.511719 L 193.59375 164.253906 "/>
<path style=" stroke:none;fill-rule:nonzero;fill:rgb(26.666667%,26.666667%,26.666667%);fill-opacity:1;" d="M 207.222656 160.03125 L 194.96875 168.683594 L 192.222656 159.828125 L 207.222656 160.03125 "/>
<path style="fill:none;stroke-width:1;stroke-linecap:butt;stroke-linejoin:miter;stroke:rgb(26.666667%,26.666667%,26.666667%);stroke-opacity:1;stroke-miterlimit:10;" d="M 106.382812 388.046875 L 62.1875 347.035156 "/>
<path style=" stroke:none;fill-rule:nonzero;fill:rgb(26.666667%,26.666667%,26.666667%);fill-opacity:1;" d="M 51.730469 337.332031 L 65.339844 343.636719 L 59.035156 350.433594 L 51.730469 337.332031 "/>
<path style="fill:none;stroke-width:1;stroke-linecap:butt;stroke-linejoin:miter;stroke:rgb(26.666667%,26.666667%,26.666667%);stroke-opacity:1;stroke-miterlimit:10;" d="M 106.382812 388.046875 L 140.691406 290.804688 "/>
<path style=" stroke:none;fill-rule:nonzero;fill:rgb(26.666667%,26.666667%,26.666667%);fill-opacity:1;" d="M 145.4375 277.351562 L 145.0625 292.347656 L 136.320312 289.265625 L 145.4375 277.351562 "/>
<path style="fill:none;stroke-width:1;stroke-linecap:butt;stroke-linejoin:miter;stroke:rgb(26.666667%,26.666667%,26.666667%);stroke-opacity:1;stroke-miterlimit:10;" d="M 106.382812 388.046875 L 203.167969 313.40625 "/>
<path style=" stroke:none;fill-rule:nonzero;fill:rgb(26.666667%,26.666667%,26.666667%);fill-opacity:1;" d="M 214.464844 304.695312 L 206 317.078125 L 200.335938 309.734375 L 214.464844 304.695312 "/>
<path style="fill:none;stroke-width:1;stroke-linecap:butt;stroke-linejoin:miter;stroke:rgb(26.666667%,26.666667%,26.666667%);stroke-opacity:1;stroke-miterlimit:10;" d="M 44.398438 330.527344 L 198.5 302.871094 "/>
<path style=" stroke:none;fill-rule:nonzero;fill:rgb(26.666667%,26.666667%,26.666667%);fill-opacity:1;" d="M 212.539062 300.351562 L 199.316406 307.433594 L 197.679688 298.3125 L 212.539062 300.351562 "/>
<path style="fill:none;stroke-width:1;stroke-linecap:butt;stroke-linejoin:miter;stroke:rgb(26.666667%,26.666667%,26.666667%);stroke-opacity:1;stroke-miterlimit:10;" d="M 20 138.460938 L 68.113281 127.003906 "/>
<path style=" stroke:none;fill-rule:nonzero;fill:rgb(26.666667%,26.666667%,26.666667%);fill-opacity:1;" d="M 81.992188 123.699219 L 69.1875 131.511719 L 67.042969 122.496094 L 81.992188 123.699219 "/>
<path style="fill:none;stroke-width:1;stroke-linecap:butt;stroke-linejoin:miter;stroke:rgb(26.666667%,26.666667%,26.666667%);stroke-opacity:1;stroke-miterlimit:10;" d="M 20 138.460938 L 192.613281 154.785156 "/>
<path style=" stroke:none;fill-rule:nonzero;fill:rgb(26.666667%,26.666667%,26.666667%);fill-opacity:1;" d="M 206.816406 156.125 L 192.175781 159.398438 L 193.050781 150.167969 L 206.816406 156.125 "/>
<path style="fill:none;stroke-width:1;stroke-linecap:butt;stroke-linejoin:miter;stroke:rgb(26.666667%,26.666667%,26.666667%);stroke-opacity:1;stroke-miterlimit:10;" d="M 148.765625 267.921875 L 204.082031 177.75 "/>
<path style=" stroke:none;fill-rule:nonzero;fill:rgb(26.666667%,26.666667%,26.666667%);fill-opacity:1;" d="M 211.542969 165.59375 L 208.035156 180.175781 L 200.132812 175.328125 L 211.542969 165.59375 "/>
<path style="fill:none;stroke-width:1;stroke-linecap:butt;stroke-linejoin:miter;stroke:rgb(26.666667%,26.666667%,26.666667%);stroke-opacity:1;stroke-miterlimit:10;" d="M 176.875 227.425781 L 209.308594 278.144531 "/>
<path style=" stroke:none;fill-rule:nonzero;fill:rgb(26.666667%,26.666667%,26.666667%);fill-opacity:1;" d="M 216.996094 290.160156 L 205.40625 280.640625 L 213.214844 275.648438 L 216.996094 290.160156 "/>
<path style="fill:none;stroke-width:1;stroke-linecap:butt;stroke-linejoin:miter;stroke:rgb(26.666667%,26.666667%,26.666667%);stroke-opacity:1;stroke-miterlimit:10;" d="M 176.875 227.425781 L 204.800781 178.175781 "/>
<path style=" stroke:none;fill-rule:nonzero;fill:rgb(26.666667%,26.666667%,26.666667%);fill-opacity:1;" d="M 211.839844 165.765625 L 208.835938 180.460938 L 200.769531 175.890625 L 211.839844 165.765625 "/>
<path style="fill:none;stroke-width:1;stroke-linecap:butt;stroke-linejoin:miter;stroke:rgb(26.666667%,26.666667%,26.666667%);stroke-opacity:1;stroke-miterlimit:10;" d="M 91.722656 121.382812 L 220.210938 129.257812 "/>
<path style=" stroke:none;fill-rule:nonzero;fill:rgb(26.666667%,26.666667%,26.666667%);fill-opacity:1;" d="M 234.449219 130.132812 L 219.925781 133.886719 L 220.496094 124.632812 L 234.449219 130.132812 "/>
<path style="fill:none;stroke-width:1;stroke-linecap:butt;stroke-linejoin:miter;stroke:rgb(26.666667%,26.666667%,26.666667%);stroke-opacity:1;stroke-miterlimit:10;" d="M 91.722656 121.382812 L 193.4375 150.410156 "/>
<path style=" stroke:none;fill-rule:nonzero;fill:rgb(26.666667%,26.666667%,26.666667%);fill-opacity:1;" d="M 207.15625 154.324219 L 192.164062 154.867188 L 194.710938 145.953125 L 207.15625 154.324219 "/>
<path style="fill:none;stroke-width:1;stroke-linecap:butt;stroke-linejoin:miter;stroke:rgb(26.666667%,26.666667%,26.666667%);stroke-opacity:1;stroke-miterlimit:10;" d="M 397.828125 127.6875 L 268.691406 130.261719 "/>
<path style=" stroke:none;fill-rule:nonzero;fill:rgb(26.666667%,26.666667%,26.666667%);fill-opacity:1;" d="M 254.429688 130.542969 L 268.601562 125.625 L 268.785156 134.894531 L 254.429688 130.542969 "/>
<path style="fill:none;stroke-width:1;stroke-linecap:butt;stroke-linejoin:miter;stroke:rgb(26.666667%,26.666667%,26.666667%);stroke-opacity:1;stroke-miterlimit:10;" d="M 397.828125 127.6875 L 240.722656 153.179688 "/>
<path style=" stroke:none;fill-rule:nonzero;fill:rgb(26.666667%,26.666667%,26.666667%);fill-opacity:1;" d="M 226.644531 155.464844 L 239.980469 148.605469 L 241.46875 157.757812 L 226.644531 155.464844 "/>
<path style="fill:none;stroke-width:1;stroke-linecap:butt;stroke-linejoin:miter;stroke:rgb(26.666667%,26.666667%,26.666667%);stroke-opacity:1;stroke-miterlimit:10;" d="M 222.382812 298.585938 L 241.269531 154.804688 "/>
<path style=" stroke:none;fill-rule:nonzero;fill:rgb(26.666667%,26.666667%,26.666667%);fill-opacity:1;" d="M 243.128906 140.660156 L 245.867188 155.40625 L 236.675781 154.199219 L 243.128906 140.660156 "/>
<path style="fill:none;stroke-width:1;stroke-linecap:butt;stroke-linejoin:miter;stroke:rgb(26.666667%,26.666667%,26.666667%);stroke-opacity:1;stroke-miterlimit:10;" d="M 222.382812 298.585938 L 217.734375 181.316406 "/>
<path style=" stroke:none;fill-rule:nonzero;fill:rgb(26.666667%,26.666667%,26.666667%);fill-opacity:1;" d="M 217.167969 167.058594 L 222.363281 181.132812 L 213.101562 181.5 L 217.167969 167.058594 "/>
<path style="fill:none;stroke-width:1;stroke-linecap:butt;stroke-linejoin:miter;stroke:rgb(26.666667%,26.666667%,26.666667%);stroke-opacity:1;stroke-miterlimit:10;" d="M 244.429688 130.742188 L 234.347656 140.339844 "/>
<path style=" stroke:none;fill-rule:nonzero;fill:rgb(26.666667%,26.666667%,26.666667%);fill-opacity:1;" d="M 224.015625 150.175781 L 231.152344 136.980469 L 237.546875 143.695312 L 224.015625 150.175781 "/>
<path style="fill-rule:nonzero;fill:rgb(100%,0%,0%);fill-opacity:1;stroke-width:1;stroke-linecap:butt;stroke-linejoin:miter;stroke:rgb(0%,0%,0%);stroke-opacity:1;stroke-miterlimit:10;" d="M 423.800781 345.929688 C 423.800781 351.453125 419.324219 355.929688 413.800781 355.929688 C 408.277344 355.929688 403.800781 351.453125 403.800781 345.929688 C 403.800781 340.40625 408.277344 335.929688 413.800781 335.929688 C 419.324219 335.929688 423.800781 340.40625 423.800781 345.929688 "/>
<path style="fill-rule:nonzero;fill:rgb(100%,0%,0%);fill-opacity:1;stroke-width:1;stroke-linecap:butt;stroke-linejoin:miter;stroke:rgb(0%,0%,0%);stroke-opacity:1;stroke-miterlimit:10;" d="M 452.027344 263.800781 C 452.027344 269.324219 447.546875 273.800781 442.027344 273.800781 C 436.503906 273.800781 432.027344 269.324219 432.027344 263.800781 C 432.027344 258.277344 436.503906 253.800781 442.027344 253.800781 C 447.546875 253.800781 452.027344 258.277344 452.027344 263.800781 "/>
<path style="fill-rule:nonzero;fill:rgb(100%,0%,0%);fill-opacity:1;stroke-width:1;stroke-linecap:butt;stroke-linejoin:miter;stroke:rgb(0%,0%,0%);stroke-opacity:1;stroke-miterlimit:10;" d="M 338.539062 230.632812 C 338.539062 236.15625 334.0625 240.632812 328.539062 240.632812 C 323.015625 240.632812 318.539062 236.15625 318.539062 230.632812 C 318.539062 225.113281 323.015625 220.632812 328.539062 220.632812 C 334.0625 220.632812 338.539062 225.113281 338.539062 230.632812 "/>
<path style="fill-rule:nonzero;fill:rgb(100%,0%,0%);fill-opacity:1;stroke-width:1;stroke-linecap:butt;stroke-linejoin:miter;stroke:rgb(0%,0%,0%);stroke-opacity:1;stroke-miterlimit:10;" d="M 364.4375 346.964844 C 364.4375 352.488281 359.960938 356.964844 354.4375 356.964844 C 348.914062 356.964844 344.4375 352.488281 344.4375 346.964844 C 344.4375 341.441406 348.914062 336.964844 354.4375 336.964844 C 359.960938 336.964844 364.4375 341.441406 364.4375 346.964844 "/>
<path style="fill-rule:nonzero;fill:rgb(100%,0%,0%);fill-opacity:1;stroke-width:1;stroke-linecap:butt;stroke-linejoin:miter;stroke:rgb(0%,0%,0%);stroke-opacity:1;stroke-miterlimit:10;" d="M 512.054688 422.628906 C 512.054688 428.148438 507.578125 432.628906 502.054688 432.628906 C 496.53125 432.628906 492.054688 428.148438 492.054688 422.628906 C 492.054688 417.105469 496.53125 412.628906 502.054688 412.628906 C 507.578125 412.628906 512.054688 417.105469 512.054688 422.628906 "/>
<path style="fill-rule:nonzero;fill:rgb(100%,0%,0%);fill-opacity:1;stroke-width:1;stroke-linecap:butt;stroke-linejoin:miter;stroke:rgb(0%,0%,0%);stroke-opacity:1;stroke-miterlimit:10;" d="M 513.441406 461.144531 C 513.441406 466.667969 508.964844 471.144531 503.441406 471.144531 C 497.917969 471.144531 493.441406 466.667969 493.441406 461.144531 C 493.441406 455.621094 497.917969 451.144531 503.441406 451.144531 C 508.964844 451.144531 513.441406 455.621094 513.441406 461.144531 "/>
<path style="fill-rule:nonzero;fill:rgb(100%,0%,0%);fill-opacity:1;stroke-width:1;stroke-linecap:butt;stroke-linejoin:miter;stroke:rgb(0%,0%,0%);stroke-opacity:1;stroke-miterlimit:10;" d="M 433.242188 484.585938 C 433.242188 490.109375 428.765625 494.585938 423.242188 494.585938 C 417.71875 494.585938 413.242188 490.109375 413.242188 484.585938 C 413.242188 479.0625 417.71875 474.585938 423.242188 474.585938 C 428.765625 474.585938 433.242188 479.0625 433.242188 484.585938 "/>
<path style="fill-rule:nonzero;fill:rgb(100%,0%,0%);fill-opacity:1;stroke-width:1;stroke-linecap:butt;stroke-linejoin:miter;stroke:rgb(0%,0%,0%);stroke-opacity:1;stroke-miterlimit:10;" d="M 501.570312 249.824219 C 501.570312 255.347656 497.09375 259.824219 491.570312 259.824219 C 486.046875 259.824219 481.570312 255.347656 481.570312 249.824219 C 481.570312 244.304688 486.046875 239.824219 491.570312 239.824219 C 497.09375 239.824219 501.570312 244.304688 501.570312 249.824219 "/>
<path style="fill-rule:nonzero;fill:rgb(100%,0%,0%);fill-opacity:1;stroke-width:1;stroke-linecap:butt;stroke-linejoin:miter;stroke:rgb(0%,0%,0%);stroke-opacity:1;stroke-miterlimit:10;" d="M 389.21875 195.886719 C 389.21875 201.410156 384.742188 205.886719 379.21875 205.886719 C 373.695312 205.886719 369.21875 201.410156 369.21875 195.886719 C 369.21875 190.363281 373.695312 185.886719 379.21875 185.886719 C 384.742188 185.886719 389.21875 190.363281 389.21875 195.886719 "/>
<path style="fill-rule:nonzero;fill:rgb(100%,0%,0%);fill-opacity:1;stroke-width:1;stroke-linecap:butt;stroke-linejoin:miter;stroke:rgb(0%,0%,0%);stroke-opacity:1;stroke-miterlimit:10;" d="M 368.996094 104.542969 C 368.996094 110.066406 364.519531 114.542969 358.996094 114.542969 C 353.472656 114.542969 348.996094 110.066406 348.996094 104.542969 C 348.996094 99.019531 353.472656 94.542969 358.996094 94.542969 C 364.519531 94.542969 368.996094 99.019531 368.996094 104.542969 "/>
<path style="fill-rule:nonzero;fill:rgb(100%,0%,0%);fill-opacity:1;stroke-width:1;stroke-linecap:butt;stroke-linejoin:miter;stroke:rgb(0%,0%,0%);stroke-opacity:1;stroke-miterlimit:10;" d="M 582.6875 388.078125 C 582.6875 393.597656 578.210938 398.078125 572.6875 398.078125 C 567.164062 398.078125 562.6875 393.597656 562.6875 388.078125 C 562.6875 382.554688 567.164062 378.078125 572.6875 378.078125 C 578.210938 378.078125 582.6875 382.554688 582.6875 388.078125 "/>
<path style="fill-rule:nonzero;fill:rgb(100%,0%,0%);fill-opacity:1;stroke-width:1;stroke-linecap:butt;stroke-linejoin:miter;stroke:rgb(0%,0%,0%);stroke-opacity:1;stroke-miterlimit:10;" d="M 304.730469 470.597656 C 304.730469 476.121094 300.253906 480.597656 294.730469 480.597656 C 289.210938 480.597656 284.730469 476.121094 284.730469 470.597656 C 284.730469 465.074219 289.210938 460.597656 294.730469 460.597656 C 300.253906 460.597656 304.730469 465.074219 304.730469 470.597656 "/>
<path style="fill-rule:nonzero;fill:rgb(100%,0%,0%);fill-opacity:1;stroke-width:1;stroke-linecap:butt;stroke-linejoin:miter;stroke:rgb(0%,0%,0%);stroke-opacity:1;stroke-miterlimit:10;" d="M 358.929688 457.066406 C 358.929688 462.589844 354.453125 467.066406 348.929688 467.066406 C 343.40625 467.066406 338.929688 462.589844 338.929688 457.066406 C 338.929688 451.542969 343.40625 447.066406 348.929688 447.066406 C 354.453125 447.066406 358.929688 451.542969 358.929688 457.066406 "/>
<path style="fill-rule:nonzero;fill:rgb(100%,0%,0%);fill-opacity:1;stroke-width:1;stroke-linecap:butt;stroke-linejoin:miter;stroke:rgb(0%,0%,0%);stroke-opacity:1;stroke-miterlimit:10;" d="M 339.449219 269.410156 C 339.449219 274.929688 334.972656 279.410156 329.449219 279.410156 C 323.925781 279.410156 319.449219 274.929688 319.449219 269.410156 C 319.449219 263.886719 323.925781 259.410156 329.449219 259.410156 C 334.972656 259.410156 339.449219 263.886719 339.449219 269.410156 "/>
<path style="fill-rule:nonzero;fill:rgb(100%,0%,0%);fill-opacity:1;stroke-width:1;stroke-linecap:butt;stroke-linejoin:miter;stroke:rgb(0%,0%,0%);stroke-opacity:1;stroke-miterlimit:10;" d="M 274.777344 20 C 274.777344 25.523438 270.300781 30 264.777344 30 C 259.253906 30 254.777344 25.523438 254.777344 20 C 254.777344 14.476562 259.253906 10 264.777344 10 C 270.300781 10 274.777344 14.476562 274.777344 20 "/>
<path style="fill-rule:nonzero;fill:rgb(100%,0%,0%);fill-opacity:1;stroke-width:1;stroke-linecap:butt;stroke-linejoin:miter;stroke:rgb(0%,0%,0%);stroke-opacity:1;stroke-miterlimit:10;" d="M 118.617188 69.410156 C 118.617188 74.933594 114.140625 79.410156 108.617188 79.410156 C 103.09375 79.410156 98.617188 74.933594 98.617188 69.410156 C 98.617188 63.886719 103.09375 59.410156 108.617188 59.410156 C 114.140625 59.410156 118.617188 63.886719 118.617188 69.410156 "/>
<path style="fill-rule:nonzero;fill:rgb(100%,0%,0%);fill-opacity:1;stroke-width:1;stroke-linecap:butt;stroke-linejoin:miter;stroke:rgb(0%,0%,0%);stroke-opacity:1;stroke-miterlimit:10;" d="M 532.242188 580 C 532.242188 585.523438 527.765625 590 522.242188 590 C 516.71875 590 512.242188 585.523438 512.242188 580 C 512.242188 574.476562 516.71875 570 522.242188 570 C 527.765625 570 532.242188 574.476562 532.242188 580 "/>
<path style="fill-rule:nonzero;fill:rgb(100%,0%,0%);fill-opacity:1;stroke-width:1;stroke-linecap:butt;stroke-linejoin:miter;stroke:rgb(0%,0%,0%);stroke-opacity:1;stroke-miterlimit:10;" d="M 590 270.902344 C 590 276.421875 585.523438 280.902344 580 280.902344 C 574.476562 280.902344 570 276.421875 570 270.902344 C 570 265.378906 574.476562 260.902344 580 260.902344 C 585.523438 260.902344 590 265.378906 590 270.902344 "/>
<path style="fill-rule:nonzero;fill:rgb(100%,0%,0%);fill-opacity:1;stroke-width:1;stroke-linecap:butt;stroke-linejoin:miter;stroke:rgb(0%,0%,0%);stroke-opacity:1;stroke-miterlimit:10;" d="M 217.582031 23.066406 C 217.582031 28.589844 213.105469 33.066406 207.582031 33.066406 C 202.058594 33.066406 197.582031 28.589844 197.582031 23.066406 C 197.582031 17.542969 202.058594 13.066406 207.582031 13.066406 C 213.105469 13.066406 217.582031 17.542969 217.582031 23.066406 "/>
<path style="fill-rule:nonzero;fill:rgb(100%,0%,0%);fill-opacity:1;stroke-width:1;stroke-linecap:butt;stroke-linejoin:miter;stroke:rgb(0%,0%,0%);stroke-opacity:1;stroke-miterlimit:10;" d="M 301.527344 281.308594 C 301.527344 286.832031 297.050781 291.308594 291.527344 291.308594 C 286.003906 291.308594 281.527344 286.832031 281.527344 281.308594 C 281.527344 275.785156 286.003906 271.308594 291.527344 271.308594 C 297.050781 271.308594 301.527344 275.785156 301.527344 281.308594 "/>
<path style="fill-rule:nonzero;fill:rgb(100%,0%,0%);fill-opacity:1;stroke-width:1;stroke-linecap:butt;stroke-linejoin:miter;stroke:rgb(0%,0%,0%);stroke-opacity:1;stroke-miterlimit:10;" d="M 330.355469 29.617188 C 330.355469 35.136719 325.878906 39.617188 320.355469 39.617188 C 314.832031 39.617188 310.355469 35.136719 310.355469 29.617188 C 310.355469 24.09375 314.832031 19.617188 320.355469 19.617188 C 325.878906 19.617188 330.355469 24.09375 330.355469 29.617188 "/>
<path style="fill-rule:nonzero;fill:rgb(100%,0%,0%);fill-opacity:1;stroke-width:1;stroke-linecap:butt;stroke-linejoin:miter;stroke:rgb(0%,0%,0%);stroke-opacity:1;stroke-miterlimit:10;" d="M 580.867188 319.085938 C 580.867188 324.609375 576.390625 329.085938 570.867188 329.085938 C 565.347656 329.085938 560.867188 324.609375 560.867188 319.085938 C 560.867188 313.566406 565.347656 309.085938 570.867188 309.085938 C 576.390625 309.085938 580.867188 313.566406 580.867188 319.085938 "/>
<path style="fill-rule:nonzero;fill:rgb(100%,0%,0%);fill-opacity:1;stroke-width:1;stroke-linecap:butt;stroke-linejoin:miter;stroke:rgb(0%,0%,0%);stroke-opacity:1;stroke-miterlimit:10;" d="M 164.035156 40.25 C 164.035156 45.773438 159.558594 50.25 154.035156 50.25 C 148.511719 50.25 144.035156 45.773438 144.035156 40.25 C 144.035156 34.726562 148.511719 30.25 154.035156 30.25 C 159.558594 30.25 164.035156 34.726562 164.035156 40.25 "/>
<path style="fill-rule:nonzero;fill:rgb(100%,0%,0%);fill-opacity:1;stroke-width:1;stroke-linecap:butt;stroke-linejoin:miter;stroke:rgb(0%,0%,0%);stroke-opacity:1;stroke-miterlimit:10;" d="M 80.226562 202.511719 C 80.226562 208.035156 75.75 212.511719 70.226562 212.511719 C 64.703125 212.511719 60.226562 208.035156 60.226562 202.511719 C 60.226562 196.988281 64.703125 192.511719 70.226562 192.511719 C 75.75 192.511719 80.226562 196.988281 80.226562 202.511719 "/>
<path style="fill-rule:nonzero;fill:rgb(100%,0%,0%);fill-opacity:1;stroke-width:1;stroke-linecap:butt;stroke-linejoin:miter;stroke:rgb(0%,0%,0%);stroke-opacity:1;stroke-miterlimit:10;" d="M 116.382812 388.046875 C 116.382812 393.570312 111.90625 398.046875 106.382812 398.046875 C 100.863281 398.046875 96.382812 393.570312 96.382812 388.046875 C 96.382812 382.527344 100.863281 378.046875 106.382812 378.046875 C 111.90625 378.046875 116.382812 382.527344 116.382812 388.046875 "/>
<path style="fill-rule:nonzero;fill:rgb(100%,0%,0%);fill-opacity:1;stroke-width:1;stroke-linecap:butt;stroke-linejoin:miter;stroke:rgb(0%,0%,0%);stroke-opacity:1;stroke-miterlimit:10;" d="M 54.398438 330.527344 C 54.398438 336.050781 49.921875 340.527344 44.398438 340.527344 C 38.875 340.527344 34.398438 336.050781 34.398438 330.527344 C 34.398438 325.007812 38.875 320.527344 44.398438 320.527344 C 49.921875 320.527344 54.398438 325.007812 54.398438 330.527344 "/>
<path style="fill-rule:nonzero;fill:rgb(100%,0%,0%);fill-opacity:1;stroke-width:1;stroke-linecap:butt;stroke-linejoin:miter;stroke:rgb(0%,0%,0%);stroke-opacity:1;stroke-miterlimit:10;" d="M 30 138.460938 C 30 143.984375 25.523438 148.460938 20 148.460938 C 14.476562 148.460938 10 143.984375 10 138.460938 C 10 132.9375 14.476562 128.460938 20 128.460938 C 25.523438 128.460938 30 132.9375 30 138.460938 "/>
<path style="fill-rule:nonzero;fill:rgb(100%,0%,0%);fill-opacity:1;stroke-width:1;stroke-linecap:butt;stroke-linejoin:miter;stroke:rgb(0%,0%,0%);stroke-opacity:1;stroke-miterlimit:10;" d="M 158.765625 267.921875 C 158.765625 273.445312 154.285156 277.921875 148.765625 277.921875 C 143.242188 277.921875 138.765625 273.445312 138.765625 267.921875 C 138.765625 262.398438 143.242188 257.921875 148.765625 257.921875 C 154.285156 257.921875 158.765625 262.398438 158.765625 267.921875 "/>
<path style="fill-rule:nonzero;fill:rgb(100%,0%,0%);fill-opacity:1;stroke-width:1;stroke-linecap:butt;stroke-linejoin:miter;stroke:rgb(0%,0%,0%);stroke-opacity:1;stroke-miterlimit:10;" d="M 186.875 227.425781 C 186.875 232.949219 182.394531 237.425781 176.875 237.425781 C 171.351562 237.425781 166.875 232.949219 166.875 227.425781 C 166.875 221.902344 171.351562 217.425781 176.875 217.425781 C 182.394531 217.425781 186.875 221.902344 186.875 227.425781 "/>
<path style="fill-rule:nonzero;fill:rgb(100%,0%,0%);fill-opacity:1;stroke-width:1;stroke-linecap:butt;stroke-linejoin:miter;stroke:rgb(0%,0%,0%);stroke-opacity:1;stroke-miterlimit:10;" d="M 101.722656 121.382812 C 101.722656 126.90625 97.242188 131.382812 91.722656 131.382812 C 86.199219 131.382812 81.722656 126.90625 81.722656 121.382812 C 81.722656 115.859375 86.199219 111.382812 91.722656 111.382812 C 97.242188 111.382812 101.722656 115.859375 101.722656 121.382812 "/>
<path style="fill-rule:nonzero;fill:rgb(100%,0%,0%);fill-opacity:1;stroke-width:1;stroke-linecap:butt;stroke-linejoin:miter;stroke:rgb(0%,0%,0%);stroke-opacity:1;stroke-miterlimit:10;" d="M 407.828125 127.6875 C 407.828125 133.210938 403.351562 137.6875 397.828125 137.6875 C 392.304688 137.6875 387.828125 133.210938 387.828125 127.6875 C 387.828125 122.164062 392.304688 117.6875 397.828125 117.6875 C 403.351562 117.6875 407.828125 122.164062 407.828125 127.6875 "/>
<path style="fill-rule:nonzero;fill:rgb(100%,0%,0%);fill-opacity:1;stroke-width:1;stroke-linecap:butt;stroke-linejoin:miter;stroke:rgb(0%,0%,0%);stroke-opacity:1;stroke-miterlimit:10;" d="M 232.382812 298.585938 C 232.382812 304.109375 227.90625 308.585938 222.382812 308.585938 C 216.859375 308.585938 212.382812 304.109375 212.382812 298.585938 C 212.382812 293.0625 216.859375 288.585938 222.382812 288.585938 C 227.90625 288.585938 232.382812 293.0625 232.382812 298.585938 "/>
<path style="fill-rule:nonzero;fill:rgb(100%,0%,0%);fill-opacity:1;stroke-width:1;stroke-linecap:butt;stroke-linejoin:miter;stroke:rgb(0%,0%,0%);stroke-opacity:1;stroke-miterlimit:10;" d="M 254.429688 130.742188 C 254.429688 136.265625 249.953125 140.742188 244.429688 140.742188 C 238.910156 140.742188 234.429688 136.265625 234.429688 130.742188 C 234.429688 125.222656 238.910156 120.742188 244.429688 120.742188 C 249.953125 120.742188 254.429688 125.222656 254.429688 130.742188 "/>
<path style="fill-rule:nonzero;fill:rgb(100%,0%,0%);fill-opacity:1;stroke-width:1;stroke-linecap:butt;stroke-linejoin:miter;stroke:rgb(0%,0%,0%);stroke-opacity:1;stroke-miterlimit:10;" d="M 226.773438 157.066406 C 226.773438 162.589844 222.292969 167.066406 216.773438 167.066406 C 211.25 167.066406 206.773438 162.589844 206.773438 157.066406 C 206.773438 151.546875 211.25 147.066406 216.773438 147.066406 C 222.292969 147.066406 226.773438 151.546875 226.773438 157.066406 "/>
</g>
</svg>
